G04 CAM350  V5.0 Date:  Thu Dec  3 11:13:46 2020 *
G04 Database: (Untitled) *
G04 Layer 1: c-0241-05-b_cu. *
%FSLAX46Y46*%
%MOMM*%
%SFA1.000B1.000*%

%MIA0B0*%
%IPPOS*%
%ADD11C,0.15000*%
%ADD12C,0.34000*%
%ADD13C,0.40000*%
%ADD15C,0.30000*%
%ADD16C,0.15000*%
%ADD17R,2.50000X2.50000*%
%ADD18C,2.50000*%
%ADD19R,0.80000X1.50000*%
%ADD20O,1.30000X0.60000*%
%ADD21R,0.72000X0.99000*%
%ADD22R,0.95000X1.45000*%
%ADD23R,0.25000X1.00000*%
%ADD24R,1.00000X0.25000*%
%ADD25O,4.00000X2.00000*%
%ADD26C,1.00000*%
%ADD27R,0.99000X0.72000*%
%ADD28C,1.57000*%
%ADD29R,1.57000X1.57000*%
%ADD30R,1.80000X1.05000*%
%ADD31R,1.05000X1.80000*%
%ADD32R,1.60000X3.20000*%
%ADD33R,1.45000X0.95000*%
%ADD34R,2.10000X2.10000*%
%ADD35R,3.20000X1.60000*%
%ADD36R,6.50000X7.00000*%
%ADD37R,1.20000X1.20000*%
%ADD38R,0.30000X1.20000*%
%ADD39C,1.70000*%
%ADD40R,1.60000X1.60000*%
%ADD41C,1.60000*%
%ADD42R,1.70000X1.70000*%
%ADD43C,1.70000*%
%ADD44O,1.60000X0.60000*%
%ADD45R,5.60000X2.10000*%
%ADD46R,1.75000X1.15000*%
%ADD47R,0.90000X1.20000*%
%ADD48C,1.20000*%
%ADD49O,0.60000X1.30000*%
%ADD50O,1.10000X1.60000*%
%ADD51R,1.00000X1.50000*%
%ADD52R,1.20000X1.50000*%
%ADD53R,2.00000X2.00000*%
%ADD54R,2.00000X1.30000*%
%ADD55R,2.50000X0.50000*%
%ADD56R,2.50000X2.00000*%
%ADD57O,0.80000X1.00000*%
%ADD58O,1.50000X2.00000*%
%ADD59R,2.20000X0.60000*%
%ADD60C,0.80000*%
%ADD61C,0.20000*%
%ADD62C,0.70000*%
%ADD63C,1.00000*%
%ADD64C,0.50000*%
%ADD65C,0.25000*%
%ADD66C,1.20000*%
%ADD67C,0.25400*%
%LNc-0241-05-b_cu.*%
G54D11*
%LPD*%
G36*
X46400000Y14400000D02*
G01X47600000D01*
Y10500000*
X46400000*
Y14400000*
G37*
G36*
X26400000D02*
G01X27600000D01*
Y10500000*
X26400000*
Y14400000*
G37*
G36*
X96950000Y30737500D02*
G01X96953986Y30783082D01*
X96965830Y30827280*
X96985168Y30868750*
X97011412Y30906230*
X97043768Y30938586*
X97081250Y30964830*
X97122718Y30984168*
X97166916Y30996012*
X97212500Y31000000*
X98787500*
X98833082Y30996012*
X98877280Y30984168*
X98918750Y30964830*
X98956230Y30938586*
X98988586Y30906230*
X99014830Y30868750*
X99034168Y30827280*
X99046012Y30783082*
X99050000Y30737500*
Y29162500*
X99046012Y29116916*
X99034168Y29072718*
X99014830Y29031250*
X98988586Y28993768*
X98956230Y28961412*
X98918750Y28935168*
X98877280Y28915830*
X98833082Y28903986*
X98787500Y28900000*
X97212500*
X97166916Y28903986*
X97122718Y28915830*
X97081250Y28935168*
X97043768Y28961412*
X97011412Y28993768*
X96985168Y29031250*
X96965830Y29072718*
X96953986Y29116916*
X96950000Y29162500*
Y30737500*
G37*
G36*
X66475000Y31518750D02*
G01X66476992Y31541540D01*
X66482914Y31563640*
X66492584Y31584374*
X66505706Y31603114*
X66521884Y31619292*
X66540624Y31632414*
X66561358Y31642084*
X66583458Y31648006*
X66606250Y31650000*
X67393750*
X67416540Y31648006*
X67438640Y31642084*
X67459374Y31632414*
X67478114Y31619292*
X67494292Y31603114*
X67507414Y31584374*
X67517084Y31563640*
X67523006Y31541540*
X67525000Y31518750*
Y29981250*
X67523006Y29958458*
X67517084Y29936358*
X67507414Y29915624*
X67494292Y29896884*
X67478114Y29880706*
X67459374Y29867584*
X67438640Y29857914*
X67416540Y29851992*
X67393750Y29850000*
X66606250*
X66583458Y29851992*
X66561358Y29857914*
X66540624Y29867584*
X66521884Y29880706*
X66505706Y29896884*
X66492584Y29915624*
X66482914Y29936358*
X66476992Y29958458*
X66475000Y29981250*
Y31518750*
G37*
G36*
X69475000D02*
G01X69476992Y31541540D01*
X69482914Y31563640*
X69492584Y31584374*
X69505706Y31603114*
X69521884Y31619292*
X69540624Y31632414*
X69561358Y31642084*
X69583458Y31648006*
X69606250Y31650000*
X70393750*
X70416540Y31648006*
X70438640Y31642084*
X70459374Y31632414*
X70478114Y31619292*
X70494292Y31603114*
X70507414Y31584374*
X70517084Y31563640*
X70523006Y31541540*
X70525000Y31518750*
Y29981250*
X70523006Y29958458*
X70517084Y29936358*
X70507414Y29915624*
X70494292Y29896884*
X70478114Y29880706*
X70459374Y29867584*
X70438640Y29857914*
X70416540Y29851992*
X70393750Y29850000*
X69606250*
X69583458Y29851992*
X69561358Y29857914*
X69540624Y29867584*
X69521884Y29880706*
X69505706Y29896884*
X69492584Y29915624*
X69482914Y29936358*
X69476992Y29958458*
X69475000Y29981250*
Y31518750*
G37*
G36*
X73127000Y40373000D02*
G01X79447394D01*
X79873000Y39947394*
Y37250000*
X79875440Y37225224*
X79882668Y37201400*
X79894404Y37179444*
X79910198Y37160198*
X80910198Y36160198*
X80929444Y36144404*
X80951400Y36132668*
X80975224Y36125440*
X81000000Y36123000*
X95500000*
X95524776Y36125440*
X95548602Y36132668*
X95570558Y36144404*
X95589804Y36160198*
X96589804Y37160198*
X96605598Y37179444*
X96617334Y37201400*
X96624560Y37225224*
X96627000Y37250000*
Y40123000*
X104697394*
X105623000Y39197394*
Y33052606*
X105197394Y32627000*
X76063266*
X75850598Y32839668*
X75823134Y32873134*
X75689592Y32982726*
X75537238Y33064162*
X75371922Y33114310*
X75243080Y33127000*
X75200000Y33131242*
X75156922Y33127000*
X74052606*
X73127000Y34052606*
Y40373000*
G37*
G36*
X83877000Y50697394D02*
G01X84552606Y51373000D01*
X91697394*
X91873000Y51197394*
Y46750000*
X91875440Y46725224*
X91882668Y46701400*
X91894404Y46679444*
X91910198Y46660198*
X92160198Y46410198*
X92179444Y46394404*
X92201400Y46382668*
X92225224Y46375440*
X92250000Y46373000*
X93067882*
X93124972Y46326148*
X93233898Y46267926*
X93352088Y46232074*
X93475000Y46219968*
X94525000*
X94647914Y46232074*
X94766104Y46267926*
X94789802Y46280592*
X95123000Y45947394*
Y43250000*
X95125440Y43225224*
X95132668Y43201400*
X95144404Y43179444*
X95160198Y43160198*
X95910198Y42410198*
X95929444Y42394404*
X95951400Y42382668*
X95975224Y42375440*
X96000000Y42373000*
X100000000*
X100024776Y42375440*
X100056796Y42386408*
X100529980Y42623000*
X105197394*
X105623000Y42197394*
Y41813500*
X104707668Y41127000*
X96000000*
X95975224Y41124560*
X95951400Y41117334*
X95929444Y41105598*
X95910198Y41089804*
X95894404Y41070558*
X95882668Y41048602*
X95875440Y41024776*
X95873000Y41000000*
Y37563500*
X94957668Y36877000*
X93144140*
X93041104Y36932076*
X92922914Y36967928*
X92800000Y36980034*
X91200000*
X91077088Y36967928*
X90958898Y36932076*
X90855860Y36877000*
X84302606*
X83877000Y37302606*
Y50697394*
G37*
G36*
X64927000Y47123000D02*
G01X69892128D01*
X69970844Y47058400*
X70166630Y46953750*
X70379070Y46889308*
X70544636Y46873000*
X72197394*
X72373000Y46697394*
Y43250000*
X72375440Y43225224*
X72382668Y43201400*
X72394404Y43179444*
X72410198Y43160198*
X72660198Y42910198*
X72679444Y42894404*
X72701400Y42882668*
X72725224Y42875440*
X72750000Y42873000*
X72994206*
X73025000Y42869968*
X76225000*
X76255794Y42873000*
X76500000*
X76524776Y42875440*
X76548602Y42882668*
X76570558Y42894404*
X76589804Y42910198*
X77589804Y43910198*
X77605598Y43929444*
X77617334Y43951400*
X77624560Y43975224*
X77627000Y44000000*
Y44373000*
X79373000*
Y41377000*
X72750000*
X72725224Y41374560*
X72701400Y41367334*
X72679444Y41355598*
X72660198Y41339804*
X72410198Y41089804*
X72394404Y41070558*
X72382668Y41048602*
X72375440Y41024776*
X72373000Y41000000*
Y34052606*
X71447394Y33127000*
X67543080*
X67500000Y33131242*
X67456920Y33127000*
X66802606*
X66127000Y33802606*
Y37400000*
X66124560Y37424776*
X66117334Y37448602*
X66105598Y37470558*
X66081304Y37497564*
X64927000Y38459484*
Y47123000*
G37*
G36*
X104027000Y11723000D02*
G01X108123000D01*
Y9977000*
X104027000*
Y11723000*
G37*
G36*
X104077000Y20523000D02*
G01X108123000D01*
Y18777000*
X104077000*
Y20523000*
G37*
G36*
X96950000Y35337500D02*
G01X96953986Y35383082D01*
X96965830Y35427280*
X96985168Y35468750*
X97011412Y35506230*
X97043768Y35538586*
X97081250Y35564830*
X97122718Y35584168*
X97166916Y35596012*
X97212500Y35600000*
X98787500*
X98833082Y35596012*
X98877280Y35584168*
X98918750Y35564830*
X98956230Y35538586*
X98988586Y35506230*
X99014830Y35468750*
X99034168Y35427280*
X99046012Y35383082*
X99050000Y35337500*
Y33762500*
X99046012Y33716916*
X99034168Y33672718*
X99014830Y33631250*
X98988586Y33593768*
X98956230Y33561412*
X98918750Y33535168*
X98877280Y33515830*
X98833082Y33503986*
X98787500Y33500000*
X97212500*
X97166916Y33503986*
X97122718Y33515830*
X97081250Y33535168*
X97043768Y33561412*
X97011412Y33593768*
X96985168Y33631250*
X96965830Y33672718*
X96953986Y33716916*
X96950000Y33762500*
Y35337500*
G37*
G54D17*
X90525000Y7750000D03*
G54D18*
X86715000D03*
X82905000D03*
X79095000D03*
X75285000D03*
X71475000D03*
G54D19*
X75115000Y22300000D03*
X76385000D03*
Y14700000D03*
X75115000D03*
G54D20*
X81950000Y14750000D03*
X84050000Y13800000D03*
Y15700000D03*
G54D21*
X2810000Y16750000D03*
X4190000D03*
Y14750000D03*
X2810000D03*
G54D22*
X17500000Y17000000D03*
X19500000D03*
G54D21*
X4190000Y18750000D03*
X2810000D03*
G54D22*
X17500000Y15000000D03*
X19500000D03*
G54D21*
X4190000Y12750000D03*
X2810000D03*
X11440000Y11250000D03*
X10060000D03*
X17810000Y13000000D03*
X19190000D03*
Y19000000D03*
X17810000D03*
G54D23*
X24750000Y46450000D03*
X25250000D03*
X25750000D03*
X26250000D03*
X26750000D03*
X27250000D03*
X27750000D03*
X28250000D03*
X28750000D03*
X29250000D03*
X29750000D03*
X30250000D03*
X30750000D03*
X31250000D03*
X31750000D03*
X32250000D03*
G54D24*
X34200000Y44500000D03*
Y44000000D03*
Y43500000D03*
Y43000000D03*
Y42500000D03*
Y42000000D03*
Y41500000D03*
Y41000000D03*
Y40500000D03*
Y40000000D03*
Y39500000D03*
Y39000000D03*
Y38500000D03*
Y38000000D03*
Y37500000D03*
Y37000000D03*
G54D23*
X32250000Y35050000D03*
X31750000D03*
X31250000D03*
X30750000D03*
X30250000D03*
X29750000D03*
X29250000D03*
X28750000D03*
X28250000D03*
X27750000D03*
X27250000D03*
X26750000D03*
X26250000D03*
X25750000D03*
X25250000D03*
X24750000D03*
G54D24*
X22800000Y37000000D03*
Y37500000D03*
Y38000000D03*
Y38500000D03*
Y39000000D03*
Y39500000D03*
Y40000000D03*
Y40500000D03*
Y41000000D03*
Y41500000D03*
Y42000000D03*
Y42500000D03*
Y43000000D03*
Y43500000D03*
Y44000000D03*
Y44500000D03*
G54D25*
X52820000Y5510000D03*
X21120000D03*
G54D26*
X95000000Y61500000D03*
X9250000Y2250000D03*
X2500000Y61500000D03*
G54D27*
X25250000Y20810000D03*
Y22190000D03*
G54D28*
X72390000Y30750000D03*
G54D29*
X80010000D03*
G54D30*
X81500000Y44000000D03*
Y47000000D03*
G54D31*
X91000000Y50250000D03*
X94000000D03*
G54D32*
X92000000Y29750000D03*
Y34750000D03*
X104000000D03*
Y29750000D03*
G54D31*
X91000000Y47750000D03*
X94000000D03*
G54D30*
X78500000Y42000000D03*
Y39000000D03*
Y44000000D03*
Y47000000D03*
G54D33*
X102500000Y44250000D03*
Y42250000D03*
X105000000Y46250000D03*
Y48250000D03*
X102500000D03*
Y46250000D03*
G54D34*
X105750000Y7050000D03*
Y2450000D03*
G54D35*
X74650000Y42000000D03*
G54D36*
X68375000D03*
G54D35*
X74625000Y39700000D03*
Y44300000D03*
X98125000Y44050000D03*
Y39450000D03*
G54D36*
X91875000Y41750000D03*
G54D35*
X98150000D03*
G54D37*
X27275000Y11075000D03*
X46725000Y11100000D03*
G54D38*
X30250000Y12500000D03*
X30750000D03*
X31250000D03*
X31750000D03*
X32250000D03*
X32750000D03*
X33250000D03*
X33750000D03*
X34250000D03*
X34750000D03*
X35250000D03*
X35750000D03*
X36250000D03*
X36750000D03*
X37250000D03*
X37750000D03*
X38250000D03*
X38750000D03*
X39250000D03*
X39750000D03*
X40250000D03*
X40750000D03*
X41250000D03*
X41750000D03*
X42250000D03*
X42750000D03*
X43250000D03*
X43750000D03*
G54D39*
X80100000Y56950000D03*
X90350000Y57000000D03*
G54D40*
X36670000Y60750000D03*
G54D41*
X39210000D03*
X41750000D03*
X44290000D03*
X46830000D03*
G54D42*
X60290000D03*
G54D43*
X57750000D03*
X55210000D03*
G54D22*
X105000000Y22750000D03*
X107000000D03*
G54D44*
X96900000Y16700000D03*
X96950000Y15750000D03*
Y14800000D03*
X94550000D03*
Y16700000D03*
Y15750000D03*
G54D45*
X29000000Y53750000D03*
X38000000D03*
G54D27*
X23500000Y9560000D03*
Y10940000D03*
X39250000Y20810000D03*
Y22190000D03*
X35250000Y25690000D03*
Y24310000D03*
X31250000Y20810000D03*
Y22190000D03*
X37250000Y20810000D03*
Y22190000D03*
X29250000Y25690000D03*
Y24310000D03*
X37250000D03*
Y25690000D03*
X31250000Y24310000D03*
Y25690000D03*
X33250000Y24310000D03*
Y25690000D03*
X29250000Y22190000D03*
Y20810000D03*
X19250000D03*
Y22190000D03*
X23250000Y20810000D03*
Y22190000D03*
X27250000Y20810000D03*
Y22190000D03*
X21250000Y20810000D03*
Y22190000D03*
X55750000Y39690000D03*
Y38310000D03*
Y35060000D03*
Y36440000D03*
Y29940000D03*
Y28560000D03*
X79000000Y26060000D03*
Y27440000D03*
X18000000Y43440000D03*
Y42060000D03*
X22250000Y30310000D03*
Y31690000D03*
G54D21*
X38810000Y35500000D03*
X40190000D03*
G54D33*
X41250000Y45500000D03*
Y43500000D03*
G54D27*
X83250000Y24190000D03*
Y22810000D03*
X24250000Y31690000D03*
Y30310000D03*
G54D21*
X40190000Y37500000D03*
X38810000D03*
G54D27*
X38750000Y45190000D03*
Y43810000D03*
X19750000Y42060000D03*
Y43440000D03*
G54D46*
X15250000Y43300000D03*
Y39900000D03*
G54D47*
X74350000Y30750000D03*
X77650000D03*
G54D48*
X14250000Y53600000D03*
G54D49*
X55000000Y9450000D03*
X55950000Y11550000D03*
X54050000D03*
G54D20*
X60200000Y31550000D03*
Y33450000D03*
X62300000Y32500000D03*
G54D27*
X57500000Y38310000D03*
Y39690000D03*
Y36440000D03*
Y35060000D03*
Y29940000D03*
Y28560000D03*
X80750000Y26060000D03*
Y27440000D03*
Y24190000D03*
Y22810000D03*
G54D21*
X52560000Y14000000D03*
X53940000D03*
X56060000D03*
X57440000D03*
G54D27*
X17500000Y31690000D03*
Y30310000D03*
X19500000Y31690000D03*
Y30310000D03*
G54D33*
X83500000Y33250000D03*
Y31250000D03*
G54D27*
X19750000Y40340000D03*
Y38960000D03*
X55750000Y31810000D03*
Y33190000D03*
X57500000Y31810000D03*
Y33190000D03*
G54D18*
X64150000Y6500000D03*
X10250000D03*
G54D27*
X87000000Y32940000D03*
Y31560000D03*
G54D50*
X6140000Y23400000D03*
X3600000D03*
G54D51*
X1060000D03*
G54D38*
X44000000Y15000000D03*
X43500000D03*
X43000000D03*
X42500000D03*
X42000000D03*
X41500000D03*
X41000000D03*
X40500000D03*
X40000000D03*
X39500000D03*
X39000000D03*
X38500000D03*
X38000000D03*
X37500000D03*
X37000000D03*
X36500000D03*
X36000000D03*
X35500000D03*
X35000000D03*
X34500000D03*
X34000000D03*
X33500000D03*
X33000000D03*
X32500000D03*
X32000000D03*
X31500000D03*
X31000000D03*
X30500000D03*
X30000000D03*
G54D52*
X47000000Y13650000D03*
X27000000D03*
G54D53*
X12000000Y26000000D03*
G54D54*
X16000000Y24850000D03*
Y27150000D03*
G54D21*
X88790000Y17250000D03*
X87410000D03*
X90510000Y20750000D03*
X91890000D03*
G54D27*
X46250000Y57940000D03*
Y56560000D03*
G54D21*
X94710000Y20200000D03*
X96090000D03*
X102440000Y22750000D03*
X101060000D03*
X30190000Y49750000D03*
X28810000D03*
X38190000D03*
X36810000D03*
G54D27*
X20000000Y49560000D03*
Y50940000D03*
X25000000D03*
Y49560000D03*
G54D21*
X61060000Y14000000D03*
X62440000D03*
X68560000Y24000000D03*
X69940000D03*
Y18000000D03*
X68560000D03*
G54D55*
X101500000Y16850000D03*
Y13650000D03*
Y14450000D03*
Y15250000D03*
Y16050000D03*
G54D56*
X107000000Y19650000D03*
Y10850000D03*
X101500000D03*
Y19650000D03*
G54D21*
X90510000Y22500000D03*
X91890000D03*
X96440000Y13000000D03*
X95060000D03*
Y11250000D03*
X96440000D03*
G54D27*
X44250000Y56560000D03*
Y57940000D03*
G54D21*
X91890000Y19000000D03*
X90510000D03*
X32810000Y49750000D03*
X34190000D03*
X21810000D03*
X23190000D03*
G54D27*
X80000000Y52690000D03*
Y51310000D03*
X60250000Y56560000D03*
Y57940000D03*
X57750000Y56560000D03*
Y57940000D03*
G54D21*
X90510000Y17250000D03*
X91890000D03*
G54D22*
X70250000Y22000000D03*
X68250000D03*
X70250000Y20000000D03*
X68250000D03*
G54D21*
X52560000Y16000000D03*
X53940000D03*
X52560000Y18000000D03*
X53940000D03*
X52560000Y22000000D03*
X53940000D03*
Y20000000D03*
X52560000D03*
G54D19*
X74675000Y51700000D03*
X73405000D03*
Y59300000D03*
X74675000D03*
X70865000Y51700000D03*
X72135000D03*
X70865000Y59300000D03*
X72135000D03*
X69595000Y51700000D03*
X68325000Y59300000D03*
X69595000D03*
X68325000Y51700000D03*
G54D57*
X23050000Y52250000D03*
X21950000D03*
G54D58*
X25000000Y57250000D03*
X20000000D03*
G54D33*
X79500000Y20250000D03*
Y18250000D03*
X68525000Y9550000D03*
Y11550000D03*
G54D30*
X79500000Y16250000D03*
Y13250000D03*
G54D31*
X67800000Y13950000D03*
X70800000D03*
G54D27*
X12500000Y41000000D03*
Y42380000D03*
X10250000D03*
Y41000000D03*
G54D20*
X81850000Y17600000D03*
Y19500000D03*
X83950000Y18550000D03*
G54D59*
X13350000Y13840000D03*
Y15110000D03*
Y16390000D03*
Y17660000D03*
X8150000D03*
Y16390000D03*
Y15110000D03*
Y13840000D03*
X58650000Y16590000D03*
Y17860000D03*
Y19140000D03*
Y20410000D03*
X63850000D03*
Y19140000D03*
Y17860000D03*
Y16590000D03*
G54D60*
X27100000Y44900000D03*
X33400000Y47400000D03*
X74700000Y57045000D03*
X73430000D03*
X72160000D03*
X103800000Y7000000D03*
X105750000Y8950000D03*
X70890000Y57045000D03*
X69600000D03*
X68250000Y57040000D03*
X39250000Y23000000D03*
X94090000Y13000000D03*
X98230000Y15740000D03*
X99750000Y13650000D03*
X102440000Y23700000D03*
X104990000Y23880000D03*
X104000000Y27600000D03*
X102050000Y29750000D03*
X93375000D03*
X86005000Y31560000D03*
X95000000Y47750000D03*
Y50250000D03*
X93000000D03*
Y47750000D03*
X101250000Y48250000D03*
X106250000D03*
X81500000Y42750000D03*
Y45250000D03*
X47245000Y56560000D03*
X20000000Y51750000D03*
X25000000Y51700000D03*
X27950000Y49750000D03*
X39050000D03*
X56950000Y11550000D03*
X58500000Y14000000D03*
X22250000Y29250000D03*
X54755000Y36440000D03*
X78005000Y27440000D03*
X54755000Y29940000D03*
X60100000Y14000000D03*
X19750000Y41250000D03*
X18000000D03*
X24250000Y29250000D03*
X24300000Y44000000D03*
X25250000Y23250000D03*
X29250000D03*
X21250000Y19750000D03*
X29250000Y26750000D03*
X31250000D03*
X30250000Y22190000D03*
X41140000Y35500000D03*
X41200000Y37500000D03*
X42750000Y43500000D03*
X37000000Y43750000D03*
X32250000Y44464990D03*
X31237504Y43050012D03*
X37216174Y19449990D03*
X33250000Y26750000D03*
X23500000Y12000000D03*
X84486814Y22746812D03*
X13200000Y39800000D03*
X62050000Y33450000D03*
X54090000Y39690000D03*
X58950000Y33450000D03*
X51200000Y20000000D03*
X71110000Y24030000D03*
X93400000Y20200000D03*
X88790000Y16110000D03*
X97800000Y20200000D03*
X16000000Y23250000D03*
X10250000Y26000000D03*
X10060000Y12440000D03*
X15010000Y17640000D03*
X2000000Y16750000D03*
X19190000Y11810000D03*
X20500000Y18250000D03*
X85125000Y18550000D03*
X81950000Y13300000D03*
X71000000Y17750000D03*
X66500000Y20400000D03*
X63750000Y32500000D03*
X66000000Y14000000D03*
Y12750000D03*
X70600000Y48000000D03*
X71800000D03*
X57500000Y41000000D03*
X58750000Y36500000D03*
X81950000Y22800000D03*
Y27450000D03*
X44220000Y48960000D03*
X48500000D03*
X23250000Y23750000D03*
X20750000Y31750000D03*
X58702606Y23049990D03*
X6740000Y44470000D03*
X58750000Y29550000D03*
X11550000Y44450000D03*
X58750000Y27760066D03*
X23250000Y14750000D03*
X63850000Y36250000D03*
X51000000Y24500000D03*
X25750000Y27750000D03*
X51050000Y25875000D03*
X27000000Y27750000D03*
X63800018Y35000018D03*
X88500000Y29400000D03*
X31249986Y19000000D03*
X33000000Y10500000D03*
X86550000Y24800000D03*
X94600000Y21800000D03*
X93255426Y16234540D03*
X32810498Y19995646D03*
X31889342Y11338184D03*
X47000000Y47249990D03*
X56750000Y26560032D03*
X88600000Y20500000D03*
X33590146Y18532860D03*
X30250000Y10750000D03*
X98000000Y27750000D03*
X99250000Y26500000D03*
X103300000Y900000D03*
X102200000D03*
X32780000Y38460000D03*
X35530050Y34330054D03*
X32554708Y40349980D03*
X40849990Y30053674D03*
X31679894Y41049978D03*
X41550000Y29225000D03*
X32500000Y41749988D03*
X42000000Y28300000D03*
X32500000Y42750000D03*
X42391602Y27362200D03*
X42983642Y26512026D03*
X35995346Y40752716D03*
X42375022Y25675000D03*
X37000000Y40800000D03*
X17432312Y61300012D03*
X19000000Y60600000D03*
X51000000Y27225000D03*
X28650000Y28575000D03*
X52775000Y24050000D03*
X27700000Y23650000D03*
X28750000Y36225000D03*
X17475000Y32800000D03*
X30500000Y36250000D03*
X19425000Y32575000D03*
X35500000Y9500000D03*
X75250000Y1750000D03*
X71250000Y2500000D03*
X35500000Y10500000D03*
X85300000Y13800000D03*
X71500000Y16250000D03*
X85250000Y15750000D03*
X73150000Y16450010D03*
X56425000Y55650000D03*
X17200000Y58700000D03*
X8500000Y27000000D03*
X11500000Y39250000D03*
X56505614Y56646758D03*
X17300000Y59800000D03*
X25000000Y41000000D03*
X28310292Y41752644D03*
X12500000Y29750000D03*
X12460878Y37551084D03*
X28442036Y40715100D03*
X25000000Y39999988D03*
X13750000Y30500000D03*
X16750000Y38750000D03*
X53000000Y47000000D03*
X43000000Y50000000D03*
X47225000Y50700000D03*
X54025000Y47050000D03*
G54D64*
X62050000Y33450000D03*
G54D11*
X77002200Y-33007200D02*
G01Y-65007200D01*
X185002200*
Y-33007200*
X77002200*
X-90000000Y123000000D02*
G01Y-67007200D01*
X187002200*
Y123000000*
X-90000000*
X-88000000Y121000000D02*
G01Y-65007200D01*
X185002200*
Y121000000*
X-88000000*
X-40000000D02*
G01Y123000000D01*
X10000000Y121000000D02*
G01Y123000000D01*
X60000000Y121000000D02*
G01Y123000000D01*
X110000000Y121000000D02*
G01Y123000000D01*
X160000000Y121000000D02*
G01Y123000000D01*
X-63934524Y121411906D02*
G01X-64677382D01*
X-64305954D02*
G01Y122711906D01*
X-64429762Y122526192*
X-64553572Y122402382*
X-64677382Y122340478*
X-14677382Y122588096D02*
G01X-14615478Y122650000D01*
X-14491668Y122711906*
X-14182144*
X-14058334Y122650000*
X-13996430Y122588096*
X-13934524Y122464286*
Y122340478*
X-13996430Y122154762*
X-14739286Y121411906*
X-13934524*
X35260714Y122711906D02*
G01X36065476D01*
X35632142Y122216668*
X35817858*
X35941666Y122154762*
X36003572Y122092858*
X36065476Y121969048*
Y121659524*
X36003572Y121535716*
X35941666Y121473810*
X35817858Y121411906*
X35446428*
X35322620Y121473810*
X35260714Y121535716*
X85941666Y122278572D02*
G01Y121411906D01*
X85632142Y122773810D02*
G01X85322620Y121845240D01*
X86127380*
X136003572Y122711906D02*
G01X135384524D01*
X135322620Y122092858*
X135384524Y122154762*
X135508334Y122216668*
X135817858*
X135941666Y122154762*
X136003572Y122092858*
X136065476Y121969048*
Y121659524*
X136003572Y121535716*
X135941666Y121473810*
X135817858Y121411906*
X135508334*
X135384524Y121473810*
X135322620Y121535716*
X185941666Y122711906D02*
G01X185694048D01*
X185570238Y122650000*
X185508334Y122588096*
X185384524Y122402382*
X185322620Y122154762*
Y121659524*
X185384524Y121535716*
X185446428Y121473810*
X185570238Y121411906*
X185817858*
X185941666Y121473810*
X186003572Y121535716*
X186065476Y121659524*
Y121969048*
X186003572Y122092858*
X185941666Y122154762*
X185817858Y122216668*
X185570238*
X185446428Y122154762*
X185384524Y122092858*
X185322620Y121969048*
X-40000000Y-65007200D02*
G01Y-67007200D01*
X10000000Y-65007200D02*
G01Y-67007200D01*
X60000000Y-65007200D02*
G01Y-67007200D01*
X110000000Y-65007200D02*
G01Y-67007200D01*
X160000000Y-65007200D02*
G01Y-67007200D01*
X-63934524Y-66595294D02*
G01X-64677382D01*
X-64305954D02*
G01Y-65295294D01*
X-64429762Y-65481010*
X-64553572Y-65604820*
X-64677382Y-65666724*
X-14677382Y-65419104D02*
G01X-14615478Y-65357200D01*
X-14491668Y-65295294*
X-14182144*
X-14058334Y-65357200*
X-13996430Y-65419104*
X-13934524Y-65542914*
Y-65666724*
X-13996430Y-65852438*
X-14739286Y-66595294*
X-13934524*
X35260714Y-65295294D02*
G01X36065476D01*
X35632142Y-65790534*
X35817858*
X35941666Y-65852438*
X36003572Y-65914342*
X36065476Y-66038152*
Y-66347676*
X36003572Y-66471486*
X35941666Y-66533390*
X35817858Y-66595294*
X35446428*
X35322620Y-66533390*
X35260714Y-66471486*
X85941666Y-65728628D02*
G01Y-66595294D01*
X85632142Y-65233390D02*
G01X85322620Y-66161962D01*
X86127380*
X136003572Y-65295294D02*
G01X135384524D01*
X135322620Y-65914342*
X135384524Y-65852438*
X135508334Y-65790534*
X135817858*
X135941666Y-65852438*
X136003572Y-65914342*
X136065476Y-66038152*
Y-66347676*
X136003572Y-66471486*
X135941666Y-66533390*
X135817858Y-66595294*
X135508334*
X135384524Y-66533390*
X135322620Y-66471486*
X185941666Y-65295294D02*
G01X185694048D01*
X185570238Y-65357200*
X185508334Y-65419104*
X185384524Y-65604820*
X185322620Y-65852438*
Y-66347676*
X185384524Y-66471486*
X185446428Y-66533390*
X185570238Y-66595294*
X185817858*
X185941666Y-66533390*
X186003572Y-66471486*
X186065476Y-66347676*
Y-66038152*
X186003572Y-65914342*
X185941666Y-65852438*
X185817858Y-65790534*
X185570238*
X185446428Y-65852438*
X185384524Y-65914342*
X185322620Y-66038152*
X-90000000Y73000000D02*
G01X-88000000D01*
X-90000000Y23000000D02*
G01X-88000000D01*
X-90000000Y-27000000D02*
G01X-88000000D01*
X-89309524Y97783334D02*
G01X-88690478D01*
X-89433334Y97411906D02*
G01X-89000000Y98711906D01*
X-88566668Y97411906*
X-88907144Y48092858D02*
G01X-88721430Y48030954D01*
X-88659524Y47969048*
X-88597620Y47845240*
Y47659524*
X-88659524Y47535716*
X-88721430Y47473810*
X-88845240Y47411906*
X-89340478*
Y48711906*
X-88907144*
X-88783334Y48650000*
X-88721430Y48588096*
X-88659524Y48464286*
Y48340478*
X-88721430Y48216668*
X-88783334Y48154762*
X-88907144Y48092858*
X-89340478*
X-88597620Y-2464286D02*
G01X-88659524Y-2526190D01*
X-88845240Y-2588096*
X-88969048*
X-89154762Y-2526190*
X-89278572Y-2402380*
X-89340478Y-2278572*
X-89402382Y-2030952*
Y-1845238*
X-89340478Y-1597620*
X-89278572Y-1473810*
X-89154762Y-1350000*
X-88969048Y-1288096*
X-88845240*
X-88659524Y-1350000*
X-88597620Y-1411904*
X-89340478Y-52588096D02*
G01Y-51288096D01*
X-89030954*
X-88845240Y-51350000*
X-88721430Y-51473810*
X-88659524Y-51597620*
X-88597620Y-51845238*
Y-52030952*
X-88659524Y-52278572*
X-88721430Y-52402380*
X-88845240Y-52526190*
X-89030954Y-52588096*
X-89340478*
X187002200Y73000000D02*
G01X185002200D01*
X187002200Y23000000D02*
G01X185002200D01*
X187002200Y-27000000D02*
G01X185002200D01*
X185692676Y97783334D02*
G01X186311724D01*
X185568866Y97411906D02*
G01X186002200Y98711906D01*
X186435534Y97411906*
X186095058Y48092858D02*
G01X186280772Y48030954D01*
X186342676Y47969048*
X186404580Y47845240*
Y47659524*
X186342676Y47535716*
X186280772Y47473810*
X186156962Y47411906*
X185661724*
Y48711906*
X186095058*
X186218866Y48650000*
X186280772Y48588096*
X186342676Y48464286*
Y48340478*
X186280772Y48216668*
X186218866Y48154762*
X186095058Y48092858*
X185661724*
X186404580Y-2464286D02*
G01X186342676Y-2526190D01*
X186156962Y-2588096*
X186033152*
X185847438Y-2526190*
X185723628Y-2402380*
X185661724Y-2278572*
X185599820Y-2030952*
Y-1845238*
X185661724Y-1597620*
X185723628Y-1473810*
X185847438Y-1350000*
X186033152Y-1288096*
X186156962*
X186342676Y-1350000*
X186404580Y-1411904*
X185661724Y-52588096D02*
G01Y-51288096D01*
X185971248*
X186156962Y-51350000*
X186280772Y-51473810*
X186342676Y-51597620*
X186404580Y-51845238*
Y-52030952*
X186342676Y-52278572*
X186280772Y-52402380*
X186156962Y-52526190*
X185971248Y-52588096*
X185661724*
X100481962Y-60876248D02*
G01Y-59176248D01*
X100886724*
X101129580Y-59257200*
X101291486Y-59419104*
X101372438Y-59581010*
X101453390Y-59904820*
Y-60147676*
X101372438Y-60471486*
X101291486Y-60633390*
X101129580Y-60795296*
X100886724Y-60876248*
X100481962*
X102910534D02*
G01Y-59985772D01*
X102829580Y-59823866*
X102667676Y-59742914*
X102343866*
X102181962Y-59823866*
X102910534Y-60795296D02*
G01X102748628Y-60876248D01*
X102343866*
X102181962Y-60795296*
X102101010Y-60633390*
Y-60471486*
X102181962Y-60309580*
X102343866Y-60228628*
X102748628*
X102910534Y-60147676*
X103477200Y-59742914D02*
G01X104124820D01*
X103720058Y-59176248D02*
G01Y-60633390D01*
X103801010Y-60795296*
X103962914Y-60876248*
X104124820*
X105339104Y-60795296D02*
G01X105177200Y-60876248D01*
X104853390*
X104691486Y-60795296*
X104610534Y-60633390*
Y-59985772*
X104691486Y-59823866*
X104853390Y-59742914*
X105177200*
X105339104Y-59823866*
X105420058Y-59985772*
Y-60147676*
X104610534Y-60309580*
X106148628Y-60714342D02*
G01X106229580Y-60795296D01*
X106148628Y-60876248*
X106067676Y-60795296*
X106148628Y-60714342*
Y-60876248*
Y-59823866D02*
G01X106229580Y-59904820D01*
X106148628Y-59985772*
X106067676Y-59904820*
X106148628Y-59823866*
Y-59985772*
X108172438Y-59338152D02*
G01X108253390Y-59257200D01*
X108415296Y-59176248*
X108820058*
X108981962Y-59257200*
X109062914Y-59338152*
X109143866Y-59500058*
Y-59661962*
X109062914Y-59904820*
X108091486Y-60876248*
X109143866*
X110196248Y-59176248D02*
G01X110358152D01*
X110520058Y-59257200*
X110601010Y-59338152*
X110681962Y-59500058*
X110762914Y-59823866*
Y-60228628*
X110681962Y-60552438*
X110601010Y-60714342*
X110520058Y-60795296*
X110358152Y-60876248*
X110196248*
X110034342Y-60795296*
X109953390Y-60714342*
X109872438Y-60552438*
X109791486Y-60228628*
Y-59823866*
X109872438Y-59500058*
X109953390Y-59338152*
X110034342Y-59257200*
X110196248Y-59176248*
X111410534Y-59338152D02*
G01X111491486Y-59257200D01*
X111653390Y-59176248*
X112058152*
X112220058Y-59257200*
X112301010Y-59338152*
X112381962Y-59500058*
Y-59661962*
X112301010Y-59904820*
X111329580Y-60876248*
X112381962*
X113434342Y-59176248D02*
G01X113596248D01*
X113758152Y-59257200*
X113839104Y-59338152*
X113920058Y-59500058*
X114001010Y-59823866*
Y-60228628*
X113920058Y-60552438*
X113839104Y-60714342*
X113758152Y-60795296*
X113596248Y-60876248*
X113434342*
X113272438Y-60795296*
X113191486Y-60714342*
X113110534Y-60552438*
X113029580Y-60228628*
Y-59823866*
X113110534Y-59500058*
X113191486Y-59338152*
X113272438Y-59257200*
X113434342Y-59176248*
X114729580Y-60228628D02*
G01X116024820D01*
X117724820Y-60876248D02*
G01X116753390D01*
X117239104D02*
G01Y-59176248D01*
X117077200Y-59419104*
X116915296Y-59581010*
X116753390Y-59661962*
X118372438Y-59338152D02*
G01X118453390Y-59257200D01*
X118615296Y-59176248*
X119020058*
X119181962Y-59257200*
X119262914Y-59338152*
X119343866Y-59500058*
Y-59661962*
X119262914Y-59904820*
X118291486Y-60876248*
X119343866*
X120072438Y-60228628D02*
G01X121367676D01*
X122501010Y-59176248D02*
G01X122662914D01*
X122824820Y-59257200*
X122905772Y-59338152*
X122986724Y-59500058*
X123067676Y-59823866*
Y-60228628*
X122986724Y-60552438*
X122905772Y-60714342*
X122824820Y-60795296*
X122662914Y-60876248*
X122501010*
X122339104Y-60795296*
X122258152Y-60714342*
X122177200Y-60552438*
X122096248Y-60228628*
Y-59823866*
X122177200Y-59500058*
X122258152Y-59338152*
X122339104Y-59257200*
X122501010Y-59176248*
X123634342D02*
G01X124686724D01*
X124120058Y-59823866*
X124362914*
X124524820Y-59904820*
X124605772Y-59985772*
X124686724Y-60147676*
Y-60552438*
X124605772Y-60714342*
X124524820Y-60795296*
X124362914Y-60876248*
X123877200*
X123715296Y-60795296*
X123634342Y-60714342*
X77002200Y-61507200D02*
G01X185002200D01*
X77002200Y-58507200D02*
G01X185002200D01*
G54D12*
X164599390Y-60876248D02*
G01X164032724Y-60066724D01*
X163627962Y-60876248D02*
G01Y-59176248D01*
X164275580*
X164437486Y-59257200*
X164518438Y-59338152*
X164599390Y-59500058*
Y-59742914*
X164518438Y-59904820*
X164437486Y-59985772*
X164275580Y-60066724*
X163627962*
X165975580Y-60795296D02*
G01X165813676Y-60876248D01*
X165489866*
X165327962Y-60795296*
X165247010Y-60633390*
Y-59985772*
X165327962Y-59823866*
X165489866Y-59742914*
X165813676*
X165975580Y-59823866*
X166056534Y-59985772*
Y-60147676*
X165247010Y-60309580*
X166623200Y-59742914D02*
G01X167027962Y-60876248D01*
X167432724Y-59742914*
X168080342Y-60714342D02*
G01X168161296Y-60795296D01*
X168080342Y-60876248*
X167999390Y-60795296*
X168080342Y-60714342*
Y-60876248*
Y-59823866D02*
G01X168161296Y-59904820D01*
X168080342Y-59985772*
X167999390Y-59904820*
X168080342Y-59823866*
Y-59985772*
G54D11*
X78401010Y-60795296D02*
G01X78643866Y-60876248D01*
X79048628*
X79210534Y-60795296*
X79291486Y-60714342*
X79372438Y-60552438*
Y-60390534*
X79291486Y-60228628*
X79210534Y-60147676*
X79048628Y-60066724*
X78724820Y-59985772*
X78562914Y-59904820*
X78481962Y-59823866*
X78401010Y-59661962*
Y-59500058*
X78481962Y-59338152*
X78562914Y-59257200*
X78724820Y-59176248*
X79129580*
X79372438Y-59257200*
X80101010Y-60876248D02*
G01Y-59742914D01*
Y-59176248D02*
G01X80020058Y-59257200D01*
X80101010Y-59338152*
X80181962Y-59257200*
X80101010Y-59176248*
Y-59338152*
X80748628Y-59742914D02*
G01X81639104D01*
X80748628Y-60876248*
X81639104*
X82934342Y-60795296D02*
G01X82772438Y-60876248D01*
X82448628*
X82286724Y-60795296*
X82205772Y-60633390*
Y-59985772*
X82286724Y-59823866*
X82448628Y-59742914*
X82772438*
X82934342Y-59823866*
X83015296Y-59985772*
Y-60147676*
X82205772Y-60309580*
X83743866Y-60714342D02*
G01X83824820Y-60795296D01*
X83743866Y-60876248*
X83662914Y-60795296*
X83743866Y-60714342*
Y-60876248*
Y-59823866D02*
G01X83824820Y-59904820D01*
X83743866Y-59985772*
X83662914Y-59904820*
X83743866Y-59823866*
Y-59985772*
X85767676Y-60390534D02*
G01X86577200D01*
X85605772Y-60876248D02*
G01X86172438Y-59176248D01*
X86739104Y-60876248*
X88034342Y-59742914D02*
G01Y-60876248D01*
X87629580Y-59095296D02*
G01X87224820Y-60309580D01*
X88277200*
X163481962Y-63676248D02*
G01Y-61976248D01*
X165020058Y-63676248D02*
G01Y-61976248D01*
Y-63595296D02*
G01X164858152Y-63676248D01*
X164534342*
X164372438Y-63595296*
X164291486Y-63514342*
X164210534Y-63352438*
Y-62866724*
X164291486Y-62704820*
X164372438Y-62623866*
X164534342Y-62542914*
X164858152*
X165020058Y-62623866*
X165829580Y-63514342D02*
G01X165910534Y-63595296D01*
X165829580Y-63676248*
X165748628Y-63595296*
X165829580Y-63514342*
Y-63676248*
Y-62623866D02*
G01X165910534Y-62704820D01*
X165829580Y-62785772*
X165748628Y-62704820*
X165829580Y-62623866*
Y-62785772*
X168824820Y-63676248D02*
G01X167853390D01*
X168339104D02*
G01Y-61976248D01*
X168177200Y-62219104*
X168015296Y-62381010*
X167853390Y-62461962*
X170767676Y-61895296D02*
G01X169310534Y-64081008D01*
X172224820Y-63676248D02*
G01X171253390D01*
X171739104D02*
G01Y-61976248D01*
X171577200Y-62219104*
X171415296Y-62381010*
X171253390Y-62461962*
X77002200Y-54507200D02*
G01X185002200D01*
G54D13*
X78714580Y-55211962D02*
G01X79857438D01*
X79036010Y-57211962D02*
G01X79286010Y-55211962D01*
X80274104Y-57211962D02*
G01X80440772Y-55878628D01*
X80524104Y-55211962D02*
G01X80416962Y-55307200D01*
X80500296Y-55402438*
X80607438Y-55307200*
X80524104Y-55211962*
X80500296Y-55402438*
X81107438Y-55878628D02*
G01X81869342D01*
X81476486Y-55211962D02*
G01X81262200Y-56926248D01*
X81333628Y-57116724*
X81512200Y-57211962*
X81702676*
X82655058D02*
G01X82476486Y-57116724D01*
X82405058Y-56926248*
X82619342Y-55211962*
X84190772Y-57116724D02*
G01X83988390Y-57211962D01*
X83607438*
X83428866Y-57116724*
X83357438Y-56926248*
X83452676Y-56164342*
X83571724Y-55973866*
X83774104Y-55878628*
X84155058*
X84333628Y-55973866*
X84405058Y-56164342*
X84381248Y-56354820*
X83405058Y-56545296*
X85155058Y-57021486D02*
G01X85238390Y-57116724D01*
X85131248Y-57211962*
X85047914Y-57116724*
X85155058Y-57021486*
X85131248Y-57211962*
X85286010Y-55973866D02*
G01X85369342Y-56069104D01*
X85262200Y-56164342*
X85178866Y-56069104*
X85286010Y-55973866*
X85262200Y-56164342*
X87738390D02*
G01X88405058D01*
X88559820Y-57211962D02*
G01X87607438D01*
X87857438Y-55211962*
X88809820*
X89333628Y-57116724D02*
G01X89607438Y-57211962D01*
X90083628*
X90286010Y-57116724*
X90393152Y-57021486*
X90512200Y-56831010*
X90536010Y-56640534*
X90464580Y-56450058*
X90381248Y-56354820*
X90202676Y-56259580*
X89833628Y-56164342*
X89655058Y-56069104*
X89571724Y-55973866*
X89500296Y-55783390*
X89524104Y-55592914*
X89643152Y-55402438*
X89750296Y-55307200*
X89952676Y-55211962*
X90428866*
X90702676Y-55307200*
X92119342Y-56164342D02*
G01X92393152Y-56259580D01*
X92476486Y-56354820*
X92547914Y-56545296*
X92512200Y-56831010*
X92393152Y-57021486*
X92286010Y-57116724*
X92083628Y-57211962*
X91321724*
X91571724Y-55211962*
X92238390*
X92416962Y-55307200*
X92500296Y-55402438*
X92571724Y-55592914*
X92547914Y-55783390*
X92428866Y-55973866*
X92321724Y-56069104*
X92119342Y-56164342*
X91452676*
X93321724Y-57211962D02*
G01X93571724Y-55211962D01*
X95893152Y-56450058D02*
G01X97416962D01*
X100964580Y-57021486D02*
G01X100857438Y-57116724D01*
X100559820Y-57211962*
X100369342*
X100095534Y-57116724*
X99928866Y-56926248*
X99857438Y-56735772*
X99809820Y-56354820*
X99845534Y-56069104*
X99988390Y-55688152*
X100107438Y-55497676*
X100321724Y-55307200*
X100619342Y-55211962*
X100809820*
X101083628Y-55307200*
X101166962Y-55402438*
X101893152Y-56450058D02*
G01X103416962D01*
X104905058Y-55211962D02*
G01X105095534D01*
X105274104Y-55307200*
X105357438Y-55402438*
X105428866Y-55592914*
X105476486Y-55973866*
X105416962Y-56450058*
X105274104Y-56831010*
X105155058Y-57021486*
X105047914Y-57116724*
X104845534Y-57211962*
X104655058*
X104476486Y-57116724*
X104393152Y-57021486*
X104321724Y-56831010*
X104274104Y-56450058*
X104333628Y-55973866*
X104476486Y-55592914*
X104595534Y-55402438*
X104702676Y-55307200*
X104905058Y-55211962*
X106309820Y-55402438D02*
G01X106416962Y-55307200D01*
X106619342Y-55211962*
X107095534*
X107274104Y-55307200*
X107357438Y-55402438*
X107428866Y-55592914*
X107405058Y-55783390*
X107274104Y-56069104*
X105988390Y-57211962*
X107226486*
X109107438Y-55878628D02*
G01X108940772Y-57211962D01*
X108726486Y-55116724D02*
G01X108071724Y-56545296D01*
X109309820*
X111036010Y-57211962D02*
G01X109893152D01*
X110464580D02*
G01X110714580Y-55211962D01*
X110488390Y-55497676*
X110274104Y-55688152*
X110071724Y-55783390*
X111988390Y-56450058D02*
G01X113512200D01*
X115000296Y-55211962D02*
G01X115190772D01*
X115369342Y-55307200*
X115452676Y-55402438*
X115524104Y-55592914*
X115571724Y-55973866*
X115512200Y-56450058*
X115369342Y-56831010*
X115250296Y-57021486*
X115143152Y-57116724*
X114940772Y-57211962*
X114750296*
X114571724Y-57116724*
X114488390Y-57021486*
X114416962Y-56831010*
X114369342Y-56450058*
X114428866Y-55973866*
X114571724Y-55592914*
X114690772Y-55402438*
X114797914Y-55307200*
X115000296Y-55211962*
X117476486D02*
G01X116524104D01*
X116309820Y-56164342*
X116416962Y-56069104*
X116619342Y-55973866*
X117095534*
X117274104Y-56069104*
X117357438Y-56164342*
X117428866Y-56354820*
X117369342Y-56831010*
X117250296Y-57021486*
X117143152Y-57116724*
X116940772Y-57211962*
X116464580*
X116286010Y-57116724*
X116202676Y-57021486*
G54D11*
X77002200Y-48507200D02*
G01X185002200D01*
X78434342Y-43900058D02*
G01X78934342D01*
X79148628Y-44685772D02*
G01X78434342D01*
Y-43185772*
X79148628*
X79791486Y-44685772D02*
G01Y-43685772D01*
Y-43828628D02*
G01X79862914Y-43757200D01*
X80005772Y-43685772*
X80220058*
X80362914Y-43757200*
X80434342Y-43900058*
Y-44685772*
Y-43900058D02*
G01X80505772Y-43757200D01*
X80648628Y-43685772*
X80862914*
X81005772Y-43757200*
X81077200Y-43900058*
Y-44685772*
X82434342D02*
G01Y-43900058D01*
X82362914Y-43757200*
X82220058Y-43685772*
X81934342*
X81791486Y-43757200*
X82434342Y-44614342D02*
G01X82291486Y-44685772D01*
X81934342*
X81791486Y-44614342*
X81720058Y-44471486*
Y-44328628*
X81791486Y-44185772*
X81934342Y-44114342*
X82291486*
X82434342Y-44042914*
X83148628Y-44685772D02*
G01Y-43685772D01*
Y-43185772D02*
G01X83077200Y-43257200D01*
X83148628Y-43328628*
X83220058Y-43257200*
X83148628Y-43185772*
Y-43328628*
X84077200Y-44685772D02*
G01X83934342Y-44614342D01*
X83862914Y-44471486*
Y-43185772*
X85791486Y-44685772D02*
G01Y-43685772D01*
Y-43185772D02*
G01X85720058Y-43257200D01*
X85791486Y-43328628*
X85862914Y-43257200*
X85791486Y-43185772*
Y-43328628*
X86505772Y-43685772D02*
G01Y-44685772D01*
Y-43828628D02*
G01X86577200Y-43757200D01*
X86720058Y-43685772*
X86934342*
X87077200Y-43757200*
X87148628Y-43900058*
Y-44685772*
X87648628Y-43685772D02*
G01X88220058D01*
X87862914Y-44685772D02*
G01Y-43400058D01*
X87934342Y-43257200*
X88077200Y-43185772*
X88220058*
X88934342Y-44685772D02*
G01X88791486Y-44614342D01*
X88720058Y-44542914*
X88648628Y-44400058*
Y-43971486*
X88720058Y-43828628*
X88791486Y-43757200*
X88934342Y-43685772*
X89148628*
X89291486Y-43757200*
X89362914Y-43828628*
X89434342Y-43971486*
Y-44400058*
X89362914Y-44542914*
X89291486Y-44614342*
X89148628Y-44685772*
X88934342*
X91005772Y-43971486D02*
G01X90934342Y-43900058D01*
X90791486Y-43828628*
X90648628*
X90505772Y-43900058*
X90434342Y-43971486*
X90362914Y-44114342*
Y-44257200*
X90434342Y-44400058*
X90505772Y-44471486*
X90648628Y-44542914*
X90791486*
X90934342Y-44471486*
X91005772Y-44400058*
Y-43828628D02*
G01Y-44400058D01*
X91077200Y-44471486*
X91148628*
X91291486Y-44400058*
X91362914Y-44257200*
Y-43900058*
X91220058Y-43685772*
X91005772Y-43542914*
X90720058Y-43471486*
X90434342Y-43542914*
X90220058Y-43685772*
X90077200Y-43900058*
X90005772Y-44185772*
X90077200Y-44471486*
X90220058Y-44685772*
X90434342Y-44828628*
X90720058Y-44900058*
X91005772Y-44828628*
X91220058Y-44685772*
X91934342Y-44614342D02*
G01X92077200Y-44685772D01*
X92362914*
X92505772Y-44614342*
X92577200Y-44471486*
Y-44400058*
X92505772Y-44257200*
X92362914Y-44185772*
X92148628*
X92005772Y-44114342*
X91934342Y-43971486*
Y-43900058*
X92005772Y-43757200*
X92148628Y-43685772*
X92362914*
X92505772Y-43757200*
X93005772Y-43685772D02*
G01X93577200D01*
X93220058Y-43185772D02*
G01Y-44471486D01*
X93291486Y-44614342*
X93434342Y-44685772*
X93577200*
X94720058Y-43685772D02*
G01Y-44685772D01*
X94077200Y-43685772D02*
G01Y-44471486D01*
X94148628Y-44614342*
X94291486Y-44685772*
X94505772*
X94648628Y-44614342*
X94720058Y-44542914*
X96077200Y-44685772D02*
G01Y-43185772D01*
Y-44614342D02*
G01X95934342Y-44685772D01*
X95648628*
X95505772Y-44614342*
X95434342Y-44542914*
X95362914Y-44400058*
Y-43971486*
X95434342Y-43828628*
X95505772Y-43757200*
X95648628Y-43685772*
X95934342*
X96077200Y-43757200*
X96791486Y-44685772D02*
G01Y-43685772D01*
Y-43185772D02*
G01X96720058Y-43257200D01*
X96791486Y-43328628*
X96862914Y-43257200*
X96791486Y-43185772*
Y-43328628*
X97720058Y-44685772D02*
G01X97577200Y-44614342D01*
X97505772Y-44542914*
X97434342Y-44400058*
Y-43971486*
X97505772Y-43828628*
X97577200Y-43757200*
X97720058Y-43685772*
X97934342*
X98077200Y-43757200*
X98148628Y-43828628*
X98220058Y-43971486*
Y-44400058*
X98148628Y-44542914*
X98077200Y-44614342*
X97934342Y-44685772*
X97720058*
X98862914Y-43685772D02*
G01Y-45185772D01*
Y-43757200D02*
G01X99005772Y-43685772D01*
X99291486*
X99434342Y-43757200*
X99505772Y-43828628*
X99577200Y-43971486*
Y-44400058*
X99505772Y-44542914*
X99434342Y-44614342*
X99291486Y-44685772*
X99005772*
X98862914Y-44614342*
X100862914Y-44685772D02*
G01Y-43900058D01*
X100791486Y-43757200*
X100648628Y-43685772*
X100362914*
X100220058Y-43757200*
X100862914Y-44614342D02*
G01X100720058Y-44685772D01*
X100362914*
X100220058Y-44614342*
X100148628Y-44471486*
Y-44328628*
X100220058Y-44185772*
X100362914Y-44114342*
X100720058*
X100862914Y-44042914*
X101791486Y-44685772D02*
G01X101648628Y-44614342D01*
X101577200Y-44471486*
Y-43185772*
X102934342Y-44614342D02*
G01X102791486Y-44685772D01*
X102505772*
X102362914Y-44614342*
X102291486Y-44471486*
Y-43900058*
X102362914Y-43757200*
X102505772Y-43685772*
X102791486*
X102934342Y-43757200*
X103005772Y-43900058*
Y-44042914*
X102291486Y-44185772*
X103862914Y-44685772D02*
G01X103720058Y-44614342D01*
X103648628Y-44542914*
X103577200Y-44400058*
Y-43971486*
X103648628Y-43828628*
X103720058Y-43757200*
X103862914Y-43685772*
X104077200*
X104220058Y-43757200*
X104291486Y-43828628*
X104362914Y-43971486*
Y-44400058*
X104291486Y-44542914*
X104220058Y-44614342*
X104077200Y-44685772*
X103862914*
X105220058D02*
G01X105077200Y-44614342D01*
X105005772Y-44471486*
Y-43185772*
X106005772Y-44685772D02*
G01X105862914Y-44614342D01*
X105791486Y-44542914*
X105720058Y-44400058*
Y-43971486*
X105791486Y-43828628*
X105862914Y-43757200*
X106005772Y-43685772*
X106220058*
X106362914Y-43757200*
X106434342Y-43828628*
X106505772Y-43971486*
Y-44400058*
X106434342Y-44542914*
X106362914Y-44614342*
X106220058Y-44685772*
X106005772*
X107791486Y-43685772D02*
G01Y-44900058D01*
X107720058Y-45042914*
X107648628Y-45114342*
X107505772Y-45185772*
X107291486*
X107148628Y-45114342*
X107791486Y-44614342D02*
G01X107648628Y-44685772D01*
X107362914*
X107220058Y-44614342*
X107148628Y-44542914*
X107077200Y-44400058*
Y-43971486*
X107148628Y-43828628*
X107220058Y-43757200*
X107362914Y-43685772*
X107648628*
X107791486Y-43757200*
X108720058Y-44685772D02*
G01X108577200Y-44614342D01*
X108505772Y-44542914*
X108434342Y-44400058*
Y-43971486*
X108505772Y-43828628*
X108577200Y-43757200*
X108720058Y-43685772*
X108934342*
X109077200Y-43757200*
X109148628Y-43828628*
X109220058Y-43971486*
Y-44400058*
X109148628Y-44542914*
X109077200Y-44614342*
X108934342Y-44685772*
X108720058*
X109862914Y-44542914D02*
G01X109934342Y-44614342D01*
X109862914Y-44685772*
X109791486Y-44614342*
X109862914Y-44542914*
Y-44685772*
X111220058Y-44614342D02*
G01X111077200Y-44685772D01*
X110791486*
X110648628Y-44614342*
X110577200Y-44542914*
X110505772Y-44400058*
Y-43971486*
X110577200Y-43828628*
X110648628Y-43757200*
X110791486Y-43685772*
X111077200*
X111220058Y-43757200*
X112077200Y-44685772D02*
G01X111934342Y-44614342D01*
X111862914Y-44542914*
X111791486Y-44400058*
Y-43971486*
X111862914Y-43828628*
X111934342Y-43757200*
X112077200Y-43685772*
X112291486*
X112434342Y-43757200*
X112505772Y-43828628*
X112577200Y-43971486*
Y-44400058*
X112505772Y-44542914*
X112434342Y-44614342*
X112291486Y-44685772*
X112077200*
X113220058D02*
G01Y-43685772D01*
Y-43828628D02*
G01X113291486Y-43757200D01*
X113434342Y-43685772*
X113648628*
X113791486Y-43757200*
X113862914Y-43900058*
Y-44685772*
Y-43900058D02*
G01X113934342Y-43757200D01*
X114077200Y-43685772*
X114291486*
X114434342Y-43757200*
X114505772Y-43900058*
Y-44685772*
X79291486Y-41542914D02*
G01X79220058Y-41614342D01*
X79005772Y-41685772*
X78862914*
X78648628Y-41614342*
X78505772Y-41471486*
X78434342Y-41328628*
X78362914Y-41042914*
Y-40828628*
X78434342Y-40542914*
X78505772Y-40400058*
X78648628Y-40257200*
X78862914Y-40185772*
X79005772*
X79220058Y-40257200*
X79291486Y-40328628*
X80505772Y-41614342D02*
G01X80362914Y-41685772D01*
X80077200*
X79934342Y-41614342*
X79862914Y-41471486*
Y-40900058*
X79934342Y-40757200*
X80077200Y-40685772*
X80362914*
X80505772Y-40757200*
X80577200Y-40900058*
Y-41042914*
X79862914Y-41185772*
X81434342Y-41685772D02*
G01X81291486Y-41614342D01*
X81220058Y-41471486*
Y-40185772*
X82220058Y-41685772D02*
G01X82077200Y-41614342D01*
X82005772Y-41471486*
Y-40185772*
X83934342Y-41114342D02*
G01X85077200D01*
X84505772Y-41685772D02*
G01Y-40542914D01*
X85648628Y-40185772D02*
G01X86577200D01*
X86077200Y-40757200*
X86291486*
X86434342Y-40828628*
X86505772Y-40900058*
X86577200Y-41042914*
Y-41400058*
X86505772Y-41542914*
X86434342Y-41614342*
X86291486Y-41685772*
X85862914*
X85720058Y-41614342*
X85648628Y-41542914*
X87291486Y-41685772D02*
G01X87577200D01*
X87720058Y-41614342*
X87791486Y-41542914*
X87934342Y-41328628*
X88005772Y-41042914*
Y-40471486*
X87934342Y-40328628*
X87862914Y-40257200*
X87720058Y-40185772*
X87434342*
X87291486Y-40257200*
X87220058Y-40328628*
X87148628Y-40471486*
Y-40828628*
X87220058Y-40971486*
X87291486Y-41042914*
X87434342Y-41114342*
X87720058*
X87862914Y-41042914*
X87934342Y-40971486*
X88005772Y-40828628*
X89648628Y-40185772D02*
G01X90577200D01*
X90077200Y-40757200*
X90291486*
X90434342Y-40828628*
X90505772Y-40900058*
X90577200Y-41042914*
Y-41400058*
X90505772Y-41542914*
X90434342Y-41614342*
X90291486Y-41685772*
X89862914*
X89720058Y-41614342*
X89648628Y-41542914*
X91148628Y-40328628D02*
G01X91220058Y-40257200D01*
X91362914Y-40185772*
X91720058*
X91862914Y-40257200*
X91934342Y-40328628*
X92005772Y-40471486*
Y-40614342*
X91934342Y-40828628*
X91077200Y-41685772*
X92005772*
X92720058D02*
G01X93005772D01*
X93148628Y-41614342*
X93220058Y-41542914*
X93362914Y-41328628*
X93434342Y-41042914*
Y-40471486*
X93362914Y-40328628*
X93291486Y-40257200*
X93148628Y-40185772*
X92862914*
X92720058Y-40257200*
X92648628Y-40328628*
X92577200Y-40471486*
Y-40828628*
X92648628Y-40971486*
X92720058Y-41042914*
X92862914Y-41114342*
X93148628*
X93291486Y-41042914*
X93362914Y-40971486*
X93434342Y-40828628*
X95862914Y-40185772D02*
G01X95577200D01*
X95434342Y-40257200*
X95362914Y-40328628*
X95220058Y-40542914*
X95148628Y-40828628*
Y-41400058*
X95220058Y-41542914*
X95291486Y-41614342*
X95434342Y-41685772*
X95720058*
X95862914Y-41614342*
X95934342Y-41542914*
X96005772Y-41400058*
Y-41042914*
X95934342Y-40900058*
X95862914Y-40828628*
X95720058Y-40757200*
X95434342*
X95291486Y-40828628*
X95220058Y-40900058*
X95148628Y-41042914*
X96505772Y-40185772D02*
G01X97505772D01*
X96862914Y-41685772*
X98720058Y-40185772D02*
G01X98434342D01*
X98291486Y-40257200*
X98220058Y-40328628*
X98077200Y-40542914*
X98005772Y-40828628*
Y-41400058*
X98077200Y-41542914*
X98148628Y-41614342*
X98291486Y-41685772*
X98577200*
X98720058Y-41614342*
X98791486Y-41542914*
X98862914Y-41400058*
Y-41042914*
X98791486Y-40900058*
X98720058Y-40828628*
X98577200Y-40757200*
X98291486*
X98148628Y-40828628*
X98077200Y-40900058*
X98005772Y-41042914*
X100577200Y-40328628D02*
G01X100648628Y-40257200D01*
X100791486Y-40185772*
X101148628*
X101291486Y-40257200*
X101362914Y-40328628*
X101434342Y-40471486*
Y-40614342*
X101362914Y-40828628*
X100505772Y-41685772*
X101434342*
X102148628D02*
G01X102434342D01*
X102577200Y-41614342*
X102648628Y-41542914*
X102791486Y-41328628*
X102862914Y-41042914*
Y-40471486*
X102791486Y-40328628*
X102720058Y-40257200*
X102577200Y-40185772*
X102291486*
X102148628Y-40257200*
X102077200Y-40328628*
X102005772Y-40471486*
Y-40828628*
X102077200Y-40971486*
X102148628Y-41042914*
X102291486Y-41114342*
X102577200*
X102720058Y-41042914*
X102791486Y-40971486*
X102862914Y-40828628*
X105362914Y-40185772D02*
G01X104648628D01*
X104577200Y-40900058*
X104648628Y-40828628*
X104791486Y-40757200*
X105148628*
X105291486Y-40828628*
X105362914Y-40900058*
X105434342Y-41042914*
Y-41400058*
X105362914Y-41542914*
X105291486Y-41614342*
X105148628Y-41685772*
X104791486*
X104648628Y-41614342*
X104577200Y-41542914*
X106791486Y-40185772D02*
G01X106077200D01*
X106005772Y-40900058*
X106077200Y-40828628*
X106220058Y-40757200*
X106577200*
X106720058Y-40828628*
X106791486Y-40900058*
X106862914Y-41042914*
Y-41400058*
X106791486Y-41542914*
X106720058Y-41614342*
X106577200Y-41685772*
X106220058*
X106077200Y-41614342*
X106005772Y-41542914*
X78220058Y-37185772D02*
G01X78720058Y-38685772D01*
X79220058Y-37185772*
X79720058Y-38685772D02*
G01Y-37685772D01*
Y-37185772D02*
G01X79648628Y-37257200D01*
X79720058Y-37328628*
X79791486Y-37257200*
X79720058Y-37185772*
Y-37328628*
X81077200Y-38685772D02*
G01Y-37900058D01*
X81005772Y-37757200*
X80862914Y-37685772*
X80577200*
X80434342Y-37757200*
X81077200Y-38614342D02*
G01X80934342Y-38685772D01*
X80577200*
X80434342Y-38614342*
X80362914Y-38471486*
Y-38328628*
X80434342Y-38185772*
X80577200Y-38114342*
X80934342*
X81077200Y-38042914*
X83648628Y-38685772D02*
G01X82934342D01*
Y-37185772*
X84791486Y-38685772D02*
G01Y-37900058D01*
X84720058Y-37757200*
X84577200Y-37685772*
X84291486*
X84148628Y-37757200*
X84791486Y-38614342D02*
G01X84648628Y-38685772D01*
X84291486*
X84148628Y-38614342*
X84077200Y-38471486*
Y-38328628*
X84148628Y-38185772*
X84291486Y-38114342*
X84648628*
X84791486Y-38042914*
X85362914Y-37685772D02*
G01X85720058Y-38685772D01*
X86077200Y-37685772*
X87291486Y-38685772D02*
G01Y-37900058D01*
X87220058Y-37757200*
X87077200Y-37685772*
X86791486*
X86648628Y-37757200*
X87291486Y-38614342D02*
G01X87148628Y-38685772D01*
X86791486*
X86648628Y-38614342*
X86577200Y-38471486*
Y-38328628*
X86648628Y-38185772*
X86791486Y-38114342*
X87148628*
X87291486Y-38042914*
X88005772Y-38685772D02*
G01Y-37685772D01*
Y-37971486D02*
G01X88077200Y-37828628D01*
X88148628Y-37757200*
X88291486Y-37685772*
X88434342*
X88934342Y-38685772D02*
G01Y-37685772D01*
Y-37185772D02*
G01X88862914Y-37257200D01*
X88934342Y-37328628*
X89005772Y-37257200*
X88934342Y-37185772*
Y-37328628*
X90291486Y-38685772D02*
G01Y-37900058D01*
X90220058Y-37757200*
X90077200Y-37685772*
X89791486*
X89648628Y-37757200*
X90291486Y-38614342D02*
G01X90148628Y-38685772D01*
X89791486*
X89648628Y-38614342*
X89577200Y-38471486*
Y-38328628*
X89648628Y-38185772*
X89791486Y-38114342*
X90148628*
X90291486Y-38042914*
X91005772Y-37685772D02*
G01Y-38685772D01*
Y-37828628D02*
G01X91077200Y-37757200D01*
X91220058Y-37685772*
X91434342*
X91577200Y-37757200*
X91648628Y-37900058*
Y-38685772*
X92577200D02*
G01X92434342Y-38614342D01*
X92362914Y-38542914*
X92291486Y-38400058*
Y-37971486*
X92362914Y-37828628*
X92434342Y-37757200*
X92577200Y-37685772*
X92791486*
X92934342Y-37757200*
X93005772Y-37828628*
X93077200Y-37971486*
Y-38400058*
X93005772Y-38542914*
X92934342Y-38614342*
X92791486Y-38685772*
X92577200*
X94791486Y-37328628D02*
G01X94862914Y-37257200D01*
X95005772Y-37185772*
X95362914*
X95505772Y-37257200*
X95577200Y-37328628*
X95648628Y-37471486*
Y-37614342*
X95577200Y-37828628*
X94720058Y-38685772*
X95648628*
X96148628Y-37185772D02*
G01X97077200D01*
X96577200Y-37757200*
X96791486*
X96934342Y-37828628*
X97005772Y-37900058*
X97077200Y-38042914*
Y-38400058*
X97005772Y-38542914*
X96934342Y-38614342*
X96791486Y-38685772*
X96362914*
X96220058Y-38614342*
X96148628Y-38542914*
X98862914Y-38114342D02*
G01X100005772D01*
X101720058Y-37185772D02*
G01X102648628D01*
X102148628Y-37757200*
X102362914*
X102505772Y-37828628*
X102577200Y-37900058*
X102648628Y-38042914*
Y-38400058*
X102577200Y-38542914*
X102505772Y-38614342*
X102362914Y-38685772*
X101934342*
X101791486Y-38614342*
X101720058Y-38542914*
X103148628Y-37185772D02*
G01X104077200D01*
X103577200Y-37757200*
X103791486*
X103934342Y-37828628*
X104005772Y-37900058*
X104077200Y-38042914*
Y-38400058*
X104005772Y-38542914*
X103934342Y-38614342*
X103791486Y-38685772*
X103362914*
X103220058Y-38614342*
X103148628Y-38542914*
X105005772Y-37185772D02*
G01X105148628D01*
X105291486Y-37257200*
X105362914Y-37328628*
X105434342Y-37471486*
X105505772Y-37757200*
Y-38114342*
X105434342Y-38400058*
X105362914Y-38542914*
X105291486Y-38614342*
X105148628Y-38685772*
X105005772*
X104862914Y-38614342*
X104791486Y-38542914*
X104720058Y-38400058*
X104648628Y-38114342*
Y-37757200*
X104720058Y-37471486*
X104791486Y-37328628*
X104862914Y-37257200*
X105005772Y-37185772*
X106862914D02*
G01X106148628D01*
X106077200Y-37900058*
X106148628Y-37828628*
X106291486Y-37757200*
X106648628*
X106791486Y-37828628*
X106862914Y-37900058*
X106934342Y-38042914*
Y-38400058*
X106862914Y-38542914*
X106791486Y-38614342*
X106648628Y-38685772*
X106291486*
X106148628Y-38614342*
X106077200Y-38542914*
X107862914Y-37185772D02*
G01X108005772D01*
X108148628Y-37257200*
X108220058Y-37328628*
X108291486Y-37471486*
X108362914Y-37757200*
Y-38114342*
X108291486Y-38400058*
X108220058Y-38542914*
X108148628Y-38614342*
X108005772Y-38685772*
X107862914*
X107720058Y-38614342*
X107648628Y-38542914*
X107577200Y-38400058*
X107505772Y-38114342*
Y-37757200*
X107577200Y-37471486*
X107648628Y-37328628*
X107720058Y-37257200*
X107862914Y-37185772*
X110148628Y-38685772D02*
G01Y-37185772D01*
X110720058*
X110862914Y-37257200*
X110934342Y-37328628*
X111005772Y-37471486*
Y-37685772*
X110934342Y-37828628*
X110862914Y-37900058*
X110720058Y-37971486*
X110148628*
X111862914Y-38685772D02*
G01X111720058Y-38614342D01*
X111648628Y-38542914*
X111577200Y-38400058*
Y-37971486*
X111648628Y-37828628*
X111720058Y-37757200*
X111862914Y-37685772*
X112077200*
X112220058Y-37757200*
X112291486Y-37828628*
X112362914Y-37971486*
Y-38400058*
X112291486Y-38542914*
X112220058Y-38614342*
X112077200Y-38685772*
X111862914*
X112862914Y-37685772D02*
G01X113648628D01*
X112862914Y-38685772*
X113648628*
X114077200Y-37685772D02*
G01X114862914D01*
X114077200Y-38685772*
X114862914*
X116077200Y-37685772D02*
G01Y-38685772D01*
X115434342Y-37685772D02*
G01Y-38471486D01*
X115505772Y-38614342*
X115648628Y-38685772*
X115862914*
X116005772Y-38614342*
X116077200Y-38542914*
X117005772Y-38685772D02*
G01X116862914Y-38614342D01*
X116791486Y-38542914*
X116720058Y-38400058*
Y-37971486*
X116791486Y-37828628*
X116862914Y-37757200*
X117005772Y-37685772*
X117220058*
X117362914Y-37757200*
X117434342Y-37828628*
X117505772Y-37971486*
Y-38400058*
X117434342Y-38542914*
X117362914Y-38614342*
X117220058Y-38685772*
X117005772*
X118362914D02*
G01X118220058Y-38614342D01*
X118148628Y-38471486*
Y-37185772*
X119148628Y-38685772D02*
G01X119005772Y-38614342D01*
X118934342Y-38542914*
X118862914Y-38400058*
Y-37971486*
X118934342Y-37828628*
X119005772Y-37757200*
X119148628Y-37685772*
X119362914*
X119505772Y-37757200*
X119577200Y-37828628*
X119648628Y-37971486*
Y-38400058*
X119577200Y-38542914*
X119505772Y-38614342*
X119362914Y-38685772*
X119148628*
X122077200D02*
G01Y-37185772D01*
Y-38614342D02*
G01X121934342Y-38685772D01*
X121648628*
X121505772Y-38614342*
X121434342Y-38542914*
X121362914Y-38400058*
Y-37971486*
X121434342Y-37828628*
X121505772Y-37757200*
X121648628Y-37685772*
X121934342*
X122077200Y-37757200*
X123362914Y-38614342D02*
G01X123220058Y-38685772D01*
X122934342*
X122791486Y-38614342*
X122720058Y-38471486*
Y-37900058*
X122791486Y-37757200*
X122934342Y-37685772*
X123220058*
X123362914Y-37757200*
X123434342Y-37900058*
Y-38042914*
X122720058Y-38185772*
X124291486Y-38685772D02*
G01X124148628Y-38614342D01*
X124077200Y-38471486*
Y-37185772*
X126505772Y-37900058D02*
G01X126005772D01*
Y-38685772D02*
G01Y-37185772D01*
X126720058*
X127291486Y-38685772D02*
G01Y-37685772D01*
Y-37971486D02*
G01X127362914Y-37828628D01*
X127434342Y-37757200*
X127577200Y-37685772*
X127720058*
X128220058Y-38685772D02*
G01Y-37685772D01*
Y-37185772D02*
G01X128148628Y-37257200D01*
X128220058Y-37328628*
X128291486Y-37257200*
X128220058Y-37185772*
Y-37328628*
X129577200Y-37685772D02*
G01Y-38685772D01*
X128934342Y-37685772D02*
G01Y-38471486D01*
X129005772Y-38614342*
X129148628Y-38685772*
X129362914*
X129505772Y-38614342*
X129577200Y-38542914*
X130505772Y-38685772D02*
G01X130362914Y-38614342D01*
X130291486Y-38471486*
Y-37185772*
X131077200Y-38685772D02*
G01Y-37685772D01*
Y-37185772D02*
G01X131005772Y-37257200D01*
X131077200Y-37328628*
X131148628Y-37257200*
X131077200Y-37185772*
Y-37328628*
X133362914Y-39257200D02*
G01X133291486Y-39185772D01*
X133148628Y-38971486*
X133077200Y-38828628*
X133005772Y-38614342*
X132934342Y-38257200*
Y-37971486*
X133005772Y-37614342*
X133077200Y-37400058*
X133148628Y-37257200*
X133291486Y-37042914*
X133362914Y-36971486*
X133934342Y-37185772D02*
G01Y-38400058D01*
X134005772Y-38542914*
X134077200Y-38614342*
X134220058Y-38685772*
X134505772*
X134648628Y-38614342*
X134720058Y-38542914*
X134791486Y-38400058*
Y-37185772*
X135505772Y-38685772D02*
G01Y-37185772D01*
X135862914*
X136077200Y-37257200*
X136220058Y-37400058*
X136291486Y-37542914*
X136362914Y-37828628*
Y-38042914*
X136291486Y-38328628*
X136220058Y-38471486*
X136077200Y-38614342*
X135862914Y-38685772*
X135505772*
X136862914Y-39257200D02*
G01X136934342Y-39185772D01*
X137077200Y-38971486*
X137148628Y-38828628*
X137220058Y-38614342*
X137291486Y-38257200*
Y-37971486*
X137220058Y-37614342*
X137148628Y-37400058*
X137077200Y-37257200*
X136934342Y-37042914*
X136862914Y-36971486*
X78432342Y-47685772D02*
G01Y-46185772D01*
X79003772*
X79146628Y-46257200*
X79218058Y-46328628*
X79289486Y-46471486*
Y-46685772*
X79218058Y-46828628*
X79146628Y-46900058*
X79003772Y-46971486*
X78432342*
X79932342Y-47542914D02*
G01X80003772Y-47614342D01*
X79932342Y-47685772*
X79860914Y-47614342*
X79932342Y-47542914*
Y-47685772*
X80646628D02*
G01Y-46185772D01*
X81146628D02*
G01X81646628Y-47685772D01*
X82146628Y-46185772*
X82575200Y-47257200D02*
G01X83289486D01*
X82432342Y-47685772D02*
G01X82932342Y-46185772D01*
X83432342Y-47685772*
X83932342Y-47542914D02*
G01X84003772Y-47614342D01*
X83932342Y-47685772*
X83860914Y-47614342*
X83932342Y-47542914*
Y-47685772*
X86575200D02*
G01X85718058D01*
X86146628D02*
G01Y-46185772D01*
X86003772Y-46400058*
X85860914Y-46542914*
X85718058Y-46614342*
X87503772Y-46185772D02*
G01X87646628D01*
X87789486Y-46257200*
X87860914Y-46328628*
X87932342Y-46471486*
X88003772Y-46757200*
Y-47114342*
X87932342Y-47400058*
X87860914Y-47542914*
X87789486Y-47614342*
X87646628Y-47685772*
X87503772*
X87360914Y-47614342*
X87289486Y-47542914*
X87218058Y-47400058*
X87146628Y-47114342*
Y-46757200*
X87218058Y-46471486*
X87289486Y-46328628*
X87360914Y-46257200*
X87503772Y-46185772*
X89360914D02*
G01X88646628D01*
X88575200Y-46900058*
X88646628Y-46828628*
X88789486Y-46757200*
X89146628*
X89289486Y-46828628*
X89360914Y-46900058*
X89432342Y-47042914*
Y-47400058*
X89360914Y-47542914*
X89289486Y-47614342*
X89146628Y-47685772*
X88789486*
X88646628Y-47614342*
X88575200Y-47542914*
X90289486Y-46828628D02*
G01X90146628Y-46757200D01*
X90075200Y-46685772*
X90003772Y-46542914*
Y-46471486*
X90075200Y-46328628*
X90146628Y-46257200*
X90289486Y-46185772*
X90575200*
X90718058Y-46257200*
X90789486Y-46328628*
X90860914Y-46471486*
Y-46542914*
X90789486Y-46685772*
X90718058Y-46757200*
X90575200Y-46828628*
X90289486*
X90146628Y-46900058*
X90075200Y-46971486*
X90003772Y-47114342*
Y-47400058*
X90075200Y-47542914*
X90146628Y-47614342*
X90289486Y-47685772*
X90575200*
X90718058Y-47614342*
X90789486Y-47542914*
X90860914Y-47400058*
Y-47114342*
X90789486Y-46971486*
X90718058Y-46900058*
X90575200Y-46828628*
X91360914Y-46185772D02*
G01X92360914D01*
X91718058Y-47685772*
X93146628Y-46828628D02*
G01X93003772Y-46757200D01*
X92932342Y-46685772*
X92860914Y-46542914*
Y-46471486*
X92932342Y-46328628*
X93003772Y-46257200*
X93146628Y-46185772*
X93432342*
X93575200Y-46257200*
X93646628Y-46328628*
X93718058Y-46471486*
Y-46542914*
X93646628Y-46685772*
X93575200Y-46757200*
X93432342Y-46828628*
X93146628*
X93003772Y-46900058*
X92932342Y-46971486*
X92860914Y-47114342*
Y-47400058*
X92932342Y-47542914*
X93003772Y-47614342*
X93146628Y-47685772*
X93432342*
X93575200Y-47614342*
X93646628Y-47542914*
X93718058Y-47400058*
Y-47114342*
X93646628Y-46971486*
X93575200Y-46900058*
X93432342Y-46828628*
X94575200D02*
G01X94432342Y-46757200D01*
X94360914Y-46685772*
X94289486Y-46542914*
Y-46471486*
X94360914Y-46328628*
X94432342Y-46257200*
X94575200Y-46185772*
X94860914*
X95003772Y-46257200*
X95075200Y-46328628*
X95146628Y-46471486*
Y-46542914*
X95075200Y-46685772*
X95003772Y-46757200*
X94860914Y-46828628*
X94575200*
X94432342Y-46900058*
X94360914Y-46971486*
X94289486Y-47114342*
Y-47400058*
X94360914Y-47542914*
X94432342Y-47614342*
X94575200Y-47685772*
X94860914*
X95003772Y-47614342*
X95075200Y-47542914*
X95146628Y-47400058*
Y-47114342*
X95075200Y-46971486*
X95003772Y-46900058*
X94860914Y-46828628*
X96075200Y-46185772D02*
G01X96218058D01*
X96360914Y-46257200*
X96432342Y-46328628*
X96503772Y-46471486*
X96575200Y-46757200*
Y-47114342*
X96503772Y-47400058*
X96432342Y-47542914*
X96360914Y-47614342*
X96218058Y-47685772*
X96075200*
X95932342Y-47614342*
X95860914Y-47542914*
X95789486Y-47400058*
X95718058Y-47114342*
Y-46757200*
X95789486Y-46471486*
X95860914Y-46328628*
X95932342Y-46257200*
X96075200Y-46185772*
X97503772D02*
G01X97646628D01*
X97789486Y-46257200*
X97860914Y-46328628*
X97932342Y-46471486*
X98003772Y-46757200*
Y-47114342*
X97932342Y-47400058*
X97860914Y-47542914*
X97789486Y-47614342*
X97646628Y-47685772*
X97503772*
X97360914Y-47614342*
X97289486Y-47542914*
X97218058Y-47400058*
X97146628Y-47114342*
Y-46757200*
X97218058Y-46471486*
X97289486Y-46328628*
X97360914Y-46257200*
X97503772Y-46185772*
X99432342Y-47685772D02*
G01X98575200D01*
X99003772D02*
G01Y-46185772D01*
X98860914Y-46400058*
X98718058Y-46542914*
X98575200Y-46614342*
X99932342Y-46185772D02*
G01X100860914D01*
X100360914Y-46757200*
X100575200*
X100718058Y-46828628*
X100789486Y-46900058*
X100860914Y-47042914*
Y-47400058*
X100789486Y-47542914*
X100718058Y-47614342*
X100575200Y-47685772*
X100146628*
X100003772Y-47614342*
X99932342Y-47542914*
G54D13*
X78643152Y-35816724D02*
G01X78928866Y-35911962D01*
X79405058*
X79595534Y-35816724*
X79690772Y-35721486*
X79786010Y-35531010*
Y-35340534*
X79690772Y-35150058*
X79595534Y-35054820*
X79405058Y-34959580*
X79024104Y-34864342*
X78833628Y-34769104*
X78738390Y-34673866*
X78643152Y-34483390*
Y-34292914*
X78738390Y-34102438*
X78833628Y-34007200*
X79024104Y-33911962*
X79500296*
X79786010Y-34007200*
X80357438Y-34578628D02*
G01X81119342D01*
X80643152Y-33911962D02*
G01Y-35626248D01*
X80738390Y-35816724*
X80928866Y-35911962*
X81119342*
X82643152Y-34578628D02*
G01Y-35911962D01*
X81786010Y-34578628D02*
G01Y-35626248D01*
X81881248Y-35816724*
X82071724Y-35911962*
X82357438*
X82547914Y-35816724*
X82643152Y-35721486*
X84452676Y-35911962D02*
G01Y-33911962D01*
Y-35816724D02*
G01X84262200Y-35911962D01*
X83881248*
X83690772Y-35816724*
X83595534Y-35721486*
X83500296Y-35531010*
Y-34959580*
X83595534Y-34769104*
X83690772Y-34673866*
X83881248Y-34578628*
X84262200*
X84452676Y-34673866*
X85405058Y-35911962D02*
G01Y-34578628D01*
Y-33911962D02*
G01X85309820Y-34007200D01*
X85405058Y-34102438*
X85500296Y-34007200*
X85405058Y-33911962*
Y-34102438*
X86643152Y-35911962D02*
G01X86452676Y-35816724D01*
X86357438Y-35721486*
X86262200Y-35531010*
Y-34959580*
X86357438Y-34769104*
X86452676Y-34673866*
X86643152Y-34578628*
X86928866*
X87119342Y-34673866*
X87214580Y-34769104*
X87309820Y-34959580*
Y-35531010*
X87214580Y-35721486*
X87119342Y-35816724*
X86928866Y-35911962*
X86643152*
X89690772D02*
G01Y-33911962D01*
X90452676*
X90643152Y-34007200*
X90738390Y-34102438*
X90833628Y-34292914*
Y-34578628*
X90738390Y-34769104*
X90643152Y-34864342*
X90452676Y-34959580*
X89690772*
X92547914Y-35911962D02*
G01Y-34864342D01*
X92452676Y-34673866*
X92262200Y-34578628*
X91881248*
X91690772Y-34673866*
X92547914Y-35816724D02*
G01X92357438Y-35911962D01*
X91881248*
X91690772Y-35816724*
X91595534Y-35626248*
Y-35435772*
X91690772Y-35245296*
X91881248Y-35150058*
X92357438*
X92547914Y-35054820*
X93786010Y-35911962D02*
G01X93595534Y-35816724D01*
X93500296Y-35626248*
Y-33911962*
X95309820Y-35816724D02*
G01X95119342Y-35911962D01*
X94738390*
X94547914Y-35816724*
X94452676Y-35626248*
Y-34864342*
X94547914Y-34673866*
X94738390Y-34578628*
X95119342*
X95309820Y-34673866*
X95405058Y-34864342*
Y-35054820*
X94452676Y-35245296*
X96547914Y-35911962D02*
G01X96357438Y-35816724D01*
X96262200Y-35721486*
X96166962Y-35531010*
Y-34959580*
X96262200Y-34769104*
X96357438Y-34673866*
X96547914Y-34578628*
X96833628*
X97024104Y-34673866*
X97119342Y-34769104*
X97214580Y-34959580*
Y-35531010*
X97119342Y-35721486*
X97024104Y-35816724*
X96833628Y-35911962*
X96547914*
X98357438D02*
G01X98166962Y-35816724D01*
X98071724Y-35626248*
Y-33911962*
X99405058Y-35911962D02*
G01X99214580Y-35816724D01*
X99119342Y-35721486*
X99024104Y-35531010*
Y-34959580*
X99119342Y-34769104*
X99214580Y-34673866*
X99405058Y-34578628*
X99690772*
X99881248Y-34673866*
X99976486Y-34769104*
X100071724Y-34959580*
Y-35531010*
X99976486Y-35721486*
X99881248Y-35816724*
X99690772Y-35911962*
X99405058*
X101786010Y-34578628D02*
G01Y-36197676D01*
X101690772Y-36388152*
X101595534Y-36483390*
X101405058Y-36578628*
X101119342*
X100928866Y-36483390*
X101786010Y-35816724D02*
G01X101595534Y-35911962D01*
X101214580*
X101024104Y-35816724*
X100928866Y-35721486*
X100833628Y-35531010*
Y-34959580*
X100928866Y-34769104*
X101024104Y-34673866*
X101214580Y-34578628*
X101595534*
X101786010Y-34673866*
X103024104Y-35911962D02*
G01X102833628Y-35816724D01*
X102738390Y-35721486*
X102643152Y-35531010*
Y-34959580*
X102738390Y-34769104*
X102833628Y-34673866*
X103024104Y-34578628*
X103309820*
X103500296Y-34673866*
X103595534Y-34769104*
X103690772Y-34959580*
Y-35531010*
X103595534Y-35721486*
X103500296Y-35816724*
X103309820Y-35911962*
X103024104*
X106928866D02*
G01Y-33911962D01*
Y-35816724D02*
G01X106738390Y-35911962D01*
X106357438*
X106166962Y-35816724*
X106071724Y-35721486*
X105976486Y-35531010*
Y-34959580*
X106071724Y-34769104*
X106166962Y-34673866*
X106357438Y-34578628*
X106738390*
X106928866Y-34673866*
X107881248Y-35911962D02*
G01Y-34578628D01*
Y-33911962D02*
G01X107786010Y-34007200D01*
X107881248Y-34102438*
X107976486Y-34007200*
X107881248Y-33911962*
Y-34102438*
X110262200Y-35340534D02*
G01X111214580D01*
X110071724Y-35911962D02*
G01X110738390Y-33911962D01*
X111405058Y-35911962*
X112071724Y-34578628D02*
G01Y-35911962D01*
Y-34769104D02*
G01X112166962Y-34673866D01*
X112357438Y-34578628*
X112643152*
X112833628Y-34673866*
X112928866Y-34864342*
Y-35911962*
X114738390D02*
G01Y-33911962D01*
Y-35816724D02*
G01X114547914Y-35911962D01*
X114166962*
X113976486Y-35816724*
X113881248Y-35721486*
X113786010Y-35531010*
Y-34959580*
X113881248Y-34769104*
X113976486Y-34673866*
X114166962Y-34578628*
X114547914*
X114738390Y-34673866*
X115690772Y-35911962D02*
G01Y-34578628D01*
Y-34959580D02*
G01X115786010Y-34769104D01*
X115881248Y-34673866*
X116071724Y-34578628*
X116262200*
X117690772Y-35816724D02*
G01X117500296Y-35911962D01*
X117119342*
X116928866Y-35816724*
X116833628Y-35626248*
Y-34864342*
X116928866Y-34673866*
X117119342Y-34578628*
X117500296*
X117690772Y-34673866*
X117786010Y-34864342*
Y-35054820*
X116833628Y-35245296*
X119500296Y-35911962D02*
G01Y-34864342D01*
X119405058Y-34673866*
X119214580Y-34578628*
X118833628*
X118643152Y-34673866*
X119500296Y-35816724D02*
G01X119309820Y-35911962D01*
X118833628*
X118643152Y-35816724*
X118547914Y-35626248*
Y-35435772*
X118643152Y-35245296*
X118833628Y-35150058*
X119309820*
X119500296Y-35054820*
X121976486Y-35911962D02*
G01Y-33911962D01*
X122738390*
X122928866Y-34007200*
X123024104Y-34102438*
X123119342Y-34292914*
Y-34578628*
X123024104Y-34769104*
X122928866Y-34864342*
X122738390Y-34959580*
X121976486*
X124833628Y-35911962D02*
G01Y-34864342D01*
X124738390Y-34673866*
X124547914Y-34578628*
X124166962*
X123976486Y-34673866*
X124833628Y-35816724D02*
G01X124643152Y-35911962D01*
X124166962*
X123976486Y-35816724*
X123881248Y-35626248*
Y-35435772*
X123976486Y-35245296*
X124166962Y-35150058*
X124643152*
X124833628Y-35054820*
X126071724Y-35911962D02*
G01X125881248Y-35816724D01*
X125786010Y-35626248*
Y-33911962*
X127595534Y-35816724D02*
G01X127405058Y-35911962D01*
X127024104*
X126833628Y-35816724*
X126738390Y-35626248*
Y-34864342*
X126833628Y-34673866*
X127024104Y-34578628*
X127405058*
X127595534Y-34673866*
X127690772Y-34864342*
Y-35054820*
X126738390Y-35245296*
X128833628Y-35911962D02*
G01X128643152Y-35816724D01*
X128547914Y-35721486*
X128452676Y-35531010*
Y-34959580*
X128547914Y-34769104*
X128643152Y-34673866*
X128833628Y-34578628*
X129119342*
X129309820Y-34673866*
X129405058Y-34769104*
X129500296Y-34959580*
Y-35531010*
X129405058Y-35721486*
X129309820Y-35816724*
X129119342Y-35911962*
X128833628*
X130643152D02*
G01X130452676Y-35816724D01*
X130357438Y-35626248*
Y-33911962*
X131690772Y-35911962D02*
G01X131500296Y-35816724D01*
X131405058Y-35721486*
X131309820Y-35531010*
Y-34959580*
X131405058Y-34769104*
X131500296Y-34673866*
X131690772Y-34578628*
X131976486*
X132166960Y-34673866*
X132262200Y-34769104*
X132357438Y-34959580*
Y-35531010*
X132262200Y-35721486*
X132166960Y-35816724*
X131976486Y-35911962*
X131690772*
X134071722Y-34578628D02*
G01Y-36197676D01*
X133976486Y-36388152*
X133881248Y-36483390*
X133690772Y-36578628*
X133405058*
X133214580Y-36483390*
X134071722Y-35816724D02*
G01X133881248Y-35911962D01*
X133500296*
X133309820Y-35816724*
X133214580Y-35721486*
X133119342Y-35531010*
Y-34959580*
X133214580Y-34769104*
X133309820Y-34673866*
X133500296Y-34578628*
X133881248*
X134071722Y-34673866*
X135309820Y-35911962D02*
G01X135119342Y-35816724D01*
X135024104Y-35721486*
X134928866Y-35531010*
Y-34959580*
X135024104Y-34769104*
X135119342Y-34673866*
X135309820Y-34578628*
X135595534*
X135786010Y-34673866*
X135881248Y-34769104*
X135976486Y-34959580*
Y-35531010*
X135881248Y-35721486*
X135786010Y-35816724*
X135595534Y-35911962*
X135309820*
G54D11*
X97002200Y-58507200D02*
G01Y-61507200D01*
X161002200Y-58507200D02*
G01Y-65007200D01*
G54D12*
X78973580Y-52476248D02*
G01Y-50776248D01*
X79925962*
X80497390Y-50857200*
X80878342Y-51019104*
X81068820Y-51181010*
X81259296Y-51504820*
Y-51747676*
X81068820Y-52071486*
X80878342Y-52233390*
X80497390Y-52395296*
X79925962Y-52476248*
X78973580*
X82973580D02*
G01Y-50776248D01*
X84687866Y-52395296D02*
G01X85259296Y-52476248D01*
X86211676*
X86592628Y-52395296*
X86783104Y-52314342*
X86973580Y-52152438*
Y-51990534*
X86783104Y-51828628*
X86592628Y-51747676*
X86211676Y-51666724*
X85449772Y-51585772*
X85068820Y-51504820*
X84878342Y-51423866*
X84687866Y-51261962*
Y-51100058*
X84878342Y-50938152*
X85068820Y-50857200*
X85449772Y-50776248*
X86402152*
X86973580Y-50857200*
X88687866Y-51585772D02*
G01X90021200D01*
X90592628Y-52476248D02*
G01X88687866D01*
Y-50776248*
X90592628*
X94402152Y-50857200D02*
G01X94021200Y-50776248D01*
X93449772*
X92878342Y-50857200*
X92497390Y-51019104*
X92306914Y-51181010*
X92116438Y-51504820*
Y-51747676*
X92306914Y-52071486*
X92497390Y-52233390*
X92878342Y-52395296*
X93449772Y-52476248*
X93830724*
X94402152Y-52395296*
X94592628Y-52314342*
Y-51747676*
X93830724*
X96306914Y-52476248D02*
G01Y-50776248D01*
X98592628Y-52476248*
Y-50776248*
X101259296D02*
G01X102021200D01*
X102402152Y-50857200*
X102783104Y-51019104*
X102973580Y-51342914*
Y-51909580*
X102783104Y-52233390*
X102402152Y-52395296*
X102021200Y-52476248*
X101259296*
X100878342Y-52395296*
X100497390Y-52233390*
X100306914Y-51909580*
Y-51342914*
X100497390Y-51019104*
X100878342Y-50857200*
X101259296Y-50776248*
X107164058D02*
G01X108497390Y-52476248D01*
X109830724Y-50776248*
X111164058Y-52476248D02*
G01Y-50776248D01*
X112878342Y-52395296D02*
G01X113449772Y-52476248D01*
X114402152*
X114783104Y-52395296*
X114973580Y-52314342*
X115164058Y-52152438*
Y-51990534*
X114973580Y-51828628*
X114783104Y-51747676*
X114402152Y-51666724*
X113640248Y-51585772*
X113259296Y-51504820*
X113068820Y-51423866*
X112878342Y-51261962*
Y-51100058*
X113068820Y-50938152*
X113259296Y-50857200*
X113640248Y-50776248*
X114592628*
X115164058Y-50857200*
X116306914Y-50776248D02*
G01X118592628D01*
X117449772Y-52476248D02*
G01Y-50776248D01*
X119735486Y-51990534D02*
G01X121640248D01*
X119354534Y-52476248D02*
G01X120687866Y-50776248D01*
X122021200Y-52476248*
X128306914D02*
G01X126402152D01*
Y-50776248*
X129449772Y-51990534D02*
G01X131354534D01*
X129068818Y-52476248D02*
G01X130402152Y-50776248D01*
X131735486Y-52476248*
X132497390Y-50776248D02*
G01X134783104D01*
X133640246Y-52476248D02*
G01Y-50776248D01*
X136878342D02*
G01X137640248D01*
X138021200Y-50857200*
X138402152Y-51019104*
X138592628Y-51342914*
Y-51909580*
X138402152Y-52233390*
X138021200Y-52395296*
X137640248Y-52476248*
X136878342*
X136497390Y-52395296*
X136116438Y-52233390*
X135925962Y-51909580*
Y-51342914*
X136116438Y-51019104*
X136497390Y-50857200*
X136878342Y-50776248*
X142783104D02*
G01X145068820D01*
X143925962Y-52476248D02*
G01Y-50776248D01*
X147164058D02*
G01X147925962D01*
X148306914Y-50857200*
X148687866Y-51019104*
X148878342Y-51342914*
Y-51909580*
X148687866Y-52233390*
X148306914Y-52395296*
X147925962Y-52476248*
X147164058*
X146783104Y-52395296*
X146402152Y-52233390*
X146211676Y-51909580*
Y-51342914*
X146402152Y-51019104*
X146783104Y-50857200*
X147164058Y-50776248*
X150592628Y-52476248D02*
G01Y-50776248D01*
X152116438*
X152497390Y-50857200*
X152687866Y-50938152*
X152878342Y-51100058*
Y-51342914*
X152687866Y-51504820*
X152497390Y-51585772*
X152116438Y-51666724*
X150592628*
G54D15*
X114052142Y60007144D02*
G01X114266428Y59935716D01*
X114337858Y59864286*
X114409286Y59721430*
Y59507144*
X114337858Y59364286*
X114266428Y59292858*
X114123572Y59221430*
X113552142*
Y60721430*
X114052142*
X114195000Y60650000*
X114266428Y60578572*
X114337858Y60435716*
Y60292858*
X114266428Y60150000*
X114195000Y60078572*
X114052142Y60007144*
X113552142*
X115337858Y60721430D02*
G01X115623572D01*
X115766428Y60650000*
X115909286Y60507144*
X115980714Y60221430*
Y59721430*
X115909286Y59435716*
X115766428Y59292858*
X115623572Y59221430*
X115337858*
X115195000Y59292858*
X115052142Y59435716*
X114980714Y59721430*
Y60221430*
X115052142Y60507144*
X115195000Y60650000*
X115337858Y60721430*
X116409286D02*
G01X117266428D01*
X116837858Y59221430D02*
G01Y60721430D01*
X117552142D02*
G01X118409286D01*
X117980714Y59221430D02*
G01Y60721430D01*
X119195000D02*
G01X119480714D01*
X119623572Y60650000*
X119766428Y60507144*
X119837858Y60221430*
Y59721430*
X119766428Y59435716*
X119623572Y59292858*
X119480714Y59221430*
X119195000*
X119052142Y59292858*
X118909286Y59435716*
X118837858Y59721430*
Y60221430*
X118909286Y60507144*
X119052142Y60650000*
X119195000Y60721430*
X120480714Y59221430D02*
G01Y60721430D01*
X120980714Y59650000*
X121480714Y60721430*
Y59221430*
X1892858Y43964286D02*
G01X1964286Y43750000D01*
X2035714Y43678572*
X2178572Y43607144*
X2392858*
X2535714Y43678572*
X2607142Y43750000*
X2678572Y43892858*
Y44464286*
X1178572*
Y43964286*
X1250000Y43821430*
X1321428Y43750000*
X1464286Y43678572*
X1607142*
X1750000Y43750000*
X1821428Y43821430*
X1892858Y43964286*
Y44464286*
X1178572Y42678572D02*
G01Y42392858D01*
X1250000Y42250000*
X1392858Y42107144*
X1678572Y42035716*
X2178572*
X2464286Y42107144*
X2607142Y42250000*
X2678572Y42392858*
Y42678572*
X2607142Y42821430*
X2464286Y42964286*
X2178572Y43035716*
X1678572*
X1392858Y42964286*
X1250000Y42821430*
X1178572Y42678572*
Y41607144D02*
G01Y40750000D01*
X2678572Y41178572D02*
G01X1178572D01*
Y40464286D02*
G01Y39607144D01*
X2678572Y40035716D02*
G01X1178572D01*
Y38821430D02*
G01Y38535716D01*
X1250000Y38392858*
X1392858Y38250000*
X1678572Y38178572*
X2178572*
X2464286Y38250000*
X2607142Y38392858*
X2678572Y38535716*
Y38821430*
X2607142Y38964286*
X2464286Y39107144*
X2178572Y39178572*
X1678572*
X1392858Y39107144*
X1250000Y38964286*
X1178572Y38821430*
X2678572Y37535716D02*
G01X1178572D01*
X2250000Y37035716*
X1178572Y36535716*
X2678572*
G54D16*
X47000000Y4500000D02*
G01X46977210Y4760472D01*
X46909538Y5013030*
X46799038Y5250000*
X46649066Y5464180*
X46464180Y5649066*
X46250000Y5799038*
X46013030Y5909538*
X45760472Y5977210*
X45500000Y6000000*
X28500000D02*
G01X28239526Y5977210D01*
X27986968Y5909538*
X27750000Y5799038*
X27535818Y5649066*
X27350932Y5464180*
X27200960Y5250000*
X27090460Y5013030*
X27022788Y4760472*
X27000000Y4500000*
X0Y64000000D02*
G01Y0D01*
X110000000Y64000000D02*
G01X0D01*
X110000000Y0D02*
G01Y64000000D01*
X47000000Y0D02*
G01X110000000D01*
X47000000Y4500000D02*
G01Y0D01*
X28500000Y6000000D02*
G01X45500000D01*
X27000000Y0D02*
G01Y4500000D01*
X0Y0D02*
G01X27000000D01*
G54D61*
X24750000Y45750000D02*
G01Y46450000D01*
X25600000Y44900000D02*
G01X24750000Y45750000D01*
X27100000Y44900000D02*
G01X25600000D01*
X80000000Y56850000D02*
G01X80100000Y56950000D01*
X80000000Y52690000D02*
G01Y56850000D01*
X45474990Y47724990D02*
G01X33724990D01*
X64080000Y55880000D02*
G01X63100000Y54900000D01*
X80100000Y56950000D02*
G01X79030000Y55880000D01*
X52650000Y54900000D02*
G01X45474990Y47724990D01*
X63100000Y54900000D02*
G01X52650000D01*
X79030000Y55880000D02*
G01X64080000D01*
X33724990Y47724990D02*
G01X33400000Y47400000D01*
G54D62*
X74700000Y59450000D02*
G01Y57045000D01*
X73430000Y59450000D02*
G01Y57045000D01*
X72160000Y59450000D02*
G01Y57045000D01*
G54D63*
X105750000Y7000000D02*
G01X103800000D01*
X105750000D02*
G01Y8950000D01*
G54D62*
X70890000Y59450000D02*
G01Y57045000D01*
X69600000Y59450000D02*
G01Y57045000D01*
X68250000Y59445000D02*
G01Y57040000D01*
G54D64*
X39250000Y22190000D02*
G01Y23000000D01*
X94870000Y13000000D02*
G01X94090000D01*
G54D62*
X98220000Y15750000D02*
G01X98230000Y15740000D01*
X96950000Y15750000D02*
G01X98220000D01*
G54D64*
X101500000Y13650000D02*
G01X99750000D01*
X102440000Y22750000D02*
G01Y23700000D01*
X105000000Y22750000D02*
G01Y23870000D01*
Y23870000D02*
G01X104990000Y23880000D01*
G54D63*
X104000000Y29750000D02*
G01Y27600000D01*
Y29750000D02*
G01X102050000D01*
X92000000D02*
G01X93375000D01*
G54D64*
X87000000Y31560000D02*
G01X86005000D01*
X94000000Y47750000D02*
G01X95000000D01*
X94000000Y50250000D02*
G01X95000000D01*
X94000000D02*
G01X93000000D01*
X94000000Y47750000D02*
G01X93000000D01*
X102500000Y48250000D02*
G01X101250000D01*
X105000000D02*
G01X106250000D01*
X81500000Y44000000D02*
G01Y42750000D01*
Y44000000D02*
G01Y45250000D01*
X46250000Y56560000D02*
G01X47245000D01*
X47250000Y56555000D02*
G01X47245000Y56560000D01*
X20000000Y50940000D02*
G01Y51750000D01*
X25000000Y50940000D02*
G01Y51700000D01*
X28810000Y49750000D02*
G01X27950000D01*
X38190000D02*
G01X39050000D01*
G54D62*
X55950000Y11550000D02*
G01X56950000D01*
X57440000Y14000000D02*
G01X58500000D01*
G54D64*
X22250000Y30310000D02*
G01Y29250000D01*
G54D65*
X34200000Y44000000D02*
G01X32750000D01*
X33250000D02*
G01X32750000D01*
G54D64*
X55750000Y36440000D02*
G01X54755000D01*
X79000000Y27440000D02*
G01X78005000D01*
X57500000Y33190000D02*
G01X58690000D01*
X58950000Y33450000D02*
G01X60200000D01*
X58690000Y33190000D02*
G01X58950000Y33450000D01*
X55750000Y29940000D02*
G01X54755000D01*
X61060000Y14000000D02*
G01X60100000D01*
X19750000Y40340000D02*
G01Y41250000D01*
Y41250000D02*
G01Y42060000D01*
X18000000D02*
G01Y41250000D01*
X24250000Y30310000D02*
G01Y29450000D01*
Y29450000D02*
G01Y29250000D01*
G54D65*
X22800000Y44000000D02*
G01X24300000D01*
G54D64*
X52560000Y20000000D02*
G01X52550000Y19990000D01*
X25250000Y22190000D02*
G01Y23250000D01*
X29250000Y22190000D02*
G01Y23250000D01*
X21250000Y20810000D02*
G01Y19750000D01*
X29250000Y25690000D02*
G01Y26750000D01*
G54D61*
X31250000Y25690000D02*
G01X31385000D01*
G54D64*
X31250000D02*
G01Y26750000D01*
Y22190000D02*
G01X30250000D01*
Y22190000D02*
G01X29250000D01*
X40190000Y35500000D02*
G01X41140000D01*
X40190000Y37500000D02*
G01X41200000D01*
X41250000Y43500000D02*
G01X42750000D01*
X38750000Y43810000D02*
G01X37755000D01*
Y43810000D02*
G01X37060000D01*
Y43810000D02*
G01X37000000Y43750000D01*
G54D65*
X32650000Y44064992D02*
G01X32250000Y44464990D01*
X32714990Y44000000D02*
G01X32650000Y44064992D01*
X32750000Y44000000D02*
G01X32714990D01*
X30250000Y46450000D02*
G01Y44037516D01*
Y44037516D02*
G01X30837506Y43450010D01*
Y43450010D02*
G01X31237504Y43050012D01*
G54D64*
X33250000Y25690000D02*
G01Y26750000D01*
G54D65*
X37000000Y19233816D02*
G01X37216174Y19449990D01*
G54D62*
X23500000Y10940000D02*
G01Y12000000D01*
G54D64*
X83250000Y22750000D02*
G01X84483626D01*
Y22750000D02*
G01X84486814Y22746812D01*
X14800000Y39800000D02*
G01X13200000D01*
X15250000Y39900000D02*
G01X14900000D01*
Y39900000D02*
G01X14800000Y39800000D01*
G54D61*
X36975000Y13580702D02*
G01X36750000Y13355702D01*
X37000000Y15990000D02*
G01Y15880000D01*
Y15880000D02*
G01X36975000Y15855000D01*
X36750000Y13355702D02*
G01Y13300000D01*
Y13300000D02*
G01Y12500000D01*
X36975000Y16025000D02*
G01X37000000Y16050000D01*
X36975000Y15700000D02*
G01Y16025000D01*
G54D65*
X37000000Y16050000D02*
G01Y19233816D01*
Y15980000D02*
G01Y16050000D01*
G54D61*
X36975000Y15855000D02*
G01Y15700000D01*
Y15700000D02*
G01Y13580702D01*
G54D64*
X60200000Y33450000D02*
G01X62050000D01*
X55750000Y39690000D02*
G01X54090000D01*
X52560000Y20000000D02*
G01X51200000D01*
X69940000Y24000000D02*
G01X71080000D01*
Y24000000D02*
G01X71110000Y24030000D01*
X96090000Y20200000D02*
G01Y20389998D01*
X92900000Y20700000D02*
G01X93400000Y20200000D01*
X91900000Y20700000D02*
G01X92900000D01*
X88790000Y17250000D02*
G01Y16110000D01*
X96090000Y20200000D02*
G01X96950000D01*
Y20200000D02*
G01X97800000D01*
G54D62*
X16000000Y24850000D02*
G01Y23250000D01*
X12000000Y26000000D02*
G01X10250000D01*
G54D64*
X10060000Y11250000D02*
G01Y12440000D01*
X13400000Y17640000D02*
G01X15010000D01*
X2810000Y16750000D02*
G01X2000000D01*
X19190000Y13000000D02*
G01Y11810000D01*
X19750000Y19000000D02*
G01X20500000Y18250000D01*
X19190000Y19000000D02*
G01X19750000D01*
X12500000Y40500000D02*
G01X13200000Y39800000D01*
X12500000Y41000000D02*
G01Y40500000D01*
X10250000Y41000000D02*
G01X12500000D01*
X83950000Y18550000D02*
G01X85125000D01*
X81950000Y14750000D02*
G01Y13300000D01*
X69930000Y17860000D02*
G01X70890000D01*
Y17860000D02*
G01X71000000Y17750000D01*
X64350000Y20410000D02*
G01X66490000D01*
Y20410000D02*
G01X66500000Y20400000D01*
X77650000Y30750000D02*
G01X80010000D01*
Y30750000D02*
G01X81500000D01*
X82000000Y31250000D02*
G01X83500000D01*
X81500000Y30750000D02*
G01X82000000Y31250000D01*
X67000000Y31750000D02*
G01Y30750000D01*
X67500000Y32250000D02*
G01X67000000Y31750000D01*
X75200000Y32250000D02*
G01X67500000D01*
X77650000Y30750000D02*
G01X76700000D01*
Y30750000D02*
G01X75200000Y32250000D01*
X62300000Y32500000D02*
G01X63750000D01*
X74350000Y30750000D02*
G01X72390000D01*
Y30750000D02*
G01X70000000D01*
G54D66*
X81500000Y47000000D02*
G01X78500000D01*
G54D63*
X74625000D02*
G01Y44300000D01*
X66000000Y14000000D02*
G01Y8350000D01*
Y8350000D02*
G01X64150000Y6500000D01*
X74625000Y47000000D02*
G01X78500000D01*
X64150000Y2750000D02*
G01Y6500000D01*
X50800000Y1200000D02*
G01X62600000D01*
X24510000Y5510000D02*
G01X26000000Y7000000D01*
X62600000Y1200000D02*
G01X64150000Y2750000D01*
X21120000Y5510000D02*
G01X24510000D01*
X26000000Y7000000D02*
G01X46758766D01*
Y7000000D02*
G01X48750000Y5008766D01*
Y5008766D02*
G01Y3250000D01*
Y3250000D02*
G01X50800000Y1200000D01*
X73625000Y48000000D02*
G01X70600000D01*
X74625000Y47000000D02*
G01X73625000Y48000000D01*
G54D65*
X22800000Y44500000D02*
G01X21250000D01*
X20190000Y43440000D02*
G01X18000000D01*
X21250000Y44500000D02*
G01X20190000Y43440000D01*
G54D61*
X22250000Y33250000D02*
G01Y31690000D01*
X24750000Y35050000D02*
G01X24050000D01*
Y35050000D02*
G01X22250000Y33250000D01*
G54D62*
X57500000Y41000000D02*
G01Y39690000D01*
X57560000Y36500000D02*
G01X57500000Y36440000D01*
X58750000Y36500000D02*
G01X57560000D01*
G54D64*
X80750000Y22810000D02*
G01X81940000D01*
Y22810000D02*
G01X81950000Y22800000D01*
X80760000Y27450000D02*
G01X80750000Y27440000D01*
X81950000Y27450000D02*
G01X80760000D01*
X19250000Y22190000D02*
G01Y23250000D01*
Y23250000D02*
G01X19750000Y23750000D01*
Y23750000D02*
G01X23250000D01*
Y23750000D02*
G01Y22190000D01*
G54D65*
X38810000Y35635000D02*
G01Y35500000D01*
X37445000Y37000000D02*
G01X38810000Y35635000D01*
X34200000Y37000000D02*
G01X37445000D01*
G54D62*
X44250000Y48990000D02*
G01X44220000Y48960000D01*
G54D64*
X39690000Y45190000D02*
G01X38750000D01*
X41250000Y45500000D02*
G01X40000000D01*
Y45500000D02*
G01X39690000Y45190000D01*
G54D65*
X30810000D02*
G01X30750000Y45250000D01*
X38750000Y45190000D02*
G01X30810000D01*
X30750000Y45250000D02*
G01Y46450000D01*
G54D64*
X41250000Y45500000D02*
G01X46750000D01*
X48500000Y47250000D02*
G01Y48960000D01*
X46750000Y45500000D02*
G01X48500000Y47250000D01*
G54D62*
X44250000Y53750000D02*
G01X48000000D01*
Y53750000D02*
G01X50000000Y55750000D01*
Y55750000D02*
G01Y62750000D01*
X44250000Y56560000D02*
G01Y53750000D01*
Y53750000D02*
G01Y48990000D01*
G54D64*
X22190000Y31750000D02*
G01X22250000Y31690000D01*
X20750000Y31750000D02*
G01X22190000D01*
G54D65*
X31812968Y43500000D02*
G01X30750000Y44562968D01*
Y44562968D02*
G01Y45250000D01*
X34200000Y43500000D02*
G01X31812968D01*
G54D63*
X36670000Y62670000D02*
G01Y60750000D01*
X36750000Y62750000D02*
G01X36670000Y62670000D01*
X50000000Y62750000D02*
G01X38225000D01*
Y62750000D02*
G01X36750000D01*
G54D64*
X18690000Y9560000D02*
G01X17000000Y11250000D01*
X58136922Y23049990D02*
G01X58702606D01*
X49950010D02*
G01X58136922D01*
X38810000Y35365000D02*
G01X39670000Y34505000D01*
X38810000Y35500000D02*
G01Y35365000D01*
X39670000Y34505000D02*
G01X44148434D01*
Y34505000D02*
G01X49403434Y29250000D01*
Y29250000D02*
G01Y23596568D01*
Y23596568D02*
G01X49950010Y23049990D01*
G54D63*
X80000000Y51250000D02*
G01Y51310000D01*
X81000000Y50250000D02*
G01X80000000Y51250000D01*
G54D61*
X37500000Y15000000D02*
G01Y13831400D01*
Y13831400D02*
G01X37375012Y13706412D01*
Y13415014D02*
G01X37250000Y13290002D01*
Y13290002D02*
G01Y12500000D01*
X37375012Y13706412D02*
G01Y13415014D01*
G54D62*
X20750000Y34425000D02*
G01Y31750000D01*
X38225000Y62750000D02*
G01X13775000D01*
X11000000Y59975000D02*
G01Y53200000D01*
X10550000Y35375000D02*
G01X19800000D01*
X13775000Y62750000D02*
G01X11000000Y59975000D01*
Y53200000D02*
G01X6710000Y48910000D01*
Y48910000D02*
G01Y39215000D01*
X19800000Y35375000D02*
G01X20750000Y34425000D01*
X6710000Y39215000D02*
G01X10550000Y35375000D01*
G54D63*
X83460000Y50340000D02*
G01X83550000Y50250000D01*
X83460000Y61510000D02*
G01Y50340000D01*
X82220000Y62750000D02*
G01X83460000Y61510000D01*
X50000000Y62750000D02*
G01X82220000D01*
X91000000Y50250000D02*
G01X83550000D01*
Y50250000D02*
G01X81000000D01*
G54D62*
X58750000Y29550000D02*
G01X58350002Y29950002D01*
X58340000Y29940000D02*
G01X57500000D01*
X58350002Y29950002D02*
G01X58340000Y29940000D01*
X11950000Y44050002D02*
G01X11550000Y44450000D01*
X12560000Y43440000D02*
G01X11950000Y44050002D01*
X18000000Y43440000D02*
G01X12560000D01*
G54D64*
X75610066Y27760066D02*
G01X59315686D01*
X79755000Y28300000D02*
G01X76150000D01*
X80615000Y27440000D02*
G01X79755000Y28300000D01*
X80750000Y27440000D02*
G01X80615000D01*
X59315686Y27760066D02*
G01X58750000D01*
X76150000Y28300000D02*
G01X75610066Y27760066D01*
X17000000Y11250000D02*
G01X11440000D01*
X23250000Y14750000D02*
G01X22500000D01*
X21690000Y13940000D02*
G01Y9560000D01*
X22500000Y14750000D02*
G01X21690000Y13940000D01*
Y9560000D02*
G01X18690000D01*
X23500000D02*
G01X21690000D01*
G54D65*
X37250000Y9000000D02*
G01Y13000000D01*
X24285002Y8774998D02*
G01X37024998D01*
Y8774998D02*
G01X37250000Y9000000D01*
X23500000Y9560000D02*
G01X24285002Y8774998D01*
G54D64*
X61500000Y22400000D02*
G01X60850010Y23049990D01*
Y23049990D02*
G01X58702606D01*
X61500000Y16000000D02*
G01Y22400000D01*
X62500000Y15000000D02*
G01X61500000Y16000000D01*
X62500000Y14060000D02*
G01Y15000000D01*
X62440000Y14000000D02*
G01X62500000Y14060000D01*
G54D65*
X62440000Y14000000D02*
G01X63500000D01*
X63850000Y14350000D02*
G01Y16590000D01*
X63500000Y14000000D02*
G01X63850000Y14350000D01*
G54D64*
X11440000Y13190000D02*
G01X12050000Y13800000D01*
Y13800000D02*
G01X13350000D01*
X11440000Y11250000D02*
G01Y13190000D01*
G54D61*
X45945700Y41130000D02*
G01X46030000D01*
X60200010Y38299990D02*
G01X62250000Y36250000D01*
X38715046Y41124956D02*
G01X45940656D01*
X34200000Y41500000D02*
G01X38340000D01*
Y41500000D02*
G01X38715046Y41124956D01*
X45940656D02*
G01X45945700Y41130000D01*
X46030000D02*
G01X48860010Y38299990D01*
Y38299990D02*
G01X60200010D01*
X62250000Y36250000D02*
G01X63750000D01*
Y36250000D02*
G01X63850000D01*
X26250000Y35050000D02*
G01Y28250000D01*
X26150000Y28150000D02*
G01X25750000Y27750000D01*
X26250000Y28250000D02*
G01X26150000Y28150000D01*
X90510000Y17385000D02*
G01Y17250000D01*
X89495000Y18400000D02*
G01X90510000Y17385000D01*
X88425000Y18400000D02*
G01X89495000D01*
X87410000Y17250000D02*
G01Y17385000D01*
X87400000Y17955000D02*
G01Y18400000D01*
X87410000Y17945000D02*
G01X87400000Y17955000D01*
X87410000Y17250000D02*
G01Y17945000D01*
X88425000Y18400000D02*
G01X87400000D01*
X51960012Y25460012D02*
G01X51000000Y24500000D01*
X87400000Y18906400D02*
G01X84776378Y21530022D01*
X87400000Y18400000D02*
G01Y18906400D01*
X75855690Y25460012D02*
G01X51960012D01*
X79785678Y21530022D02*
G01X75855690Y25460012D01*
X84776378Y21530022D02*
G01X79785678D01*
X27000000Y28025000D02*
G01X26750000Y28275000D01*
X27000000Y27750000D02*
G01Y28025000D01*
X26750000Y28275000D02*
G01Y34350000D01*
Y34350000D02*
G01Y35050000D01*
X90510000Y20750000D02*
G01Y19000000D01*
X87872100D02*
G01X90510000D01*
X84942068Y21930034D02*
G01X87872100Y19000000D01*
X76021378Y25860022D02*
G01X79951368Y21930034D01*
X51064978Y25860022D02*
G01X76021378D01*
X51050000Y25875000D02*
G01X51064978Y25860022D01*
X79951368Y21930034D02*
G01X84942068D01*
X55055000Y35060000D02*
G01X55750000D01*
X43050010Y39599992D02*
G01X47590000Y35060000D01*
X35184300Y40000000D02*
G01X35584310Y39599992D01*
Y39599992D02*
G01X43050010D01*
X34200000Y40000000D02*
G01X35184300D01*
X47590000Y35060000D02*
G01X55055000D01*
X55750000D02*
G01X63740036D01*
Y35060000D02*
G01X63800018Y35000018D01*
X36250000Y13000000D02*
G01X35750000D01*
X38555000Y20810000D02*
G01X39250000D01*
X36500000Y16000000D02*
G01Y19786042D01*
Y19786042D02*
G01X36863958Y20150000D01*
Y20150000D02*
G01X37895000D01*
Y20150000D02*
G01X38555000Y20810000D01*
X36500000Y14880000D02*
G01Y15990000D01*
X35750000Y12950000D02*
G01Y12500000D01*
X36500000Y15000000D02*
G01Y13700000D01*
X36250000Y13450000D02*
G01X36450000Y13650000D01*
X36250000Y12500000D02*
G01Y13450000D01*
X36500000Y13700000D02*
G01X36450000Y13650000D01*
X55885000Y28560000D02*
G01X55750000D01*
X55945000Y28500000D02*
G01X55885000Y28560000D01*
X74950000Y28500000D02*
G01X55945000D01*
X88500000Y29400000D02*
G01X75850000D01*
Y29400000D02*
G01X74950000Y28500000D01*
X42718632Y38799970D02*
G01X52958600Y28560000D01*
X34200000Y39000000D02*
G01X35052900D01*
X35252932Y38799970D02*
G01X42718632D01*
X52958600Y28560000D02*
G01X55750000D01*
X35052900Y39000000D02*
G01X35252932Y38799970D01*
X35115000Y25690000D02*
G01X35250000D01*
X34290148Y24865148D02*
G01X35115000Y25690000D01*
X34290148Y18196858D02*
G01Y24865148D01*
X34000000Y16000000D02*
G01Y17906710D01*
Y17906710D02*
G01X34290148Y18196858D01*
X34000000Y15255700D02*
G01Y16000000D01*
Y14700000D02*
G01Y14302802D01*
X33250000Y13552802D02*
G01Y13300000D01*
X34000000Y14302802D02*
G01X33250000Y13552802D01*
Y13300000D02*
G01Y12500000D01*
X34740160Y23240160D02*
G01X35250000Y23750000D01*
Y23750000D02*
G01Y24310000D01*
X34740160Y18010458D02*
G01Y23240160D01*
X34500000Y17770300D02*
G01X34740160Y18010458D01*
X34500000Y16000000D02*
G01Y17770300D01*
Y15200000D02*
G01Y16000000D01*
Y15190000D02*
G01Y15200000D01*
Y14700000D02*
G01Y14237102D01*
X33750000Y13487102D02*
G01Y13300000D01*
Y13300000D02*
G01Y12500000D01*
X34500000Y14237102D02*
G01X33750000Y13487102D01*
X31250000Y19000014D02*
G01X31249986Y19000000D01*
X31250000Y20810000D02*
G01Y19000014D01*
X32000000Y16000000D02*
G01Y14700000D01*
Y17492800D02*
G01Y16000000D01*
X31249986Y19000000D02*
G01Y18242814D01*
Y18242814D02*
G01X32000000Y17492800D01*
X32750000Y13000000D02*
G01Y10750000D01*
Y10750000D02*
G01X33000000Y10500000D01*
X36000000Y16800000D02*
G01Y16000000D01*
X35990192Y16809808D02*
G01X36000000Y16800000D01*
X35990192Y20240192D02*
G01Y16809808D01*
X37250000Y20810000D02*
G01X36560000D01*
Y20810000D02*
G01X35990192Y20240192D01*
X36000000Y15200000D02*
G01Y16000000D01*
Y14945700D02*
G01Y15200000D01*
X35250000Y13290002D02*
G01Y12500000D01*
X36000000Y15000000D02*
G01Y14040002D01*
Y14040002D02*
G01X35250000Y13290002D01*
X37250000Y24310000D02*
G01Y22190000D01*
X35500000Y17568188D02*
G01X35590182Y17658370D01*
X35500000Y16000000D02*
G01Y17568188D01*
X37115000Y22190000D02*
G01X37250000D01*
X35590182Y20665182D02*
G01X37115000Y22190000D01*
X35590182Y17658370D02*
G01Y20665182D01*
X35500000Y15011400D02*
G01Y15200000D01*
Y15200000D02*
G01Y16000000D01*
Y15000000D02*
G01Y14105702D01*
X34750000Y13355702D02*
G01Y13300000D01*
X35500000Y14105702D02*
G01X34750000Y13355702D01*
Y13300000D02*
G01Y12500000D01*
X35087242Y38399958D02*
G01X42552942D01*
X57251692Y27660046D02*
G01X57851682Y27060056D01*
Y27060056D02*
G01X76821346D01*
X85290000Y26060000D02*
G01X86150002Y25200000D01*
X77821400Y26060000D02*
G01X85290000D01*
X76821346Y27060056D02*
G01X77821400Y26060000D01*
X53292856Y27660046D02*
G01X57251692D01*
X42552942Y38399958D02*
G01X53292856Y27660046D01*
X34987200Y38500000D02*
G01X35087242Y38399958D01*
X86150002Y25200000D02*
G01X86550000Y24800000D01*
X34200000Y38500000D02*
G01X34987200D01*
X32500000Y14050000D02*
G01X32250000Y13800000D01*
Y13800000D02*
G01Y13000000D01*
X32500000Y16000000D02*
G01Y14050000D01*
Y17558500D02*
G01X32000000Y18058500D01*
Y20164998D02*
G01X32250000Y20414998D01*
Y20414998D02*
G01Y22585002D01*
Y22585002D02*
G01X31585002Y23250000D01*
X29385000Y24310000D02*
G01X29250000D01*
X31585002Y23250000D02*
G01X30445000D01*
X32500000Y16000000D02*
G01Y17558500D01*
X30445000Y23250000D02*
G01X29385000Y24310000D01*
X32000000Y18058500D02*
G01Y20164998D01*
X46250000Y57940000D02*
G01X44250000D01*
X44290000Y57980000D02*
G01X44250000Y57940000D01*
X44290000Y60750000D02*
G01Y57980000D01*
X43190000Y56880000D02*
G01X44250000Y57940000D01*
X43190000Y51255700D02*
G01Y56880000D01*
X31374978Y47831378D02*
G01X32493622Y48950022D01*
X28431378Y47831378D02*
G01X31374978D01*
X27750000Y47150000D02*
G01X28431378Y47831378D01*
X27750000Y46450000D02*
G01Y47150000D01*
X40884322Y48950022D02*
G01X43190000Y51255700D01*
X32493622Y48950022D02*
G01X40884322D01*
G54D62*
X94550000Y15750000D02*
G01X93739964D01*
Y15750000D02*
G01X93655424Y15834540D01*
Y15834540D02*
G01X93255426Y16234540D01*
G54D64*
X94600000Y20310002D02*
G01X94710000Y20200000D01*
X94600000Y21800000D02*
G01Y20310002D01*
X93900000Y22500000D02*
G01X94600000Y21800000D01*
X91900000Y22500000D02*
G01X93900000D01*
X98100000Y21800000D02*
G01X94600000D01*
X99000000Y20900000D02*
G01X98100000Y21800000D01*
X99000000Y18350000D02*
G01Y20900000D01*
X101500000Y16850000D02*
G01X100500000D01*
Y16850000D02*
G01X99000000Y18350000D01*
X105250000Y10850000D02*
G01X101500000D01*
X107000000D02*
G01X105250000D01*
X107000000Y12350000D02*
G01Y19650000D01*
Y10850000D02*
G01Y12350000D01*
Y19650000D02*
G01X101500000D01*
X107000000D02*
G01Y22750000D01*
X101060000Y21590000D02*
G01Y22750000D01*
X101500000Y19650000D02*
G01Y21150000D01*
Y21150000D02*
G01X101060000Y21590000D01*
G54D61*
X30190000Y52560000D02*
G01X29000000Y53750000D01*
X30190000Y49750000D02*
G01Y52560000D01*
X26750000Y47150000D02*
G01Y46450000D01*
Y47800000D02*
G01Y47150000D01*
X27600012Y48650012D02*
G01X26750000Y47800000D01*
X29225012Y48650012D02*
G01X27600012D01*
X30190000Y49750000D02*
G01Y49615000D01*
Y49615000D02*
G01X29225012Y48650012D01*
X36810000Y49750000D02*
G01X34190000D01*
X36810000Y52560000D02*
G01X38000000Y53750000D01*
X36810000Y49750000D02*
G01Y52560000D01*
X35000000Y17704600D02*
G01X35140170Y17844770D01*
X35000000Y16000000D02*
G01Y17704600D01*
X35140170Y21390170D02*
G01X36250000Y22500000D01*
X35140170Y17844770D02*
G01Y21390170D01*
X36250000Y22500000D02*
G01Y24825000D01*
Y24825000D02*
G01X37115000Y25690000D01*
Y25690000D02*
G01X37250000D01*
X35000000Y15075700D02*
G01Y15200000D01*
Y15200000D02*
G01Y16000000D01*
X34250000Y13300000D02*
G01Y12500000D01*
X35000000Y15000000D02*
G01Y14171402D01*
Y14171402D02*
G01X34250000Y13421402D01*
Y13421402D02*
G01Y13300000D01*
X32810498Y20561332D02*
G01Y19995646D01*
Y22884502D02*
G01Y20561332D01*
X31385000Y24310000D02*
G01X32810498Y22884502D01*
X31250000Y24310000D02*
G01X31385000D01*
X33000000Y16000000D02*
G01Y14700000D01*
Y17815700D02*
G01Y16000000D01*
X32810498Y19995646D02*
G01Y18005202D01*
Y18005202D02*
G01X33000000Y17815700D01*
X31750000Y13000000D02*
G01Y11477526D01*
Y11477526D02*
G01X31889342Y11338184D01*
X31250000Y46450000D02*
G01Y45750000D01*
Y45750000D02*
G01X31350002Y45650000D01*
Y45650000D02*
G01X34640000D01*
X46434316Y47249990D02*
G01X47000000D01*
X36239990D02*
G01X46434316D01*
X34640000Y45650000D02*
G01X36239990Y47249990D01*
X78560000Y24190000D02*
G01X76489968Y26260034D01*
X84910000Y24190000D02*
G01X78560000D01*
X88600000Y20500000D02*
G01X84910000Y24190000D01*
X57050000Y26260034D02*
G01X56750000Y26560032D01*
X76489968Y26260034D02*
G01X57050000D01*
X33500000Y16000000D02*
G01Y18442714D01*
Y18442714D02*
G01X33590146Y18532860D01*
Y19098546D02*
G01Y18532860D01*
Y23019854D02*
G01Y19098546D01*
X33250000Y24310000D02*
G01Y23360000D01*
Y23360000D02*
G01X33590146Y23019854D01*
X33500000Y16000000D02*
G01Y14700000D01*
X31250000Y11750000D02*
G01X30250000Y10750000D01*
X31250000Y13000000D02*
G01Y11750000D01*
X31500000Y15200000D02*
G01Y16000000D01*
X28555000Y20810000D02*
G01X27250000D01*
X29250000D02*
G01X28555000D01*
X29250000Y20250000D02*
G01Y20810000D01*
X31500000Y16000000D02*
G01Y17427100D01*
Y17427100D02*
G01X29250000Y19677100D01*
Y19677100D02*
G01Y20250000D01*
X31500000Y14050000D02*
G01Y14700000D01*
X30750000Y12500000D02*
G01Y13300000D01*
Y13300000D02*
G01X31500000Y14050000D01*
X25750000Y46450000D02*
G01Y47250000D01*
Y47250000D02*
G01X24900000Y48100000D01*
Y48100000D02*
G01X22450000D01*
X21810000Y48740000D02*
G01Y49750000D01*
X22450000Y48100000D02*
G01X21810000Y48740000D01*
X21620000Y49560000D02*
G01X21810000Y49750000D01*
X20000000Y49560000D02*
G01X21620000D01*
X21810000Y49750000D02*
G01Y51110000D01*
X21950000Y51250000D02*
G01Y52250000D01*
X21810000Y51110000D02*
G01X21950000Y51250000D01*
X23050000Y52250000D02*
G01Y51250000D01*
X23190000Y51110000D02*
G01Y49750000D01*
X23050000Y51250000D02*
G01X23190000Y51110000D01*
X26250000Y47150000D02*
G01Y46450000D01*
Y47750000D02*
G01Y47150000D01*
X25000000Y49000000D02*
G01X26250000Y47750000D01*
X25000000Y49560000D02*
G01Y49000000D01*
X23380000Y49560000D02*
G01X23190000Y49750000D01*
X25000000Y49560000D02*
G01X23380000D01*
X25250000Y35050000D02*
G01Y33750000D01*
X24250000Y32750000D02*
G01Y31690000D01*
X25250000Y33750000D02*
G01X24250000Y32750000D01*
X34900000Y37500000D02*
G01X38810000D01*
X34200000D02*
G01X34900000D01*
G54D66*
X98000000Y27750000D02*
G01Y29950000D01*
Y27750000D02*
G01X99250000Y26500000D01*
G54D63*
X105750000Y2450000D02*
G01Y1000000D01*
X103865686Y900000D02*
G01X103300000D01*
X105650000D02*
G01X103865686D01*
X105650000D02*
G01X102200000D01*
X105750000Y1000000D02*
G01X105650000Y900000D01*
G54D61*
X34200000Y38000000D02*
G01X33240000D01*
Y38000000D02*
G01X32780000Y38460000D01*
X37506386Y32353718D02*
G01X35930050Y33930054D01*
X43259082Y32353718D02*
G01X37506386D01*
X44000000Y16000000D02*
G01Y16650000D01*
Y16650000D02*
G01X47000086Y19650086D01*
X35930050Y33930054D02*
G01X35530050Y34330054D01*
X47000086Y19650086D02*
G01Y28612714D01*
Y28612714D02*
G01X43259082Y32353718D01*
X44000000Y15550000D02*
G01Y16000000D01*
Y14000000D02*
G01Y15550000D01*
X43750000Y13000000D02*
G01Y13750000D01*
Y13750000D02*
G01X44000000Y14000000D01*
X32250000Y33750000D02*
G01Y35050000D01*
X34046294Y31953708D02*
G01X32250000Y33750000D01*
X43093394Y31953708D02*
G01X34046294D01*
X46600076Y28447026D02*
G01X43093394Y31953708D01*
X46600076Y19824474D02*
G01Y28447026D01*
X43500000Y16724398D02*
G01X46600076Y19824474D01*
X43500000Y16000000D02*
G01Y16724398D01*
Y15200000D02*
G01Y16000000D01*
Y14095802D02*
G01Y15200000D01*
X43250000Y13845802D02*
G01X43500000Y14095802D01*
X43250000Y13000000D02*
G01Y13845802D01*
X31750000Y34350000D02*
G01Y35050000D01*
Y33684300D02*
G01Y34350000D01*
X33880604Y31553696D02*
G01X31750000Y33684300D01*
X42927704Y31553696D02*
G01X33880604D01*
X46200064Y28281336D02*
G01X42927704Y31553696D01*
X46200064Y19990162D02*
G01Y28281336D01*
X43000000Y16790098D02*
G01X46200064Y19990162D01*
X43000000Y16000000D02*
G01Y16790098D01*
Y15200000D02*
G01Y16000000D01*
Y14161502D02*
G01Y15200000D01*
X42750000Y13911502D02*
G01X43000000Y14161502D01*
X42750000Y13000000D02*
G01Y13911502D01*
X42500000Y14227202D02*
G01Y16855798D01*
X33714916Y31153686D02*
G01X31250000Y33618602D01*
X42300022Y14027224D02*
G01X42500000Y14227202D01*
X31250000Y33618602D02*
G01Y34350000D01*
X45800054Y20155850D02*
G01Y28115648D01*
Y28115648D02*
G01X42762016Y31153686D01*
Y31153686D02*
G01X33714916D01*
X42500000Y16855798D02*
G01X42834312Y17190108D01*
Y17190108D02*
G01X45800054Y20155850D01*
X31250000Y34350000D02*
G01Y35050000D01*
X42300000Y12550000D02*
G01X42250000Y12500000D01*
X42300000Y13340002D02*
G01Y12550000D01*
X42300022Y13340024D02*
G01X42300000Y13340002D01*
X42300022Y13625022D02*
G01Y13340024D01*
Y13168622D02*
G01Y13625022D01*
Y13625022D02*
G01Y14027224D01*
X41900012Y14192912D02*
G01X42000000Y14292902D01*
Y16921498D02*
G01X45400042Y20321540D01*
X33549226Y30753676D02*
G01X30750000Y33552902D01*
X45400042Y20321540D02*
G01Y27949958D01*
Y27949958D02*
G01X42596326Y30753674D01*
X42000000Y14292902D02*
G01Y16921498D01*
X30750000Y33552902D02*
G01Y34350000D01*
X42596326Y30753674D02*
G01X33549226Y30753676D01*
X41900012Y13368612D02*
G01Y14192912D01*
X41750000Y13218600D02*
G01X41900012Y13368612D01*
X41750000Y13000000D02*
G01Y13218600D01*
X30750000Y34350000D02*
G01Y35050000D01*
X31102920Y39949982D02*
G01X32154708D01*
Y39949982D02*
G01X32554708Y40349980D01*
X28250000Y46450000D02*
G01Y42802900D01*
Y42802900D02*
G01X31102920Y39949982D01*
X45000032Y27699970D02*
G01X42646328Y30053674D01*
X45000032Y20487230D02*
G01Y27699970D01*
X41415676Y30053674D02*
G01X40849990D01*
X42646328D02*
G01X41415676D01*
X41250000Y13284300D02*
G01X41500000Y13534300D01*
Y13534300D02*
G01Y16987198D01*
X41250000Y13000000D02*
G01Y13284300D01*
X41500000Y16987198D02*
G01X45000032Y20487230D01*
X31114208Y41049978D02*
G01X31679894D01*
X28750000Y42868600D02*
G01X30568624Y41049978D01*
X28750000Y46450000D02*
G01Y42868600D01*
X30568624Y41049978D02*
G01X31114208D01*
X41000000Y14690000D02*
G01Y15990000D01*
X42890700Y29225000D02*
G01X42115686D01*
X44600022Y20652920D02*
G01Y27515678D01*
X41000000Y16000000D02*
G01Y17052898D01*
Y17052898D02*
G01X44600022Y20652920D01*
Y27515678D02*
G01X42890700Y29225000D01*
X42115686D02*
G01X41550000D01*
X40800000Y12550000D02*
G01X40750000Y12500000D01*
X40800000Y13450000D02*
G01Y12550000D01*
X41000000Y13650000D02*
G01X40800000Y13450000D01*
X41000000Y15000000D02*
G01Y13650000D01*
X29250000Y46450000D02*
G01Y42934300D01*
X31934316Y41749988D02*
G01X32500000D01*
X30434314D02*
G01X31934316D01*
X29250000Y42934300D02*
G01X30434314Y41749988D01*
X40500000Y17118598D02*
G01X44200012Y20818610D01*
X40500000Y16000000D02*
G01Y17118598D01*
X42565686Y28300000D02*
G01X42000000D01*
X43250000D02*
G01X42565686D01*
X44200012Y20818610D02*
G01Y27349990D01*
Y27349990D02*
G01X43250000Y28300000D01*
X40500000Y15540000D02*
G01Y15990000D01*
Y14650000D02*
G01Y15540000D01*
Y15000000D02*
G01Y13715700D01*
Y13715700D02*
G01X40275022Y13490722D01*
X40250000Y13465700D02*
G01X40500000Y13715700D01*
X40250000Y12500000D02*
G01Y13465700D01*
X32500000Y42750000D02*
G01X32100002Y42350002D01*
Y42350002D02*
G01X30400000D01*
X29750000Y43000000D02*
G01Y46450000D01*
X30400000Y42350002D02*
G01X29750000Y43000000D01*
X40000000Y16000000D02*
G01Y17184298D01*
X43800000Y20984298D02*
G01Y27025000D01*
X43462800Y27362200D02*
G01X42957286D01*
X43800000Y27025000D02*
G01X43462800Y27362200D01*
X42957286D02*
G01X42391602D01*
X40000000Y17184298D02*
G01X43800000Y20984298D01*
X40000000Y15540000D02*
G01Y15990000D01*
Y14835700D02*
G01Y15540000D01*
X39750000Y13300000D02*
G01Y12500000D01*
Y13531400D02*
G01Y13300000D01*
X40000000Y15000000D02*
G01Y13781400D01*
Y13781400D02*
G01X39750000Y13531400D01*
X34200000Y41000000D02*
G01X35748062D01*
Y41000000D02*
G01X35995346Y40752716D01*
X43383642Y26112028D02*
G01X42983642Y26512026D01*
X43383642Y21133640D02*
G01Y26112028D01*
X39500000Y16000000D02*
G01Y17249998D01*
Y17249998D02*
G01X43383642Y21133640D01*
X39500000Y15990000D02*
G01Y14901400D01*
X39330012Y13677112D02*
G01Y13248612D01*
X39250000Y13168600D02*
G01Y12500000D01*
X39500000Y13847100D02*
G01X39330012Y13677112D01*
Y13248612D02*
G01X39250000Y13168600D01*
X39500000Y15000000D02*
G01Y13847100D01*
X37000000Y40600000D02*
G01Y40800000D01*
X36400000Y40000000D02*
G01X37000000Y40600000D01*
X35750000Y40000000D02*
G01X36400000D01*
X34200000Y40500000D02*
G01X35250000D01*
Y40500000D02*
G01X35750000Y40000000D01*
X42375022Y25624980D02*
G01Y25675000D01*
X42983632Y25016370D02*
G01X42375022Y25624980D01*
X42983632Y21299330D02*
G01Y25016370D01*
X39000000Y16000000D02*
G01Y17315698D01*
Y17315698D02*
G01X42983632Y21299330D01*
X39000000Y15990000D02*
G01Y14967100D01*
X38750000Y13234300D02*
G01Y12500000D01*
X38930000Y13414300D02*
G01X38750000Y13234300D01*
X38930000Y13842800D02*
G01Y13414300D01*
X39000000Y13912800D02*
G01X38930000Y13842800D01*
X39000000Y15000000D02*
G01Y13912800D01*
X30250000Y35050000D02*
G01Y33487204D01*
Y33487204D02*
G01X33387194Y30350012D01*
X38500000Y17453242D02*
G01Y16800000D01*
Y16800000D02*
G01Y16000000D01*
X41675012Y20628254D02*
G01X38500000Y17453242D01*
X41675012Y27390690D02*
G01Y20628254D01*
X38715690Y30350012D02*
G01X41675012Y27390690D01*
X33387194Y30350012D02*
G01X38715690D01*
X38500000Y15032800D02*
G01Y16000000D01*
Y13550000D02*
G01X38250000Y13300000D01*
X38500000Y15000000D02*
G01Y13550000D01*
X38250000Y13300000D02*
G01Y12500000D01*
X38000000Y16800000D02*
G01Y16000000D01*
Y17518942D02*
G01Y16800000D01*
X41275000Y20793942D02*
G01X38000000Y17518942D01*
X41275000Y27225000D02*
G01Y20793942D01*
X38550000Y29950000D02*
G01X41275000Y27225000D01*
X33221504Y29950000D02*
G01X38550000D01*
X29750000Y33421504D02*
G01X33221504Y29950000D01*
X29750000Y35050000D02*
G01Y33421504D01*
X38000000Y15098500D02*
G01Y15145700D01*
Y15145700D02*
G01Y15990000D01*
X37775022Y13540722D02*
G01Y12525022D01*
X38000000Y13765700D02*
G01X37775022Y13540722D01*
Y12525022D02*
G01X37750000Y12500000D01*
X38000000Y15000000D02*
G01Y13765700D01*
X30000000Y14700000D02*
G01Y13600000D01*
X30250000Y13350000D02*
G01Y12500000D01*
X30000000Y13600000D02*
G01X30250000Y13350000D01*
X28980000Y18250000D02*
G01X21500000D01*
X30000000Y17230000D02*
G01X28980000Y18250000D01*
X30000000Y14780000D02*
G01Y17230000D01*
X19250000Y20810000D02*
G01X19940000D01*
X20375000Y20375000D02*
G01Y19375000D01*
X19940000Y20810000D02*
G01X20375000Y20375000D01*
X21500000Y18250000D02*
G01X20375000Y19375000D01*
X21735000Y22190000D02*
G01X21250000D01*
X23115000Y20810000D02*
G01X21735000Y22190000D01*
X23250000Y20810000D02*
G01X23115000D01*
X23250000Y19810000D02*
G01Y20810000D01*
X23810000Y19250000D02*
G01X23250000Y19810000D01*
X28545700Y19250000D02*
G01X23810000D01*
X30500000Y16000000D02*
G01Y17295700D01*
Y17295700D02*
G01X28545700Y19250000D01*
X30500000Y16000000D02*
G01Y14700000D01*
X26765000Y22190000D02*
G01X27250000D01*
X25250000Y20810000D02*
G01X25385000D01*
X25250000Y20090000D02*
G01Y20810000D01*
X25590000Y19750000D02*
G01X25250000Y20090000D01*
X28611400Y19750000D02*
G01X25590000D01*
X31000000Y17361400D02*
G01X28611400Y19750000D01*
X31000000Y16200000D02*
G01Y14700000D01*
Y16000000D02*
G01Y16200000D01*
Y16200000D02*
G01Y17361400D01*
X16000000Y27150000D02*
G01X24350000D01*
Y27150000D02*
G01X26250000Y25250000D01*
Y25250000D02*
G01Y22500000D01*
Y21675000D02*
G01X25385000Y20810000D01*
X26310000Y22190000D02*
G01X27250000D01*
X26250000Y22250000D02*
G01X26310000Y22190000D01*
X26250000Y22500000D02*
G01Y22250000D01*
Y22250000D02*
G01Y21675000D01*
X15787500Y60412500D02*
G01X15925034Y60550034D01*
X16675012Y61300012D02*
G01X16866626D01*
Y61300012D02*
G01X17432312D01*
X15787500Y60412500D02*
G01X16675012Y61300012D01*
X11725002Y56350002D02*
G01X15787500Y60412500D01*
X11725002Y53005748D02*
G01Y56350002D01*
X9984628Y51265374D02*
G01X11725002Y53005748D01*
X9984628Y47484628D02*
G01Y51265374D01*
X7549968Y39700034D02*
G01Y45049968D01*
X25200000Y36300000D02*
G01X10950000D01*
Y36300000D02*
G01X7549968Y39700034D01*
X25750000Y35750000D02*
G01X25200000Y36300000D01*
X25750000Y35050000D02*
G01Y35750000D01*
X7549968Y45049968D02*
G01X9984628Y47484628D01*
X12125012Y56184312D02*
G01X16540700Y60600000D01*
Y60600000D02*
G01X19000000D01*
X10384638Y47318938D02*
G01Y51099684D01*
X7949978Y40168622D02*
G01Y44884278D01*
X12125012Y52840058D02*
G01Y56184312D01*
X7949978Y44884278D02*
G01X10384638Y47318938D01*
X21699970Y36799970D02*
G01X11318632D01*
X10384638Y51099684D02*
G01X12125012Y52840058D01*
X21900000Y37000000D02*
G01X21699970Y36799970D01*
X11318632D02*
G01X7949978Y40168622D01*
X22800000Y37000000D02*
G01X21900000D01*
X94550000Y16700000D02*
G01X96900000D01*
X99510000Y16050000D02*
G01X101500000D01*
X96900000Y16700000D02*
G01X98860000D01*
Y16700000D02*
G01X99510000Y16050000D01*
X91890000Y19000000D02*
G01X93900000D01*
X94550000Y18350000D02*
G01Y16700000D01*
X93900000Y19000000D02*
G01X94550000Y18350000D01*
X95950000Y14800000D02*
G01X94550000D01*
X96950000D02*
G01X95950000D01*
X99110000D02*
G01X96950000D01*
X101500000Y15250000D02*
G01X99560000D01*
Y15250000D02*
G01X99110000Y14800000D01*
X91890000Y16750000D02*
G01Y16610000D01*
X93600000Y14800000D02*
G01X94550000D01*
X93550000D02*
G01X94550000D01*
X91890000Y16460000D02*
G01X93550000Y14800000D01*
X91890000Y17250000D02*
G01Y16460000D01*
X101500000Y14450000D02*
G01X99450000D01*
Y14450000D02*
G01X98000000Y13000000D01*
Y13000000D02*
G01X96440000D01*
Y13000000D02*
G01Y11250000D01*
X54050000Y13890000D02*
G01X53940000Y14000000D01*
X54050000Y11550000D02*
G01Y13890000D01*
X53940000Y14000000D02*
G01X56060000D01*
X55750000Y31810000D02*
G01X57500000D01*
Y31810000D02*
G01X58690000D01*
X58950000Y31550000D02*
G01X60200000D01*
X58690000Y31810000D02*
G01X58950000Y31550000D01*
X28650000Y29140686D02*
G01X27750000Y30040686D01*
X28650000Y28575000D02*
G01Y29140686D01*
X27750000Y30040686D02*
G01Y34350000D01*
Y34350000D02*
G01Y35050000D01*
X85000000Y25250000D02*
G01X78065700D01*
X57086002Y27260034D02*
G01X51035034D01*
X90500000Y22600000D02*
G01X90369946Y22730056D01*
X87519946D02*
G01X85000000Y25250000D01*
X76655656Y26660044D02*
G01X57685992D01*
X78065700Y25250000D02*
G01X76655656Y26660044D01*
X90369946Y22730056D02*
G01X87519946D01*
X57685992Y26660044D02*
G01X57086002Y27260034D01*
X51035034D02*
G01X51000000Y27225000D01*
X35525066Y35325002D02*
G01X33084998D01*
X52560000Y14000000D02*
G01X49925000D01*
Y14000000D02*
G01X47400098Y16524902D01*
Y16524902D02*
G01Y28778404D01*
X43424772Y32753730D02*
G01X38096338D01*
X28049998Y35888998D02*
G01X28250000Y35688996D01*
X47400098Y28778404D02*
G01X43424772Y32753730D01*
X28049998Y36561002D02*
G01Y35888998D01*
X33084998Y35325002D02*
G01X31360000Y37050000D01*
X28250000Y35688996D02*
G01Y35050000D01*
X31360000Y37050000D02*
G01X28538996D01*
X38096338Y32753730D02*
G01X35525066Y35325002D01*
X28538996Y37050000D02*
G01X28049998Y36561002D01*
G54D64*
X100225000Y44050000D02*
G01X100425000Y44250000D01*
X98125000Y44050000D02*
G01X100225000D01*
X100425000Y44250000D02*
G01X102500000D01*
Y44250000D02*
G01Y46250000D01*
Y46250000D02*
G01X105000000D01*
G54D61*
X27700000Y28559300D02*
G01Y24215686D01*
Y24215686D02*
G01Y23650000D01*
X27250000Y29009300D02*
G01X27700000Y28559300D01*
X27250000Y35050000D02*
G01Y29009300D01*
X75690000Y25060000D02*
G01X53785000D01*
X79619990Y21130012D02*
G01X75690000Y25060000D01*
X86650012Y19090690D02*
G01X84610690Y21130012D01*
X86650012Y16249990D02*
G01Y19090690D01*
X84610690Y21130012D02*
G01X79619990D01*
X88175000Y14725000D02*
G01X86650012Y16249990D01*
X90725000Y14725000D02*
G01X88175000D01*
X53785000Y25060000D02*
G01X52775000Y24050000D01*
X94200000Y11250000D02*
G01X90725000Y14725000D01*
X95060000Y11250000D02*
G01X94200000D01*
X28750000Y35050000D02*
G01Y36225000D01*
X17500000Y31690000D02*
G01Y32775000D01*
Y32775000D02*
G01X17475000Y32800000D01*
X1060000Y26375700D02*
G01Y23400000D01*
X5884302Y31200002D02*
G01X1060000Y26375700D01*
X16609998Y31200002D02*
G01X5884302D01*
X17500000Y30310000D02*
G01X16609998Y31200002D01*
X29250000Y35715002D02*
G01Y35050000D01*
X29784998Y36250000D02*
G01X29250000Y35715002D01*
X30500000Y36250000D02*
G01X29784998D01*
X19500000Y31690000D02*
G01Y32500000D01*
Y32500000D02*
G01X19425000Y32575000D01*
X19500000Y29750000D02*
G01Y30310000D01*
X9000000Y29000000D02*
G01X18750000D01*
X6140000Y26140000D02*
G01X9000000Y29000000D01*
X18750000D02*
G01X19500000Y29750000D01*
X6140000Y23400000D02*
G01Y26140000D01*
X21500000Y39934300D02*
G01Y41900000D01*
Y41900000D02*
G01X22100000Y42500000D01*
X19750000Y38960000D02*
G01X20525700D01*
Y38960000D02*
G01X21500000Y39934300D01*
X22100000Y42500000D02*
G01X22800000D01*
X34200000Y39500000D02*
G01X35118600D01*
X55055000Y33190000D02*
G01X55750000D01*
X42884320Y39199980D02*
G01X48894300Y33190000D01*
X35418620Y39199980D02*
G01X42884320D01*
X35118600Y39500000D02*
G01X35418620Y39199980D01*
X48894300Y33190000D02*
G01X55055000D01*
X31850000Y49750000D02*
G01X32810000D01*
X30350000Y48250000D02*
G01X31850000Y49750000D01*
X28000000Y48250000D02*
G01X30350000D01*
X27250000Y46450000D02*
G01Y47500000D01*
Y47500000D02*
G01X28000000Y48250000D01*
X60250000Y60710000D02*
G01X60290000Y60750000D01*
X60250000Y57940000D02*
G01Y60710000D01*
X57750000Y57940000D02*
G01Y60750000D01*
X56900034Y54400034D02*
G01X63165734D01*
X47000000Y44500000D02*
G01X56900034Y54400034D01*
X34200000Y44500000D02*
G01X47000000D01*
X63165734Y54400034D02*
G01X64165734Y55400034D01*
X71900034D02*
G01X72849968D01*
X64165734D02*
G01X71900034D01*
X74675000Y53575000D02*
G01Y51700000D01*
X72849968Y55400034D02*
G01X74675000Y53575000D01*
X64400022Y55000022D02*
G01X71749978D01*
X63400022Y54000022D02*
G01X64400022Y55000022D01*
X57118622Y54000022D02*
G01X63400022D01*
X45443588Y42324988D02*
G01X57118622Y54000022D01*
X73405000Y53345000D02*
G01Y51700000D01*
X39212112Y42324988D02*
G01X45443588D01*
X38537100Y43000000D02*
G01X39212112Y42324988D01*
X71749978Y55000022D02*
G01X73405000Y53345000D01*
X34200000Y43000000D02*
G01X38537100D01*
X38471400Y42500000D02*
G01X34900000D01*
X39046424Y41924978D02*
G01X38471400Y42500000D01*
X45609278Y41924978D02*
G01X39046424D01*
X57284312Y53600012D02*
G01X45609278Y41924978D01*
X63634312Y53600012D02*
G01X57284312D01*
X64634312Y54600012D02*
G01X63634312Y53600012D01*
X34900000Y42500000D02*
G01X34200000D01*
X68600012Y54600012D02*
G01X71149990D01*
X68704990D02*
G01X68600012D01*
Y54600012D02*
G01X64634312D01*
X72135000Y53615000D02*
G01Y51700000D01*
X71149990Y54600012D02*
G01X72135000Y53615000D01*
X38405700Y42000000D02*
G01X34200000D01*
X38880734Y41524966D02*
G01X38405700Y42000000D01*
X63800000Y53200000D02*
G01X57450000D01*
X64800000Y54200000D02*
G01X63800000Y53200000D01*
X45774966Y41524966D02*
G01X38880734D01*
X57450000Y53200000D02*
G01X45774966Y41524966D01*
X67450000Y54200000D02*
G01X69800000D01*
X67565000D02*
G01X67450000D01*
Y54200000D02*
G01X64800000D01*
X70865000Y53135000D02*
G01Y51700000D01*
X69800000Y54200000D02*
G01X70865000Y53135000D01*
G54D62*
X55000000Y9450000D02*
G01Y8000000D01*
Y6500000D02*
G01X54010000Y5510000D01*
X55000000Y8000000D02*
G01Y6500000D01*
X54010000Y5510000D02*
G01X52820000D01*
X47579992Y8050008D02*
G01X11800010D01*
X50120000Y5510000D02*
G01X47579992Y8050008D01*
X11800010D02*
G01X11500000Y7750000D01*
X52820000Y5510000D02*
G01X50120000D01*
X11500000Y7750000D02*
G01X10250000Y6500000D01*
G54D61*
X14450000Y16390000D02*
G01X15890000D01*
X16500000Y17000000D02*
G01X17500000D01*
X15890000Y16390000D02*
G01X16500000Y17000000D01*
X17810000Y17310000D02*
G01X17500000Y17000000D01*
X17810000Y19000000D02*
G01Y17310000D01*
X68560000Y22310000D02*
G01X68250000Y22000000D01*
X68560000Y24000000D02*
G01Y22310000D01*
X67280000Y20720000D02*
G01X68560000Y22000000D01*
X67280000Y19910000D02*
G01Y20720000D01*
X64250000Y19140000D02*
G01X66510000D01*
Y19140000D02*
G01X67280000Y19910000D01*
X14450000Y15110000D02*
G01X15890000D01*
X16000000Y15000000D02*
G01X17500000D01*
X15890000Y15110000D02*
G01X16000000Y15000000D01*
X17500000Y13310000D02*
G01X17810000Y13000000D01*
X17500000Y15000000D02*
G01Y13310000D01*
X68420000Y17860000D02*
G01X68560000Y18000000D01*
X64350000Y17860000D02*
G01X68420000D01*
X68560000Y19690000D02*
G01X68250000Y20000000D01*
X68560000Y18000000D02*
G01Y19690000D01*
X35000000Y9250000D02*
G01X35250000D01*
X24500000Y15750000D02*
G01X25250000Y15000000D01*
X35250000Y9250000D02*
G01X35500000Y9500000D01*
X21500000Y15750000D02*
G01X24500000D01*
X19500000Y15000000D02*
G01X20750000D01*
X25250000D02*
G01Y10000000D01*
X20750000Y15000000D02*
G01X21500000Y15750000D01*
X26000000Y9250000D02*
G01X35000000D01*
X25250000Y10000000D02*
G01X26000000Y9250000D01*
X88750000Y3750000D02*
G01X86750000Y1750000D01*
X88750000Y13250000D02*
G01Y3750000D01*
X86750000Y1750000D02*
G01X75250000D01*
X86000000Y16000000D02*
G01X88750000Y13250000D01*
X86000000Y18711002D02*
G01Y16000000D01*
X85211002Y19500000D02*
G01X86000000Y18711002D01*
X81850000Y19500000D02*
G01X85211002D01*
X75285000Y10535000D02*
G01Y7750000D01*
X78000000Y13250000D02*
G01X75285000Y10535000D01*
X79500000Y13250000D02*
G01X78000000D01*
X27750000Y9750000D02*
G01X34250000D01*
X26250000D02*
G01X27750000D01*
X34250000D02*
G01X35000000Y10500000D01*
X25750000Y10250000D02*
G01X26250000Y9750000D01*
X19500000Y17000000D02*
G01X24500000D01*
Y17000000D02*
G01X25750000Y15750000D01*
Y15750000D02*
G01Y10250000D01*
X35000000Y10500000D02*
G01X35500000D01*
X71250000Y2500000D02*
G01X78750000D01*
Y2500000D02*
G01X79095000Y2845000D01*
X81850000Y17600000D02*
G01X80850000D01*
Y10100000D02*
G01Y17600000D01*
X79095000Y8345000D02*
G01X80850000Y10100000D01*
X79095000Y6000000D02*
G01Y8345000D01*
Y2845000D02*
G01Y6000000D01*
X77500000Y22250000D02*
G01X79600000Y20150000D01*
X76500000Y22250000D02*
G01X77500000D01*
X80850000Y18900000D02*
G01X79500000Y20250000D01*
X80850000Y17600000D02*
G01Y18900000D01*
X67800000Y13950000D02*
G01Y15800000D01*
Y15800000D02*
G01X68250000Y16250000D01*
X84050000Y13800000D02*
G01X85300000D01*
X69280000Y16280000D02*
G01X69250000Y16250000D01*
X69280000Y19030000D02*
G01Y16280000D01*
X70250000Y20000000D02*
G01X69280000Y19030000D01*
X69250000Y16250000D02*
G01X71500000D01*
X68250000D02*
G01X69250000D01*
X82905000Y9155000D02*
G01Y7750000D01*
X84050000Y10300000D02*
G01X82905000Y9155000D01*
X84050000Y13800000D02*
G01Y10300000D01*
X83500000Y15750000D02*
G01X85250000D01*
X68525000Y11550000D02*
G01X69250000Y12275000D01*
Y12275000D02*
G01Y15000000D01*
Y15000000D02*
G01X69750000Y15500000D01*
X73150000Y16425002D02*
G01Y16450010D01*
X72224998Y15500000D02*
G01X73150000Y16425002D01*
X69750000Y15500000D02*
G01X72224998D01*
X73115000Y16485010D02*
G01X73150000Y16450010D01*
X73115000Y22500000D02*
G01Y16485010D01*
X74915000Y22500000D02*
G01X75115000Y22300000D01*
X73115000Y22500000D02*
G01X74915000D01*
X70500000D02*
G01X73115000D01*
X70250000Y22250000D02*
G01X70500000Y22500000D01*
X70250000Y22000000D02*
G01Y22250000D01*
X86715000Y14285000D02*
G01X85250000Y15750000D01*
X86715000Y7750000D02*
G01Y14285000D01*
X25250000Y47150000D02*
G01X24850000Y47550000D01*
X25250000Y46450000D02*
G01Y47150000D01*
X24850000Y47550000D02*
G01X20000000D01*
Y47550000D02*
G01X18450000Y49100000D01*
Y49100000D02*
G01Y51250000D01*
X16100000Y53600000D02*
G01X14250000D01*
X18450000Y51250000D02*
G01X16100000Y53600000D01*
X79500000Y18250000D02*
G01X77250000D01*
X76385000Y17385000D02*
G01Y14700000D01*
X77250000Y18250000D02*
G01X76385000Y17385000D01*
X79500000Y18250000D02*
G01Y16250000D01*
X60250000Y56000000D02*
G01Y56560000D01*
X59900000Y55650000D02*
G01X60250000Y56000000D01*
X56425000Y55650000D02*
G01X59900000D01*
X35690754Y35725014D02*
G01X38262028Y33153740D01*
X47800108Y28944092D02*
G01Y18109192D01*
X43590460Y33153740D02*
G01X47800108Y28944092D01*
X38262028Y33153740D02*
G01X43590460D01*
X22800000Y42000000D02*
G01X25868600D01*
Y42000000D02*
G01X28708600Y39160000D01*
Y39160000D02*
G01X29855700D01*
Y39160000D02*
G01X33290688Y35725014D01*
Y35725014D02*
G01X35690754D01*
X47800108Y18109192D02*
G01X49909300Y16000000D01*
Y16000000D02*
G01X52560000D01*
X2810000Y12750000D02*
G01X2750000D01*
Y12750000D02*
G01Y11750000D01*
Y11750000D02*
G01X3250000Y11250000D01*
Y11250000D02*
G01X7250000D01*
X8500000Y24250000D02*
G01Y27000000D01*
X15500000Y38250000D02*
G01X14000000D01*
X22800000Y38500000D02*
G01X21815700D01*
Y38500000D02*
G01X20915692Y37599992D01*
Y37599992D02*
G01X16150010D01*
Y37599992D02*
G01X15500000Y38250000D01*
X12500000D02*
G01X14000000D01*
X11500000Y39250000D02*
G01X12500000Y38250000D01*
X10000000Y39250000D02*
G01X8750000Y40500000D01*
Y44250000D02*
G01X11184660Y46684660D01*
Y50768306D02*
G01X12925034Y52508680D01*
X11500000Y39250000D02*
G01X10000000D01*
X12925034Y54425034D02*
G01X17200000Y58700000D01*
X11184660Y46684660D02*
G01Y50768306D01*
X12925034Y52508680D02*
G01Y54425034D01*
X8750000Y40500000D02*
G01Y44250000D01*
G54D65*
X7250000Y11250000D02*
G01X7750000D01*
Y11250000D02*
G01X10250000Y13750000D01*
Y13750000D02*
G01Y22500000D01*
Y22500000D02*
G01X9250000Y23500000D01*
G54D61*
Y23500000D02*
G01X8500000Y24250000D01*
X57750000Y56560000D02*
G01X56592370D01*
Y56560000D02*
G01X56505614Y56646758D01*
X15653200Y59146800D02*
G01X15806392Y59299992D01*
X15653200Y59146800D02*
G01X16306400Y59800000D01*
X16734314D02*
G01X17300000D01*
X16306400D02*
G01X16734314D01*
X23250000Y41500000D02*
G01X24500000D01*
Y41500000D02*
G01X24600002Y41400000D01*
Y41400000D02*
G01X25000000Y41000000D01*
X38593406Y33953762D02*
G01X36022132Y36525036D01*
X43921838Y33953762D02*
G01X38593406D01*
X28394458Y41752644D02*
G01X28310292D01*
X52560000Y22000000D02*
G01X49750000D01*
Y22000000D02*
G01X48600130Y23149872D01*
Y23149872D02*
G01Y29275470D01*
Y29275470D02*
G01X43921838Y33953762D01*
X36022132Y36525036D02*
G01X33622066D01*
Y36525036D02*
G01X28394458Y41752644D01*
X7250000Y29750000D02*
G01X12500000D01*
X2810000Y18750000D02*
G01Y19810000D01*
Y19810000D02*
G01X3500000Y20500000D01*
Y20500000D02*
G01X4250000D01*
Y20500000D02*
G01X5000000Y21250000D01*
Y27500000D02*
G01X7250000Y29750000D01*
X5000000Y21250000D02*
G01Y27500000D01*
X12511962Y37500000D02*
G01X12460878Y37551084D01*
X13500000Y37500000D02*
G01X12511962D01*
X13800020Y37199980D02*
G01X13500000Y37500000D01*
X22100000Y38000000D02*
G01X21299980Y37199980D01*
X22800000Y38000000D02*
G01X22100000D01*
X21299980Y37199980D02*
G01X13800020D01*
X8349990Y40334312D02*
G01Y44599990D01*
X10784650Y47034650D02*
G01Y50933996D01*
X11133216Y37551084D02*
G01X8349990Y40334312D01*
X12525022Y56018622D02*
G01X15653200Y59146800D01*
X12460878Y37551084D02*
G01X11133216D01*
X8349990Y44599990D02*
G01X10784650Y47034650D01*
Y50933996D02*
G01X12525022Y52674368D01*
Y52674368D02*
G01Y56018622D01*
X70800000Y13950000D02*
G01Y10550000D01*
Y10550000D02*
G01X69500000Y9250000D01*
X68825000D02*
G01X68525000Y9550000D01*
X69500000Y9250000D02*
G01X68825000D01*
X71550000Y14700000D02*
G01X70800000Y13950000D01*
X75000000Y14700000D02*
G01X71550000D01*
X12500000Y42380000D02*
G01X13870000D01*
Y42380000D02*
G01X14500000Y41750000D01*
Y41750000D02*
G01X16000000D01*
X17030000Y42780000D02*
G01X20530000D01*
X16000000Y41750000D02*
G01X17030000Y42780000D01*
X21250000Y43500000D02*
G01X22800000D01*
X20530000Y42780000D02*
G01X21250000Y43500000D01*
X20620002Y39620002D02*
G01X21000000Y40000000D01*
Y40000000D02*
G01Y42500000D01*
X17630000Y39620002D02*
G01X20620002D01*
X16000000Y41250000D02*
G01X17630000Y39620002D01*
X14250000Y41250000D02*
G01X16000000D01*
X21500000Y43000000D02*
G01X22800000D01*
X13780002Y41720000D02*
G01X14250000Y41250000D01*
X11530002Y41720000D02*
G01X13780002D01*
X10870000Y42380000D02*
G01X11530002Y41720000D01*
X21000000Y42500000D02*
G01X21500000Y43000000D01*
X10250000Y42380000D02*
G01X10870000D01*
X5945000Y13840000D02*
G01X7050000D01*
X4855000Y12750000D02*
G01X5945000Y13840000D01*
X4190000Y12750000D02*
G01X4855000D01*
X55425000Y16000000D02*
G01X53940000D01*
X58050000Y16590000D02*
G01X56015000D01*
Y16590000D02*
G01X55425000Y16000000D01*
X23999988Y41000000D02*
G01X24600002Y40399986D01*
Y40399986D02*
G01X25000000Y39999988D01*
X35856444Y36125024D02*
G01X33456376D01*
X28842034Y40315102D02*
G01X28442036Y40715100D01*
X48200120Y29109782D02*
G01X43756150Y33553752D01*
X29266300Y40315102D02*
G01X28842034D01*
X43756150Y33553752D02*
G01X38427716D01*
X33456376Y36125024D02*
G01X29266300Y40315102D01*
X48200120Y20299882D02*
G01Y29109782D01*
X52560000Y18000000D02*
G01X50500000D01*
Y18000000D02*
G01X48200120Y20299882D01*
X38427716Y33553752D02*
G01X35856444Y36125024D01*
X22800000Y41000000D02*
G01X23999988D01*
X2810000Y14750000D02*
G01X1500000D01*
Y14750000D02*
G01X1000000Y15250000D01*
Y15250000D02*
G01Y19250000D01*
Y19250000D02*
G01X2250000Y20500000D01*
Y20500000D02*
G01Y27000000D01*
X5750000Y30500000D02*
G01X13750000D01*
X2250000Y27000000D02*
G01X5750000Y30500000D01*
X21750000Y39000000D02*
G01X22800000D01*
X20750000Y38000000D02*
G01X21750000Y39000000D01*
X18250000Y38000000D02*
G01X20750000D01*
X17500000Y38750000D02*
G01X18250000Y38000000D01*
X16750000Y38750000D02*
G01X17500000D01*
X4190000Y16750000D02*
G01Y14750000D01*
X4550000Y16390000D02*
G01X8150000D01*
X4190000Y16750000D02*
G01X4550000Y16390000D01*
X8150000D02*
G01Y15110000D01*
X54080000Y17860000D02*
G01X53940000Y18000000D01*
X58050000Y17860000D02*
G01X56740000D01*
Y17860000D02*
G01X54080000D01*
X53940000Y19305000D02*
G01Y18000000D01*
Y20000000D02*
G01Y19305000D01*
X58900000Y17860000D02*
G01X56740000D01*
X58900000Y18900000D02*
G01Y17860000D01*
X58700000Y19100000D02*
G01X58900000Y18900000D01*
X57750000Y19100000D02*
G01X58700000D01*
X7050000Y17660000D02*
G01X6090000D01*
X5000000Y18750000D02*
G01X4190000D01*
X6090000Y17660000D02*
G01X5000000Y18750000D01*
X55050000Y22000000D02*
G01X53940000D01*
X58050000Y20410000D02*
G01X56640000D01*
Y20410000D02*
G01X55050000Y22000000D01*
X69595000Y51700000D02*
G01Y53155000D01*
Y53155000D02*
G01X69000000Y53750000D01*
Y53750000D02*
G01X65000000D01*
Y53750000D02*
G01X64000000Y52750000D01*
Y52750000D02*
G01X57750000D01*
X53000000Y48000000D02*
G01Y47000000D01*
X57750000Y52750000D02*
G01X53000000Y48000000D01*
X41550012Y48550012D02*
G01X43000000Y50000000D01*
X32659312Y48550012D02*
G01X41550012D01*
X31750000Y47640700D02*
G01X32659312Y48550012D01*
X31750000Y46450000D02*
G01Y47640700D01*
X32250000Y46450000D02*
G01Y47500000D01*
Y47500000D02*
G01Y47575000D01*
Y47575000D02*
G01X32825000Y48150000D01*
X44675000D02*
G01X47225000Y50700000D01*
X32825000Y48150000D02*
G01X44675000D01*
X54025000Y47050000D02*
G01Y48275000D01*
Y48275000D02*
G01X58000000Y52250000D01*
Y52250000D02*
G01X66100000D01*
X66650000Y51700000D02*
G01X68325000D01*
X66100000Y52250000D02*
G01X66650000Y51700000D01*
G54D67*
X79873000Y39947394D02*
G01Y37250000D01*
X79875440Y37225224*
X79882668Y37201400*
X79894404Y37179444*
X79910198Y37160198*
X80910198Y36160198*
X80929444Y36144404*
X80951400Y36132668*
X80975224Y36125440*
X81000000Y36123000*
X95500000*
X95524776Y36125440*
X95548602Y36132668*
X95570558Y36144404*
X95589804Y36160198*
X96589804Y37160198*
X96605598Y37179444*
X96617334Y37201400*
X96624560Y37225224*
X96627000Y37250000*
Y40123000*
X104697394*
X105623000Y39197394*
Y33052606*
X105197394Y32627000*
X76063266*
X75850598Y32839668*
X75823134Y32873134*
X75689592Y32982726*
X75537238Y33064162*
X75371922Y33114310*
X75243080Y33127000*
X75200000Y33131242*
X75156922Y33127000*
X74052606*
X73127000Y34052606*
Y40373000*
X79447394*
X79873000Y39947394*
X91873000Y51197394D02*
G01Y46750000D01*
X91875440Y46725224*
X91882668Y46701400*
X91894404Y46679444*
X91910198Y46660198*
X92160198Y46410198*
X92179444Y46394404*
X92201400Y46382668*
X92225224Y46375440*
X92250000Y46373000*
X93067882*
X93124972Y46326148*
X93233898Y46267926*
X93352088Y46232074*
X93475000Y46219968*
X94525000*
X94647914Y46232074*
X94766104Y46267926*
X94789802Y46280592*
X95123000Y45947394*
Y43250000*
X95125440Y43225224*
X95132668Y43201400*
X95144404Y43179444*
X95160198Y43160198*
X95910198Y42410198*
X95929444Y42394404*
X95951400Y42382668*
X95975224Y42375440*
X96000000Y42373000*
X100000000*
X100024776Y42375440*
X100056796Y42386408*
X100529980Y42623000*
X105197394*
X105623000Y42197394*
Y41813500*
X104707668Y41127000*
X96000000*
X95975224Y41124560*
X95951400Y41117334*
X95929444Y41105598*
X95910198Y41089804*
X95894404Y41070558*
X95882668Y41048602*
X95875440Y41024776*
X95873000Y41000000*
Y37563500*
X94957668Y36877000*
X93144140*
X93041104Y36932076*
X92922914Y36967928*
X92800000Y36980034*
X91200000*
X91077088Y36967928*
X90958898Y36932076*
X90855860Y36877000*
X84302606*
X83877000Y37302606*
Y50697394*
X84552606Y51373000*
X91697394*
X91873000Y51197394*
X69970844Y47058400D02*
G01X70166630Y46953750D01*
X70379070Y46889308*
X70544636Y46873000*
X72197394*
X72373000Y46697394*
Y43250000*
X72375440Y43225224*
X72382668Y43201400*
X72394404Y43179444*
X72410198Y43160198*
X72660198Y42910198*
X72679444Y42894404*
X72701400Y42882668*
X72725224Y42875440*
X72750000Y42873000*
X72994206*
X73025000Y42869968*
X76225000*
X76255794Y42873000*
X76500000*
X76524776Y42875440*
X76548602Y42882668*
X76570558Y42894404*
X76589804Y42910198*
X77589804Y43910198*
X77605598Y43929444*
X77617334Y43951400*
X77624560Y43975224*
X77627000Y44000000*
Y44373000*
X79373000*
Y41377000*
X72750000*
X72725224Y41374560*
X72701400Y41367334*
X72679444Y41355598*
X72660198Y41339804*
X72410198Y41089804*
X72394404Y41070558*
X72382668Y41048602*
X72375440Y41024776*
X72373000Y41000000*
Y34052606*
X71447394Y33127000*
X67543080*
X67500000Y33131242*
X67456920Y33127000*
X66802606*
X66127000Y33802606*
Y37400000*
X66124560Y37424776*
X66117334Y37448602*
X66105598Y37470558*
X66081304Y37497564*
X64927000Y38459484*
Y47123000*
X69892128*
X69970844Y47058400*
X108123000Y9977000D02*
G01X104027000D01*
Y11723000*
X108123000*
Y9977000*
Y18777000D02*
G01X104077000D01*
Y20523000*
X108123000*
Y18777000*
M02*
