%FSLAX45Y45*%
G04 Gerber Fmt 4.5, Leading zero omitted, Abs format (unit mm)*
G04 Created by KiCad (PCBNEW (5.1.7)-1) date 2020-12-03 10:55:39*
%MOMM*%
%LPD*%
G01*
G04 APERTURE LIST*
%TA.AperFunction,Profile*%
%ADD10C,0.150000*%
%TD*%
%ADD11C,0.200000*%
%ADD12C,0.300000*%
G04 APERTURE END LIST*
D10*
X4550000Y600000D02*
G75*
G02*
X4700000Y450000I0J-150000D01*
G01*
X2700000Y450000D02*
G75*
G02*
X2850000Y600000I150000J0D01*
G01*
X0Y6400000D02*
X0Y0D01*
X11000000Y6400000D02*
X0Y6400000D01*
X11000000Y0D02*
X11000000Y6400000D01*
X4700000Y0D02*
X11000000Y0D01*
X4700000Y450000D02*
X4700000Y0D01*
X2850000Y600000D02*
X4550000Y600000D01*
X2700000Y0D02*
X2700000Y450000D01*
X0Y0D02*
X2700000Y0D01*
D11*
X180000Y1695000D02*
X220000Y1655000D01*
X220000Y1695000D02*
X180000Y1655000D01*
X654000Y4467000D02*
X694000Y4427000D01*
X694000Y4467000D02*
X654000Y4427000D01*
X830000Y2720000D02*
X870000Y2680000D01*
X870000Y2720000D02*
X830000Y2680000D01*
X986000Y1264000D02*
X1026000Y1224000D01*
X1026000Y1264000D02*
X986000Y1224000D01*
X1005000Y2620000D02*
X1045000Y2580000D01*
X1045000Y2620000D02*
X1005000Y2580000D01*
X1130000Y3945000D02*
X1170000Y3905000D01*
X1170000Y3945000D02*
X1130000Y3905000D01*
X1135000Y4465000D02*
X1175000Y4425000D01*
X1175000Y4465000D02*
X1135000Y4425000D01*
X1226088Y3775108D02*
X1266088Y3735108D01*
X1266088Y3775108D02*
X1226088Y3735108D01*
X1230000Y2995000D02*
X1270000Y2955000D01*
X1270000Y2995000D02*
X1230000Y2955000D01*
X1300000Y4000000D02*
X1340000Y3960000D01*
X1340000Y4000000D02*
X1300000Y3960000D01*
X1355000Y3070000D02*
X1395000Y3030000D01*
X1395000Y3070000D02*
X1355000Y3030000D01*
X1481000Y1784000D02*
X1521000Y1744000D01*
X1521000Y1784000D02*
X1481000Y1744000D01*
X1580000Y2345000D02*
X1620000Y2305000D01*
X1620000Y2345000D02*
X1580000Y2305000D01*
X1655000Y3895000D02*
X1695000Y3855000D01*
X1695000Y3895000D02*
X1655000Y3855000D01*
X1700000Y5890000D02*
X1740000Y5850000D01*
X1740000Y5890000D02*
X1700000Y5850000D01*
X1710000Y6000000D02*
X1750000Y5960000D01*
X1750000Y6000000D02*
X1710000Y5960000D01*
X1723231Y6150001D02*
X1763231Y6110001D01*
X1763231Y6150001D02*
X1723231Y6110001D01*
X1727500Y3300000D02*
X1767500Y3260000D01*
X1767500Y3300000D02*
X1727500Y3260000D01*
X1780000Y4145000D02*
X1820000Y4105000D01*
X1820000Y4145000D02*
X1780000Y4105000D01*
X1880000Y6080000D02*
X1920000Y6040000D01*
X1920000Y6080000D02*
X1880000Y6040000D01*
X1899000Y1201000D02*
X1939000Y1161000D01*
X1939000Y1201000D02*
X1899000Y1161000D01*
X1922500Y3277500D02*
X1962500Y3237500D01*
X1962500Y3277500D02*
X1922500Y3237500D01*
X1955000Y4145000D02*
X1995000Y4105000D01*
X1995000Y4145000D02*
X1955000Y4105000D01*
X1980000Y5195000D02*
X2020000Y5155000D01*
X2020000Y5195000D02*
X1980000Y5155000D01*
X2030000Y1845000D02*
X2070000Y1805000D01*
X2070000Y1845000D02*
X2030000Y1805000D01*
X2055000Y3195000D02*
X2095000Y3155000D01*
X2095000Y3195000D02*
X2055000Y3155000D01*
X2105000Y1995000D02*
X2145000Y1955000D01*
X2145000Y1995000D02*
X2105000Y1955000D01*
X2205000Y2945000D02*
X2245000Y2905000D01*
X2245000Y2945000D02*
X2205000Y2905000D01*
X2305000Y2395000D02*
X2345000Y2355000D01*
X2345000Y2395000D02*
X2305000Y2355000D01*
X2305000Y1495000D02*
X2345000Y1455000D01*
X2345000Y1495000D02*
X2305000Y1455000D01*
X2330000Y1220000D02*
X2370000Y1180000D01*
X2370000Y1220000D02*
X2330000Y1180000D01*
X2405000Y2945000D02*
X2445000Y2905000D01*
X2445000Y2945000D02*
X2405000Y2905000D01*
X2410000Y4420000D02*
X2450000Y4380000D01*
X2450000Y4420000D02*
X2410000Y4380000D01*
X2480000Y5190000D02*
X2520000Y5150000D01*
X2520000Y5190000D02*
X2480000Y5150000D01*
X2480000Y4120000D02*
X2520000Y4080000D01*
X2520000Y4120000D02*
X2480000Y4080000D01*
X2480000Y4019999D02*
X2520000Y3979999D01*
X2520000Y4019999D02*
X2480000Y3979999D01*
X2505000Y2345000D02*
X2545000Y2305000D01*
X2545000Y2345000D02*
X2505000Y2305000D01*
X2555000Y2795000D02*
X2595000Y2755000D01*
X2595000Y2795000D02*
X2555000Y2755000D01*
X2680000Y2795000D02*
X2720000Y2755000D01*
X2720000Y2795000D02*
X2680000Y2755000D01*
X2690000Y4510000D02*
X2730000Y4470000D01*
X2730000Y4510000D02*
X2690000Y4470000D01*
X2750000Y2385000D02*
X2790000Y2345000D01*
X2790000Y2385000D02*
X2750000Y2345000D01*
X2775000Y4995000D02*
X2815000Y4955000D01*
X2815000Y4995000D02*
X2775000Y4955000D01*
X2811029Y4195264D02*
X2851029Y4155264D01*
X2851029Y4195264D02*
X2811029Y4155264D01*
X2824203Y4091510D02*
X2864203Y4051510D01*
X2864203Y4091510D02*
X2824203Y4051510D01*
X2845000Y2877500D02*
X2885000Y2837500D01*
X2885000Y2877500D02*
X2845000Y2837500D01*
X2855000Y3642500D02*
X2895000Y3602500D01*
X2895000Y3642500D02*
X2855000Y3602500D01*
X2905000Y2695000D02*
X2945000Y2655000D01*
X2945000Y2695000D02*
X2905000Y2655000D01*
X2905000Y2345000D02*
X2945000Y2305000D01*
X2945000Y2345000D02*
X2905000Y2305000D01*
X3005000Y2239000D02*
X3045000Y2199000D01*
X3045000Y2239000D02*
X3005000Y2199000D01*
X3005000Y1095000D02*
X3045000Y1055000D01*
X3045000Y1095000D02*
X3005000Y1055000D01*
X3030000Y3645000D02*
X3070000Y3605000D01*
X3070000Y3645000D02*
X3030000Y3605000D01*
X3103750Y4325001D02*
X3143750Y4285001D01*
X3143750Y4325001D02*
X3103750Y4285001D01*
X3104999Y1920000D02*
X3144999Y1880000D01*
X3144999Y1920000D02*
X3104999Y1880000D01*
X3105000Y2695000D02*
X3145000Y2655000D01*
X3145000Y2695000D02*
X3105000Y2655000D01*
X3147989Y4124998D02*
X3187989Y4084998D01*
X3187989Y4124998D02*
X3147989Y4084998D01*
X3168934Y1153818D02*
X3208934Y1113818D01*
X3208934Y1153818D02*
X3168934Y1113818D01*
X3205000Y4466499D02*
X3245000Y4426499D01*
X3245000Y4466499D02*
X3205000Y4426499D01*
X3230000Y4295000D02*
X3270000Y4255000D01*
X3270000Y4295000D02*
X3230000Y4255000D01*
X3230000Y4194999D02*
X3270000Y4154999D01*
X3270000Y4194999D02*
X3230000Y4154999D01*
X3235471Y4054998D02*
X3275471Y4014998D01*
X3275471Y4054998D02*
X3235471Y4014998D01*
X3258000Y3866000D02*
X3298000Y3826000D01*
X3298000Y3866000D02*
X3258000Y3826000D01*
X3261050Y2019565D02*
X3301050Y1979565D01*
X3301050Y2019565D02*
X3261050Y1979565D01*
X3280000Y1070000D02*
X3320000Y1030000D01*
X3320000Y1070000D02*
X3280000Y1030000D01*
X3305000Y2695000D02*
X3345000Y2655000D01*
X3345000Y2695000D02*
X3305000Y2655000D01*
X3320000Y4760000D02*
X3360000Y4720000D01*
X3360000Y4760000D02*
X3320000Y4720000D01*
X3339015Y1873286D02*
X3379015Y1833286D01*
X3379015Y1873286D02*
X3339015Y1833286D01*
X3530000Y1070000D02*
X3570000Y1030000D01*
X3570000Y1070000D02*
X3530000Y1030000D01*
X3530000Y970000D02*
X3570000Y930000D01*
X3570000Y970000D02*
X3530000Y930000D01*
X3533005Y3453005D02*
X3573005Y3413005D01*
X3573005Y3453005D02*
X3533005Y3413005D01*
X3579535Y4095271D02*
X3619535Y4055271D01*
X3619535Y4095271D02*
X3579535Y4055271D01*
X3680000Y4395000D02*
X3720000Y4355000D01*
X3720000Y4395000D02*
X3680000Y4355000D01*
X3680000Y4100000D02*
X3720000Y4060000D01*
X3720000Y4100000D02*
X3680000Y4060000D01*
X3701617Y1964999D02*
X3741617Y1924999D01*
X3741617Y1964999D02*
X3701617Y1924999D01*
X3885000Y4995000D02*
X3925000Y4955000D01*
X3925000Y4995000D02*
X3885000Y4955000D01*
X3905000Y2320000D02*
X3945000Y2280000D01*
X3945000Y2320000D02*
X3905000Y2280000D01*
X4064999Y3025367D02*
X4104999Y2985367D01*
X4104999Y3025367D02*
X4064999Y2985367D01*
X4094000Y3570000D02*
X4134000Y3530000D01*
X4134000Y3570000D02*
X4094000Y3530000D01*
X4100000Y3770000D02*
X4140000Y3730000D01*
X4140000Y3770000D02*
X4100000Y3730000D01*
X4135000Y2942500D02*
X4175000Y2902500D01*
X4175000Y2942500D02*
X4135000Y2902500D01*
X4180000Y2850000D02*
X4220000Y2810000D01*
X4220000Y2850000D02*
X4180000Y2810000D01*
X4217502Y2587500D02*
X4257502Y2547500D01*
X4257502Y2587500D02*
X4217502Y2547500D01*
X4219160Y2756220D02*
X4259160Y2716220D01*
X4259160Y2756220D02*
X4219160Y2716220D01*
X4255000Y4370000D02*
X4295000Y4330000D01*
X4295000Y4370000D02*
X4255000Y4330000D01*
X4278364Y2671203D02*
X4318364Y2631203D01*
X4318364Y2671203D02*
X4278364Y2631203D01*
X4280000Y5020000D02*
X4320000Y4980000D01*
X4320000Y5020000D02*
X4280000Y4980000D01*
X4402000Y4916000D02*
X4442000Y4876000D01*
X4442000Y4916000D02*
X4402000Y4876000D01*
X4680000Y4744999D02*
X4720000Y4704999D01*
X4720000Y4744999D02*
X4680000Y4704999D01*
X4702500Y5090000D02*
X4742500Y5050000D01*
X4742500Y5090000D02*
X4702500Y5050000D01*
X4704500Y5676000D02*
X4744500Y5636000D01*
X4744500Y5676000D02*
X4704500Y5636000D01*
X4830000Y4916000D02*
X4870000Y4876000D01*
X4870000Y4916000D02*
X4830000Y4876000D01*
X5080000Y2742500D02*
X5120000Y2702500D01*
X5120000Y2742500D02*
X5080000Y2702500D01*
X5080000Y2470000D02*
X5120000Y2430000D01*
X5120000Y2470000D02*
X5080000Y2430000D01*
X5085000Y2607500D02*
X5125000Y2567500D01*
X5125000Y2607500D02*
X5085000Y2567500D01*
X5100000Y2020000D02*
X5140000Y1980000D01*
X5140000Y2020000D02*
X5100000Y1980000D01*
X5257500Y2425000D02*
X5297500Y2385000D01*
X5297500Y2425000D02*
X5257500Y2385000D01*
X5280000Y4720000D02*
X5320000Y4680000D01*
X5320000Y4720000D02*
X5280000Y4680000D01*
X5382500Y4725000D02*
X5422500Y4685000D01*
X5422500Y4725000D02*
X5382500Y4685000D01*
X5389000Y3989000D02*
X5429000Y3949000D01*
X5429000Y3989000D02*
X5389000Y3949000D01*
X5455500Y3664000D02*
X5495500Y3624000D01*
X5495500Y3664000D02*
X5455500Y3624000D01*
X5455500Y3014000D02*
X5495500Y2974000D01*
X5495500Y3014000D02*
X5455500Y2974000D01*
X5622500Y5585000D02*
X5662500Y5545000D01*
X5662500Y5585000D02*
X5622500Y5545000D01*
X5630561Y5684676D02*
X5670561Y5644676D01*
X5670561Y5684676D02*
X5630561Y5644676D01*
X5655000Y2676003D02*
X5695000Y2636003D01*
X5695000Y2676003D02*
X5655000Y2636003D01*
X5675000Y1175000D02*
X5715000Y1135000D01*
X5715000Y1175000D02*
X5675000Y1135000D01*
X5730000Y4120000D02*
X5770000Y4080000D01*
X5770000Y4120000D02*
X5730000Y4080000D01*
X5830000Y1420000D02*
X5870000Y1380000D01*
X5870000Y1420000D02*
X5830000Y1380000D01*
X5850261Y2324999D02*
X5890261Y2284999D01*
X5890261Y2324999D02*
X5850261Y2284999D01*
X5855000Y3670000D02*
X5895000Y3630000D01*
X5895000Y3670000D02*
X5855000Y3630000D01*
X5855000Y2975000D02*
X5895000Y2935000D01*
X5895000Y2975000D02*
X5855000Y2935000D01*
X5855000Y2796007D02*
X5895000Y2756007D01*
X5895000Y2796007D02*
X5855000Y2756007D01*
X5875000Y3365000D02*
X5915000Y3325000D01*
X5915000Y3365000D02*
X5875000Y3325000D01*
X5990000Y1420000D02*
X6030000Y1380000D01*
X6030000Y1420000D02*
X5990000Y1380000D01*
X6185000Y3365000D02*
X6225000Y3325000D01*
X6225000Y3365000D02*
X6185000Y3325000D01*
X6355000Y3270000D02*
X6395000Y3230000D01*
X6395000Y3270000D02*
X6355000Y3230000D01*
X6360002Y3520002D02*
X6400002Y3480002D01*
X6400002Y3520002D02*
X6360002Y3480002D01*
X6365000Y3645000D02*
X6405000Y3605000D01*
X6405000Y3645000D02*
X6365000Y3605000D01*
X6580000Y1420000D02*
X6620000Y1380000D01*
X6620000Y1420000D02*
X6580000Y1380000D01*
X6580000Y1295000D02*
X6620000Y1255000D01*
X6620000Y1295000D02*
X6580000Y1255000D01*
X6630000Y2060000D02*
X6670000Y2020000D01*
X6670000Y2060000D02*
X6630000Y2020000D01*
X6805000Y5724000D02*
X6845000Y5684000D01*
X6845000Y5724000D02*
X6805000Y5684000D01*
X6940000Y5724500D02*
X6980000Y5684500D01*
X6980000Y5724500D02*
X6940000Y5684500D01*
X7040000Y4820000D02*
X7080000Y4780000D01*
X7080000Y4820000D02*
X7040000Y4780000D01*
X7069000Y5724500D02*
X7109000Y5684500D01*
X7109000Y5724500D02*
X7069000Y5684500D01*
X7080000Y1795000D02*
X7120000Y1755000D01*
X7120000Y1795000D02*
X7080000Y1755000D01*
X7091000Y2423000D02*
X7131000Y2383000D01*
X7131000Y2423000D02*
X7091000Y2383000D01*
X7105000Y270000D02*
X7145000Y230000D01*
X7145000Y270000D02*
X7105000Y230000D01*
X7130000Y1645000D02*
X7170000Y1605000D01*
X7170000Y1645000D02*
X7130000Y1605000D01*
X7160000Y4820000D02*
X7200000Y4780000D01*
X7200000Y4820000D02*
X7160000Y4780000D01*
X7196000Y5724500D02*
X7236000Y5684500D01*
X7236000Y5724500D02*
X7196000Y5684500D01*
X7295000Y1665001D02*
X7335000Y1625001D01*
X7335000Y1665001D02*
X7295000Y1625001D01*
X7323000Y5724500D02*
X7363000Y5684500D01*
X7363000Y5724500D02*
X7323000Y5684500D01*
X7450000Y5724500D02*
X7490000Y5684500D01*
X7490000Y5724500D02*
X7450000Y5684500D01*
X7505000Y195000D02*
X7545000Y155000D01*
X7545000Y195000D02*
X7505000Y155000D01*
X7780500Y2764000D02*
X7820500Y2724000D01*
X7820500Y2764000D02*
X7780500Y2724000D01*
X8130000Y4545000D02*
X8170000Y4505000D01*
X8170000Y4545000D02*
X8130000Y4505000D01*
X8130000Y4295000D02*
X8170000Y4255000D01*
X8170000Y4295000D02*
X8130000Y4255000D01*
X8175000Y2765000D02*
X8215000Y2725000D01*
X8215000Y2765000D02*
X8175000Y2725000D01*
X8175000Y2300000D02*
X8215000Y2260000D01*
X8215000Y2300000D02*
X8175000Y2260000D01*
X8175000Y1350000D02*
X8215000Y1310000D01*
X8215000Y1350000D02*
X8175000Y1310000D01*
X8428681Y2294681D02*
X8468681Y2254681D01*
X8468681Y2294681D02*
X8428681Y2254681D01*
X8492500Y1875000D02*
X8532500Y1835000D01*
X8532500Y1875000D02*
X8492500Y1835000D01*
X8505000Y1595000D02*
X8545000Y1555000D01*
X8545000Y1595000D02*
X8505000Y1555000D01*
X8510000Y1400000D02*
X8550000Y1360000D01*
X8550000Y1400000D02*
X8510000Y1360000D01*
X8580500Y3176000D02*
X8620500Y3136000D01*
X8620500Y3176000D02*
X8580500Y3136000D01*
X8635000Y2500000D02*
X8675000Y2460000D01*
X8675000Y2500000D02*
X8635000Y2460000D01*
X8830000Y2960000D02*
X8870000Y2920000D01*
X8870000Y2960000D02*
X8830000Y2920000D01*
X8840000Y2070000D02*
X8880000Y2030000D01*
X8880000Y2070000D02*
X8840000Y2030000D01*
X8859000Y1631000D02*
X8899000Y1591000D01*
X8899000Y1631000D02*
X8859000Y1591000D01*
X9280000Y5045000D02*
X9320000Y5005000D01*
X9320000Y5045000D02*
X9280000Y5005000D01*
X9280000Y4795000D02*
X9320000Y4755000D01*
X9320000Y4795000D02*
X9280000Y4755000D01*
X9305543Y1643454D02*
X9345543Y1603454D01*
X9345543Y1643454D02*
X9305543Y1603454D01*
X9317500Y2995000D02*
X9357500Y2955000D01*
X9357500Y2995000D02*
X9317500Y2955000D01*
X9320000Y2040000D02*
X9360000Y2000000D01*
X9360000Y2040000D02*
X9320000Y2000000D01*
X9389000Y1320000D02*
X9429000Y1280000D01*
X9429000Y1320000D02*
X9389000Y1280000D01*
X9440000Y2200000D02*
X9480000Y2160000D01*
X9480000Y2200000D02*
X9440000Y2160000D01*
X9480000Y5045000D02*
X9520000Y5005000D01*
X9520000Y5045000D02*
X9480000Y5005000D01*
X9480000Y4795000D02*
X9520000Y4755000D01*
X9520000Y4795000D02*
X9480000Y4755000D01*
X9760000Y2040000D02*
X9800000Y2000000D01*
X9800000Y2040000D02*
X9760000Y2000000D01*
X9780000Y2795000D02*
X9820000Y2755000D01*
X9820000Y2795000D02*
X9780000Y2755000D01*
X9803000Y1594000D02*
X9843000Y1554000D01*
X9843000Y1594000D02*
X9803000Y1554000D01*
X9905000Y2670000D02*
X9945000Y2630000D01*
X9945000Y2670000D02*
X9905000Y2630000D01*
X9955000Y1385000D02*
X9995000Y1345000D01*
X9995000Y1385000D02*
X9955000Y1345000D01*
X10105000Y4845000D02*
X10145000Y4805000D01*
X10145000Y4845000D02*
X10105000Y4805000D01*
X10185000Y2995000D02*
X10225000Y2955000D01*
X10225000Y2995000D02*
X10185000Y2955000D01*
X10200000Y110000D02*
X10240000Y70000D01*
X10240000Y110000D02*
X10200000Y70000D01*
X10224000Y2390000D02*
X10264000Y2350000D01*
X10264000Y2390000D02*
X10224000Y2350000D01*
X10310000Y110000D02*
X10350000Y70000D01*
X10350000Y110000D02*
X10310000Y70000D01*
X10360000Y720000D02*
X10400000Y680000D01*
X10400000Y720000D02*
X10360000Y680000D01*
X10380000Y2780000D02*
X10420000Y2740000D01*
X10420000Y2780000D02*
X10380000Y2740000D01*
X10479000Y2408000D02*
X10519000Y2368000D01*
X10519000Y2408000D02*
X10479000Y2368000D01*
X10555000Y915000D02*
X10595000Y875000D01*
X10595000Y915000D02*
X10555000Y875000D01*
X10605000Y4845000D02*
X10645000Y4805000D01*
X10645000Y4845000D02*
X10605000Y4805000D01*
X2220000Y5225000D02*
G75*
G03*
X2220000Y5225000I-25000J0D01*
G01*
X2330000Y5225000D02*
G75*
G03*
X2330000Y5225000I-25000J0D01*
G01*
X1425000Y5395000D02*
X1425000Y5325000D01*
X1390000Y5360000D02*
X1460000Y5360000D01*
X106000Y2375000D02*
X106000Y2305000D01*
X71000Y2340000D02*
X141000Y2340000D01*
X360000Y2375000D02*
X360000Y2305000D01*
X325000Y2340000D02*
X395000Y2340000D01*
X614000Y2375000D02*
X614000Y2305000D01*
X579000Y2340000D02*
X649000Y2340000D01*
X7267284Y3046715D02*
X7267284Y3103284D01*
X7210715Y3103284D01*
X7210715Y3046715D01*
X7267284Y3046715D01*
X8029284Y3046715D02*
X8029284Y3103284D01*
X7972715Y3103284D01*
X7972715Y3046715D01*
X8029284Y3046715D01*
X5521000Y6025000D02*
X5571000Y6075000D01*
X5521000Y6125000D01*
X5471000Y6075000D01*
X5521000Y6025000D01*
X5775000Y6025000D02*
X5825000Y6075000D01*
X5775000Y6125000D01*
X5725000Y6075000D01*
X5775000Y6025000D01*
X6029000Y6025000D02*
X6079000Y6075000D01*
X6029000Y6125000D01*
X5979000Y6075000D01*
X6029000Y6025000D01*
X2112000Y501000D02*
X2162000Y551000D01*
X2112000Y601000D01*
X2062000Y551000D01*
X2112000Y501000D01*
X2012000Y511000D02*
X2212000Y511000D01*
X2012000Y591000D02*
X2212000Y591000D01*
X2212000Y511000D02*
G75*
G03*
X2212000Y591000I0J40000D01*
G01*
X2012000Y591000D02*
G75*
G03*
X2012000Y511000I0J-40000D01*
G01*
X5282000Y501000D02*
X5332000Y551000D01*
X5282000Y601000D01*
X5232000Y551000D01*
X5282000Y501000D01*
X5182000Y511000D02*
X5382000Y511000D01*
X5182000Y591000D02*
X5382000Y591000D01*
X5382000Y511000D02*
G75*
G03*
X5382000Y591000I0J40000D01*
G01*
X5182000Y591000D02*
G75*
G03*
X5182000Y511000I0J-40000D01*
G01*
X3667000Y6025000D02*
X3717000Y6075000D01*
X3667000Y6125000D01*
X3617000Y6075000D01*
X3667000Y6025000D01*
X3921000Y6025000D02*
X3971000Y6075000D01*
X3921000Y6125000D01*
X3871000Y6075000D01*
X3921000Y6025000D01*
X4175000Y6025000D02*
X4225000Y6075000D01*
X4175000Y6125000D01*
X4125000Y6075000D01*
X4175000Y6025000D01*
X4429000Y6025000D02*
X4479000Y6075000D01*
X4429000Y6125000D01*
X4379000Y6075000D01*
X4429000Y6025000D01*
X4683000Y6025000D02*
X4733000Y6075000D01*
X4683000Y6125000D01*
X4633000Y6075000D01*
X4683000Y6025000D01*
X2000000Y5675000D02*
X2050000Y5725000D01*
X2000000Y5775000D01*
X1950000Y5725000D01*
X2000000Y5675000D01*
X2500000Y5675000D02*
X2550000Y5725000D01*
X2500000Y5775000D01*
X2450000Y5725000D01*
X2500000Y5675000D01*
X8010000Y5645000D02*
X8060000Y5695000D01*
X8010000Y5745000D01*
X7960000Y5695000D01*
X8010000Y5645000D01*
X9035000Y5650000D02*
X9085000Y5700000D01*
X9035000Y5750000D01*
X8985000Y5700000D01*
X9035000Y5650000D01*
X7077500Y845000D02*
X7217500Y705000D01*
X7217500Y845000D02*
X7077500Y705000D01*
X7217500Y775000D02*
G75*
G03*
X7217500Y775000I-70000J0D01*
G01*
X7458500Y845000D02*
X7598500Y705000D01*
X7598500Y845000D02*
X7458500Y705000D01*
X7598500Y775000D02*
G75*
G03*
X7598500Y775000I-70000J0D01*
G01*
X7839500Y845000D02*
X7979500Y705000D01*
X7979500Y845000D02*
X7839500Y705000D01*
X7979500Y775000D02*
G75*
G03*
X7979500Y775000I-70000J0D01*
G01*
X8220500Y845000D02*
X8360500Y705000D01*
X8360500Y845000D02*
X8220500Y705000D01*
X8360500Y775000D02*
G75*
G03*
X8360500Y775000I-70000J0D01*
G01*
X8601500Y845000D02*
X8741500Y705000D01*
X8741500Y845000D02*
X8601500Y705000D01*
X8741500Y775000D02*
G75*
G03*
X8741500Y775000I-70000J0D01*
G01*
X8982500Y845000D02*
X9122500Y705000D01*
X9122500Y845000D02*
X8982500Y705000D01*
X9122500Y775000D02*
G75*
G03*
X9122500Y775000I-70000J0D01*
G01*
X950000Y725000D02*
X1100000Y575000D01*
X1100000Y725000D02*
X950000Y575000D01*
X1025000Y725000D02*
X1025000Y575000D01*
X950000Y650000D02*
X1100000Y650000D01*
X6340000Y725000D02*
X6490000Y575000D01*
X6490000Y725000D02*
X6340000Y575000D01*
X6415000Y725000D02*
X6415000Y575000D01*
X6340000Y650000D02*
X6490000Y650000D01*
X10360000Y1795000D02*
X10460000Y1695000D01*
X10460000Y1795000D02*
X10360000Y1695000D01*
X10445356Y1709644D02*
X10445356Y1780356D01*
X10374644Y1780356D01*
X10374644Y1709644D01*
X10445356Y1709644D01*
X10360000Y1355000D02*
X10460000Y1255000D01*
X10460000Y1355000D02*
X10360000Y1255000D01*
X10445356Y1269644D02*
X10445356Y1340356D01*
X10374644Y1340356D01*
X10374644Y1269644D01*
X10445356Y1269644D01*
X775000Y4925000D02*
X925000Y4775000D01*
X925000Y4925000D02*
X775000Y4775000D01*
X850000Y4775000D02*
X925000Y4850000D01*
X850000Y4925000D01*
X775000Y4850000D01*
X850000Y4775000D01*
X6515000Y4925000D02*
X6665000Y4775000D01*
X6665000Y4925000D02*
X6515000Y4775000D01*
X6590000Y4775000D02*
X6665000Y4850000D01*
X6590000Y4925000D01*
X6515000Y4850000D01*
X6590000Y4775000D01*
X1487000Y4801000D02*
X1487000Y4501000D01*
X1337000Y4651000D02*
X1637000Y4651000D01*
X1637000Y4651000D02*
G75*
G03*
X1637000Y4651000I-150000J0D01*
G01*
X1337000Y4511000D02*
X1637000Y4511000D01*
X1337000Y4791000D02*
X1637000Y4791000D01*
X1637000Y4511000D02*
G75*
G03*
X1637000Y4791000I0J140000D01*
G01*
X1337000Y4791000D02*
G75*
G03*
X1337000Y4511000I0J-140000D01*
G01*
X1487000Y601000D02*
X1487000Y301000D01*
X1337000Y451000D02*
X1637000Y451000D01*
X1637000Y451000D02*
G75*
G03*
X1637000Y451000I-150000J0D01*
G01*
X1337000Y311000D02*
X1637000Y311000D01*
X1337000Y591000D02*
X1637000Y591000D01*
X1637000Y311000D02*
G75*
G03*
X1637000Y591000I0J140000D01*
G01*
X1337000Y591000D02*
G75*
G03*
X1337000Y311000I0J-140000D01*
G01*
X5907000Y4801000D02*
X5907000Y4501000D01*
X5757000Y4651000D02*
X6057000Y4651000D01*
X6057000Y4651000D02*
G75*
G03*
X6057000Y4651000I-150000J0D01*
G01*
X5757000Y4511000D02*
X6057000Y4511000D01*
X5757000Y4791000D02*
X6057000Y4791000D01*
X6057000Y4511000D02*
G75*
G03*
X6057000Y4791000I0J140000D01*
G01*
X5757000Y4791000D02*
G75*
G03*
X5757000Y4511000I0J-140000D01*
G01*
X5907000Y601000D02*
X5907000Y301000D01*
X5757000Y451000D02*
X6057000Y451000D01*
X6057000Y451000D02*
G75*
G03*
X6057000Y451000I-150000J0D01*
G01*
X5757000Y311000D02*
X6057000Y311000D01*
X5757000Y591000D02*
X6057000Y591000D01*
X6057000Y311000D02*
G75*
G03*
X6057000Y591000I0J140000D01*
G01*
X5757000Y591000D02*
G75*
G03*
X5757000Y311000I0J-140000D01*
G01*
X10077778Y402222D02*
X10077778Y755778D01*
X9724222Y755778D01*
X9724222Y402222D01*
X10077778Y402222D01*
X10151000Y579000D02*
G75*
G03*
X10151000Y579000I-250000J0D01*
G01*
X600000Y5240000D02*
X860000Y5500000D01*
X600000Y5760000D01*
X340000Y5500000D01*
X600000Y5240000D01*
X860000Y5500000D02*
G75*
G03*
X860000Y5500000I-260000J0D01*
G01*
X10400000Y5240000D02*
X10660000Y5500000D01*
X10400000Y5760000D01*
X10140000Y5500000D01*
X10400000Y5240000D01*
X10660000Y5500000D02*
G75*
G03*
X10660000Y5500000I-260000J0D01*
G01*
X401000Y879000D02*
X401000Y279000D01*
X101000Y579000D02*
X701000Y579000D01*
X613134Y366866D02*
X613134Y791134D01*
X188866Y791134D01*
X188866Y366866D01*
X613134Y366866D01*
D12*
X278928Y-473214D02*
X278928Y-173214D01*
X350357Y-173214D01*
X393214Y-187500D01*
X421786Y-216071D01*
X436071Y-244643D01*
X450357Y-301786D01*
X450357Y-344643D01*
X436071Y-401786D01*
X421786Y-430357D01*
X393214Y-458929D01*
X350357Y-473214D01*
X278928Y-473214D01*
X578928Y-473214D02*
X578928Y-273214D01*
X578928Y-330357D02*
X593214Y-301786D01*
X607500Y-287500D01*
X636071Y-273214D01*
X664643Y-273214D01*
X764643Y-473214D02*
X764643Y-273214D01*
X764643Y-173214D02*
X750357Y-187500D01*
X764643Y-201786D01*
X778928Y-187500D01*
X764643Y-173214D01*
X764643Y-201786D01*
X950357Y-473214D02*
X921786Y-458929D01*
X907500Y-430357D01*
X907500Y-173214D01*
X1107500Y-473214D02*
X1078928Y-458929D01*
X1064643Y-430357D01*
X1064643Y-173214D01*
X1450357Y-473214D02*
X1450357Y-173214D01*
X1550357Y-387500D01*
X1650357Y-173214D01*
X1650357Y-473214D01*
X1921786Y-473214D02*
X1921786Y-316072D01*
X1907500Y-287500D01*
X1878928Y-273214D01*
X1821786Y-273214D01*
X1793214Y-287500D01*
X1921786Y-458929D02*
X1893214Y-473214D01*
X1821786Y-473214D01*
X1793214Y-458929D01*
X1778928Y-430357D01*
X1778928Y-401786D01*
X1793214Y-373214D01*
X1821786Y-358929D01*
X1893214Y-358929D01*
X1921786Y-344643D01*
X2064643Y-273214D02*
X2064643Y-573214D01*
X2064643Y-287500D02*
X2093214Y-273214D01*
X2150357Y-273214D01*
X2178928Y-287500D01*
X2193214Y-301786D01*
X2207500Y-330357D01*
X2207500Y-416071D01*
X2193214Y-444643D01*
X2178928Y-458929D01*
X2150357Y-473214D01*
X2093214Y-473214D01*
X2064643Y-458929D01*
X2336071Y-444643D02*
X2350357Y-458929D01*
X2336071Y-473214D01*
X2321786Y-458929D01*
X2336071Y-444643D01*
X2336071Y-473214D01*
X2336071Y-287500D02*
X2350357Y-301786D01*
X2336071Y-316072D01*
X2321786Y-301786D01*
X2336071Y-287500D01*
X2336071Y-316072D01*
X-47500Y-947500D02*
X-7500Y-987500D01*
X-7500Y-947500D02*
X-47500Y-987500D01*
X336071Y-803214D02*
X364643Y-803214D01*
X393214Y-817500D01*
X407500Y-831786D01*
X421786Y-860357D01*
X436071Y-917500D01*
X436071Y-988929D01*
X421786Y-1046071D01*
X407500Y-1074643D01*
X393214Y-1088929D01*
X364643Y-1103214D01*
X336071Y-1103214D01*
X307500Y-1088929D01*
X293214Y-1074643D01*
X278928Y-1046071D01*
X264643Y-988929D01*
X264643Y-917500D01*
X278928Y-860357D01*
X293214Y-831786D01*
X307500Y-817500D01*
X336071Y-803214D01*
X564643Y-1074643D02*
X578928Y-1088929D01*
X564643Y-1103214D01*
X550357Y-1088929D01*
X564643Y-1074643D01*
X564643Y-1103214D01*
X836071Y-903214D02*
X836071Y-1103214D01*
X764643Y-788929D02*
X693214Y-1003214D01*
X878928Y-1003214D01*
X1050357Y-803214D02*
X1078928Y-803214D01*
X1107500Y-817500D01*
X1121786Y-831786D01*
X1136071Y-860357D01*
X1150357Y-917500D01*
X1150357Y-988929D01*
X1136071Y-1046071D01*
X1121786Y-1074643D01*
X1107500Y-1088929D01*
X1078928Y-1103214D01*
X1050357Y-1103214D01*
X1021786Y-1088929D01*
X1007500Y-1074643D01*
X993214Y-1046071D01*
X978928Y-988929D01*
X978928Y-917500D01*
X993214Y-860357D01*
X1007500Y-831786D01*
X1021786Y-817500D01*
X1050357Y-803214D01*
X1278928Y-1103214D02*
X1278928Y-903214D01*
X1278928Y-931786D02*
X1293214Y-917500D01*
X1321786Y-903214D01*
X1364643Y-903214D01*
X1393214Y-917500D01*
X1407500Y-946071D01*
X1407500Y-1103214D01*
X1407500Y-946071D02*
X1421786Y-917500D01*
X1450357Y-903214D01*
X1493214Y-903214D01*
X1521786Y-917500D01*
X1536071Y-946071D01*
X1536071Y-1103214D01*
X1678928Y-1103214D02*
X1678928Y-903214D01*
X1678928Y-931786D02*
X1693214Y-917500D01*
X1721786Y-903214D01*
X1764643Y-903214D01*
X1793214Y-917500D01*
X1807500Y-946071D01*
X1807500Y-1103214D01*
X1807500Y-946071D02*
X1821786Y-917500D01*
X1850357Y-903214D01*
X1893214Y-903214D01*
X1921786Y-917500D01*
X1936071Y-946071D01*
X1936071Y-1103214D01*
X2521786Y-788929D02*
X2264643Y-1174643D01*
X2907500Y-803214D02*
X2936071Y-803214D01*
X2964643Y-817500D01*
X2978928Y-831786D01*
X2993214Y-860357D01*
X3007500Y-917500D01*
X3007500Y-988929D01*
X2993214Y-1046071D01*
X2978928Y-1074643D01*
X2964643Y-1088929D01*
X2936071Y-1103214D01*
X2907500Y-1103214D01*
X2878928Y-1088929D01*
X2864643Y-1074643D01*
X2850357Y-1046071D01*
X2836071Y-988929D01*
X2836071Y-917500D01*
X2850357Y-860357D01*
X2864643Y-831786D01*
X2878928Y-817500D01*
X2907500Y-803214D01*
X3136071Y-1074643D02*
X3150357Y-1088929D01*
X3136071Y-1103214D01*
X3121786Y-1088929D01*
X3136071Y-1074643D01*
X3136071Y-1103214D01*
X3336071Y-803214D02*
X3364643Y-803214D01*
X3393214Y-817500D01*
X3407500Y-831786D01*
X3421786Y-860357D01*
X3436071Y-917500D01*
X3436071Y-988929D01*
X3421786Y-1046071D01*
X3407500Y-1074643D01*
X3393214Y-1088929D01*
X3364643Y-1103214D01*
X3336071Y-1103214D01*
X3307500Y-1088929D01*
X3293214Y-1074643D01*
X3278928Y-1046071D01*
X3264643Y-988929D01*
X3264643Y-917500D01*
X3278928Y-860357D01*
X3293214Y-831786D01*
X3307500Y-817500D01*
X3336071Y-803214D01*
X3721786Y-1103214D02*
X3550357Y-1103214D01*
X3636071Y-1103214D02*
X3636071Y-803214D01*
X3607500Y-846071D01*
X3578928Y-874643D01*
X3550357Y-888929D01*
X3978928Y-803214D02*
X3921786Y-803214D01*
X3893214Y-817500D01*
X3878928Y-831786D01*
X3850357Y-874643D01*
X3836071Y-931786D01*
X3836071Y-1046071D01*
X3850357Y-1074643D01*
X3864643Y-1088929D01*
X3893214Y-1103214D01*
X3950357Y-1103214D01*
X3978928Y-1088929D01*
X3993214Y-1074643D01*
X4007500Y-1046071D01*
X4007500Y-974643D01*
X3993214Y-946071D01*
X3978928Y-931786D01*
X3950357Y-917500D01*
X3893214Y-917500D01*
X3864643Y-931786D01*
X3850357Y-946071D01*
X3836071Y-974643D01*
X4121786Y-803214D02*
X4121786Y-860357D01*
X4236071Y-803214D02*
X4236071Y-860357D01*
X4678928Y-1217500D02*
X4664643Y-1203214D01*
X4636071Y-1160357D01*
X4621786Y-1131786D01*
X4607500Y-1088929D01*
X4593214Y-1017500D01*
X4593214Y-960357D01*
X4607500Y-888929D01*
X4621786Y-846071D01*
X4636071Y-817500D01*
X4664643Y-774643D01*
X4678928Y-760357D01*
X4950357Y-1103214D02*
X4778928Y-1103214D01*
X4864643Y-1103214D02*
X4864643Y-803214D01*
X4836071Y-846071D01*
X4807500Y-874643D01*
X4778928Y-888929D01*
X5050357Y-803214D02*
X5250357Y-803214D01*
X5121786Y-1103214D01*
X5350357Y-831786D02*
X5364643Y-817500D01*
X5393214Y-803214D01*
X5464643Y-803214D01*
X5493214Y-817500D01*
X5507500Y-831786D01*
X5521786Y-860357D01*
X5521786Y-888929D01*
X5507500Y-931786D01*
X5336071Y-1103214D01*
X5521786Y-1103214D01*
X5878928Y-1103214D02*
X5878928Y-803214D01*
X6007500Y-1103214D02*
X6007500Y-946071D01*
X5993214Y-917500D01*
X5964643Y-903214D01*
X5921786Y-903214D01*
X5893214Y-917500D01*
X5878928Y-931786D01*
X6193214Y-1103214D02*
X6164643Y-1088929D01*
X6150357Y-1074643D01*
X6136071Y-1046071D01*
X6136071Y-960357D01*
X6150357Y-931786D01*
X6164643Y-917500D01*
X6193214Y-903214D01*
X6236071Y-903214D01*
X6264643Y-917500D01*
X6278928Y-931786D01*
X6293214Y-960357D01*
X6293214Y-1046071D01*
X6278928Y-1074643D01*
X6264643Y-1088929D01*
X6236071Y-1103214D01*
X6193214Y-1103214D01*
X6464643Y-1103214D02*
X6436071Y-1088929D01*
X6421786Y-1060357D01*
X6421786Y-803214D01*
X6693214Y-1088929D02*
X6664643Y-1103214D01*
X6607500Y-1103214D01*
X6578928Y-1088929D01*
X6564643Y-1060357D01*
X6564643Y-946071D01*
X6578928Y-917500D01*
X6607500Y-903214D01*
X6664643Y-903214D01*
X6693214Y-917500D01*
X6707500Y-946071D01*
X6707500Y-974643D01*
X6564643Y-1003214D01*
X6821786Y-1088929D02*
X6850357Y-1103214D01*
X6907500Y-1103214D01*
X6936071Y-1088929D01*
X6950357Y-1060357D01*
X6950357Y-1046071D01*
X6936071Y-1017500D01*
X6907500Y-1003214D01*
X6864643Y-1003214D01*
X6836071Y-988929D01*
X6821786Y-960357D01*
X6821786Y-946071D01*
X6836071Y-917500D01*
X6864643Y-903214D01*
X6907500Y-903214D01*
X6936071Y-917500D01*
X7050357Y-1217500D02*
X7064643Y-1203214D01*
X7093214Y-1160357D01*
X7107500Y-1131786D01*
X7121786Y-1088929D01*
X7136071Y-1017500D01*
X7136071Y-960357D01*
X7121786Y-888929D01*
X7107500Y-846071D01*
X7093214Y-817500D01*
X7064643Y-774643D01*
X7050357Y-760357D01*
X-7500Y-1363500D02*
G75*
G03*
X-7500Y-1363500I-25000J0D01*
G01*
X336071Y-1199214D02*
X364643Y-1199214D01*
X393214Y-1213500D01*
X407500Y-1227786D01*
X421786Y-1256357D01*
X436071Y-1313500D01*
X436071Y-1384929D01*
X421786Y-1442071D01*
X407500Y-1470643D01*
X393214Y-1484929D01*
X364643Y-1499214D01*
X336071Y-1499214D01*
X307500Y-1484929D01*
X293214Y-1470643D01*
X278928Y-1442071D01*
X264643Y-1384929D01*
X264643Y-1313500D01*
X278928Y-1256357D01*
X293214Y-1227786D01*
X307500Y-1213500D01*
X336071Y-1199214D01*
X564643Y-1470643D02*
X578928Y-1484929D01*
X564643Y-1499214D01*
X550357Y-1484929D01*
X564643Y-1470643D01*
X564643Y-1499214D01*
X850357Y-1199214D02*
X707500Y-1199214D01*
X693214Y-1342072D01*
X707500Y-1327786D01*
X736071Y-1313500D01*
X807500Y-1313500D01*
X836071Y-1327786D01*
X850357Y-1342072D01*
X864643Y-1370643D01*
X864643Y-1442071D01*
X850357Y-1470643D01*
X836071Y-1484929D01*
X807500Y-1499214D01*
X736071Y-1499214D01*
X707500Y-1484929D01*
X693214Y-1470643D01*
X1050357Y-1199214D02*
X1078928Y-1199214D01*
X1107500Y-1213500D01*
X1121786Y-1227786D01*
X1136071Y-1256357D01*
X1150357Y-1313500D01*
X1150357Y-1384929D01*
X1136071Y-1442071D01*
X1121786Y-1470643D01*
X1107500Y-1484929D01*
X1078928Y-1499214D01*
X1050357Y-1499214D01*
X1021786Y-1484929D01*
X1007500Y-1470643D01*
X993214Y-1442071D01*
X978928Y-1384929D01*
X978928Y-1313500D01*
X993214Y-1256357D01*
X1007500Y-1227786D01*
X1021786Y-1213500D01*
X1050357Y-1199214D01*
X1278928Y-1499214D02*
X1278928Y-1299214D01*
X1278928Y-1327786D02*
X1293214Y-1313500D01*
X1321786Y-1299214D01*
X1364643Y-1299214D01*
X1393214Y-1313500D01*
X1407500Y-1342072D01*
X1407500Y-1499214D01*
X1407500Y-1342072D02*
X1421786Y-1313500D01*
X1450357Y-1299214D01*
X1493214Y-1299214D01*
X1521786Y-1313500D01*
X1536071Y-1342072D01*
X1536071Y-1499214D01*
X1678928Y-1499214D02*
X1678928Y-1299214D01*
X1678928Y-1327786D02*
X1693214Y-1313500D01*
X1721786Y-1299214D01*
X1764643Y-1299214D01*
X1793214Y-1313500D01*
X1807500Y-1342072D01*
X1807500Y-1499214D01*
X1807500Y-1342072D02*
X1821786Y-1313500D01*
X1850357Y-1299214D01*
X1893214Y-1299214D01*
X1921786Y-1313500D01*
X1936071Y-1342072D01*
X1936071Y-1499214D01*
X2521786Y-1184929D02*
X2264643Y-1570643D01*
X2907500Y-1199214D02*
X2936071Y-1199214D01*
X2964643Y-1213500D01*
X2978928Y-1227786D01*
X2993214Y-1256357D01*
X3007500Y-1313500D01*
X3007500Y-1384929D01*
X2993214Y-1442071D01*
X2978928Y-1470643D01*
X2964643Y-1484929D01*
X2936071Y-1499214D01*
X2907500Y-1499214D01*
X2878928Y-1484929D01*
X2864643Y-1470643D01*
X2850357Y-1442071D01*
X2836071Y-1384929D01*
X2836071Y-1313500D01*
X2850357Y-1256357D01*
X2864643Y-1227786D01*
X2878928Y-1213500D01*
X2907500Y-1199214D01*
X3136071Y-1470643D02*
X3150357Y-1484929D01*
X3136071Y-1499214D01*
X3121786Y-1484929D01*
X3136071Y-1470643D01*
X3136071Y-1499214D01*
X3336071Y-1199214D02*
X3364643Y-1199214D01*
X3393214Y-1213500D01*
X3407500Y-1227786D01*
X3421786Y-1256357D01*
X3436071Y-1313500D01*
X3436071Y-1384929D01*
X3421786Y-1442071D01*
X3407500Y-1470643D01*
X3393214Y-1484929D01*
X3364643Y-1499214D01*
X3336071Y-1499214D01*
X3307500Y-1484929D01*
X3293214Y-1470643D01*
X3278928Y-1442071D01*
X3264643Y-1384929D01*
X3264643Y-1313500D01*
X3278928Y-1256357D01*
X3293214Y-1227786D01*
X3307500Y-1213500D01*
X3336071Y-1199214D01*
X3550357Y-1227786D02*
X3564643Y-1213500D01*
X3593214Y-1199214D01*
X3664643Y-1199214D01*
X3693214Y-1213500D01*
X3707500Y-1227786D01*
X3721786Y-1256357D01*
X3721786Y-1284929D01*
X3707500Y-1327786D01*
X3536071Y-1499214D01*
X3721786Y-1499214D01*
X3907500Y-1199214D02*
X3936071Y-1199214D01*
X3964643Y-1213500D01*
X3978928Y-1227786D01*
X3993214Y-1256357D01*
X4007500Y-1313500D01*
X4007500Y-1384929D01*
X3993214Y-1442071D01*
X3978928Y-1470643D01*
X3964643Y-1484929D01*
X3936071Y-1499214D01*
X3907500Y-1499214D01*
X3878928Y-1484929D01*
X3864643Y-1470643D01*
X3850357Y-1442071D01*
X3836071Y-1384929D01*
X3836071Y-1313500D01*
X3850357Y-1256357D01*
X3864643Y-1227786D01*
X3878928Y-1213500D01*
X3907500Y-1199214D01*
X4121786Y-1199214D02*
X4121786Y-1256357D01*
X4236071Y-1199214D02*
X4236071Y-1256357D01*
X4678928Y-1613500D02*
X4664643Y-1599214D01*
X4636071Y-1556357D01*
X4621786Y-1527786D01*
X4607500Y-1484929D01*
X4593214Y-1413500D01*
X4593214Y-1356357D01*
X4607500Y-1284929D01*
X4621786Y-1242072D01*
X4636071Y-1213500D01*
X4664643Y-1170643D01*
X4678928Y-1156357D01*
X4778928Y-1227786D02*
X4793214Y-1213500D01*
X4821786Y-1199214D01*
X4893214Y-1199214D01*
X4921786Y-1213500D01*
X4936071Y-1227786D01*
X4950357Y-1256357D01*
X4950357Y-1284929D01*
X4936071Y-1327786D01*
X4764643Y-1499214D01*
X4950357Y-1499214D01*
X5307500Y-1499214D02*
X5307500Y-1199214D01*
X5436071Y-1499214D02*
X5436071Y-1342072D01*
X5421786Y-1313500D01*
X5393214Y-1299214D01*
X5350357Y-1299214D01*
X5321786Y-1313500D01*
X5307500Y-1327786D01*
X5621786Y-1499214D02*
X5593214Y-1484929D01*
X5578928Y-1470643D01*
X5564643Y-1442071D01*
X5564643Y-1356357D01*
X5578928Y-1327786D01*
X5593214Y-1313500D01*
X5621786Y-1299214D01*
X5664643Y-1299214D01*
X5693214Y-1313500D01*
X5707500Y-1327786D01*
X5721786Y-1356357D01*
X5721786Y-1442071D01*
X5707500Y-1470643D01*
X5693214Y-1484929D01*
X5664643Y-1499214D01*
X5621786Y-1499214D01*
X5893214Y-1499214D02*
X5864643Y-1484929D01*
X5850357Y-1456357D01*
X5850357Y-1199214D01*
X6121786Y-1484929D02*
X6093214Y-1499214D01*
X6036071Y-1499214D01*
X6007500Y-1484929D01*
X5993214Y-1456357D01*
X5993214Y-1342072D01*
X6007500Y-1313500D01*
X6036071Y-1299214D01*
X6093214Y-1299214D01*
X6121786Y-1313500D01*
X6136071Y-1342072D01*
X6136071Y-1370643D01*
X5993214Y-1399214D01*
X6250357Y-1484929D02*
X6278928Y-1499214D01*
X6336071Y-1499214D01*
X6364643Y-1484929D01*
X6378928Y-1456357D01*
X6378928Y-1442071D01*
X6364643Y-1413500D01*
X6336071Y-1399214D01*
X6293214Y-1399214D01*
X6264643Y-1384929D01*
X6250357Y-1356357D01*
X6250357Y-1342072D01*
X6264643Y-1313500D01*
X6293214Y-1299214D01*
X6336071Y-1299214D01*
X6364643Y-1313500D01*
X6478928Y-1613500D02*
X6493214Y-1599214D01*
X6521786Y-1556357D01*
X6536071Y-1527786D01*
X6550357Y-1484929D01*
X6564643Y-1413500D01*
X6564643Y-1356357D01*
X6550357Y-1284929D01*
X6536071Y-1242072D01*
X6521786Y-1213500D01*
X6493214Y-1170643D01*
X6478928Y-1156357D01*
X-42500Y-1724500D02*
X-42500Y-1794500D01*
X-77500Y-1759500D02*
X-7500Y-1759500D01*
X336071Y-1595214D02*
X364643Y-1595214D01*
X393214Y-1609500D01*
X407500Y-1623786D01*
X421786Y-1652357D01*
X436071Y-1709500D01*
X436071Y-1780929D01*
X421786Y-1838071D01*
X407500Y-1866643D01*
X393214Y-1880929D01*
X364643Y-1895214D01*
X336071Y-1895214D01*
X307500Y-1880929D01*
X293214Y-1866643D01*
X278928Y-1838071D01*
X264643Y-1780929D01*
X264643Y-1709500D01*
X278928Y-1652357D01*
X293214Y-1623786D01*
X307500Y-1609500D01*
X336071Y-1595214D01*
X564643Y-1866643D02*
X578928Y-1880929D01*
X564643Y-1895214D01*
X550357Y-1880929D01*
X564643Y-1866643D01*
X564643Y-1895214D01*
X678928Y-1595214D02*
X878928Y-1595214D01*
X750357Y-1895214D01*
X1050357Y-1595214D02*
X1078928Y-1595214D01*
X1107500Y-1609500D01*
X1121786Y-1623786D01*
X1136071Y-1652357D01*
X1150357Y-1709500D01*
X1150357Y-1780929D01*
X1136071Y-1838071D01*
X1121786Y-1866643D01*
X1107500Y-1880929D01*
X1078928Y-1895214D01*
X1050357Y-1895214D01*
X1021786Y-1880929D01*
X1007500Y-1866643D01*
X993214Y-1838071D01*
X978928Y-1780929D01*
X978928Y-1709500D01*
X993214Y-1652357D01*
X1007500Y-1623786D01*
X1021786Y-1609500D01*
X1050357Y-1595214D01*
X1278928Y-1895214D02*
X1278928Y-1695214D01*
X1278928Y-1723786D02*
X1293214Y-1709500D01*
X1321786Y-1695214D01*
X1364643Y-1695214D01*
X1393214Y-1709500D01*
X1407500Y-1738071D01*
X1407500Y-1895214D01*
X1407500Y-1738071D02*
X1421786Y-1709500D01*
X1450357Y-1695214D01*
X1493214Y-1695214D01*
X1521786Y-1709500D01*
X1536071Y-1738071D01*
X1536071Y-1895214D01*
X1678928Y-1895214D02*
X1678928Y-1695214D01*
X1678928Y-1723786D02*
X1693214Y-1709500D01*
X1721786Y-1695214D01*
X1764643Y-1695214D01*
X1793214Y-1709500D01*
X1807500Y-1738071D01*
X1807500Y-1895214D01*
X1807500Y-1738071D02*
X1821786Y-1709500D01*
X1850357Y-1695214D01*
X1893214Y-1695214D01*
X1921786Y-1709500D01*
X1936071Y-1738071D01*
X1936071Y-1895214D01*
X2521786Y-1580929D02*
X2264643Y-1966643D01*
X2907500Y-1595214D02*
X2936071Y-1595214D01*
X2964643Y-1609500D01*
X2978928Y-1623786D01*
X2993214Y-1652357D01*
X3007500Y-1709500D01*
X3007500Y-1780929D01*
X2993214Y-1838071D01*
X2978928Y-1866643D01*
X2964643Y-1880929D01*
X2936071Y-1895214D01*
X2907500Y-1895214D01*
X2878928Y-1880929D01*
X2864643Y-1866643D01*
X2850357Y-1838071D01*
X2836071Y-1780929D01*
X2836071Y-1709500D01*
X2850357Y-1652357D01*
X2864643Y-1623786D01*
X2878928Y-1609500D01*
X2907500Y-1595214D01*
X3136071Y-1866643D02*
X3150357Y-1880929D01*
X3136071Y-1895214D01*
X3121786Y-1880929D01*
X3136071Y-1866643D01*
X3136071Y-1895214D01*
X3336071Y-1595214D02*
X3364643Y-1595214D01*
X3393214Y-1609500D01*
X3407500Y-1623786D01*
X3421786Y-1652357D01*
X3436071Y-1709500D01*
X3436071Y-1780929D01*
X3421786Y-1838071D01*
X3407500Y-1866643D01*
X3393214Y-1880929D01*
X3364643Y-1895214D01*
X3336071Y-1895214D01*
X3307500Y-1880929D01*
X3293214Y-1866643D01*
X3278928Y-1838071D01*
X3264643Y-1780929D01*
X3264643Y-1709500D01*
X3278928Y-1652357D01*
X3293214Y-1623786D01*
X3307500Y-1609500D01*
X3336071Y-1595214D01*
X3550357Y-1623786D02*
X3564643Y-1609500D01*
X3593214Y-1595214D01*
X3664643Y-1595214D01*
X3693214Y-1609500D01*
X3707500Y-1623786D01*
X3721786Y-1652357D01*
X3721786Y-1680929D01*
X3707500Y-1723786D01*
X3536071Y-1895214D01*
X3721786Y-1895214D01*
X3893214Y-1723786D02*
X3864643Y-1709500D01*
X3850357Y-1695214D01*
X3836071Y-1666643D01*
X3836071Y-1652357D01*
X3850357Y-1623786D01*
X3864643Y-1609500D01*
X3893214Y-1595214D01*
X3950357Y-1595214D01*
X3978928Y-1609500D01*
X3993214Y-1623786D01*
X4007500Y-1652357D01*
X4007500Y-1666643D01*
X3993214Y-1695214D01*
X3978928Y-1709500D01*
X3950357Y-1723786D01*
X3893214Y-1723786D01*
X3864643Y-1738071D01*
X3850357Y-1752357D01*
X3836071Y-1780929D01*
X3836071Y-1838071D01*
X3850357Y-1866643D01*
X3864643Y-1880929D01*
X3893214Y-1895214D01*
X3950357Y-1895214D01*
X3978928Y-1880929D01*
X3993214Y-1866643D01*
X4007500Y-1838071D01*
X4007500Y-1780929D01*
X3993214Y-1752357D01*
X3978928Y-1738071D01*
X3950357Y-1723786D01*
X4121786Y-1595214D02*
X4121786Y-1652357D01*
X4236071Y-1595214D02*
X4236071Y-1652357D01*
X4678928Y-2009500D02*
X4664643Y-1995214D01*
X4636071Y-1952357D01*
X4621786Y-1923786D01*
X4607500Y-1880929D01*
X4593214Y-1809500D01*
X4593214Y-1752357D01*
X4607500Y-1680929D01*
X4621786Y-1638071D01*
X4636071Y-1609500D01*
X4664643Y-1566643D01*
X4678928Y-1552357D01*
X4921786Y-1695214D02*
X4921786Y-1895214D01*
X4850357Y-1580929D02*
X4778928Y-1795214D01*
X4964643Y-1795214D01*
X5307500Y-1895214D02*
X5307500Y-1595214D01*
X5436071Y-1895214D02*
X5436071Y-1738071D01*
X5421786Y-1709500D01*
X5393214Y-1695214D01*
X5350357Y-1695214D01*
X5321786Y-1709500D01*
X5307500Y-1723786D01*
X5621786Y-1895214D02*
X5593214Y-1880929D01*
X5578928Y-1866643D01*
X5564643Y-1838071D01*
X5564643Y-1752357D01*
X5578928Y-1723786D01*
X5593214Y-1709500D01*
X5621786Y-1695214D01*
X5664643Y-1695214D01*
X5693214Y-1709500D01*
X5707500Y-1723786D01*
X5721786Y-1752357D01*
X5721786Y-1838071D01*
X5707500Y-1866643D01*
X5693214Y-1880929D01*
X5664643Y-1895214D01*
X5621786Y-1895214D01*
X5893214Y-1895214D02*
X5864643Y-1880929D01*
X5850357Y-1852357D01*
X5850357Y-1595214D01*
X6121786Y-1880929D02*
X6093214Y-1895214D01*
X6036071Y-1895214D01*
X6007500Y-1880929D01*
X5993214Y-1852357D01*
X5993214Y-1738071D01*
X6007500Y-1709500D01*
X6036071Y-1695214D01*
X6093214Y-1695214D01*
X6121786Y-1709500D01*
X6136071Y-1738071D01*
X6136071Y-1766643D01*
X5993214Y-1795214D01*
X6250357Y-1880929D02*
X6278928Y-1895214D01*
X6336071Y-1895214D01*
X6364643Y-1880929D01*
X6378928Y-1852357D01*
X6378928Y-1838071D01*
X6364643Y-1809500D01*
X6336071Y-1795214D01*
X6293214Y-1795214D01*
X6264643Y-1780929D01*
X6250357Y-1752357D01*
X6250357Y-1738071D01*
X6264643Y-1709500D01*
X6293214Y-1695214D01*
X6336071Y-1695214D01*
X6364643Y-1709500D01*
X6478928Y-2009500D02*
X6493214Y-1995214D01*
X6521786Y-1952357D01*
X6536071Y-1923786D01*
X6550357Y-1880929D01*
X6564643Y-1809500D01*
X6564643Y-1752357D01*
X6550357Y-1680929D01*
X6536071Y-1638071D01*
X6521786Y-1609500D01*
X6493214Y-1566643D01*
X6478928Y-1552357D01*
X-19216Y-2183785D02*
X-19216Y-2127216D01*
X-75785Y-2127216D01*
X-75785Y-2183785D01*
X-19216Y-2183785D01*
X336071Y-1991214D02*
X364643Y-1991214D01*
X393214Y-2005500D01*
X407500Y-2019786D01*
X421786Y-2048357D01*
X436071Y-2105500D01*
X436071Y-2176929D01*
X421786Y-2234072D01*
X407500Y-2262643D01*
X393214Y-2276929D01*
X364643Y-2291214D01*
X336071Y-2291214D01*
X307500Y-2276929D01*
X293214Y-2262643D01*
X278928Y-2234072D01*
X264643Y-2176929D01*
X264643Y-2105500D01*
X278928Y-2048357D01*
X293214Y-2019786D01*
X307500Y-2005500D01*
X336071Y-1991214D01*
X564643Y-2262643D02*
X578928Y-2276929D01*
X564643Y-2291214D01*
X550357Y-2276929D01*
X564643Y-2262643D01*
X564643Y-2291214D01*
X750357Y-2119786D02*
X721786Y-2105500D01*
X707500Y-2091214D01*
X693214Y-2062643D01*
X693214Y-2048357D01*
X707500Y-2019786D01*
X721786Y-2005500D01*
X750357Y-1991214D01*
X807500Y-1991214D01*
X836071Y-2005500D01*
X850357Y-2019786D01*
X864643Y-2048357D01*
X864643Y-2062643D01*
X850357Y-2091214D01*
X836071Y-2105500D01*
X807500Y-2119786D01*
X750357Y-2119786D01*
X721786Y-2134072D01*
X707500Y-2148357D01*
X693214Y-2176929D01*
X693214Y-2234072D01*
X707500Y-2262643D01*
X721786Y-2276929D01*
X750357Y-2291214D01*
X807500Y-2291214D01*
X836071Y-2276929D01*
X850357Y-2262643D01*
X864643Y-2234072D01*
X864643Y-2176929D01*
X850357Y-2148357D01*
X836071Y-2134072D01*
X807500Y-2119786D01*
X1050357Y-1991214D02*
X1078928Y-1991214D01*
X1107500Y-2005500D01*
X1121786Y-2019786D01*
X1136071Y-2048357D01*
X1150357Y-2105500D01*
X1150357Y-2176929D01*
X1136071Y-2234072D01*
X1121786Y-2262643D01*
X1107500Y-2276929D01*
X1078928Y-2291214D01*
X1050357Y-2291214D01*
X1021786Y-2276929D01*
X1007500Y-2262643D01*
X993214Y-2234072D01*
X978928Y-2176929D01*
X978928Y-2105500D01*
X993214Y-2048357D01*
X1007500Y-2019786D01*
X1021786Y-2005500D01*
X1050357Y-1991214D01*
X1278928Y-2291214D02*
X1278928Y-2091214D01*
X1278928Y-2119786D02*
X1293214Y-2105500D01*
X1321786Y-2091214D01*
X1364643Y-2091214D01*
X1393214Y-2105500D01*
X1407500Y-2134072D01*
X1407500Y-2291214D01*
X1407500Y-2134072D02*
X1421786Y-2105500D01*
X1450357Y-2091214D01*
X1493214Y-2091214D01*
X1521786Y-2105500D01*
X1536071Y-2134072D01*
X1536071Y-2291214D01*
X1678928Y-2291214D02*
X1678928Y-2091214D01*
X1678928Y-2119786D02*
X1693214Y-2105500D01*
X1721786Y-2091214D01*
X1764643Y-2091214D01*
X1793214Y-2105500D01*
X1807500Y-2134072D01*
X1807500Y-2291214D01*
X1807500Y-2134072D02*
X1821786Y-2105500D01*
X1850357Y-2091214D01*
X1893214Y-2091214D01*
X1921786Y-2105500D01*
X1936071Y-2134072D01*
X1936071Y-2291214D01*
X2521786Y-1976929D02*
X2264643Y-2362643D01*
X2907500Y-1991214D02*
X2936071Y-1991214D01*
X2964643Y-2005500D01*
X2978928Y-2019786D01*
X2993214Y-2048357D01*
X3007500Y-2105500D01*
X3007500Y-2176929D01*
X2993214Y-2234072D01*
X2978928Y-2262643D01*
X2964643Y-2276929D01*
X2936071Y-2291214D01*
X2907500Y-2291214D01*
X2878928Y-2276929D01*
X2864643Y-2262643D01*
X2850357Y-2234072D01*
X2836071Y-2176929D01*
X2836071Y-2105500D01*
X2850357Y-2048357D01*
X2864643Y-2019786D01*
X2878928Y-2005500D01*
X2907500Y-1991214D01*
X3136071Y-2262643D02*
X3150357Y-2276929D01*
X3136071Y-2291214D01*
X3121786Y-2276929D01*
X3136071Y-2262643D01*
X3136071Y-2291214D01*
X3336071Y-1991214D02*
X3364643Y-1991214D01*
X3393214Y-2005500D01*
X3407500Y-2019786D01*
X3421786Y-2048357D01*
X3436071Y-2105500D01*
X3436071Y-2176929D01*
X3421786Y-2234072D01*
X3407500Y-2262643D01*
X3393214Y-2276929D01*
X3364643Y-2291214D01*
X3336071Y-2291214D01*
X3307500Y-2276929D01*
X3293214Y-2262643D01*
X3278928Y-2234072D01*
X3264643Y-2176929D01*
X3264643Y-2105500D01*
X3278928Y-2048357D01*
X3293214Y-2019786D01*
X3307500Y-2005500D01*
X3336071Y-1991214D01*
X3536071Y-1991214D02*
X3721786Y-1991214D01*
X3621786Y-2105500D01*
X3664643Y-2105500D01*
X3693214Y-2119786D01*
X3707500Y-2134072D01*
X3721786Y-2162643D01*
X3721786Y-2234072D01*
X3707500Y-2262643D01*
X3693214Y-2276929D01*
X3664643Y-2291214D01*
X3578928Y-2291214D01*
X3550357Y-2276929D01*
X3536071Y-2262643D01*
X4007500Y-2291214D02*
X3836071Y-2291214D01*
X3921786Y-2291214D02*
X3921786Y-1991214D01*
X3893214Y-2034071D01*
X3864643Y-2062643D01*
X3836071Y-2076929D01*
X4121786Y-1991214D02*
X4121786Y-2048357D01*
X4236071Y-1991214D02*
X4236071Y-2048357D01*
X4678928Y-2405500D02*
X4664643Y-2391214D01*
X4636071Y-2348357D01*
X4621786Y-2319786D01*
X4607500Y-2276929D01*
X4593214Y-2205500D01*
X4593214Y-2148357D01*
X4607500Y-2076929D01*
X4621786Y-2034071D01*
X4636071Y-2005500D01*
X4664643Y-1962643D01*
X4678928Y-1948357D01*
X4778928Y-2019786D02*
X4793214Y-2005500D01*
X4821786Y-1991214D01*
X4893214Y-1991214D01*
X4921786Y-2005500D01*
X4936071Y-2019786D01*
X4950357Y-2048357D01*
X4950357Y-2076929D01*
X4936071Y-2119786D01*
X4764643Y-2291214D01*
X4950357Y-2291214D01*
X5307500Y-2291214D02*
X5307500Y-1991214D01*
X5436071Y-2291214D02*
X5436071Y-2134072D01*
X5421786Y-2105500D01*
X5393214Y-2091214D01*
X5350357Y-2091214D01*
X5321786Y-2105500D01*
X5307500Y-2119786D01*
X5621786Y-2291214D02*
X5593214Y-2276929D01*
X5578928Y-2262643D01*
X5564643Y-2234072D01*
X5564643Y-2148357D01*
X5578928Y-2119786D01*
X5593214Y-2105500D01*
X5621786Y-2091214D01*
X5664643Y-2091214D01*
X5693214Y-2105500D01*
X5707500Y-2119786D01*
X5721786Y-2148357D01*
X5721786Y-2234072D01*
X5707500Y-2262643D01*
X5693214Y-2276929D01*
X5664643Y-2291214D01*
X5621786Y-2291214D01*
X5893214Y-2291214D02*
X5864643Y-2276929D01*
X5850357Y-2248357D01*
X5850357Y-1991214D01*
X6121786Y-2276929D02*
X6093214Y-2291214D01*
X6036071Y-2291214D01*
X6007500Y-2276929D01*
X5993214Y-2248357D01*
X5993214Y-2134072D01*
X6007500Y-2105500D01*
X6036071Y-2091214D01*
X6093214Y-2091214D01*
X6121786Y-2105500D01*
X6136071Y-2134072D01*
X6136071Y-2162643D01*
X5993214Y-2191214D01*
X6250357Y-2276929D02*
X6278928Y-2291214D01*
X6336071Y-2291214D01*
X6364643Y-2276929D01*
X6378928Y-2248357D01*
X6378928Y-2234072D01*
X6364643Y-2205500D01*
X6336071Y-2191214D01*
X6293214Y-2191214D01*
X6264643Y-2176929D01*
X6250357Y-2148357D01*
X6250357Y-2134072D01*
X6264643Y-2105500D01*
X6293214Y-2091214D01*
X6336071Y-2091214D01*
X6364643Y-2105500D01*
X6478928Y-2405500D02*
X6493214Y-2391214D01*
X6521786Y-2348357D01*
X6536071Y-2319786D01*
X6550357Y-2276929D01*
X6564643Y-2205500D01*
X6564643Y-2148357D01*
X6550357Y-2076929D01*
X6536071Y-2034071D01*
X6521786Y-2005500D01*
X6493214Y-1962643D01*
X6478928Y-1948357D01*
X-57500Y-2601500D02*
X-7500Y-2551500D01*
X-57500Y-2501500D01*
X-107500Y-2551500D01*
X-57500Y-2601500D01*
X436071Y-2687214D02*
X264643Y-2687214D01*
X350357Y-2687214D02*
X350357Y-2387214D01*
X321786Y-2430072D01*
X293214Y-2458643D01*
X264643Y-2472929D01*
X564643Y-2658643D02*
X578928Y-2672929D01*
X564643Y-2687214D01*
X550357Y-2672929D01*
X564643Y-2658643D01*
X564643Y-2687214D01*
X764643Y-2387214D02*
X793214Y-2387214D01*
X821786Y-2401500D01*
X836071Y-2415786D01*
X850357Y-2444357D01*
X864643Y-2501500D01*
X864643Y-2572929D01*
X850357Y-2630072D01*
X836071Y-2658643D01*
X821786Y-2672929D01*
X793214Y-2687214D01*
X764643Y-2687214D01*
X736071Y-2672929D01*
X721786Y-2658643D01*
X707500Y-2630072D01*
X693214Y-2572929D01*
X693214Y-2501500D01*
X707500Y-2444357D01*
X721786Y-2415786D01*
X736071Y-2401500D01*
X764643Y-2387214D01*
X1050357Y-2387214D02*
X1078928Y-2387214D01*
X1107500Y-2401500D01*
X1121786Y-2415786D01*
X1136071Y-2444357D01*
X1150357Y-2501500D01*
X1150357Y-2572929D01*
X1136071Y-2630072D01*
X1121786Y-2658643D01*
X1107500Y-2672929D01*
X1078928Y-2687214D01*
X1050357Y-2687214D01*
X1021786Y-2672929D01*
X1007500Y-2658643D01*
X993214Y-2630072D01*
X978928Y-2572929D01*
X978928Y-2501500D01*
X993214Y-2444357D01*
X1007500Y-2415786D01*
X1021786Y-2401500D01*
X1050357Y-2387214D01*
X1278928Y-2687214D02*
X1278928Y-2487214D01*
X1278928Y-2515786D02*
X1293214Y-2501500D01*
X1321786Y-2487214D01*
X1364643Y-2487214D01*
X1393214Y-2501500D01*
X1407500Y-2530072D01*
X1407500Y-2687214D01*
X1407500Y-2530072D02*
X1421786Y-2501500D01*
X1450357Y-2487214D01*
X1493214Y-2487214D01*
X1521786Y-2501500D01*
X1536071Y-2530072D01*
X1536071Y-2687214D01*
X1678928Y-2687214D02*
X1678928Y-2487214D01*
X1678928Y-2515786D02*
X1693214Y-2501500D01*
X1721786Y-2487214D01*
X1764643Y-2487214D01*
X1793214Y-2501500D01*
X1807500Y-2530072D01*
X1807500Y-2687214D01*
X1807500Y-2530072D02*
X1821786Y-2501500D01*
X1850357Y-2487214D01*
X1893214Y-2487214D01*
X1921786Y-2501500D01*
X1936071Y-2530072D01*
X1936071Y-2687214D01*
X2521786Y-2372929D02*
X2264643Y-2758643D01*
X2907500Y-2387214D02*
X2936071Y-2387214D01*
X2964643Y-2401500D01*
X2978928Y-2415786D01*
X2993214Y-2444357D01*
X3007500Y-2501500D01*
X3007500Y-2572929D01*
X2993214Y-2630072D01*
X2978928Y-2658643D01*
X2964643Y-2672929D01*
X2936071Y-2687214D01*
X2907500Y-2687214D01*
X2878928Y-2672929D01*
X2864643Y-2658643D01*
X2850357Y-2630072D01*
X2836071Y-2572929D01*
X2836071Y-2501500D01*
X2850357Y-2444357D01*
X2864643Y-2415786D01*
X2878928Y-2401500D01*
X2907500Y-2387214D01*
X3136071Y-2658643D02*
X3150357Y-2672929D01*
X3136071Y-2687214D01*
X3121786Y-2672929D01*
X3136071Y-2658643D01*
X3136071Y-2687214D01*
X3336071Y-2387214D02*
X3364643Y-2387214D01*
X3393214Y-2401500D01*
X3407500Y-2415786D01*
X3421786Y-2444357D01*
X3436071Y-2501500D01*
X3436071Y-2572929D01*
X3421786Y-2630072D01*
X3407500Y-2658643D01*
X3393214Y-2672929D01*
X3364643Y-2687214D01*
X3336071Y-2687214D01*
X3307500Y-2672929D01*
X3293214Y-2658643D01*
X3278928Y-2630072D01*
X3264643Y-2572929D01*
X3264643Y-2501500D01*
X3278928Y-2444357D01*
X3293214Y-2415786D01*
X3307500Y-2401500D01*
X3336071Y-2387214D01*
X3536071Y-2387214D02*
X3721786Y-2387214D01*
X3621786Y-2501500D01*
X3664643Y-2501500D01*
X3693214Y-2515786D01*
X3707500Y-2530072D01*
X3721786Y-2558643D01*
X3721786Y-2630072D01*
X3707500Y-2658643D01*
X3693214Y-2672929D01*
X3664643Y-2687214D01*
X3578928Y-2687214D01*
X3550357Y-2672929D01*
X3536071Y-2658643D01*
X3864643Y-2687214D02*
X3921786Y-2687214D01*
X3950357Y-2672929D01*
X3964643Y-2658643D01*
X3993214Y-2615786D01*
X4007500Y-2558643D01*
X4007500Y-2444357D01*
X3993214Y-2415786D01*
X3978928Y-2401500D01*
X3950357Y-2387214D01*
X3893214Y-2387214D01*
X3864643Y-2401500D01*
X3850357Y-2415786D01*
X3836071Y-2444357D01*
X3836071Y-2515786D01*
X3850357Y-2544357D01*
X3864643Y-2558643D01*
X3893214Y-2572929D01*
X3950357Y-2572929D01*
X3978928Y-2558643D01*
X3993214Y-2544357D01*
X4007500Y-2515786D01*
X4121786Y-2387214D02*
X4121786Y-2444357D01*
X4236071Y-2387214D02*
X4236071Y-2444357D01*
X4678928Y-2801500D02*
X4664643Y-2787214D01*
X4636071Y-2744357D01*
X4621786Y-2715786D01*
X4607500Y-2672929D01*
X4593214Y-2601500D01*
X4593214Y-2544357D01*
X4607500Y-2472929D01*
X4621786Y-2430072D01*
X4636071Y-2401500D01*
X4664643Y-2358643D01*
X4678928Y-2344357D01*
X4950357Y-2687214D02*
X4778928Y-2687214D01*
X4864643Y-2687214D02*
X4864643Y-2387214D01*
X4836071Y-2430072D01*
X4807500Y-2458643D01*
X4778928Y-2472929D01*
X5064643Y-2415786D02*
X5078928Y-2401500D01*
X5107500Y-2387214D01*
X5178928Y-2387214D01*
X5207500Y-2401500D01*
X5221786Y-2415786D01*
X5236071Y-2444357D01*
X5236071Y-2472929D01*
X5221786Y-2515786D01*
X5050357Y-2687214D01*
X5236071Y-2687214D01*
X5593214Y-2687214D02*
X5593214Y-2387214D01*
X5721786Y-2687214D02*
X5721786Y-2530072D01*
X5707500Y-2501500D01*
X5678928Y-2487214D01*
X5636071Y-2487214D01*
X5607500Y-2501500D01*
X5593214Y-2515786D01*
X5907500Y-2687214D02*
X5878928Y-2672929D01*
X5864643Y-2658643D01*
X5850357Y-2630072D01*
X5850357Y-2544357D01*
X5864643Y-2515786D01*
X5878928Y-2501500D01*
X5907500Y-2487214D01*
X5950357Y-2487214D01*
X5978928Y-2501500D01*
X5993214Y-2515786D01*
X6007500Y-2544357D01*
X6007500Y-2630072D01*
X5993214Y-2658643D01*
X5978928Y-2672929D01*
X5950357Y-2687214D01*
X5907500Y-2687214D01*
X6178928Y-2687214D02*
X6150357Y-2672929D01*
X6136071Y-2644357D01*
X6136071Y-2387214D01*
X6407500Y-2672929D02*
X6378928Y-2687214D01*
X6321786Y-2687214D01*
X6293214Y-2672929D01*
X6278928Y-2644357D01*
X6278928Y-2530072D01*
X6293214Y-2501500D01*
X6321786Y-2487214D01*
X6378928Y-2487214D01*
X6407500Y-2501500D01*
X6421786Y-2530072D01*
X6421786Y-2558643D01*
X6278928Y-2587214D01*
X6536071Y-2672929D02*
X6564643Y-2687214D01*
X6621786Y-2687214D01*
X6650357Y-2672929D01*
X6664643Y-2644357D01*
X6664643Y-2630072D01*
X6650357Y-2601500D01*
X6621786Y-2587214D01*
X6578928Y-2587214D01*
X6550357Y-2572929D01*
X6536071Y-2544357D01*
X6536071Y-2530072D01*
X6550357Y-2501500D01*
X6578928Y-2487214D01*
X6621786Y-2487214D01*
X6650357Y-2501500D01*
X7021786Y-2572929D02*
X7250357Y-2572929D01*
X7136071Y-2687214D02*
X7136071Y-2458643D01*
X7607500Y-2415786D02*
X7621786Y-2401500D01*
X7650357Y-2387214D01*
X7721786Y-2387214D01*
X7750357Y-2401500D01*
X7764643Y-2415786D01*
X7778928Y-2444357D01*
X7778928Y-2472929D01*
X7764643Y-2515786D01*
X7593214Y-2687214D01*
X7778928Y-2687214D01*
X8121786Y-2672929D02*
X8150357Y-2687214D01*
X8207500Y-2687214D01*
X8236071Y-2672929D01*
X8250357Y-2644357D01*
X8250357Y-2630072D01*
X8236071Y-2601500D01*
X8207500Y-2587214D01*
X8164643Y-2587214D01*
X8136071Y-2572929D01*
X8121786Y-2544357D01*
X8121786Y-2530072D01*
X8136071Y-2501500D01*
X8164643Y-2487214D01*
X8207500Y-2487214D01*
X8236071Y-2501500D01*
X8421786Y-2687214D02*
X8393214Y-2672929D01*
X8378928Y-2644357D01*
X8378928Y-2387214D01*
X8578928Y-2687214D02*
X8550357Y-2672929D01*
X8536071Y-2658643D01*
X8521786Y-2630072D01*
X8521786Y-2544357D01*
X8536071Y-2515786D01*
X8550357Y-2501500D01*
X8578928Y-2487214D01*
X8621786Y-2487214D01*
X8650357Y-2501500D01*
X8664643Y-2515786D01*
X8678928Y-2544357D01*
X8678928Y-2630072D01*
X8664643Y-2658643D01*
X8650357Y-2672929D01*
X8621786Y-2687214D01*
X8578928Y-2687214D01*
X8764643Y-2487214D02*
X8878928Y-2487214D01*
X8807500Y-2387214D02*
X8807500Y-2644357D01*
X8821786Y-2672929D01*
X8850357Y-2687214D01*
X8878928Y-2687214D01*
X8964643Y-2672929D02*
X8993214Y-2687214D01*
X9050357Y-2687214D01*
X9078928Y-2672929D01*
X9093214Y-2644357D01*
X9093214Y-2630072D01*
X9078928Y-2601500D01*
X9050357Y-2587214D01*
X9007500Y-2587214D01*
X8978928Y-2572929D01*
X8964643Y-2544357D01*
X8964643Y-2530072D01*
X8978928Y-2501500D01*
X9007500Y-2487214D01*
X9050357Y-2487214D01*
X9078928Y-2501500D01*
X9193214Y-2801500D02*
X9207500Y-2787214D01*
X9236071Y-2744357D01*
X9250357Y-2715786D01*
X9264643Y-2672929D01*
X9278928Y-2601500D01*
X9278928Y-2544357D01*
X9264643Y-2472929D01*
X9250357Y-2430072D01*
X9236071Y-2401500D01*
X9207500Y-2358643D01*
X9193214Y-2344357D01*
X-147500Y-2877500D02*
X-7500Y-3017500D01*
X-7500Y-2877500D02*
X-147500Y-3017500D01*
X-7500Y-2947500D02*
G75*
G03*
X-7500Y-2947500I-70000J0D01*
G01*
X436071Y-3083214D02*
X264643Y-3083214D01*
X350357Y-3083214D02*
X350357Y-2783214D01*
X321786Y-2826071D01*
X293214Y-2854643D01*
X264643Y-2868929D01*
X564643Y-3054643D02*
X578928Y-3068929D01*
X564643Y-3083214D01*
X550357Y-3068929D01*
X564643Y-3054643D01*
X564643Y-3083214D01*
X836071Y-2883214D02*
X836071Y-3083214D01*
X764643Y-2768929D02*
X693214Y-2983214D01*
X878928Y-2983214D01*
X1050357Y-2783214D02*
X1078928Y-2783214D01*
X1107500Y-2797500D01*
X1121786Y-2811786D01*
X1136071Y-2840357D01*
X1150357Y-2897500D01*
X1150357Y-2968929D01*
X1136071Y-3026071D01*
X1121786Y-3054643D01*
X1107500Y-3068929D01*
X1078928Y-3083214D01*
X1050357Y-3083214D01*
X1021786Y-3068929D01*
X1007500Y-3054643D01*
X993214Y-3026071D01*
X978928Y-2968929D01*
X978928Y-2897500D01*
X993214Y-2840357D01*
X1007500Y-2811786D01*
X1021786Y-2797500D01*
X1050357Y-2783214D01*
X1278928Y-3083214D02*
X1278928Y-2883214D01*
X1278928Y-2911786D02*
X1293214Y-2897500D01*
X1321786Y-2883214D01*
X1364643Y-2883214D01*
X1393214Y-2897500D01*
X1407500Y-2926071D01*
X1407500Y-3083214D01*
X1407500Y-2926071D02*
X1421786Y-2897500D01*
X1450357Y-2883214D01*
X1493214Y-2883214D01*
X1521786Y-2897500D01*
X1536071Y-2926071D01*
X1536071Y-3083214D01*
X1678928Y-3083214D02*
X1678928Y-2883214D01*
X1678928Y-2911786D02*
X1693214Y-2897500D01*
X1721786Y-2883214D01*
X1764643Y-2883214D01*
X1793214Y-2897500D01*
X1807500Y-2926071D01*
X1807500Y-3083214D01*
X1807500Y-2926071D02*
X1821786Y-2897500D01*
X1850357Y-2883214D01*
X1893214Y-2883214D01*
X1921786Y-2897500D01*
X1936071Y-2926071D01*
X1936071Y-3083214D01*
X2521786Y-2768929D02*
X2264643Y-3154643D01*
X2907500Y-2783214D02*
X2936071Y-2783214D01*
X2964643Y-2797500D01*
X2978928Y-2811786D01*
X2993214Y-2840357D01*
X3007500Y-2897500D01*
X3007500Y-2968929D01*
X2993214Y-3026071D01*
X2978928Y-3054643D01*
X2964643Y-3068929D01*
X2936071Y-3083214D01*
X2907500Y-3083214D01*
X2878928Y-3068929D01*
X2864643Y-3054643D01*
X2850357Y-3026071D01*
X2836071Y-2968929D01*
X2836071Y-2897500D01*
X2850357Y-2840357D01*
X2864643Y-2811786D01*
X2878928Y-2797500D01*
X2907500Y-2783214D01*
X3136071Y-3054643D02*
X3150357Y-3068929D01*
X3136071Y-3083214D01*
X3121786Y-3068929D01*
X3136071Y-3054643D01*
X3136071Y-3083214D01*
X3336071Y-2783214D02*
X3364643Y-2783214D01*
X3393214Y-2797500D01*
X3407500Y-2811786D01*
X3421786Y-2840357D01*
X3436071Y-2897500D01*
X3436071Y-2968929D01*
X3421786Y-3026071D01*
X3407500Y-3054643D01*
X3393214Y-3068929D01*
X3364643Y-3083214D01*
X3336071Y-3083214D01*
X3307500Y-3068929D01*
X3293214Y-3054643D01*
X3278928Y-3026071D01*
X3264643Y-2968929D01*
X3264643Y-2897500D01*
X3278928Y-2840357D01*
X3293214Y-2811786D01*
X3307500Y-2797500D01*
X3336071Y-2783214D01*
X3707500Y-2783214D02*
X3564643Y-2783214D01*
X3550357Y-2926071D01*
X3564643Y-2911786D01*
X3593214Y-2897500D01*
X3664643Y-2897500D01*
X3693214Y-2911786D01*
X3707500Y-2926071D01*
X3721786Y-2954643D01*
X3721786Y-3026071D01*
X3707500Y-3054643D01*
X3693214Y-3068929D01*
X3664643Y-3083214D01*
X3593214Y-3083214D01*
X3564643Y-3068929D01*
X3550357Y-3054643D01*
X3993214Y-2783214D02*
X3850357Y-2783214D01*
X3836071Y-2926071D01*
X3850357Y-2911786D01*
X3878928Y-2897500D01*
X3950357Y-2897500D01*
X3978928Y-2911786D01*
X3993214Y-2926071D01*
X4007500Y-2954643D01*
X4007500Y-3026071D01*
X3993214Y-3054643D01*
X3978928Y-3068929D01*
X3950357Y-3083214D01*
X3878928Y-3083214D01*
X3850357Y-3068929D01*
X3836071Y-3054643D01*
X4121786Y-2783214D02*
X4121786Y-2840357D01*
X4236071Y-2783214D02*
X4236071Y-2840357D01*
X4678928Y-3197500D02*
X4664643Y-3183214D01*
X4636071Y-3140357D01*
X4621786Y-3111786D01*
X4607500Y-3068929D01*
X4593214Y-2997500D01*
X4593214Y-2940357D01*
X4607500Y-2868929D01*
X4621786Y-2826071D01*
X4636071Y-2797500D01*
X4664643Y-2754643D01*
X4678928Y-2740357D01*
X4921786Y-2783214D02*
X4864643Y-2783214D01*
X4836071Y-2797500D01*
X4821786Y-2811786D01*
X4793214Y-2854643D01*
X4778928Y-2911786D01*
X4778928Y-3026071D01*
X4793214Y-3054643D01*
X4807500Y-3068929D01*
X4836071Y-3083214D01*
X4893214Y-3083214D01*
X4921786Y-3068929D01*
X4936071Y-3054643D01*
X4950357Y-3026071D01*
X4950357Y-2954643D01*
X4936071Y-2926071D01*
X4921786Y-2911786D01*
X4893214Y-2897500D01*
X4836071Y-2897500D01*
X4807500Y-2911786D01*
X4793214Y-2926071D01*
X4778928Y-2954643D01*
X5307500Y-3083214D02*
X5307500Y-2783214D01*
X5436071Y-3083214D02*
X5436071Y-2926071D01*
X5421786Y-2897500D01*
X5393214Y-2883214D01*
X5350357Y-2883214D01*
X5321786Y-2897500D01*
X5307500Y-2911786D01*
X5621786Y-3083214D02*
X5593214Y-3068929D01*
X5578928Y-3054643D01*
X5564643Y-3026071D01*
X5564643Y-2940357D01*
X5578928Y-2911786D01*
X5593214Y-2897500D01*
X5621786Y-2883214D01*
X5664643Y-2883214D01*
X5693214Y-2897500D01*
X5707500Y-2911786D01*
X5721786Y-2940357D01*
X5721786Y-3026071D01*
X5707500Y-3054643D01*
X5693214Y-3068929D01*
X5664643Y-3083214D01*
X5621786Y-3083214D01*
X5893214Y-3083214D02*
X5864643Y-3068929D01*
X5850357Y-3040357D01*
X5850357Y-2783214D01*
X6121786Y-3068929D02*
X6093214Y-3083214D01*
X6036071Y-3083214D01*
X6007500Y-3068929D01*
X5993214Y-3040357D01*
X5993214Y-2926071D01*
X6007500Y-2897500D01*
X6036071Y-2883214D01*
X6093214Y-2883214D01*
X6121786Y-2897500D01*
X6136071Y-2926071D01*
X6136071Y-2954643D01*
X5993214Y-2983214D01*
X6250357Y-3068929D02*
X6278928Y-3083214D01*
X6336071Y-3083214D01*
X6364643Y-3068929D01*
X6378928Y-3040357D01*
X6378928Y-3026071D01*
X6364643Y-2997500D01*
X6336071Y-2983214D01*
X6293214Y-2983214D01*
X6264643Y-2968929D01*
X6250357Y-2940357D01*
X6250357Y-2926071D01*
X6264643Y-2897500D01*
X6293214Y-2883214D01*
X6336071Y-2883214D01*
X6364643Y-2897500D01*
X6478928Y-3197500D02*
X6493214Y-3183214D01*
X6521786Y-3140357D01*
X6536071Y-3111786D01*
X6550357Y-3068929D01*
X6564643Y-2997500D01*
X6564643Y-2940357D01*
X6550357Y-2868929D01*
X6536071Y-2826071D01*
X6521786Y-2797500D01*
X6493214Y-2754643D01*
X6478928Y-2740357D01*
X-157500Y-3268500D02*
X-7500Y-3418500D01*
X-7500Y-3268500D02*
X-157500Y-3418500D01*
X-82500Y-3268500D02*
X-82500Y-3418500D01*
X-157500Y-3343500D02*
X-7500Y-3343500D01*
X436071Y-3479214D02*
X264643Y-3479214D01*
X350357Y-3479214D02*
X350357Y-3179214D01*
X321786Y-3222071D01*
X293214Y-3250643D01*
X264643Y-3264929D01*
X564643Y-3450643D02*
X578928Y-3464929D01*
X564643Y-3479214D01*
X550357Y-3464929D01*
X564643Y-3450643D01*
X564643Y-3479214D01*
X850357Y-3179214D02*
X707500Y-3179214D01*
X693214Y-3322071D01*
X707500Y-3307786D01*
X736071Y-3293500D01*
X807500Y-3293500D01*
X836071Y-3307786D01*
X850357Y-3322071D01*
X864643Y-3350643D01*
X864643Y-3422071D01*
X850357Y-3450643D01*
X836071Y-3464929D01*
X807500Y-3479214D01*
X736071Y-3479214D01*
X707500Y-3464929D01*
X693214Y-3450643D01*
X1050357Y-3179214D02*
X1078928Y-3179214D01*
X1107500Y-3193500D01*
X1121786Y-3207786D01*
X1136071Y-3236357D01*
X1150357Y-3293500D01*
X1150357Y-3364929D01*
X1136071Y-3422071D01*
X1121786Y-3450643D01*
X1107500Y-3464929D01*
X1078928Y-3479214D01*
X1050357Y-3479214D01*
X1021786Y-3464929D01*
X1007500Y-3450643D01*
X993214Y-3422071D01*
X978928Y-3364929D01*
X978928Y-3293500D01*
X993214Y-3236357D01*
X1007500Y-3207786D01*
X1021786Y-3193500D01*
X1050357Y-3179214D01*
X1278928Y-3479214D02*
X1278928Y-3279214D01*
X1278928Y-3307786D02*
X1293214Y-3293500D01*
X1321786Y-3279214D01*
X1364643Y-3279214D01*
X1393214Y-3293500D01*
X1407500Y-3322071D01*
X1407500Y-3479214D01*
X1407500Y-3322071D02*
X1421786Y-3293500D01*
X1450357Y-3279214D01*
X1493214Y-3279214D01*
X1521786Y-3293500D01*
X1536071Y-3322071D01*
X1536071Y-3479214D01*
X1678928Y-3479214D02*
X1678928Y-3279214D01*
X1678928Y-3307786D02*
X1693214Y-3293500D01*
X1721786Y-3279214D01*
X1764643Y-3279214D01*
X1793214Y-3293500D01*
X1807500Y-3322071D01*
X1807500Y-3479214D01*
X1807500Y-3322071D02*
X1821786Y-3293500D01*
X1850357Y-3279214D01*
X1893214Y-3279214D01*
X1921786Y-3293500D01*
X1936071Y-3322071D01*
X1936071Y-3479214D01*
X2521786Y-3164929D02*
X2264643Y-3550643D01*
X2907500Y-3179214D02*
X2936071Y-3179214D01*
X2964643Y-3193500D01*
X2978928Y-3207786D01*
X2993214Y-3236357D01*
X3007500Y-3293500D01*
X3007500Y-3364929D01*
X2993214Y-3422071D01*
X2978928Y-3450643D01*
X2964643Y-3464929D01*
X2936071Y-3479214D01*
X2907500Y-3479214D01*
X2878928Y-3464929D01*
X2864643Y-3450643D01*
X2850357Y-3422071D01*
X2836071Y-3364929D01*
X2836071Y-3293500D01*
X2850357Y-3236357D01*
X2864643Y-3207786D01*
X2878928Y-3193500D01*
X2907500Y-3179214D01*
X3136071Y-3450643D02*
X3150357Y-3464929D01*
X3136071Y-3479214D01*
X3121786Y-3464929D01*
X3136071Y-3450643D01*
X3136071Y-3479214D01*
X3336071Y-3179214D02*
X3364643Y-3179214D01*
X3393214Y-3193500D01*
X3407500Y-3207786D01*
X3421786Y-3236357D01*
X3436071Y-3293500D01*
X3436071Y-3364929D01*
X3421786Y-3422071D01*
X3407500Y-3450643D01*
X3393214Y-3464929D01*
X3364643Y-3479214D01*
X3336071Y-3479214D01*
X3307500Y-3464929D01*
X3293214Y-3450643D01*
X3278928Y-3422071D01*
X3264643Y-3364929D01*
X3264643Y-3293500D01*
X3278928Y-3236357D01*
X3293214Y-3207786D01*
X3307500Y-3193500D01*
X3336071Y-3179214D01*
X3707500Y-3179214D02*
X3564643Y-3179214D01*
X3550357Y-3322071D01*
X3564643Y-3307786D01*
X3593214Y-3293500D01*
X3664643Y-3293500D01*
X3693214Y-3307786D01*
X3707500Y-3322071D01*
X3721786Y-3350643D01*
X3721786Y-3422071D01*
X3707500Y-3450643D01*
X3693214Y-3464929D01*
X3664643Y-3479214D01*
X3593214Y-3479214D01*
X3564643Y-3464929D01*
X3550357Y-3450643D01*
X3864643Y-3479214D02*
X3921786Y-3479214D01*
X3950357Y-3464929D01*
X3964643Y-3450643D01*
X3993214Y-3407786D01*
X4007500Y-3350643D01*
X4007500Y-3236357D01*
X3993214Y-3207786D01*
X3978928Y-3193500D01*
X3950357Y-3179214D01*
X3893214Y-3179214D01*
X3864643Y-3193500D01*
X3850357Y-3207786D01*
X3836071Y-3236357D01*
X3836071Y-3307786D01*
X3850357Y-3336357D01*
X3864643Y-3350643D01*
X3893214Y-3364929D01*
X3950357Y-3364929D01*
X3978928Y-3350643D01*
X3993214Y-3336357D01*
X4007500Y-3307786D01*
X4121786Y-3179214D02*
X4121786Y-3236357D01*
X4236071Y-3179214D02*
X4236071Y-3236357D01*
X4678928Y-3593500D02*
X4664643Y-3579214D01*
X4636071Y-3536357D01*
X4621786Y-3507786D01*
X4607500Y-3464929D01*
X4593214Y-3393500D01*
X4593214Y-3336357D01*
X4607500Y-3264929D01*
X4621786Y-3222071D01*
X4636071Y-3193500D01*
X4664643Y-3150643D01*
X4678928Y-3136357D01*
X4778928Y-3207786D02*
X4793214Y-3193500D01*
X4821786Y-3179214D01*
X4893214Y-3179214D01*
X4921786Y-3193500D01*
X4936071Y-3207786D01*
X4950357Y-3236357D01*
X4950357Y-3264929D01*
X4936071Y-3307786D01*
X4764643Y-3479214D01*
X4950357Y-3479214D01*
X5307500Y-3479214D02*
X5307500Y-3179214D01*
X5436071Y-3479214D02*
X5436071Y-3322071D01*
X5421786Y-3293500D01*
X5393214Y-3279214D01*
X5350357Y-3279214D01*
X5321786Y-3293500D01*
X5307500Y-3307786D01*
X5621786Y-3479214D02*
X5593214Y-3464929D01*
X5578928Y-3450643D01*
X5564643Y-3422071D01*
X5564643Y-3336357D01*
X5578928Y-3307786D01*
X5593214Y-3293500D01*
X5621786Y-3279214D01*
X5664643Y-3279214D01*
X5693214Y-3293500D01*
X5707500Y-3307786D01*
X5721786Y-3336357D01*
X5721786Y-3422071D01*
X5707500Y-3450643D01*
X5693214Y-3464929D01*
X5664643Y-3479214D01*
X5621786Y-3479214D01*
X5893214Y-3479214D02*
X5864643Y-3464929D01*
X5850357Y-3436357D01*
X5850357Y-3179214D01*
X6121786Y-3464929D02*
X6093214Y-3479214D01*
X6036071Y-3479214D01*
X6007500Y-3464929D01*
X5993214Y-3436357D01*
X5993214Y-3322071D01*
X6007500Y-3293500D01*
X6036071Y-3279214D01*
X6093214Y-3279214D01*
X6121786Y-3293500D01*
X6136071Y-3322071D01*
X6136071Y-3350643D01*
X5993214Y-3379214D01*
X6250357Y-3464929D02*
X6278928Y-3479214D01*
X6336071Y-3479214D01*
X6364643Y-3464929D01*
X6378928Y-3436357D01*
X6378928Y-3422071D01*
X6364643Y-3393500D01*
X6336071Y-3379214D01*
X6293214Y-3379214D01*
X6264643Y-3364929D01*
X6250357Y-3336357D01*
X6250357Y-3322071D01*
X6264643Y-3293500D01*
X6293214Y-3279214D01*
X6336071Y-3279214D01*
X6364643Y-3293500D01*
X6478928Y-3593500D02*
X6493214Y-3579214D01*
X6521786Y-3536357D01*
X6536071Y-3507786D01*
X6550357Y-3464929D01*
X6564643Y-3393500D01*
X6564643Y-3336357D01*
X6550357Y-3264929D01*
X6536071Y-3222071D01*
X6521786Y-3193500D01*
X6493214Y-3150643D01*
X6478928Y-3136357D01*
X-107500Y-3689500D02*
X-7500Y-3789500D01*
X-7500Y-3689500D02*
X-107500Y-3789500D01*
X-22144Y-3774856D02*
X-22144Y-3704144D01*
X-92856Y-3704144D01*
X-92856Y-3774856D01*
X-22144Y-3774856D01*
X436071Y-3875214D02*
X264643Y-3875214D01*
X350357Y-3875214D02*
X350357Y-3575214D01*
X321786Y-3618071D01*
X293214Y-3646643D01*
X264643Y-3660929D01*
X564643Y-3846643D02*
X578928Y-3860929D01*
X564643Y-3875214D01*
X550357Y-3860929D01*
X564643Y-3846643D01*
X564643Y-3875214D01*
X764643Y-3575214D02*
X793214Y-3575214D01*
X821786Y-3589500D01*
X836071Y-3603786D01*
X850357Y-3632357D01*
X864643Y-3689500D01*
X864643Y-3760929D01*
X850357Y-3818071D01*
X836071Y-3846643D01*
X821786Y-3860929D01*
X793214Y-3875214D01*
X764643Y-3875214D01*
X736071Y-3860929D01*
X721786Y-3846643D01*
X707500Y-3818071D01*
X693214Y-3760929D01*
X693214Y-3689500D01*
X707500Y-3632357D01*
X721786Y-3603786D01*
X736071Y-3589500D01*
X764643Y-3575214D01*
X1050357Y-3575214D02*
X1078928Y-3575214D01*
X1107500Y-3589500D01*
X1121786Y-3603786D01*
X1136071Y-3632357D01*
X1150357Y-3689500D01*
X1150357Y-3760929D01*
X1136071Y-3818071D01*
X1121786Y-3846643D01*
X1107500Y-3860929D01*
X1078928Y-3875214D01*
X1050357Y-3875214D01*
X1021786Y-3860929D01*
X1007500Y-3846643D01*
X993214Y-3818071D01*
X978928Y-3760929D01*
X978928Y-3689500D01*
X993214Y-3632357D01*
X1007500Y-3603786D01*
X1021786Y-3589500D01*
X1050357Y-3575214D01*
X1278928Y-3875214D02*
X1278928Y-3675214D01*
X1278928Y-3703786D02*
X1293214Y-3689500D01*
X1321786Y-3675214D01*
X1364643Y-3675214D01*
X1393214Y-3689500D01*
X1407500Y-3718071D01*
X1407500Y-3875214D01*
X1407500Y-3718071D02*
X1421786Y-3689500D01*
X1450357Y-3675214D01*
X1493214Y-3675214D01*
X1521786Y-3689500D01*
X1536071Y-3718071D01*
X1536071Y-3875214D01*
X1678928Y-3875214D02*
X1678928Y-3675214D01*
X1678928Y-3703786D02*
X1693214Y-3689500D01*
X1721786Y-3675214D01*
X1764643Y-3675214D01*
X1793214Y-3689500D01*
X1807500Y-3718071D01*
X1807500Y-3875214D01*
X1807500Y-3718071D02*
X1821786Y-3689500D01*
X1850357Y-3675214D01*
X1893214Y-3675214D01*
X1921786Y-3689500D01*
X1936071Y-3718071D01*
X1936071Y-3875214D01*
X2521786Y-3560929D02*
X2264643Y-3946643D01*
X2907500Y-3575214D02*
X2936071Y-3575214D01*
X2964643Y-3589500D01*
X2978928Y-3603786D01*
X2993214Y-3632357D01*
X3007500Y-3689500D01*
X3007500Y-3760929D01*
X2993214Y-3818071D01*
X2978928Y-3846643D01*
X2964643Y-3860929D01*
X2936071Y-3875214D01*
X2907500Y-3875214D01*
X2878928Y-3860929D01*
X2864643Y-3846643D01*
X2850357Y-3818071D01*
X2836071Y-3760929D01*
X2836071Y-3689500D01*
X2850357Y-3632357D01*
X2864643Y-3603786D01*
X2878928Y-3589500D01*
X2907500Y-3575214D01*
X3136071Y-3846643D02*
X3150357Y-3860929D01*
X3136071Y-3875214D01*
X3121786Y-3860929D01*
X3136071Y-3846643D01*
X3136071Y-3875214D01*
X3336071Y-3575214D02*
X3364643Y-3575214D01*
X3393214Y-3589500D01*
X3407500Y-3603786D01*
X3421786Y-3632357D01*
X3436071Y-3689500D01*
X3436071Y-3760929D01*
X3421786Y-3818071D01*
X3407500Y-3846643D01*
X3393214Y-3860929D01*
X3364643Y-3875214D01*
X3336071Y-3875214D01*
X3307500Y-3860929D01*
X3293214Y-3846643D01*
X3278928Y-3818071D01*
X3264643Y-3760929D01*
X3264643Y-3689500D01*
X3278928Y-3632357D01*
X3293214Y-3603786D01*
X3307500Y-3589500D01*
X3336071Y-3575214D01*
X3536071Y-3575214D02*
X3721786Y-3575214D01*
X3621786Y-3689500D01*
X3664643Y-3689500D01*
X3693214Y-3703786D01*
X3707500Y-3718071D01*
X3721786Y-3746643D01*
X3721786Y-3818071D01*
X3707500Y-3846643D01*
X3693214Y-3860929D01*
X3664643Y-3875214D01*
X3578928Y-3875214D01*
X3550357Y-3860929D01*
X3536071Y-3846643D01*
X3864643Y-3875214D02*
X3921786Y-3875214D01*
X3950357Y-3860929D01*
X3964643Y-3846643D01*
X3993214Y-3803786D01*
X4007500Y-3746643D01*
X4007500Y-3632357D01*
X3993214Y-3603786D01*
X3978928Y-3589500D01*
X3950357Y-3575214D01*
X3893214Y-3575214D01*
X3864643Y-3589500D01*
X3850357Y-3603786D01*
X3836071Y-3632357D01*
X3836071Y-3703786D01*
X3850357Y-3732357D01*
X3864643Y-3746643D01*
X3893214Y-3760929D01*
X3950357Y-3760929D01*
X3978928Y-3746643D01*
X3993214Y-3732357D01*
X4007500Y-3703786D01*
X4121786Y-3575214D02*
X4121786Y-3632357D01*
X4236071Y-3575214D02*
X4236071Y-3632357D01*
X4678928Y-3989500D02*
X4664643Y-3975214D01*
X4636071Y-3932357D01*
X4621786Y-3903786D01*
X4607500Y-3860929D01*
X4593214Y-3789500D01*
X4593214Y-3732357D01*
X4607500Y-3660929D01*
X4621786Y-3618071D01*
X4636071Y-3589500D01*
X4664643Y-3546643D01*
X4678928Y-3532357D01*
X4778928Y-3603786D02*
X4793214Y-3589500D01*
X4821786Y-3575214D01*
X4893214Y-3575214D01*
X4921786Y-3589500D01*
X4936071Y-3603786D01*
X4950357Y-3632357D01*
X4950357Y-3660929D01*
X4936071Y-3703786D01*
X4764643Y-3875214D01*
X4950357Y-3875214D01*
X5307500Y-3875214D02*
X5307500Y-3575214D01*
X5436071Y-3875214D02*
X5436071Y-3718071D01*
X5421786Y-3689500D01*
X5393214Y-3675214D01*
X5350357Y-3675214D01*
X5321786Y-3689500D01*
X5307500Y-3703786D01*
X5621786Y-3875214D02*
X5593214Y-3860929D01*
X5578928Y-3846643D01*
X5564643Y-3818071D01*
X5564643Y-3732357D01*
X5578928Y-3703786D01*
X5593214Y-3689500D01*
X5621786Y-3675214D01*
X5664643Y-3675214D01*
X5693214Y-3689500D01*
X5707500Y-3703786D01*
X5721786Y-3732357D01*
X5721786Y-3818071D01*
X5707500Y-3846643D01*
X5693214Y-3860929D01*
X5664643Y-3875214D01*
X5621786Y-3875214D01*
X5893214Y-3875214D02*
X5864643Y-3860929D01*
X5850357Y-3832357D01*
X5850357Y-3575214D01*
X6121786Y-3860929D02*
X6093214Y-3875214D01*
X6036071Y-3875214D01*
X6007500Y-3860929D01*
X5993214Y-3832357D01*
X5993214Y-3718071D01*
X6007500Y-3689500D01*
X6036071Y-3675214D01*
X6093214Y-3675214D01*
X6121786Y-3689500D01*
X6136071Y-3718071D01*
X6136071Y-3746643D01*
X5993214Y-3775214D01*
X6250357Y-3860929D02*
X6278928Y-3875214D01*
X6336071Y-3875214D01*
X6364643Y-3860929D01*
X6378928Y-3832357D01*
X6378928Y-3818071D01*
X6364643Y-3789500D01*
X6336071Y-3775214D01*
X6293214Y-3775214D01*
X6264643Y-3760929D01*
X6250357Y-3732357D01*
X6250357Y-3718071D01*
X6264643Y-3689500D01*
X6293214Y-3675214D01*
X6336071Y-3675214D01*
X6364643Y-3689500D01*
X6478928Y-3989500D02*
X6493214Y-3975214D01*
X6521786Y-3932357D01*
X6536071Y-3903786D01*
X6550357Y-3860929D01*
X6564643Y-3789500D01*
X6564643Y-3732357D01*
X6550357Y-3660929D01*
X6536071Y-3618071D01*
X6521786Y-3589500D01*
X6493214Y-3546643D01*
X6478928Y-3532357D01*
X7021786Y-3989500D02*
X7007500Y-3975214D01*
X6978928Y-3932357D01*
X6964643Y-3903786D01*
X6950357Y-3860929D01*
X6936071Y-3789500D01*
X6936071Y-3732357D01*
X6950357Y-3660929D01*
X6964643Y-3618071D01*
X6978928Y-3589500D01*
X7007500Y-3546643D01*
X7021786Y-3532357D01*
X7136071Y-3675214D02*
X7136071Y-3875214D01*
X7136071Y-3703786D02*
X7150357Y-3689500D01*
X7178928Y-3675214D01*
X7221786Y-3675214D01*
X7250357Y-3689500D01*
X7264643Y-3718071D01*
X7264643Y-3875214D01*
X7450357Y-3875214D02*
X7421786Y-3860929D01*
X7407500Y-3846643D01*
X7393214Y-3818071D01*
X7393214Y-3732357D01*
X7407500Y-3703786D01*
X7421786Y-3689500D01*
X7450357Y-3675214D01*
X7493214Y-3675214D01*
X7521786Y-3689500D01*
X7536071Y-3703786D01*
X7550357Y-3732357D01*
X7550357Y-3818071D01*
X7536071Y-3846643D01*
X7521786Y-3860929D01*
X7493214Y-3875214D01*
X7450357Y-3875214D01*
X7636071Y-3675214D02*
X7750357Y-3675214D01*
X7678928Y-3575214D02*
X7678928Y-3832357D01*
X7693214Y-3860929D01*
X7721786Y-3875214D01*
X7750357Y-3875214D01*
X8078928Y-3675214D02*
X8078928Y-3975214D01*
X8078928Y-3689500D02*
X8107500Y-3675214D01*
X8164643Y-3675214D01*
X8193214Y-3689500D01*
X8207500Y-3703786D01*
X8221786Y-3732357D01*
X8221786Y-3818071D01*
X8207500Y-3846643D01*
X8193214Y-3860929D01*
X8164643Y-3875214D01*
X8107500Y-3875214D01*
X8078928Y-3860929D01*
X8393214Y-3875214D02*
X8364643Y-3860929D01*
X8350357Y-3832357D01*
X8350357Y-3575214D01*
X8636071Y-3875214D02*
X8636071Y-3718071D01*
X8621786Y-3689500D01*
X8593214Y-3675214D01*
X8536071Y-3675214D01*
X8507500Y-3689500D01*
X8636071Y-3860929D02*
X8607500Y-3875214D01*
X8536071Y-3875214D01*
X8507500Y-3860929D01*
X8493214Y-3832357D01*
X8493214Y-3803786D01*
X8507500Y-3775214D01*
X8536071Y-3760929D01*
X8607500Y-3760929D01*
X8636071Y-3746643D01*
X8736071Y-3675214D02*
X8850357Y-3675214D01*
X8778928Y-3575214D02*
X8778928Y-3832357D01*
X8793214Y-3860929D01*
X8821786Y-3875214D01*
X8850357Y-3875214D01*
X9064643Y-3860929D02*
X9036071Y-3875214D01*
X8978928Y-3875214D01*
X8950357Y-3860929D01*
X8936071Y-3832357D01*
X8936071Y-3718071D01*
X8950357Y-3689500D01*
X8978928Y-3675214D01*
X9036071Y-3675214D01*
X9064643Y-3689500D01*
X9078928Y-3718071D01*
X9078928Y-3746643D01*
X8936071Y-3775214D01*
X9336071Y-3875214D02*
X9336071Y-3575214D01*
X9336071Y-3860929D02*
X9307500Y-3875214D01*
X9250357Y-3875214D01*
X9221786Y-3860929D01*
X9207500Y-3846643D01*
X9193214Y-3818071D01*
X9193214Y-3732357D01*
X9207500Y-3703786D01*
X9221786Y-3689500D01*
X9250357Y-3675214D01*
X9307500Y-3675214D01*
X9336071Y-3689500D01*
X9450357Y-3989500D02*
X9464643Y-3975214D01*
X9493214Y-3932357D01*
X9507500Y-3903786D01*
X9521786Y-3860929D01*
X9536071Y-3789500D01*
X9536071Y-3732357D01*
X9521786Y-3660929D01*
X9507500Y-3618071D01*
X9493214Y-3589500D01*
X9464643Y-3546643D01*
X9450357Y-3532357D01*
X-157500Y-4060500D02*
X-7500Y-4210500D01*
X-7500Y-4060500D02*
X-157500Y-4210500D01*
X-82500Y-4210500D02*
X-7500Y-4135500D01*
X-82500Y-4060500D01*
X-157500Y-4135500D01*
X-82500Y-4210500D01*
X436071Y-4271214D02*
X264643Y-4271214D01*
X350357Y-4271214D02*
X350357Y-3971214D01*
X321786Y-4014071D01*
X293214Y-4042643D01*
X264643Y-4056929D01*
X564643Y-4242643D02*
X578928Y-4256929D01*
X564643Y-4271214D01*
X550357Y-4256929D01*
X564643Y-4242643D01*
X564643Y-4271214D01*
X850357Y-3971214D02*
X707500Y-3971214D01*
X693214Y-4114071D01*
X707500Y-4099786D01*
X736071Y-4085500D01*
X807500Y-4085500D01*
X836071Y-4099786D01*
X850357Y-4114071D01*
X864643Y-4142643D01*
X864643Y-4214072D01*
X850357Y-4242643D01*
X836071Y-4256929D01*
X807500Y-4271214D01*
X736071Y-4271214D01*
X707500Y-4256929D01*
X693214Y-4242643D01*
X1050357Y-3971214D02*
X1078928Y-3971214D01*
X1107500Y-3985500D01*
X1121786Y-3999786D01*
X1136071Y-4028357D01*
X1150357Y-4085500D01*
X1150357Y-4156929D01*
X1136071Y-4214072D01*
X1121786Y-4242643D01*
X1107500Y-4256929D01*
X1078928Y-4271214D01*
X1050357Y-4271214D01*
X1021786Y-4256929D01*
X1007500Y-4242643D01*
X993214Y-4214072D01*
X978928Y-4156929D01*
X978928Y-4085500D01*
X993214Y-4028357D01*
X1007500Y-3999786D01*
X1021786Y-3985500D01*
X1050357Y-3971214D01*
X1278928Y-4271214D02*
X1278928Y-4071214D01*
X1278928Y-4099786D02*
X1293214Y-4085500D01*
X1321786Y-4071214D01*
X1364643Y-4071214D01*
X1393214Y-4085500D01*
X1407500Y-4114071D01*
X1407500Y-4271214D01*
X1407500Y-4114071D02*
X1421786Y-4085500D01*
X1450357Y-4071214D01*
X1493214Y-4071214D01*
X1521786Y-4085500D01*
X1536071Y-4114071D01*
X1536071Y-4271214D01*
X1678928Y-4271214D02*
X1678928Y-4071214D01*
X1678928Y-4099786D02*
X1693214Y-4085500D01*
X1721786Y-4071214D01*
X1764643Y-4071214D01*
X1793214Y-4085500D01*
X1807500Y-4114071D01*
X1807500Y-4271214D01*
X1807500Y-4114071D02*
X1821786Y-4085500D01*
X1850357Y-4071214D01*
X1893214Y-4071214D01*
X1921786Y-4085500D01*
X1936071Y-4114071D01*
X1936071Y-4271214D01*
X2521786Y-3956929D02*
X2264643Y-4342643D01*
X2907500Y-3971214D02*
X2936071Y-3971214D01*
X2964643Y-3985500D01*
X2978928Y-3999786D01*
X2993214Y-4028357D01*
X3007500Y-4085500D01*
X3007500Y-4156929D01*
X2993214Y-4214072D01*
X2978928Y-4242643D01*
X2964643Y-4256929D01*
X2936071Y-4271214D01*
X2907500Y-4271214D01*
X2878928Y-4256929D01*
X2864643Y-4242643D01*
X2850357Y-4214072D01*
X2836071Y-4156929D01*
X2836071Y-4085500D01*
X2850357Y-4028357D01*
X2864643Y-3999786D01*
X2878928Y-3985500D01*
X2907500Y-3971214D01*
X3136071Y-4242643D02*
X3150357Y-4256929D01*
X3136071Y-4271214D01*
X3121786Y-4256929D01*
X3136071Y-4242643D01*
X3136071Y-4271214D01*
X3336071Y-3971214D02*
X3364643Y-3971214D01*
X3393214Y-3985500D01*
X3407500Y-3999786D01*
X3421786Y-4028357D01*
X3436071Y-4085500D01*
X3436071Y-4156929D01*
X3421786Y-4214072D01*
X3407500Y-4242643D01*
X3393214Y-4256929D01*
X3364643Y-4271214D01*
X3336071Y-4271214D01*
X3307500Y-4256929D01*
X3293214Y-4242643D01*
X3278928Y-4214072D01*
X3264643Y-4156929D01*
X3264643Y-4085500D01*
X3278928Y-4028357D01*
X3293214Y-3999786D01*
X3307500Y-3985500D01*
X3336071Y-3971214D01*
X3707500Y-3971214D02*
X3564643Y-3971214D01*
X3550357Y-4114071D01*
X3564643Y-4099786D01*
X3593214Y-4085500D01*
X3664643Y-4085500D01*
X3693214Y-4099786D01*
X3707500Y-4114071D01*
X3721786Y-4142643D01*
X3721786Y-4214072D01*
X3707500Y-4242643D01*
X3693214Y-4256929D01*
X3664643Y-4271214D01*
X3593214Y-4271214D01*
X3564643Y-4256929D01*
X3550357Y-4242643D01*
X3864643Y-4271214D02*
X3921786Y-4271214D01*
X3950357Y-4256929D01*
X3964643Y-4242643D01*
X3993214Y-4199786D01*
X4007500Y-4142643D01*
X4007500Y-4028357D01*
X3993214Y-3999786D01*
X3978928Y-3985500D01*
X3950357Y-3971214D01*
X3893214Y-3971214D01*
X3864643Y-3985500D01*
X3850357Y-3999786D01*
X3836071Y-4028357D01*
X3836071Y-4099786D01*
X3850357Y-4128357D01*
X3864643Y-4142643D01*
X3893214Y-4156929D01*
X3950357Y-4156929D01*
X3978928Y-4142643D01*
X3993214Y-4128357D01*
X4007500Y-4099786D01*
X4121786Y-3971214D02*
X4121786Y-4028357D01*
X4236071Y-3971214D02*
X4236071Y-4028357D01*
X4678928Y-4385500D02*
X4664643Y-4371214D01*
X4636071Y-4328357D01*
X4621786Y-4299786D01*
X4607500Y-4256929D01*
X4593214Y-4185500D01*
X4593214Y-4128357D01*
X4607500Y-4056929D01*
X4621786Y-4014071D01*
X4636071Y-3985500D01*
X4664643Y-3942643D01*
X4678928Y-3928357D01*
X4778928Y-3999786D02*
X4793214Y-3985500D01*
X4821786Y-3971214D01*
X4893214Y-3971214D01*
X4921786Y-3985500D01*
X4936071Y-3999786D01*
X4950357Y-4028357D01*
X4950357Y-4056929D01*
X4936071Y-4099786D01*
X4764643Y-4271214D01*
X4950357Y-4271214D01*
X5307500Y-4271214D02*
X5307500Y-3971214D01*
X5436071Y-4271214D02*
X5436071Y-4114071D01*
X5421786Y-4085500D01*
X5393214Y-4071214D01*
X5350357Y-4071214D01*
X5321786Y-4085500D01*
X5307500Y-4099786D01*
X5621786Y-4271214D02*
X5593214Y-4256929D01*
X5578928Y-4242643D01*
X5564643Y-4214072D01*
X5564643Y-4128357D01*
X5578928Y-4099786D01*
X5593214Y-4085500D01*
X5621786Y-4071214D01*
X5664643Y-4071214D01*
X5693214Y-4085500D01*
X5707500Y-4099786D01*
X5721786Y-4128357D01*
X5721786Y-4214072D01*
X5707500Y-4242643D01*
X5693214Y-4256929D01*
X5664643Y-4271214D01*
X5621786Y-4271214D01*
X5893214Y-4271214D02*
X5864643Y-4256929D01*
X5850357Y-4228357D01*
X5850357Y-3971214D01*
X6121786Y-4256929D02*
X6093214Y-4271214D01*
X6036071Y-4271214D01*
X6007500Y-4256929D01*
X5993214Y-4228357D01*
X5993214Y-4114071D01*
X6007500Y-4085500D01*
X6036071Y-4071214D01*
X6093214Y-4071214D01*
X6121786Y-4085500D01*
X6136071Y-4114071D01*
X6136071Y-4142643D01*
X5993214Y-4171214D01*
X6250357Y-4256929D02*
X6278928Y-4271214D01*
X6336071Y-4271214D01*
X6364643Y-4256929D01*
X6378928Y-4228357D01*
X6378928Y-4214072D01*
X6364643Y-4185500D01*
X6336071Y-4171214D01*
X6293214Y-4171214D01*
X6264643Y-4156929D01*
X6250357Y-4128357D01*
X6250357Y-4114071D01*
X6264643Y-4085500D01*
X6293214Y-4071214D01*
X6336071Y-4071214D01*
X6364643Y-4085500D01*
X6478928Y-4385500D02*
X6493214Y-4371214D01*
X6521786Y-4328357D01*
X6536071Y-4299786D01*
X6550357Y-4256929D01*
X6564643Y-4185500D01*
X6564643Y-4128357D01*
X6550357Y-4056929D01*
X6536071Y-4014071D01*
X6521786Y-3985500D01*
X6493214Y-3942643D01*
X6478928Y-3928357D01*
X7021786Y-4385500D02*
X7007500Y-4371214D01*
X6978928Y-4328357D01*
X6964643Y-4299786D01*
X6950357Y-4256929D01*
X6936071Y-4185500D01*
X6936071Y-4128357D01*
X6950357Y-4056929D01*
X6964643Y-4014071D01*
X6978928Y-3985500D01*
X7007500Y-3942643D01*
X7021786Y-3928357D01*
X7136071Y-4071214D02*
X7136071Y-4271214D01*
X7136071Y-4099786D02*
X7150357Y-4085500D01*
X7178928Y-4071214D01*
X7221786Y-4071214D01*
X7250357Y-4085500D01*
X7264643Y-4114071D01*
X7264643Y-4271214D01*
X7450357Y-4271214D02*
X7421786Y-4256929D01*
X7407500Y-4242643D01*
X7393214Y-4214072D01*
X7393214Y-4128357D01*
X7407500Y-4099786D01*
X7421786Y-4085500D01*
X7450357Y-4071214D01*
X7493214Y-4071214D01*
X7521786Y-4085500D01*
X7536071Y-4099786D01*
X7550357Y-4128357D01*
X7550357Y-4214072D01*
X7536071Y-4242643D01*
X7521786Y-4256929D01*
X7493214Y-4271214D01*
X7450357Y-4271214D01*
X7636071Y-4071214D02*
X7750357Y-4071214D01*
X7678928Y-3971214D02*
X7678928Y-4228357D01*
X7693214Y-4256929D01*
X7721786Y-4271214D01*
X7750357Y-4271214D01*
X8078928Y-4071214D02*
X8078928Y-4371214D01*
X8078928Y-4085500D02*
X8107500Y-4071214D01*
X8164643Y-4071214D01*
X8193214Y-4085500D01*
X8207500Y-4099786D01*
X8221786Y-4128357D01*
X8221786Y-4214072D01*
X8207500Y-4242643D01*
X8193214Y-4256929D01*
X8164643Y-4271214D01*
X8107500Y-4271214D01*
X8078928Y-4256929D01*
X8393214Y-4271214D02*
X8364643Y-4256929D01*
X8350357Y-4228357D01*
X8350357Y-3971214D01*
X8636071Y-4271214D02*
X8636071Y-4114071D01*
X8621786Y-4085500D01*
X8593214Y-4071214D01*
X8536071Y-4071214D01*
X8507500Y-4085500D01*
X8636071Y-4256929D02*
X8607500Y-4271214D01*
X8536071Y-4271214D01*
X8507500Y-4256929D01*
X8493214Y-4228357D01*
X8493214Y-4199786D01*
X8507500Y-4171214D01*
X8536071Y-4156929D01*
X8607500Y-4156929D01*
X8636071Y-4142643D01*
X8736071Y-4071214D02*
X8850357Y-4071214D01*
X8778928Y-3971214D02*
X8778928Y-4228357D01*
X8793214Y-4256929D01*
X8821786Y-4271214D01*
X8850357Y-4271214D01*
X9064643Y-4256929D02*
X9036071Y-4271214D01*
X8978928Y-4271214D01*
X8950357Y-4256929D01*
X8936071Y-4228357D01*
X8936071Y-4114071D01*
X8950357Y-4085500D01*
X8978928Y-4071214D01*
X9036071Y-4071214D01*
X9064643Y-4085500D01*
X9078928Y-4114071D01*
X9078928Y-4142643D01*
X8936071Y-4171214D01*
X9336071Y-4271214D02*
X9336071Y-3971214D01*
X9336071Y-4256929D02*
X9307500Y-4271214D01*
X9250357Y-4271214D01*
X9221786Y-4256929D01*
X9207500Y-4242643D01*
X9193214Y-4214072D01*
X9193214Y-4128357D01*
X9207500Y-4099786D01*
X9221786Y-4085500D01*
X9250357Y-4071214D01*
X9307500Y-4071214D01*
X9336071Y-4085500D01*
X9450357Y-4385500D02*
X9464643Y-4371214D01*
X9493214Y-4328357D01*
X9507500Y-4299786D01*
X9521786Y-4256929D01*
X9536071Y-4185500D01*
X9536071Y-4128357D01*
X9521786Y-4056929D01*
X9507500Y-4014071D01*
X9493214Y-3985500D01*
X9464643Y-3942643D01*
X9450357Y-3928357D01*
X-157500Y-4381500D02*
X-157500Y-4681500D01*
X-307500Y-4531500D02*
X-7500Y-4531500D01*
X-7500Y-4531500D02*
G75*
G03*
X-7500Y-4531500I-150000J0D01*
G01*
X250357Y-4367214D02*
X436071Y-4367214D01*
X336071Y-4481500D01*
X378928Y-4481500D01*
X407500Y-4495786D01*
X421786Y-4510072D01*
X436071Y-4538643D01*
X436071Y-4610072D01*
X421786Y-4638643D01*
X407500Y-4652929D01*
X378928Y-4667214D01*
X293214Y-4667214D01*
X264643Y-4652929D01*
X250357Y-4638643D01*
X564643Y-4638643D02*
X578928Y-4652929D01*
X564643Y-4667214D01*
X550357Y-4652929D01*
X564643Y-4638643D01*
X564643Y-4667214D01*
X764643Y-4367214D02*
X793214Y-4367214D01*
X821786Y-4381500D01*
X836071Y-4395786D01*
X850357Y-4424357D01*
X864643Y-4481500D01*
X864643Y-4552929D01*
X850357Y-4610072D01*
X836071Y-4638643D01*
X821786Y-4652929D01*
X793214Y-4667214D01*
X764643Y-4667214D01*
X736071Y-4652929D01*
X721786Y-4638643D01*
X707500Y-4610072D01*
X693214Y-4552929D01*
X693214Y-4481500D01*
X707500Y-4424357D01*
X721786Y-4395786D01*
X736071Y-4381500D01*
X764643Y-4367214D01*
X1050357Y-4367214D02*
X1078928Y-4367214D01*
X1107500Y-4381500D01*
X1121786Y-4395786D01*
X1136071Y-4424357D01*
X1150357Y-4481500D01*
X1150357Y-4552929D01*
X1136071Y-4610072D01*
X1121786Y-4638643D01*
X1107500Y-4652929D01*
X1078928Y-4667214D01*
X1050357Y-4667214D01*
X1021786Y-4652929D01*
X1007500Y-4638643D01*
X993214Y-4610072D01*
X978928Y-4552929D01*
X978928Y-4481500D01*
X993214Y-4424357D01*
X1007500Y-4395786D01*
X1021786Y-4381500D01*
X1050357Y-4367214D01*
X1278928Y-4667214D02*
X1278928Y-4467214D01*
X1278928Y-4495786D02*
X1293214Y-4481500D01*
X1321786Y-4467214D01*
X1364643Y-4467214D01*
X1393214Y-4481500D01*
X1407500Y-4510072D01*
X1407500Y-4667214D01*
X1407500Y-4510072D02*
X1421786Y-4481500D01*
X1450357Y-4467214D01*
X1493214Y-4467214D01*
X1521786Y-4481500D01*
X1536071Y-4510072D01*
X1536071Y-4667214D01*
X1678928Y-4667214D02*
X1678928Y-4467214D01*
X1678928Y-4495786D02*
X1693214Y-4481500D01*
X1721786Y-4467214D01*
X1764643Y-4467214D01*
X1793214Y-4481500D01*
X1807500Y-4510072D01*
X1807500Y-4667214D01*
X1807500Y-4510072D02*
X1821786Y-4481500D01*
X1850357Y-4467214D01*
X1893214Y-4467214D01*
X1921786Y-4481500D01*
X1936071Y-4510072D01*
X1936071Y-4667214D01*
X2521786Y-4352929D02*
X2264643Y-4738643D01*
X2907500Y-4367214D02*
X2936071Y-4367214D01*
X2964643Y-4381500D01*
X2978928Y-4395786D01*
X2993214Y-4424357D01*
X3007500Y-4481500D01*
X3007500Y-4552929D01*
X2993214Y-4610072D01*
X2978928Y-4638643D01*
X2964643Y-4652929D01*
X2936071Y-4667214D01*
X2907500Y-4667214D01*
X2878928Y-4652929D01*
X2864643Y-4638643D01*
X2850357Y-4610072D01*
X2836071Y-4552929D01*
X2836071Y-4481500D01*
X2850357Y-4424357D01*
X2864643Y-4395786D01*
X2878928Y-4381500D01*
X2907500Y-4367214D01*
X3136071Y-4638643D02*
X3150357Y-4652929D01*
X3136071Y-4667214D01*
X3121786Y-4652929D01*
X3136071Y-4638643D01*
X3136071Y-4667214D01*
X3436071Y-4667214D02*
X3264643Y-4667214D01*
X3350357Y-4667214D02*
X3350357Y-4367214D01*
X3321786Y-4410072D01*
X3293214Y-4438643D01*
X3264643Y-4452929D01*
X3721786Y-4667214D02*
X3550357Y-4667214D01*
X3636071Y-4667214D02*
X3636071Y-4367214D01*
X3607500Y-4410072D01*
X3578928Y-4438643D01*
X3550357Y-4452929D01*
X3893214Y-4495786D02*
X3864643Y-4481500D01*
X3850357Y-4467214D01*
X3836071Y-4438643D01*
X3836071Y-4424357D01*
X3850357Y-4395786D01*
X3864643Y-4381500D01*
X3893214Y-4367214D01*
X3950357Y-4367214D01*
X3978928Y-4381500D01*
X3993214Y-4395786D01*
X4007500Y-4424357D01*
X4007500Y-4438643D01*
X3993214Y-4467214D01*
X3978928Y-4481500D01*
X3950357Y-4495786D01*
X3893214Y-4495786D01*
X3864643Y-4510072D01*
X3850357Y-4524357D01*
X3836071Y-4552929D01*
X3836071Y-4610072D01*
X3850357Y-4638643D01*
X3864643Y-4652929D01*
X3893214Y-4667214D01*
X3950357Y-4667214D01*
X3978928Y-4652929D01*
X3993214Y-4638643D01*
X4007500Y-4610072D01*
X4007500Y-4552929D01*
X3993214Y-4524357D01*
X3978928Y-4510072D01*
X3950357Y-4495786D01*
X4121786Y-4367214D02*
X4121786Y-4424357D01*
X4236071Y-4367214D02*
X4236071Y-4424357D01*
X4678928Y-4781500D02*
X4664643Y-4767214D01*
X4636071Y-4724357D01*
X4621786Y-4695786D01*
X4607500Y-4652929D01*
X4593214Y-4581500D01*
X4593214Y-4524357D01*
X4607500Y-4452929D01*
X4621786Y-4410072D01*
X4636071Y-4381500D01*
X4664643Y-4338643D01*
X4678928Y-4324357D01*
X4850357Y-4367214D02*
X4878928Y-4367214D01*
X4907500Y-4381500D01*
X4921786Y-4395786D01*
X4936071Y-4424357D01*
X4950357Y-4481500D01*
X4950357Y-4552929D01*
X4936071Y-4610072D01*
X4921786Y-4638643D01*
X4907500Y-4652929D01*
X4878928Y-4667214D01*
X4850357Y-4667214D01*
X4821786Y-4652929D01*
X4807500Y-4638643D01*
X4793214Y-4610072D01*
X4778928Y-4552929D01*
X4778928Y-4481500D01*
X4793214Y-4424357D01*
X4807500Y-4395786D01*
X4821786Y-4381500D01*
X4850357Y-4367214D01*
X5307500Y-4667214D02*
X5307500Y-4367214D01*
X5436071Y-4667214D02*
X5436071Y-4510072D01*
X5421786Y-4481500D01*
X5393214Y-4467214D01*
X5350357Y-4467214D01*
X5321786Y-4481500D01*
X5307500Y-4495786D01*
X5621786Y-4667214D02*
X5593214Y-4652929D01*
X5578928Y-4638643D01*
X5564643Y-4610072D01*
X5564643Y-4524357D01*
X5578928Y-4495786D01*
X5593214Y-4481500D01*
X5621786Y-4467214D01*
X5664643Y-4467214D01*
X5693214Y-4481500D01*
X5707500Y-4495786D01*
X5721786Y-4524357D01*
X5721786Y-4610072D01*
X5707500Y-4638643D01*
X5693214Y-4652929D01*
X5664643Y-4667214D01*
X5621786Y-4667214D01*
X5893214Y-4667214D02*
X5864643Y-4652929D01*
X5850357Y-4624357D01*
X5850357Y-4367214D01*
X6121786Y-4652929D02*
X6093214Y-4667214D01*
X6036071Y-4667214D01*
X6007500Y-4652929D01*
X5993214Y-4624357D01*
X5993214Y-4510072D01*
X6007500Y-4481500D01*
X6036071Y-4467214D01*
X6093214Y-4467214D01*
X6121786Y-4481500D01*
X6136071Y-4510072D01*
X6136071Y-4538643D01*
X5993214Y-4567214D01*
X6250357Y-4652929D02*
X6278928Y-4667214D01*
X6336071Y-4667214D01*
X6364643Y-4652929D01*
X6378928Y-4624357D01*
X6378928Y-4610072D01*
X6364643Y-4581500D01*
X6336071Y-4567214D01*
X6293214Y-4567214D01*
X6264643Y-4552929D01*
X6250357Y-4524357D01*
X6250357Y-4510072D01*
X6264643Y-4481500D01*
X6293214Y-4467214D01*
X6336071Y-4467214D01*
X6364643Y-4481500D01*
X6736071Y-4552929D02*
X6964643Y-4552929D01*
X6850357Y-4667214D02*
X6850357Y-4438643D01*
X7464643Y-4467214D02*
X7464643Y-4667214D01*
X7393214Y-4352929D02*
X7321786Y-4567214D01*
X7507500Y-4567214D01*
X7836071Y-4652929D02*
X7864643Y-4667214D01*
X7921786Y-4667214D01*
X7950357Y-4652929D01*
X7964643Y-4624357D01*
X7964643Y-4610072D01*
X7950357Y-4581500D01*
X7921786Y-4567214D01*
X7878928Y-4567214D01*
X7850357Y-4552929D01*
X7836071Y-4524357D01*
X7836071Y-4510072D01*
X7850357Y-4481500D01*
X7878928Y-4467214D01*
X7921786Y-4467214D01*
X7950357Y-4481500D01*
X8136071Y-4667214D02*
X8107500Y-4652929D01*
X8093214Y-4624357D01*
X8093214Y-4367214D01*
X8293214Y-4667214D02*
X8264643Y-4652929D01*
X8250357Y-4638643D01*
X8236071Y-4610072D01*
X8236071Y-4524357D01*
X8250357Y-4495786D01*
X8264643Y-4481500D01*
X8293214Y-4467214D01*
X8336071Y-4467214D01*
X8364643Y-4481500D01*
X8378928Y-4495786D01*
X8393214Y-4524357D01*
X8393214Y-4610072D01*
X8378928Y-4638643D01*
X8364643Y-4652929D01*
X8336071Y-4667214D01*
X8293214Y-4667214D01*
X8478928Y-4467214D02*
X8593214Y-4467214D01*
X8521786Y-4367214D02*
X8521786Y-4624357D01*
X8536071Y-4652929D01*
X8564643Y-4667214D01*
X8593214Y-4667214D01*
X8678928Y-4652929D02*
X8707500Y-4667214D01*
X8764643Y-4667214D01*
X8793214Y-4652929D01*
X8807500Y-4624357D01*
X8807500Y-4610072D01*
X8793214Y-4581500D01*
X8764643Y-4567214D01*
X8721786Y-4567214D01*
X8693214Y-4552929D01*
X8678928Y-4524357D01*
X8678928Y-4510072D01*
X8693214Y-4481500D01*
X8721786Y-4467214D01*
X8764643Y-4467214D01*
X8793214Y-4481500D01*
X8907500Y-4781500D02*
X8921786Y-4767214D01*
X8950357Y-4724357D01*
X8964643Y-4695786D01*
X8978928Y-4652929D01*
X8993214Y-4581500D01*
X8993214Y-4524357D01*
X8978928Y-4452929D01*
X8964643Y-4410072D01*
X8950357Y-4381500D01*
X8921786Y-4338643D01*
X8907500Y-4324357D01*
X9450357Y-4781500D02*
X9436071Y-4767214D01*
X9407500Y-4724357D01*
X9393214Y-4695786D01*
X9378928Y-4652929D01*
X9364643Y-4581500D01*
X9364643Y-4524357D01*
X9378928Y-4452929D01*
X9393214Y-4410072D01*
X9407500Y-4381500D01*
X9436071Y-4338643D01*
X9450357Y-4324357D01*
X9564643Y-4467214D02*
X9564643Y-4667214D01*
X9564643Y-4495786D02*
X9578928Y-4481500D01*
X9607500Y-4467214D01*
X9650357Y-4467214D01*
X9678928Y-4481500D01*
X9693214Y-4510072D01*
X9693214Y-4667214D01*
X9878928Y-4667214D02*
X9850357Y-4652929D01*
X9836071Y-4638643D01*
X9821786Y-4610072D01*
X9821786Y-4524357D01*
X9836071Y-4495786D01*
X9850357Y-4481500D01*
X9878928Y-4467214D01*
X9921786Y-4467214D01*
X9950357Y-4481500D01*
X9964643Y-4495786D01*
X9978928Y-4524357D01*
X9978928Y-4610072D01*
X9964643Y-4638643D01*
X9950357Y-4652929D01*
X9921786Y-4667214D01*
X9878928Y-4667214D01*
X10064643Y-4467214D02*
X10178928Y-4467214D01*
X10107500Y-4367214D02*
X10107500Y-4624357D01*
X10121786Y-4652929D01*
X10150357Y-4667214D01*
X10178928Y-4667214D01*
X10507500Y-4467214D02*
X10507500Y-4767214D01*
X10507500Y-4481500D02*
X10536071Y-4467214D01*
X10593214Y-4467214D01*
X10621786Y-4481500D01*
X10636071Y-4495786D01*
X10650357Y-4524357D01*
X10650357Y-4610072D01*
X10636071Y-4638643D01*
X10621786Y-4652929D01*
X10593214Y-4667214D01*
X10536071Y-4667214D01*
X10507500Y-4652929D01*
X10821786Y-4667214D02*
X10793214Y-4652929D01*
X10778928Y-4624357D01*
X10778928Y-4367214D01*
X11064643Y-4667214D02*
X11064643Y-4510072D01*
X11050357Y-4481500D01*
X11021786Y-4467214D01*
X10964643Y-4467214D01*
X10936071Y-4481500D01*
X11064643Y-4652929D02*
X11036071Y-4667214D01*
X10964643Y-4667214D01*
X10936071Y-4652929D01*
X10921786Y-4624357D01*
X10921786Y-4595786D01*
X10936071Y-4567214D01*
X10964643Y-4552929D01*
X11036071Y-4552929D01*
X11064643Y-4538643D01*
X11164643Y-4467214D02*
X11278928Y-4467214D01*
X11207500Y-4367214D02*
X11207500Y-4624357D01*
X11221786Y-4652929D01*
X11250357Y-4667214D01*
X11278928Y-4667214D01*
X11493214Y-4652929D02*
X11464643Y-4667214D01*
X11407500Y-4667214D01*
X11378928Y-4652929D01*
X11364643Y-4624357D01*
X11364643Y-4510072D01*
X11378928Y-4481500D01*
X11407500Y-4467214D01*
X11464643Y-4467214D01*
X11493214Y-4481500D01*
X11507500Y-4510072D01*
X11507500Y-4538643D01*
X11364643Y-4567214D01*
X11764643Y-4667214D02*
X11764643Y-4367214D01*
X11764643Y-4652929D02*
X11736071Y-4667214D01*
X11678928Y-4667214D01*
X11650357Y-4652929D01*
X11636071Y-4638643D01*
X11621786Y-4610072D01*
X11621786Y-4524357D01*
X11636071Y-4495786D01*
X11650357Y-4481500D01*
X11678928Y-4467214D01*
X11736071Y-4467214D01*
X11764643Y-4481500D01*
X11878928Y-4781500D02*
X11893214Y-4767214D01*
X11921786Y-4724357D01*
X11936071Y-4695786D01*
X11950357Y-4652929D01*
X11964643Y-4581500D01*
X11964643Y-4524357D01*
X11950357Y-4452929D01*
X11936071Y-4410072D01*
X11921786Y-4381500D01*
X11893214Y-4338643D01*
X11878928Y-4324357D01*
X-80722Y-5138279D02*
X-80722Y-4784722D01*
X-434278Y-4784722D01*
X-434278Y-5138279D01*
X-80722Y-5138279D01*
X-7500Y-4961500D02*
G75*
G03*
X-7500Y-4961500I-250000J0D01*
G01*
X421786Y-4797214D02*
X278928Y-4797214D01*
X264643Y-4940072D01*
X278928Y-4925786D01*
X307500Y-4911500D01*
X378928Y-4911500D01*
X407500Y-4925786D01*
X421786Y-4940072D01*
X436071Y-4968643D01*
X436071Y-5040072D01*
X421786Y-5068643D01*
X407500Y-5082929D01*
X378928Y-5097214D01*
X307500Y-5097214D01*
X278928Y-5082929D01*
X264643Y-5068643D01*
X564643Y-5068643D02*
X578928Y-5082929D01*
X564643Y-5097214D01*
X550357Y-5082929D01*
X564643Y-5068643D01*
X564643Y-5097214D01*
X764643Y-4797214D02*
X793214Y-4797214D01*
X821786Y-4811500D01*
X836071Y-4825786D01*
X850357Y-4854357D01*
X864643Y-4911500D01*
X864643Y-4982929D01*
X850357Y-5040072D01*
X836071Y-5068643D01*
X821786Y-5082929D01*
X793214Y-5097214D01*
X764643Y-5097214D01*
X736071Y-5082929D01*
X721786Y-5068643D01*
X707500Y-5040072D01*
X693214Y-4982929D01*
X693214Y-4911500D01*
X707500Y-4854357D01*
X721786Y-4825786D01*
X736071Y-4811500D01*
X764643Y-4797214D01*
X1050357Y-4797214D02*
X1078928Y-4797214D01*
X1107500Y-4811500D01*
X1121786Y-4825786D01*
X1136071Y-4854357D01*
X1150357Y-4911500D01*
X1150357Y-4982929D01*
X1136071Y-5040072D01*
X1121786Y-5068643D01*
X1107500Y-5082929D01*
X1078928Y-5097214D01*
X1050357Y-5097214D01*
X1021786Y-5082929D01*
X1007500Y-5068643D01*
X993214Y-5040072D01*
X978928Y-4982929D01*
X978928Y-4911500D01*
X993214Y-4854357D01*
X1007500Y-4825786D01*
X1021786Y-4811500D01*
X1050357Y-4797214D01*
X1278928Y-5097214D02*
X1278928Y-4897214D01*
X1278928Y-4925786D02*
X1293214Y-4911500D01*
X1321786Y-4897214D01*
X1364643Y-4897214D01*
X1393214Y-4911500D01*
X1407500Y-4940072D01*
X1407500Y-5097214D01*
X1407500Y-4940072D02*
X1421786Y-4911500D01*
X1450357Y-4897214D01*
X1493214Y-4897214D01*
X1521786Y-4911500D01*
X1536071Y-4940072D01*
X1536071Y-5097214D01*
X1678928Y-5097214D02*
X1678928Y-4897214D01*
X1678928Y-4925786D02*
X1693214Y-4911500D01*
X1721786Y-4897214D01*
X1764643Y-4897214D01*
X1793214Y-4911500D01*
X1807500Y-4940072D01*
X1807500Y-5097214D01*
X1807500Y-4940072D02*
X1821786Y-4911500D01*
X1850357Y-4897214D01*
X1893214Y-4897214D01*
X1921786Y-4911500D01*
X1936071Y-4940072D01*
X1936071Y-5097214D01*
X2521786Y-4782929D02*
X2264643Y-5168643D01*
X2907500Y-4797214D02*
X2936071Y-4797214D01*
X2964643Y-4811500D01*
X2978928Y-4825786D01*
X2993214Y-4854357D01*
X3007500Y-4911500D01*
X3007500Y-4982929D01*
X2993214Y-5040072D01*
X2978928Y-5068643D01*
X2964643Y-5082929D01*
X2936071Y-5097214D01*
X2907500Y-5097214D01*
X2878928Y-5082929D01*
X2864643Y-5068643D01*
X2850357Y-5040072D01*
X2836071Y-4982929D01*
X2836071Y-4911500D01*
X2850357Y-4854357D01*
X2864643Y-4825786D01*
X2878928Y-4811500D01*
X2907500Y-4797214D01*
X3136071Y-5068643D02*
X3150357Y-5082929D01*
X3136071Y-5097214D01*
X3121786Y-5082929D01*
X3136071Y-5068643D01*
X3136071Y-5097214D01*
X3436071Y-5097214D02*
X3264643Y-5097214D01*
X3350357Y-5097214D02*
X3350357Y-4797214D01*
X3321786Y-4840072D01*
X3293214Y-4868643D01*
X3264643Y-4882929D01*
X3578928Y-5097214D02*
X3636071Y-5097214D01*
X3664643Y-5082929D01*
X3678928Y-5068643D01*
X3707500Y-5025786D01*
X3721786Y-4968643D01*
X3721786Y-4854357D01*
X3707500Y-4825786D01*
X3693214Y-4811500D01*
X3664643Y-4797214D01*
X3607500Y-4797214D01*
X3578928Y-4811500D01*
X3564643Y-4825786D01*
X3550357Y-4854357D01*
X3550357Y-4925786D01*
X3564643Y-4954357D01*
X3578928Y-4968643D01*
X3607500Y-4982929D01*
X3664643Y-4982929D01*
X3693214Y-4968643D01*
X3707500Y-4954357D01*
X3721786Y-4925786D01*
X3821786Y-4797214D02*
X4021786Y-4797214D01*
X3893214Y-5097214D01*
X4121786Y-4797214D02*
X4121786Y-4854357D01*
X4236071Y-4797214D02*
X4236071Y-4854357D01*
X4678928Y-5211500D02*
X4664643Y-5197214D01*
X4636071Y-5154357D01*
X4621786Y-5125786D01*
X4607500Y-5082929D01*
X4593214Y-5011500D01*
X4593214Y-4954357D01*
X4607500Y-4882929D01*
X4621786Y-4840072D01*
X4636071Y-4811500D01*
X4664643Y-4768643D01*
X4678928Y-4754357D01*
X4950357Y-5097214D02*
X4778928Y-5097214D01*
X4864643Y-5097214D02*
X4864643Y-4797214D01*
X4836071Y-4840072D01*
X4807500Y-4868643D01*
X4778928Y-4882929D01*
X5307500Y-5097214D02*
X5307500Y-4797214D01*
X5436071Y-5097214D02*
X5436071Y-4940072D01*
X5421786Y-4911500D01*
X5393214Y-4897214D01*
X5350357Y-4897214D01*
X5321786Y-4911500D01*
X5307500Y-4925786D01*
X5621786Y-5097214D02*
X5593214Y-5082929D01*
X5578928Y-5068643D01*
X5564643Y-5040072D01*
X5564643Y-4954357D01*
X5578928Y-4925786D01*
X5593214Y-4911500D01*
X5621786Y-4897214D01*
X5664643Y-4897214D01*
X5693214Y-4911500D01*
X5707500Y-4925786D01*
X5721786Y-4954357D01*
X5721786Y-5040072D01*
X5707500Y-5068643D01*
X5693214Y-5082929D01*
X5664643Y-5097214D01*
X5621786Y-5097214D01*
X5893214Y-5097214D02*
X5864643Y-5082929D01*
X5850357Y-5054357D01*
X5850357Y-4797214D01*
X6121786Y-5082929D02*
X6093214Y-5097214D01*
X6036071Y-5097214D01*
X6007500Y-5082929D01*
X5993214Y-5054357D01*
X5993214Y-4940072D01*
X6007500Y-4911500D01*
X6036071Y-4897214D01*
X6093214Y-4897214D01*
X6121786Y-4911500D01*
X6136071Y-4940072D01*
X6136071Y-4968643D01*
X5993214Y-4997214D01*
X6236071Y-5211500D02*
X6250357Y-5197214D01*
X6278928Y-5154357D01*
X6293214Y-5125786D01*
X6307500Y-5082929D01*
X6321786Y-5011500D01*
X6321786Y-4954357D01*
X6307500Y-4882929D01*
X6293214Y-4840072D01*
X6278928Y-4811500D01*
X6250357Y-4768643D01*
X6236071Y-4754357D01*
X6778928Y-5211500D02*
X6764643Y-5197214D01*
X6736071Y-5154357D01*
X6721786Y-5125786D01*
X6707500Y-5082929D01*
X6693214Y-5011500D01*
X6693214Y-4954357D01*
X6707500Y-4882929D01*
X6721786Y-4840072D01*
X6736071Y-4811500D01*
X6764643Y-4768643D01*
X6778928Y-4754357D01*
X6893214Y-4897214D02*
X6893214Y-5097214D01*
X6893214Y-4925786D02*
X6907500Y-4911500D01*
X6936071Y-4897214D01*
X6978928Y-4897214D01*
X7007500Y-4911500D01*
X7021786Y-4940072D01*
X7021786Y-5097214D01*
X7207500Y-5097214D02*
X7178928Y-5082929D01*
X7164643Y-5068643D01*
X7150357Y-5040072D01*
X7150357Y-4954357D01*
X7164643Y-4925786D01*
X7178928Y-4911500D01*
X7207500Y-4897214D01*
X7250357Y-4897214D01*
X7278928Y-4911500D01*
X7293214Y-4925786D01*
X7307500Y-4954357D01*
X7307500Y-5040072D01*
X7293214Y-5068643D01*
X7278928Y-5082929D01*
X7250357Y-5097214D01*
X7207500Y-5097214D01*
X7393214Y-4897214D02*
X7507500Y-4897214D01*
X7436071Y-4797214D02*
X7436071Y-5054357D01*
X7450357Y-5082929D01*
X7478928Y-5097214D01*
X7507500Y-5097214D01*
X7836071Y-4897214D02*
X7836071Y-5197214D01*
X7836071Y-4911500D02*
X7864643Y-4897214D01*
X7921786Y-4897214D01*
X7950357Y-4911500D01*
X7964643Y-4925786D01*
X7978928Y-4954357D01*
X7978928Y-5040072D01*
X7964643Y-5068643D01*
X7950357Y-5082929D01*
X7921786Y-5097214D01*
X7864643Y-5097214D01*
X7836071Y-5082929D01*
X8150357Y-5097214D02*
X8121786Y-5082929D01*
X8107500Y-5054357D01*
X8107500Y-4797214D01*
X8393214Y-5097214D02*
X8393214Y-4940072D01*
X8378928Y-4911500D01*
X8350357Y-4897214D01*
X8293214Y-4897214D01*
X8264643Y-4911500D01*
X8393214Y-5082929D02*
X8364643Y-5097214D01*
X8293214Y-5097214D01*
X8264643Y-5082929D01*
X8250357Y-5054357D01*
X8250357Y-5025786D01*
X8264643Y-4997214D01*
X8293214Y-4982929D01*
X8364643Y-4982929D01*
X8393214Y-4968643D01*
X8493214Y-4897214D02*
X8607500Y-4897214D01*
X8536071Y-4797214D02*
X8536071Y-5054357D01*
X8550357Y-5082929D01*
X8578928Y-5097214D01*
X8607500Y-5097214D01*
X8821786Y-5082929D02*
X8793214Y-5097214D01*
X8736071Y-5097214D01*
X8707500Y-5082929D01*
X8693214Y-5054357D01*
X8693214Y-4940072D01*
X8707500Y-4911500D01*
X8736071Y-4897214D01*
X8793214Y-4897214D01*
X8821786Y-4911500D01*
X8836071Y-4940072D01*
X8836071Y-4968643D01*
X8693214Y-4997214D01*
X9093214Y-5097214D02*
X9093214Y-4797214D01*
X9093214Y-5082929D02*
X9064643Y-5097214D01*
X9007500Y-5097214D01*
X8978928Y-5082929D01*
X8964643Y-5068643D01*
X8950357Y-5040072D01*
X8950357Y-4954357D01*
X8964643Y-4925786D01*
X8978928Y-4911500D01*
X9007500Y-4897214D01*
X9064643Y-4897214D01*
X9093214Y-4911500D01*
X9207500Y-5211500D02*
X9221786Y-5197214D01*
X9250357Y-5154357D01*
X9264643Y-5125786D01*
X9278928Y-5082929D01*
X9293214Y-5011500D01*
X9293214Y-4954357D01*
X9278928Y-4882929D01*
X9264643Y-4840072D01*
X9250357Y-4811500D01*
X9221786Y-4768643D01*
X9207500Y-4754357D01*
X-267500Y-5851500D02*
X-7500Y-5591500D01*
X-267500Y-5331500D01*
X-527500Y-5591500D01*
X-267500Y-5851500D01*
X-7500Y-5591500D02*
G75*
G03*
X-7500Y-5591500I-260000J0D01*
G01*
X421786Y-5427214D02*
X278928Y-5427214D01*
X264643Y-5570072D01*
X278928Y-5555786D01*
X307500Y-5541500D01*
X378928Y-5541500D01*
X407500Y-5555786D01*
X421786Y-5570072D01*
X436071Y-5598643D01*
X436071Y-5670071D01*
X421786Y-5698643D01*
X407500Y-5712929D01*
X378928Y-5727214D01*
X307500Y-5727214D01*
X278928Y-5712929D01*
X264643Y-5698643D01*
X564643Y-5698643D02*
X578928Y-5712929D01*
X564643Y-5727214D01*
X550357Y-5712929D01*
X564643Y-5698643D01*
X564643Y-5727214D01*
X693214Y-5455786D02*
X707500Y-5441500D01*
X736071Y-5427214D01*
X807500Y-5427214D01*
X836071Y-5441500D01*
X850357Y-5455786D01*
X864643Y-5484357D01*
X864643Y-5512929D01*
X850357Y-5555786D01*
X678928Y-5727214D01*
X864643Y-5727214D01*
X1050357Y-5427214D02*
X1078928Y-5427214D01*
X1107500Y-5441500D01*
X1121786Y-5455786D01*
X1136071Y-5484357D01*
X1150357Y-5541500D01*
X1150357Y-5612929D01*
X1136071Y-5670071D01*
X1121786Y-5698643D01*
X1107500Y-5712929D01*
X1078928Y-5727214D01*
X1050357Y-5727214D01*
X1021786Y-5712929D01*
X1007500Y-5698643D01*
X993214Y-5670071D01*
X978928Y-5612929D01*
X978928Y-5541500D01*
X993214Y-5484357D01*
X1007500Y-5455786D01*
X1021786Y-5441500D01*
X1050357Y-5427214D01*
X1278928Y-5727214D02*
X1278928Y-5527214D01*
X1278928Y-5555786D02*
X1293214Y-5541500D01*
X1321786Y-5527214D01*
X1364643Y-5527214D01*
X1393214Y-5541500D01*
X1407500Y-5570072D01*
X1407500Y-5727214D01*
X1407500Y-5570072D02*
X1421786Y-5541500D01*
X1450357Y-5527214D01*
X1493214Y-5527214D01*
X1521786Y-5541500D01*
X1536071Y-5570072D01*
X1536071Y-5727214D01*
X1678928Y-5727214D02*
X1678928Y-5527214D01*
X1678928Y-5555786D02*
X1693214Y-5541500D01*
X1721786Y-5527214D01*
X1764643Y-5527214D01*
X1793214Y-5541500D01*
X1807500Y-5570072D01*
X1807500Y-5727214D01*
X1807500Y-5570072D02*
X1821786Y-5541500D01*
X1850357Y-5527214D01*
X1893214Y-5527214D01*
X1921786Y-5541500D01*
X1936071Y-5570072D01*
X1936071Y-5727214D01*
X2521786Y-5412929D02*
X2264643Y-5798643D01*
X2907500Y-5427214D02*
X2936071Y-5427214D01*
X2964643Y-5441500D01*
X2978928Y-5455786D01*
X2993214Y-5484357D01*
X3007500Y-5541500D01*
X3007500Y-5612929D01*
X2993214Y-5670071D01*
X2978928Y-5698643D01*
X2964643Y-5712929D01*
X2936071Y-5727214D01*
X2907500Y-5727214D01*
X2878928Y-5712929D01*
X2864643Y-5698643D01*
X2850357Y-5670071D01*
X2836071Y-5612929D01*
X2836071Y-5541500D01*
X2850357Y-5484357D01*
X2864643Y-5455786D01*
X2878928Y-5441500D01*
X2907500Y-5427214D01*
X3136071Y-5698643D02*
X3150357Y-5712929D01*
X3136071Y-5727214D01*
X3121786Y-5712929D01*
X3136071Y-5698643D01*
X3136071Y-5727214D01*
X3264643Y-5455786D02*
X3278928Y-5441500D01*
X3307500Y-5427214D01*
X3378928Y-5427214D01*
X3407500Y-5441500D01*
X3421786Y-5455786D01*
X3436071Y-5484357D01*
X3436071Y-5512929D01*
X3421786Y-5555786D01*
X3250357Y-5727214D01*
X3436071Y-5727214D01*
X3621786Y-5427214D02*
X3650357Y-5427214D01*
X3678928Y-5441500D01*
X3693214Y-5455786D01*
X3707500Y-5484357D01*
X3721786Y-5541500D01*
X3721786Y-5612929D01*
X3707500Y-5670071D01*
X3693214Y-5698643D01*
X3678928Y-5712929D01*
X3650357Y-5727214D01*
X3621786Y-5727214D01*
X3593214Y-5712929D01*
X3578928Y-5698643D01*
X3564643Y-5670071D01*
X3550357Y-5612929D01*
X3550357Y-5541500D01*
X3564643Y-5484357D01*
X3578928Y-5455786D01*
X3593214Y-5441500D01*
X3621786Y-5427214D01*
X3993214Y-5427214D02*
X3850357Y-5427214D01*
X3836071Y-5570072D01*
X3850357Y-5555786D01*
X3878928Y-5541500D01*
X3950357Y-5541500D01*
X3978928Y-5555786D01*
X3993214Y-5570072D01*
X4007500Y-5598643D01*
X4007500Y-5670071D01*
X3993214Y-5698643D01*
X3978928Y-5712929D01*
X3950357Y-5727214D01*
X3878928Y-5727214D01*
X3850357Y-5712929D01*
X3836071Y-5698643D01*
X4121786Y-5427214D02*
X4121786Y-5484357D01*
X4236071Y-5427214D02*
X4236071Y-5484357D01*
X4678928Y-5841500D02*
X4664643Y-5827214D01*
X4636071Y-5784357D01*
X4621786Y-5755786D01*
X4607500Y-5712929D01*
X4593214Y-5641500D01*
X4593214Y-5584357D01*
X4607500Y-5512929D01*
X4621786Y-5470072D01*
X4636071Y-5441500D01*
X4664643Y-5398643D01*
X4678928Y-5384357D01*
X4778928Y-5455786D02*
X4793214Y-5441500D01*
X4821786Y-5427214D01*
X4893214Y-5427214D01*
X4921786Y-5441500D01*
X4936071Y-5455786D01*
X4950357Y-5484357D01*
X4950357Y-5512929D01*
X4936071Y-5555786D01*
X4764643Y-5727214D01*
X4950357Y-5727214D01*
X5307500Y-5727214D02*
X5307500Y-5427214D01*
X5436071Y-5727214D02*
X5436071Y-5570072D01*
X5421786Y-5541500D01*
X5393214Y-5527214D01*
X5350357Y-5527214D01*
X5321786Y-5541500D01*
X5307500Y-5555786D01*
X5621786Y-5727214D02*
X5593214Y-5712929D01*
X5578928Y-5698643D01*
X5564643Y-5670071D01*
X5564643Y-5584357D01*
X5578928Y-5555786D01*
X5593214Y-5541500D01*
X5621786Y-5527214D01*
X5664643Y-5527214D01*
X5693214Y-5541500D01*
X5707500Y-5555786D01*
X5721786Y-5584357D01*
X5721786Y-5670071D01*
X5707500Y-5698643D01*
X5693214Y-5712929D01*
X5664643Y-5727214D01*
X5621786Y-5727214D01*
X5893214Y-5727214D02*
X5864643Y-5712929D01*
X5850357Y-5684357D01*
X5850357Y-5427214D01*
X6121786Y-5712929D02*
X6093214Y-5727214D01*
X6036071Y-5727214D01*
X6007500Y-5712929D01*
X5993214Y-5684357D01*
X5993214Y-5570072D01*
X6007500Y-5541500D01*
X6036071Y-5527214D01*
X6093214Y-5527214D01*
X6121786Y-5541500D01*
X6136071Y-5570072D01*
X6136071Y-5598643D01*
X5993214Y-5627214D01*
X6250357Y-5712929D02*
X6278928Y-5727214D01*
X6336071Y-5727214D01*
X6364643Y-5712929D01*
X6378928Y-5684357D01*
X6378928Y-5670071D01*
X6364643Y-5641500D01*
X6336071Y-5627214D01*
X6293214Y-5627214D01*
X6264643Y-5612929D01*
X6250357Y-5584357D01*
X6250357Y-5570072D01*
X6264643Y-5541500D01*
X6293214Y-5527214D01*
X6336071Y-5527214D01*
X6364643Y-5541500D01*
X6478928Y-5841500D02*
X6493214Y-5827214D01*
X6521786Y-5784357D01*
X6536071Y-5755786D01*
X6550357Y-5712929D01*
X6564643Y-5641500D01*
X6564643Y-5584357D01*
X6550357Y-5512929D01*
X6536071Y-5470072D01*
X6521786Y-5441500D01*
X6493214Y-5398643D01*
X6478928Y-5384357D01*
X7021786Y-5841500D02*
X7007500Y-5827214D01*
X6978928Y-5784357D01*
X6964643Y-5755786D01*
X6950357Y-5712929D01*
X6936071Y-5641500D01*
X6936071Y-5584357D01*
X6950357Y-5512929D01*
X6964643Y-5470072D01*
X6978928Y-5441500D01*
X7007500Y-5398643D01*
X7021786Y-5384357D01*
X7136071Y-5527214D02*
X7136071Y-5727214D01*
X7136071Y-5555786D02*
X7150357Y-5541500D01*
X7178928Y-5527214D01*
X7221786Y-5527214D01*
X7250357Y-5541500D01*
X7264643Y-5570072D01*
X7264643Y-5727214D01*
X7450357Y-5727214D02*
X7421786Y-5712929D01*
X7407500Y-5698643D01*
X7393214Y-5670071D01*
X7393214Y-5584357D01*
X7407500Y-5555786D01*
X7421786Y-5541500D01*
X7450357Y-5527214D01*
X7493214Y-5527214D01*
X7521786Y-5541500D01*
X7536071Y-5555786D01*
X7550357Y-5584357D01*
X7550357Y-5670071D01*
X7536071Y-5698643D01*
X7521786Y-5712929D01*
X7493214Y-5727214D01*
X7450357Y-5727214D01*
X7636071Y-5527214D02*
X7750357Y-5527214D01*
X7678928Y-5427214D02*
X7678928Y-5684357D01*
X7693214Y-5712929D01*
X7721786Y-5727214D01*
X7750357Y-5727214D01*
X8078928Y-5527214D02*
X8078928Y-5827214D01*
X8078928Y-5541500D02*
X8107500Y-5527214D01*
X8164643Y-5527214D01*
X8193214Y-5541500D01*
X8207500Y-5555786D01*
X8221786Y-5584357D01*
X8221786Y-5670071D01*
X8207500Y-5698643D01*
X8193214Y-5712929D01*
X8164643Y-5727214D01*
X8107500Y-5727214D01*
X8078928Y-5712929D01*
X8393214Y-5727214D02*
X8364643Y-5712929D01*
X8350357Y-5684357D01*
X8350357Y-5427214D01*
X8636071Y-5727214D02*
X8636071Y-5570072D01*
X8621786Y-5541500D01*
X8593214Y-5527214D01*
X8536071Y-5527214D01*
X8507500Y-5541500D01*
X8636071Y-5712929D02*
X8607500Y-5727214D01*
X8536071Y-5727214D01*
X8507500Y-5712929D01*
X8493214Y-5684357D01*
X8493214Y-5655786D01*
X8507500Y-5627214D01*
X8536071Y-5612929D01*
X8607500Y-5612929D01*
X8636071Y-5598643D01*
X8736071Y-5527214D02*
X8850357Y-5527214D01*
X8778928Y-5427214D02*
X8778928Y-5684357D01*
X8793214Y-5712929D01*
X8821786Y-5727214D01*
X8850357Y-5727214D01*
X9064643Y-5712929D02*
X9036071Y-5727214D01*
X8978928Y-5727214D01*
X8950357Y-5712929D01*
X8936071Y-5684357D01*
X8936071Y-5570072D01*
X8950357Y-5541500D01*
X8978928Y-5527214D01*
X9036071Y-5527214D01*
X9064643Y-5541500D01*
X9078928Y-5570072D01*
X9078928Y-5598643D01*
X8936071Y-5627214D01*
X9336071Y-5727214D02*
X9336071Y-5427214D01*
X9336071Y-5712929D02*
X9307500Y-5727214D01*
X9250357Y-5727214D01*
X9221786Y-5712929D01*
X9207500Y-5698643D01*
X9193214Y-5670071D01*
X9193214Y-5584357D01*
X9207500Y-5555786D01*
X9221786Y-5541500D01*
X9250357Y-5527214D01*
X9307500Y-5527214D01*
X9336071Y-5541500D01*
X9450357Y-5841500D02*
X9464643Y-5827214D01*
X9493214Y-5784357D01*
X9507500Y-5755786D01*
X9521786Y-5712929D01*
X9536071Y-5641500D01*
X9536071Y-5584357D01*
X9521786Y-5512929D01*
X9507500Y-5470072D01*
X9493214Y-5441500D01*
X9464643Y-5398643D01*
X9450357Y-5384357D01*
X-307500Y-5941500D02*
X-307500Y-6541500D01*
X-607500Y-6241500D02*
X-7500Y-6241500D01*
X-95366Y-6453634D02*
X-95366Y-6029366D01*
X-519634Y-6029366D01*
X-519634Y-6453634D01*
X-95366Y-6453634D01*
X407500Y-6077214D02*
X350357Y-6077214D01*
X321786Y-6091500D01*
X307500Y-6105786D01*
X278928Y-6148643D01*
X264643Y-6205786D01*
X264643Y-6320071D01*
X278928Y-6348643D01*
X293214Y-6362929D01*
X321786Y-6377214D01*
X378928Y-6377214D01*
X407500Y-6362929D01*
X421786Y-6348643D01*
X436071Y-6320071D01*
X436071Y-6248643D01*
X421786Y-6220071D01*
X407500Y-6205786D01*
X378928Y-6191500D01*
X321786Y-6191500D01*
X293214Y-6205786D01*
X278928Y-6220071D01*
X264643Y-6248643D01*
X564643Y-6348643D02*
X578928Y-6362929D01*
X564643Y-6377214D01*
X550357Y-6362929D01*
X564643Y-6348643D01*
X564643Y-6377214D01*
X764643Y-6077214D02*
X793214Y-6077214D01*
X821786Y-6091500D01*
X836071Y-6105786D01*
X850357Y-6134357D01*
X864643Y-6191500D01*
X864643Y-6262929D01*
X850357Y-6320071D01*
X836071Y-6348643D01*
X821786Y-6362929D01*
X793214Y-6377214D01*
X764643Y-6377214D01*
X736071Y-6362929D01*
X721786Y-6348643D01*
X707500Y-6320071D01*
X693214Y-6262929D01*
X693214Y-6191500D01*
X707500Y-6134357D01*
X721786Y-6105786D01*
X736071Y-6091500D01*
X764643Y-6077214D01*
X1050357Y-6077214D02*
X1078928Y-6077214D01*
X1107500Y-6091500D01*
X1121786Y-6105786D01*
X1136071Y-6134357D01*
X1150357Y-6191500D01*
X1150357Y-6262929D01*
X1136071Y-6320071D01*
X1121786Y-6348643D01*
X1107500Y-6362929D01*
X1078928Y-6377214D01*
X1050357Y-6377214D01*
X1021786Y-6362929D01*
X1007500Y-6348643D01*
X993214Y-6320071D01*
X978928Y-6262929D01*
X978928Y-6191500D01*
X993214Y-6134357D01*
X1007500Y-6105786D01*
X1021786Y-6091500D01*
X1050357Y-6077214D01*
X1278928Y-6377214D02*
X1278928Y-6177214D01*
X1278928Y-6205786D02*
X1293214Y-6191500D01*
X1321786Y-6177214D01*
X1364643Y-6177214D01*
X1393214Y-6191500D01*
X1407500Y-6220071D01*
X1407500Y-6377214D01*
X1407500Y-6220071D02*
X1421786Y-6191500D01*
X1450357Y-6177214D01*
X1493214Y-6177214D01*
X1521786Y-6191500D01*
X1536071Y-6220071D01*
X1536071Y-6377214D01*
X1678928Y-6377214D02*
X1678928Y-6177214D01*
X1678928Y-6205786D02*
X1693214Y-6191500D01*
X1721786Y-6177214D01*
X1764643Y-6177214D01*
X1793214Y-6191500D01*
X1807500Y-6220071D01*
X1807500Y-6377214D01*
X1807500Y-6220071D02*
X1821786Y-6191500D01*
X1850357Y-6177214D01*
X1893214Y-6177214D01*
X1921786Y-6191500D01*
X1936071Y-6220071D01*
X1936071Y-6377214D01*
X2521786Y-6062929D02*
X2264643Y-6448643D01*
X2907500Y-6077214D02*
X2936071Y-6077214D01*
X2964643Y-6091500D01*
X2978928Y-6105786D01*
X2993214Y-6134357D01*
X3007500Y-6191500D01*
X3007500Y-6262929D01*
X2993214Y-6320071D01*
X2978928Y-6348643D01*
X2964643Y-6362929D01*
X2936071Y-6377214D01*
X2907500Y-6377214D01*
X2878928Y-6362929D01*
X2864643Y-6348643D01*
X2850357Y-6320071D01*
X2836071Y-6262929D01*
X2836071Y-6191500D01*
X2850357Y-6134357D01*
X2864643Y-6105786D01*
X2878928Y-6091500D01*
X2907500Y-6077214D01*
X3136071Y-6348643D02*
X3150357Y-6362929D01*
X3136071Y-6377214D01*
X3121786Y-6362929D01*
X3136071Y-6348643D01*
X3136071Y-6377214D01*
X3264643Y-6105786D02*
X3278928Y-6091500D01*
X3307500Y-6077214D01*
X3378928Y-6077214D01*
X3407500Y-6091500D01*
X3421786Y-6105786D01*
X3436071Y-6134357D01*
X3436071Y-6162929D01*
X3421786Y-6205786D01*
X3250357Y-6377214D01*
X3436071Y-6377214D01*
X3536071Y-6077214D02*
X3721786Y-6077214D01*
X3621786Y-6191500D01*
X3664643Y-6191500D01*
X3693214Y-6205786D01*
X3707500Y-6220071D01*
X3721786Y-6248643D01*
X3721786Y-6320071D01*
X3707500Y-6348643D01*
X3693214Y-6362929D01*
X3664643Y-6377214D01*
X3578928Y-6377214D01*
X3550357Y-6362929D01*
X3536071Y-6348643D01*
X3978928Y-6077214D02*
X3921786Y-6077214D01*
X3893214Y-6091500D01*
X3878928Y-6105786D01*
X3850357Y-6148643D01*
X3836071Y-6205786D01*
X3836071Y-6320071D01*
X3850357Y-6348643D01*
X3864643Y-6362929D01*
X3893214Y-6377214D01*
X3950357Y-6377214D01*
X3978928Y-6362929D01*
X3993214Y-6348643D01*
X4007500Y-6320071D01*
X4007500Y-6248643D01*
X3993214Y-6220071D01*
X3978928Y-6205786D01*
X3950357Y-6191500D01*
X3893214Y-6191500D01*
X3864643Y-6205786D01*
X3850357Y-6220071D01*
X3836071Y-6248643D01*
X4121786Y-6077214D02*
X4121786Y-6134357D01*
X4236071Y-6077214D02*
X4236071Y-6134357D01*
X4678928Y-6491500D02*
X4664643Y-6477214D01*
X4636071Y-6434357D01*
X4621786Y-6405786D01*
X4607500Y-6362929D01*
X4593214Y-6291500D01*
X4593214Y-6234357D01*
X4607500Y-6162929D01*
X4621786Y-6120071D01*
X4636071Y-6091500D01*
X4664643Y-6048643D01*
X4678928Y-6034357D01*
X4950357Y-6377214D02*
X4778928Y-6377214D01*
X4864643Y-6377214D02*
X4864643Y-6077214D01*
X4836071Y-6120071D01*
X4807500Y-6148643D01*
X4778928Y-6162929D01*
X5307500Y-6377214D02*
X5307500Y-6077214D01*
X5436071Y-6377214D02*
X5436071Y-6220071D01*
X5421786Y-6191500D01*
X5393214Y-6177214D01*
X5350357Y-6177214D01*
X5321786Y-6191500D01*
X5307500Y-6205786D01*
X5621786Y-6377214D02*
X5593214Y-6362929D01*
X5578928Y-6348643D01*
X5564643Y-6320071D01*
X5564643Y-6234357D01*
X5578928Y-6205786D01*
X5593214Y-6191500D01*
X5621786Y-6177214D01*
X5664643Y-6177214D01*
X5693214Y-6191500D01*
X5707500Y-6205786D01*
X5721786Y-6234357D01*
X5721786Y-6320071D01*
X5707500Y-6348643D01*
X5693214Y-6362929D01*
X5664643Y-6377214D01*
X5621786Y-6377214D01*
X5893214Y-6377214D02*
X5864643Y-6362929D01*
X5850357Y-6334357D01*
X5850357Y-6077214D01*
X6121786Y-6362929D02*
X6093214Y-6377214D01*
X6036071Y-6377214D01*
X6007500Y-6362929D01*
X5993214Y-6334357D01*
X5993214Y-6220071D01*
X6007500Y-6191500D01*
X6036071Y-6177214D01*
X6093214Y-6177214D01*
X6121786Y-6191500D01*
X6136071Y-6220071D01*
X6136071Y-6248643D01*
X5993214Y-6277214D01*
X6236071Y-6491500D02*
X6250357Y-6477214D01*
X6278928Y-6434357D01*
X6293214Y-6405786D01*
X6307500Y-6362929D01*
X6321786Y-6291500D01*
X6321786Y-6234357D01*
X6307500Y-6162929D01*
X6293214Y-6120071D01*
X6278928Y-6091500D01*
X6250357Y-6048643D01*
X6236071Y-6034357D01*
X6778928Y-6491500D02*
X6764643Y-6477214D01*
X6736071Y-6434357D01*
X6721786Y-6405786D01*
X6707500Y-6362929D01*
X6693214Y-6291500D01*
X6693214Y-6234357D01*
X6707500Y-6162929D01*
X6721786Y-6120071D01*
X6736071Y-6091500D01*
X6764643Y-6048643D01*
X6778928Y-6034357D01*
X6893214Y-6177214D02*
X6893214Y-6377214D01*
X6893214Y-6205786D02*
X6907500Y-6191500D01*
X6936071Y-6177214D01*
X6978928Y-6177214D01*
X7007500Y-6191500D01*
X7021786Y-6220071D01*
X7021786Y-6377214D01*
X7207500Y-6377214D02*
X7178928Y-6362929D01*
X7164643Y-6348643D01*
X7150357Y-6320071D01*
X7150357Y-6234357D01*
X7164643Y-6205786D01*
X7178928Y-6191500D01*
X7207500Y-6177214D01*
X7250357Y-6177214D01*
X7278928Y-6191500D01*
X7293214Y-6205786D01*
X7307500Y-6234357D01*
X7307500Y-6320071D01*
X7293214Y-6348643D01*
X7278928Y-6362929D01*
X7250357Y-6377214D01*
X7207500Y-6377214D01*
X7393214Y-6177214D02*
X7507500Y-6177214D01*
X7436071Y-6077214D02*
X7436071Y-6334357D01*
X7450357Y-6362929D01*
X7478928Y-6377214D01*
X7507500Y-6377214D01*
X7836071Y-6177214D02*
X7836071Y-6477214D01*
X7836071Y-6191500D02*
X7864643Y-6177214D01*
X7921786Y-6177214D01*
X7950357Y-6191500D01*
X7964643Y-6205786D01*
X7978928Y-6234357D01*
X7978928Y-6320071D01*
X7964643Y-6348643D01*
X7950357Y-6362929D01*
X7921786Y-6377214D01*
X7864643Y-6377214D01*
X7836071Y-6362929D01*
X8150357Y-6377214D02*
X8121786Y-6362929D01*
X8107500Y-6334357D01*
X8107500Y-6077214D01*
X8393214Y-6377214D02*
X8393214Y-6220071D01*
X8378928Y-6191500D01*
X8350357Y-6177214D01*
X8293214Y-6177214D01*
X8264643Y-6191500D01*
X8393214Y-6362929D02*
X8364643Y-6377214D01*
X8293214Y-6377214D01*
X8264643Y-6362929D01*
X8250357Y-6334357D01*
X8250357Y-6305786D01*
X8264643Y-6277214D01*
X8293214Y-6262929D01*
X8364643Y-6262929D01*
X8393214Y-6248643D01*
X8493214Y-6177214D02*
X8607500Y-6177214D01*
X8536071Y-6077214D02*
X8536071Y-6334357D01*
X8550357Y-6362929D01*
X8578928Y-6377214D01*
X8607500Y-6377214D01*
X8821786Y-6362929D02*
X8793214Y-6377214D01*
X8736071Y-6377214D01*
X8707500Y-6362929D01*
X8693214Y-6334357D01*
X8693214Y-6220071D01*
X8707500Y-6191500D01*
X8736071Y-6177214D01*
X8793214Y-6177214D01*
X8821786Y-6191500D01*
X8836071Y-6220071D01*
X8836071Y-6248643D01*
X8693214Y-6277214D01*
X9093214Y-6377214D02*
X9093214Y-6077214D01*
X9093214Y-6362929D02*
X9064643Y-6377214D01*
X9007500Y-6377214D01*
X8978928Y-6362929D01*
X8964643Y-6348643D01*
X8950357Y-6320071D01*
X8950357Y-6234357D01*
X8964643Y-6205786D01*
X8978928Y-6191500D01*
X9007500Y-6177214D01*
X9064643Y-6177214D01*
X9093214Y-6191500D01*
X9207500Y-6491500D02*
X9221786Y-6477214D01*
X9250357Y-6434357D01*
X9264643Y-6405786D01*
X9278928Y-6362929D01*
X9293214Y-6291500D01*
X9293214Y-6234357D01*
X9278928Y-6162929D01*
X9264643Y-6120071D01*
X9250357Y-6091500D01*
X9221786Y-6048643D01*
X9207500Y-6034357D01*
M02*
