G04 CAM350  V5.0 Date:  Thu Dec  3 11:13:47 2020 *
G04 Database: (Untitled) *
G04 Layer 3: c-0241-05-b_pas *
%FSLAX46Y46*%
%MOMM*%
%SFA1.000B1.000*%

%MIA0B0*%
%IPPOS*%
%ADD11C,0.15000*%
%ADD12C,0.34000*%
%ADD13C,0.40000*%
%ADD15C,0.30000*%
%ADD19R,0.80000X1.50000*%
%ADD20O,1.30000X0.60000*%
%ADD21R,0.72000X0.99000*%
%ADD22R,0.95000X1.45000*%
%ADD23R,0.25000X1.00000*%
%ADD24R,1.00000X0.25000*%
%ADD27R,0.99000X0.72000*%
%ADD30R,1.80000X1.05000*%
%ADD31R,1.05000X1.80000*%
%ADD32R,1.60000X3.20000*%
%ADD33R,1.45000X0.95000*%
%ADD34R,2.10000X2.10000*%
%ADD35R,3.20000X1.60000*%
%ADD36R,6.50000X7.00000*%
%ADD38R,0.30000X1.20000*%
%ADD44O,1.60000X0.60000*%
%ADD45R,5.60000X2.10000*%
%ADD46R,1.75000X1.15000*%
%ADD47R,0.90000X1.20000*%
%ADD49O,0.60000X1.30000*%
%ADD52R,1.20000X1.50000*%
%ADD53R,2.00000X2.00000*%
%ADD54R,2.00000X1.30000*%
%ADD55R,2.50000X0.50000*%
%ADD56R,2.50000X2.00000*%
%ADD59R,2.20000X0.60000*%
%LNc-0241-05-b_pas*%
G54D11*
%LPD*%
G36*
X26400000Y14400000D02*
G01X27600000D01*
Y10500000*
X26400000*
Y14400000*
G37*
G36*
X46400000D02*
G01X47600000D01*
Y10500000*
X46400000*
Y14400000*
G37*
G36*
X103900000Y20650000D02*
G01X108250000D01*
Y18650000*
X103900000*
Y20650000*
G37*
G36*
Y11850000D02*
G01X108250000D01*
Y9850000*
X103900000*
Y11850000*
G37*
G36*
X96950000Y35337500D02*
G01X96953986Y35383082D01*
X96965830Y35427280*
X96985168Y35468750*
X97011412Y35506230*
X97043768Y35538586*
X97081250Y35564830*
X97122718Y35584168*
X97166916Y35596012*
X97212500Y35600000*
X98787500*
X98833082Y35596012*
X98877280Y35584168*
X98918750Y35564830*
X98956230Y35538586*
X98988586Y35506230*
X99014830Y35468750*
X99034168Y35427280*
X99046012Y35383082*
X99050000Y35337500*
Y33762500*
X99046012Y33716916*
X99034168Y33672718*
X99014830Y33631250*
X98988586Y33593768*
X98956230Y33561412*
X98918750Y33535168*
X98877280Y33515830*
X98833082Y33503986*
X98787500Y33500000*
X97212500*
X97166916Y33503986*
X97122718Y33515830*
X97081250Y33535168*
X97043768Y33561412*
X97011412Y33593768*
X96985168Y33631250*
X96965830Y33672718*
X96953986Y33716916*
X96950000Y33762500*
Y35337500*
G37*
G36*
Y30737500D02*
G01X96953986Y30783082D01*
X96965830Y30827280*
X96985168Y30868750*
X97011412Y30906230*
X97043768Y30938586*
X97081250Y30964830*
X97122718Y30984168*
X97166916Y30996012*
X97212500Y31000000*
X98787500*
X98833082Y30996012*
X98877280Y30984168*
X98918750Y30964830*
X98956230Y30938586*
X98988586Y30906230*
X99014830Y30868750*
X99034168Y30827280*
X99046012Y30783082*
X99050000Y30737500*
Y29162500*
X99046012Y29116916*
X99034168Y29072718*
X99014830Y29031250*
X98988586Y28993768*
X98956230Y28961412*
X98918750Y28935168*
X98877280Y28915830*
X98833082Y28903986*
X98787500Y28900000*
X97212500*
X97166916Y28903986*
X97122718Y28915830*
X97081250Y28935168*
X97043768Y28961412*
X97011412Y28993768*
X96985168Y29031250*
X96965830Y29072718*
X96953986Y29116916*
X96950000Y29162500*
Y30737500*
G37*
G36*
X66475000Y31518750D02*
G01X66476992Y31541540D01*
X66482914Y31563640*
X66492584Y31584374*
X66505706Y31603114*
X66521884Y31619292*
X66540624Y31632414*
X66561358Y31642084*
X66583458Y31648006*
X66606250Y31650000*
X67393750*
X67416540Y31648006*
X67438640Y31642084*
X67459374Y31632414*
X67478114Y31619292*
X67494292Y31603114*
X67507414Y31584374*
X67517084Y31563640*
X67523006Y31541540*
X67525000Y31518750*
Y29981250*
X67523006Y29958458*
X67517084Y29936358*
X67507414Y29915624*
X67494292Y29896884*
X67478114Y29880706*
X67459374Y29867584*
X67438640Y29857914*
X67416540Y29851992*
X67393750Y29850000*
X66606250*
X66583458Y29851992*
X66561358Y29857914*
X66540624Y29867584*
X66521884Y29880706*
X66505706Y29896884*
X66492584Y29915624*
X66482914Y29936358*
X66476992Y29958458*
X66475000Y29981250*
Y31518750*
G37*
G36*
X69475000D02*
G01X69476992Y31541540D01*
X69482914Y31563640*
X69492584Y31584374*
X69505706Y31603114*
X69521884Y31619292*
X69540624Y31632414*
X69561358Y31642084*
X69583458Y31648006*
X69606250Y31650000*
X70393750*
X70416540Y31648006*
X70438640Y31642084*
X70459374Y31632414*
X70478114Y31619292*
X70494292Y31603114*
X70507414Y31584374*
X70517084Y31563640*
X70523006Y31541540*
X70525000Y31518750*
Y29981250*
X70523006Y29958458*
X70517084Y29936358*
X70507414Y29915624*
X70494292Y29896884*
X70478114Y29880706*
X70459374Y29867584*
X70438640Y29857914*
X70416540Y29851992*
X70393750Y29850000*
X69606250*
X69583458Y29851992*
X69561358Y29857914*
X69540624Y29867584*
X69521884Y29880706*
X69505706Y29896884*
X69492584Y29915624*
X69482914Y29936358*
X69476992Y29958458*
X69475000Y29981250*
Y31518750*
G37*
G54D19*
X75115000Y22300000D03*
X76385000D03*
Y14700000D03*
X75115000D03*
G54D20*
X81950000Y14750000D03*
X84050000Y13800000D03*
Y15700000D03*
G54D21*
X2810000Y16750000D03*
X4190000D03*
Y14750000D03*
X2810000D03*
G54D22*
X17500000Y17000000D03*
X19500000D03*
G54D21*
X4190000Y18750000D03*
X2810000D03*
G54D22*
X17500000Y15000000D03*
X19500000D03*
G54D21*
X4190000Y12750000D03*
X2810000D03*
X11440000Y11250000D03*
X10060000D03*
X17810000Y13000000D03*
X19190000D03*
Y19000000D03*
X17810000D03*
G54D23*
X24750000Y46450000D03*
X25250000D03*
X25750000D03*
X26250000D03*
X26750000D03*
X27250000D03*
X27750000D03*
X28250000D03*
X28750000D03*
X29250000D03*
X29750000D03*
X30250000D03*
X30750000D03*
X31250000D03*
X31750000D03*
X32250000D03*
G54D24*
X34200000Y44500000D03*
Y44000000D03*
Y43500000D03*
Y43000000D03*
Y42500000D03*
Y42000000D03*
Y41500000D03*
Y41000000D03*
Y40500000D03*
Y40000000D03*
Y39500000D03*
Y39000000D03*
Y38500000D03*
Y38000000D03*
Y37500000D03*
Y37000000D03*
G54D23*
X32250000Y35050000D03*
X31750000D03*
X31250000D03*
X30750000D03*
X30250000D03*
X29750000D03*
X29250000D03*
X28750000D03*
X28250000D03*
X27750000D03*
X27250000D03*
X26750000D03*
X26250000D03*
X25750000D03*
X25250000D03*
X24750000D03*
G54D24*
X22800000Y37000000D03*
Y37500000D03*
Y38000000D03*
Y38500000D03*
Y39000000D03*
Y39500000D03*
Y40000000D03*
Y40500000D03*
Y41000000D03*
Y41500000D03*
Y42000000D03*
Y42500000D03*
Y43000000D03*
Y43500000D03*
Y44000000D03*
Y44500000D03*
G54D27*
X25250000Y20810000D03*
Y22190000D03*
G54D30*
X81500000Y44000000D03*
Y47000000D03*
G54D31*
X91000000Y50250000D03*
X94000000D03*
G54D32*
X92000000Y29750000D03*
Y34750000D03*
X104000000D03*
Y29750000D03*
G54D31*
X91000000Y47750000D03*
X94000000D03*
G54D30*
X78500000Y42000000D03*
Y39000000D03*
Y44000000D03*
Y47000000D03*
G54D33*
X102500000Y44250000D03*
Y42250000D03*
X105000000Y46250000D03*
Y48250000D03*
X102500000D03*
Y46250000D03*
G54D34*
X105750000Y7050000D03*
Y2450000D03*
G54D35*
X74650000Y42000000D03*
G54D36*
X68375000D03*
G54D35*
X74625000Y39700000D03*
Y44300000D03*
X98125000Y44050000D03*
Y39450000D03*
G54D36*
X91875000Y41750000D03*
G54D35*
X98150000D03*
G54D22*
X105000000Y22750000D03*
X107000000D03*
G54D44*
X96900000Y16700000D03*
X96950000Y15750000D03*
Y14800000D03*
X94550000D03*
Y16700000D03*
Y15750000D03*
G54D45*
X29000000Y53750000D03*
X38000000D03*
G54D27*
X23500000Y9560000D03*
Y10940000D03*
X39250000Y20810000D03*
Y22190000D03*
X35250000Y25690000D03*
Y24310000D03*
X31250000Y20810000D03*
Y22190000D03*
X37250000Y20810000D03*
Y22190000D03*
X29250000Y25690000D03*
Y24310000D03*
X37250000D03*
Y25690000D03*
X31250000Y24310000D03*
Y25690000D03*
X33250000Y24310000D03*
Y25690000D03*
X29250000Y22190000D03*
Y20810000D03*
X19250000D03*
Y22190000D03*
X23250000Y20810000D03*
Y22190000D03*
X27250000Y20810000D03*
Y22190000D03*
X21250000Y20810000D03*
Y22190000D03*
X55750000Y39690000D03*
Y38310000D03*
Y35060000D03*
Y36440000D03*
Y29940000D03*
Y28560000D03*
X79000000Y26060000D03*
Y27440000D03*
X18000000Y43440000D03*
Y42060000D03*
X22250000Y30310000D03*
Y31690000D03*
G54D21*
X38810000Y35500000D03*
X40190000D03*
G54D33*
X41250000Y45500000D03*
Y43500000D03*
G54D27*
X83250000Y24190000D03*
Y22810000D03*
X24250000Y31690000D03*
Y30310000D03*
G54D21*
X40190000Y37500000D03*
X38810000D03*
G54D27*
X38750000Y45190000D03*
Y43810000D03*
X19750000Y42060000D03*
Y43440000D03*
G54D46*
X15250000Y43300000D03*
Y39900000D03*
G54D47*
X74350000Y30750000D03*
X77650000D03*
G54D49*
X55000000Y9450000D03*
X55950000Y11550000D03*
X54050000D03*
G54D20*
X60200000Y31550000D03*
Y33450000D03*
X62300000Y32500000D03*
G54D27*
X57500000Y38310000D03*
Y39690000D03*
Y36440000D03*
Y35060000D03*
Y29940000D03*
Y28560000D03*
X80750000Y26060000D03*
Y27440000D03*
Y24190000D03*
Y22810000D03*
G54D21*
X52560000Y14000000D03*
X53940000D03*
X56060000D03*
X57440000D03*
G54D27*
X17500000Y31690000D03*
Y30310000D03*
X19500000Y31690000D03*
Y30310000D03*
G54D33*
X83500000Y33250000D03*
Y31250000D03*
G54D27*
X19750000Y40340000D03*
Y38960000D03*
X55750000Y31810000D03*
Y33190000D03*
X57500000Y31810000D03*
Y33190000D03*
X87000000Y32940000D03*
Y31560000D03*
G54D38*
X44000000Y15000000D03*
X43500000D03*
X43000000D03*
X42500000D03*
X42000000D03*
X41500000D03*
X41000000D03*
X40500000D03*
X40000000D03*
X39500000D03*
X39000000D03*
X38500000D03*
X38000000D03*
X37500000D03*
X37000000D03*
X36500000D03*
X36000000D03*
X35500000D03*
X35000000D03*
X34500000D03*
X34000000D03*
X33500000D03*
X33000000D03*
X32500000D03*
X32000000D03*
X31500000D03*
X31000000D03*
X30500000D03*
X30000000D03*
G54D52*
X47000000Y13650000D03*
X27000000D03*
G54D53*
X12000000Y26000000D03*
G54D54*
X16000000Y24850000D03*
Y27150000D03*
G54D21*
X88790000Y17250000D03*
X87410000D03*
X90510000Y20750000D03*
X91890000D03*
G54D27*
X46250000Y57940000D03*
Y56560000D03*
G54D21*
X94710000Y20200000D03*
X96090000D03*
X102440000Y22750000D03*
X101060000D03*
X30190000Y49750000D03*
X28810000D03*
X38190000D03*
X36810000D03*
G54D27*
X20000000Y49560000D03*
Y50940000D03*
X25000000D03*
Y49560000D03*
G54D21*
X61060000Y14000000D03*
X62440000D03*
X68560000Y24000000D03*
X69940000D03*
Y18000000D03*
X68560000D03*
G54D55*
X101500000Y16850000D03*
Y13650000D03*
Y14450000D03*
Y15250000D03*
Y16050000D03*
G54D56*
X107000000Y19650000D03*
Y10850000D03*
X101500000D03*
Y19650000D03*
G54D21*
X90510000Y22500000D03*
X91890000D03*
X96440000Y13000000D03*
X95060000D03*
Y11250000D03*
X96440000D03*
G54D27*
X44250000Y56560000D03*
Y57940000D03*
G54D21*
X91890000Y19000000D03*
X90510000D03*
X32810000Y49750000D03*
X34190000D03*
X21810000D03*
X23190000D03*
G54D27*
X80000000Y52690000D03*
Y51310000D03*
X60250000Y56560000D03*
Y57940000D03*
X57750000Y56560000D03*
Y57940000D03*
G54D21*
X90510000Y17250000D03*
X91890000D03*
G54D22*
X70250000Y22000000D03*
X68250000D03*
X70250000Y20000000D03*
X68250000D03*
G54D21*
X52560000Y16000000D03*
X53940000D03*
X52560000Y18000000D03*
X53940000D03*
X52560000Y22000000D03*
X53940000D03*
Y20000000D03*
X52560000D03*
G54D19*
X74675000Y51700000D03*
X73405000D03*
Y59300000D03*
X74675000D03*
X70865000Y51700000D03*
X72135000D03*
X70865000Y59300000D03*
X72135000D03*
X69595000Y51700000D03*
X68325000Y59300000D03*
X69595000D03*
X68325000Y51700000D03*
G54D33*
X79500000Y20250000D03*
Y18250000D03*
X68525000Y9550000D03*
Y11550000D03*
G54D30*
X79500000Y16250000D03*
Y13250000D03*
G54D31*
X67800000Y13950000D03*
X70800000D03*
G54D27*
X12500000Y41000000D03*
Y42380000D03*
X10250000D03*
Y41000000D03*
G54D20*
X81850000Y17600000D03*
Y19500000D03*
X83950000Y18550000D03*
G54D59*
X13350000Y13840000D03*
Y15110000D03*
Y16390000D03*
Y17660000D03*
X8150000D03*
Y16390000D03*
Y15110000D03*
Y13840000D03*
X58650000Y16590000D03*
Y17860000D03*
Y19140000D03*
Y20410000D03*
X63850000D03*
Y19140000D03*
Y17860000D03*
Y16590000D03*
G54D11*
X77002200Y-33007200D02*
G01Y-65007200D01*
X185002200*
Y-33007200*
X77002200*
X-90000000Y123000000D02*
G01Y-67007200D01*
X187002200*
Y123000000*
X-90000000*
X-88000000Y121000000D02*
G01Y-65007200D01*
X185002200*
Y121000000*
X-88000000*
X-40000000D02*
G01Y123000000D01*
X10000000Y121000000D02*
G01Y123000000D01*
X60000000Y121000000D02*
G01Y123000000D01*
X110000000Y121000000D02*
G01Y123000000D01*
X160000000Y121000000D02*
G01Y123000000D01*
X-63934524Y121411906D02*
G01X-64677382D01*
X-64305954D02*
G01Y122711906D01*
X-64429762Y122526192*
X-64553572Y122402382*
X-64677382Y122340478*
X-14677382Y122588096D02*
G01X-14615478Y122650000D01*
X-14491668Y122711906*
X-14182144*
X-14058334Y122650000*
X-13996430Y122588096*
X-13934524Y122464286*
Y122340478*
X-13996430Y122154762*
X-14739286Y121411906*
X-13934524*
X35260714Y122711906D02*
G01X36065476D01*
X35632142Y122216668*
X35817858*
X35941666Y122154762*
X36003572Y122092858*
X36065476Y121969048*
Y121659524*
X36003572Y121535716*
X35941666Y121473810*
X35817858Y121411906*
X35446428*
X35322620Y121473810*
X35260714Y121535716*
X85941666Y122278572D02*
G01Y121411906D01*
X85632142Y122773810D02*
G01X85322620Y121845240D01*
X86127380*
X136003572Y122711906D02*
G01X135384524D01*
X135322620Y122092858*
X135384524Y122154762*
X135508334Y122216668*
X135817858*
X135941666Y122154762*
X136003572Y122092858*
X136065476Y121969048*
Y121659524*
X136003572Y121535716*
X135941666Y121473810*
X135817858Y121411906*
X135508334*
X135384524Y121473810*
X135322620Y121535716*
X185941666Y122711906D02*
G01X185694048D01*
X185570238Y122650000*
X185508334Y122588096*
X185384524Y122402382*
X185322620Y122154762*
Y121659524*
X185384524Y121535716*
X185446428Y121473810*
X185570238Y121411906*
X185817858*
X185941666Y121473810*
X186003572Y121535716*
X186065476Y121659524*
Y121969048*
X186003572Y122092858*
X185941666Y122154762*
X185817858Y122216668*
X185570238*
X185446428Y122154762*
X185384524Y122092858*
X185322620Y121969048*
X-40000000Y-65007200D02*
G01Y-67007200D01*
X10000000Y-65007200D02*
G01Y-67007200D01*
X60000000Y-65007200D02*
G01Y-67007200D01*
X110000000Y-65007200D02*
G01Y-67007200D01*
X160000000Y-65007200D02*
G01Y-67007200D01*
X-63934524Y-66595294D02*
G01X-64677382D01*
X-64305954D02*
G01Y-65295294D01*
X-64429762Y-65481010*
X-64553572Y-65604820*
X-64677382Y-65666724*
X-14677382Y-65419104D02*
G01X-14615478Y-65357200D01*
X-14491668Y-65295294*
X-14182144*
X-14058334Y-65357200*
X-13996430Y-65419104*
X-13934524Y-65542914*
Y-65666724*
X-13996430Y-65852438*
X-14739286Y-66595294*
X-13934524*
X35260714Y-65295294D02*
G01X36065476D01*
X35632142Y-65790534*
X35817858*
X35941666Y-65852438*
X36003572Y-65914342*
X36065476Y-66038152*
Y-66347676*
X36003572Y-66471486*
X35941666Y-66533390*
X35817858Y-66595294*
X35446428*
X35322620Y-66533390*
X35260714Y-66471486*
X85941666Y-65728628D02*
G01Y-66595294D01*
X85632142Y-65233390D02*
G01X85322620Y-66161962D01*
X86127380*
X136003572Y-65295294D02*
G01X135384524D01*
X135322620Y-65914342*
X135384524Y-65852438*
X135508334Y-65790534*
X135817858*
X135941666Y-65852438*
X136003572Y-65914342*
X136065476Y-66038152*
Y-66347676*
X136003572Y-66471486*
X135941666Y-66533390*
X135817858Y-66595294*
X135508334*
X135384524Y-66533390*
X135322620Y-66471486*
X185941666Y-65295294D02*
G01X185694048D01*
X185570238Y-65357200*
X185508334Y-65419104*
X185384524Y-65604820*
X185322620Y-65852438*
Y-66347676*
X185384524Y-66471486*
X185446428Y-66533390*
X185570238Y-66595294*
X185817858*
X185941666Y-66533390*
X186003572Y-66471486*
X186065476Y-66347676*
Y-66038152*
X186003572Y-65914342*
X185941666Y-65852438*
X185817858Y-65790534*
X185570238*
X185446428Y-65852438*
X185384524Y-65914342*
X185322620Y-66038152*
X-90000000Y73000000D02*
G01X-88000000D01*
X-90000000Y23000000D02*
G01X-88000000D01*
X-90000000Y-27000000D02*
G01X-88000000D01*
X-89309524Y97783334D02*
G01X-88690478D01*
X-89433334Y97411906D02*
G01X-89000000Y98711906D01*
X-88566668Y97411906*
X-88907144Y48092858D02*
G01X-88721430Y48030954D01*
X-88659524Y47969048*
X-88597620Y47845240*
Y47659524*
X-88659524Y47535716*
X-88721430Y47473810*
X-88845240Y47411906*
X-89340478*
Y48711906*
X-88907144*
X-88783334Y48650000*
X-88721430Y48588096*
X-88659524Y48464286*
Y48340478*
X-88721430Y48216668*
X-88783334Y48154762*
X-88907144Y48092858*
X-89340478*
X-88597620Y-2464286D02*
G01X-88659524Y-2526190D01*
X-88845240Y-2588096*
X-88969048*
X-89154762Y-2526190*
X-89278572Y-2402380*
X-89340478Y-2278572*
X-89402382Y-2030952*
Y-1845238*
X-89340478Y-1597620*
X-89278572Y-1473810*
X-89154762Y-1350000*
X-88969048Y-1288096*
X-88845240*
X-88659524Y-1350000*
X-88597620Y-1411904*
X-89340478Y-52588096D02*
G01Y-51288096D01*
X-89030954*
X-88845240Y-51350000*
X-88721430Y-51473810*
X-88659524Y-51597620*
X-88597620Y-51845238*
Y-52030952*
X-88659524Y-52278572*
X-88721430Y-52402380*
X-88845240Y-52526190*
X-89030954Y-52588096*
X-89340478*
X187002200Y73000000D02*
G01X185002200D01*
X187002200Y23000000D02*
G01X185002200D01*
X187002200Y-27000000D02*
G01X185002200D01*
X185692676Y97783334D02*
G01X186311724D01*
X185568866Y97411906D02*
G01X186002200Y98711906D01*
X186435534Y97411906*
X186095058Y48092858D02*
G01X186280772Y48030954D01*
X186342676Y47969048*
X186404580Y47845240*
Y47659524*
X186342676Y47535716*
X186280772Y47473810*
X186156962Y47411906*
X185661724*
Y48711906*
X186095058*
X186218866Y48650000*
X186280772Y48588096*
X186342676Y48464286*
Y48340478*
X186280772Y48216668*
X186218866Y48154762*
X186095058Y48092858*
X185661724*
X186404580Y-2464286D02*
G01X186342676Y-2526190D01*
X186156962Y-2588096*
X186033152*
X185847438Y-2526190*
X185723628Y-2402380*
X185661724Y-2278572*
X185599820Y-2030952*
Y-1845238*
X185661724Y-1597620*
X185723628Y-1473810*
X185847438Y-1350000*
X186033152Y-1288096*
X186156962*
X186342676Y-1350000*
X186404580Y-1411904*
X185661724Y-52588096D02*
G01Y-51288096D01*
X185971248*
X186156962Y-51350000*
X186280772Y-51473810*
X186342676Y-51597620*
X186404580Y-51845238*
Y-52030952*
X186342676Y-52278572*
X186280772Y-52402380*
X186156962Y-52526190*
X185971248Y-52588096*
X185661724*
X100481962Y-60876248D02*
G01Y-59176248D01*
X100886724*
X101129580Y-59257200*
X101291486Y-59419104*
X101372438Y-59581010*
X101453390Y-59904820*
Y-60147676*
X101372438Y-60471486*
X101291486Y-60633390*
X101129580Y-60795296*
X100886724Y-60876248*
X100481962*
X102910534D02*
G01Y-59985772D01*
X102829580Y-59823866*
X102667676Y-59742914*
X102343866*
X102181962Y-59823866*
X102910534Y-60795296D02*
G01X102748628Y-60876248D01*
X102343866*
X102181962Y-60795296*
X102101010Y-60633390*
Y-60471486*
X102181962Y-60309580*
X102343866Y-60228628*
X102748628*
X102910534Y-60147676*
X103477200Y-59742914D02*
G01X104124820D01*
X103720058Y-59176248D02*
G01Y-60633390D01*
X103801010Y-60795296*
X103962914Y-60876248*
X104124820*
X105339104Y-60795296D02*
G01X105177200Y-60876248D01*
X104853390*
X104691486Y-60795296*
X104610534Y-60633390*
Y-59985772*
X104691486Y-59823866*
X104853390Y-59742914*
X105177200*
X105339104Y-59823866*
X105420058Y-59985772*
Y-60147676*
X104610534Y-60309580*
X106148628Y-60714342D02*
G01X106229580Y-60795296D01*
X106148628Y-60876248*
X106067676Y-60795296*
X106148628Y-60714342*
Y-60876248*
Y-59823866D02*
G01X106229580Y-59904820D01*
X106148628Y-59985772*
X106067676Y-59904820*
X106148628Y-59823866*
Y-59985772*
X108172438Y-59338152D02*
G01X108253390Y-59257200D01*
X108415296Y-59176248*
X108820058*
X108981962Y-59257200*
X109062914Y-59338152*
X109143866Y-59500058*
Y-59661962*
X109062914Y-59904820*
X108091486Y-60876248*
X109143866*
X110196248Y-59176248D02*
G01X110358152D01*
X110520058Y-59257200*
X110601010Y-59338152*
X110681962Y-59500058*
X110762914Y-59823866*
Y-60228628*
X110681962Y-60552438*
X110601010Y-60714342*
X110520058Y-60795296*
X110358152Y-60876248*
X110196248*
X110034342Y-60795296*
X109953390Y-60714342*
X109872438Y-60552438*
X109791486Y-60228628*
Y-59823866*
X109872438Y-59500058*
X109953390Y-59338152*
X110034342Y-59257200*
X110196248Y-59176248*
X111410534Y-59338152D02*
G01X111491486Y-59257200D01*
X111653390Y-59176248*
X112058152*
X112220058Y-59257200*
X112301010Y-59338152*
X112381962Y-59500058*
Y-59661962*
X112301010Y-59904820*
X111329580Y-60876248*
X112381962*
X113434342Y-59176248D02*
G01X113596248D01*
X113758152Y-59257200*
X113839104Y-59338152*
X113920058Y-59500058*
X114001010Y-59823866*
Y-60228628*
X113920058Y-60552438*
X113839104Y-60714342*
X113758152Y-60795296*
X113596248Y-60876248*
X113434342*
X113272438Y-60795296*
X113191486Y-60714342*
X113110534Y-60552438*
X113029580Y-60228628*
Y-59823866*
X113110534Y-59500058*
X113191486Y-59338152*
X113272438Y-59257200*
X113434342Y-59176248*
X114729580Y-60228628D02*
G01X116024820D01*
X117724820Y-60876248D02*
G01X116753390D01*
X117239104D02*
G01Y-59176248D01*
X117077200Y-59419104*
X116915296Y-59581010*
X116753390Y-59661962*
X118372438Y-59338152D02*
G01X118453390Y-59257200D01*
X118615296Y-59176248*
X119020058*
X119181962Y-59257200*
X119262914Y-59338152*
X119343866Y-59500058*
Y-59661962*
X119262914Y-59904820*
X118291486Y-60876248*
X119343866*
X120072438Y-60228628D02*
G01X121367676D01*
X122501010Y-59176248D02*
G01X122662914D01*
X122824820Y-59257200*
X122905772Y-59338152*
X122986724Y-59500058*
X123067676Y-59823866*
Y-60228628*
X122986724Y-60552438*
X122905772Y-60714342*
X122824820Y-60795296*
X122662914Y-60876248*
X122501010*
X122339104Y-60795296*
X122258152Y-60714342*
X122177200Y-60552438*
X122096248Y-60228628*
Y-59823866*
X122177200Y-59500058*
X122258152Y-59338152*
X122339104Y-59257200*
X122501010Y-59176248*
X123634342D02*
G01X124686724D01*
X124120058Y-59823866*
X124362914*
X124524820Y-59904820*
X124605772Y-59985772*
X124686724Y-60147676*
Y-60552438*
X124605772Y-60714342*
X124524820Y-60795296*
X124362914Y-60876248*
X123877200*
X123715296Y-60795296*
X123634342Y-60714342*
X77002200Y-61507200D02*
G01X185002200D01*
X77002200Y-58507200D02*
G01X185002200D01*
G54D12*
X164599390Y-60876248D02*
G01X164032724Y-60066724D01*
X163627962Y-60876248D02*
G01Y-59176248D01*
X164275580*
X164437486Y-59257200*
X164518438Y-59338152*
X164599390Y-59500058*
Y-59742914*
X164518438Y-59904820*
X164437486Y-59985772*
X164275580Y-60066724*
X163627962*
X165975580Y-60795296D02*
G01X165813676Y-60876248D01*
X165489866*
X165327962Y-60795296*
X165247010Y-60633390*
Y-59985772*
X165327962Y-59823866*
X165489866Y-59742914*
X165813676*
X165975580Y-59823866*
X166056534Y-59985772*
Y-60147676*
X165247010Y-60309580*
X166623200Y-59742914D02*
G01X167027962Y-60876248D01*
X167432724Y-59742914*
X168080342Y-60714342D02*
G01X168161296Y-60795296D01*
X168080342Y-60876248*
X167999390Y-60795296*
X168080342Y-60714342*
Y-60876248*
Y-59823866D02*
G01X168161296Y-59904820D01*
X168080342Y-59985772*
X167999390Y-59904820*
X168080342Y-59823866*
Y-59985772*
G54D11*
X78401010Y-60795296D02*
G01X78643866Y-60876248D01*
X79048628*
X79210534Y-60795296*
X79291486Y-60714342*
X79372438Y-60552438*
Y-60390534*
X79291486Y-60228628*
X79210534Y-60147676*
X79048628Y-60066724*
X78724820Y-59985772*
X78562914Y-59904820*
X78481962Y-59823866*
X78401010Y-59661962*
Y-59500058*
X78481962Y-59338152*
X78562914Y-59257200*
X78724820Y-59176248*
X79129580*
X79372438Y-59257200*
X80101010Y-60876248D02*
G01Y-59742914D01*
Y-59176248D02*
G01X80020058Y-59257200D01*
X80101010Y-59338152*
X80181962Y-59257200*
X80101010Y-59176248*
Y-59338152*
X80748628Y-59742914D02*
G01X81639104D01*
X80748628Y-60876248*
X81639104*
X82934342Y-60795296D02*
G01X82772438Y-60876248D01*
X82448628*
X82286724Y-60795296*
X82205772Y-60633390*
Y-59985772*
X82286724Y-59823866*
X82448628Y-59742914*
X82772438*
X82934342Y-59823866*
X83015296Y-59985772*
Y-60147676*
X82205772Y-60309580*
X83743866Y-60714342D02*
G01X83824820Y-60795296D01*
X83743866Y-60876248*
X83662914Y-60795296*
X83743866Y-60714342*
Y-60876248*
Y-59823866D02*
G01X83824820Y-59904820D01*
X83743866Y-59985772*
X83662914Y-59904820*
X83743866Y-59823866*
Y-59985772*
X85767676Y-60390534D02*
G01X86577200D01*
X85605772Y-60876248D02*
G01X86172438Y-59176248D01*
X86739104Y-60876248*
X88034342Y-59742914D02*
G01Y-60876248D01*
X87629580Y-59095296D02*
G01X87224820Y-60309580D01*
X88277200*
X163481962Y-63676248D02*
G01Y-61976248D01*
X165020058Y-63676248D02*
G01Y-61976248D01*
Y-63595296D02*
G01X164858152Y-63676248D01*
X164534342*
X164372438Y-63595296*
X164291486Y-63514342*
X164210534Y-63352438*
Y-62866724*
X164291486Y-62704820*
X164372438Y-62623866*
X164534342Y-62542914*
X164858152*
X165020058Y-62623866*
X165829580Y-63514342D02*
G01X165910534Y-63595296D01*
X165829580Y-63676248*
X165748628Y-63595296*
X165829580Y-63514342*
Y-63676248*
Y-62623866D02*
G01X165910534Y-62704820D01*
X165829580Y-62785772*
X165748628Y-62704820*
X165829580Y-62623866*
Y-62785772*
X168824820Y-63676248D02*
G01X167853390D01*
X168339104D02*
G01Y-61976248D01*
X168177200Y-62219104*
X168015296Y-62381010*
X167853390Y-62461962*
X170767676Y-61895296D02*
G01X169310534Y-64081008D01*
X172224820Y-63676248D02*
G01X171253390D01*
X171739104D02*
G01Y-61976248D01*
X171577200Y-62219104*
X171415296Y-62381010*
X171253390Y-62461962*
X77002200Y-54507200D02*
G01X185002200D01*
G54D13*
X78714580Y-55211962D02*
G01X79857438D01*
X79036010Y-57211962D02*
G01X79286010Y-55211962D01*
X80274104Y-57211962D02*
G01X80440772Y-55878628D01*
X80524104Y-55211962D02*
G01X80416962Y-55307200D01*
X80500296Y-55402438*
X80607438Y-55307200*
X80524104Y-55211962*
X80500296Y-55402438*
X81107438Y-55878628D02*
G01X81869342D01*
X81476486Y-55211962D02*
G01X81262200Y-56926248D01*
X81333628Y-57116724*
X81512200Y-57211962*
X81702676*
X82655058D02*
G01X82476486Y-57116724D01*
X82405058Y-56926248*
X82619342Y-55211962*
X84190772Y-57116724D02*
G01X83988390Y-57211962D01*
X83607438*
X83428866Y-57116724*
X83357438Y-56926248*
X83452676Y-56164342*
X83571724Y-55973866*
X83774104Y-55878628*
X84155058*
X84333628Y-55973866*
X84405058Y-56164342*
X84381248Y-56354820*
X83405058Y-56545296*
X85155058Y-57021486D02*
G01X85238390Y-57116724D01*
X85131248Y-57211962*
X85047914Y-57116724*
X85155058Y-57021486*
X85131248Y-57211962*
X85286010Y-55973866D02*
G01X85369342Y-56069104D01*
X85262200Y-56164342*
X85178866Y-56069104*
X85286010Y-55973866*
X85262200Y-56164342*
X87738390D02*
G01X88405058D01*
X88559820Y-57211962D02*
G01X87607438D01*
X87857438Y-55211962*
X88809820*
X89333628Y-57116724D02*
G01X89607438Y-57211962D01*
X90083628*
X90286010Y-57116724*
X90393152Y-57021486*
X90512200Y-56831010*
X90536010Y-56640534*
X90464580Y-56450058*
X90381248Y-56354820*
X90202676Y-56259580*
X89833628Y-56164342*
X89655058Y-56069104*
X89571724Y-55973866*
X89500296Y-55783390*
X89524104Y-55592914*
X89643152Y-55402438*
X89750296Y-55307200*
X89952676Y-55211962*
X90428866*
X90702676Y-55307200*
X92119342Y-56164342D02*
G01X92393152Y-56259580D01*
X92476486Y-56354820*
X92547914Y-56545296*
X92512200Y-56831010*
X92393152Y-57021486*
X92286010Y-57116724*
X92083628Y-57211962*
X91321724*
X91571724Y-55211962*
X92238390*
X92416962Y-55307200*
X92500296Y-55402438*
X92571724Y-55592914*
X92547914Y-55783390*
X92428866Y-55973866*
X92321724Y-56069104*
X92119342Y-56164342*
X91452676*
X93321724Y-57211962D02*
G01X93571724Y-55211962D01*
X95893152Y-56450058D02*
G01X97416962D01*
X100964580Y-57021486D02*
G01X100857438Y-57116724D01*
X100559820Y-57211962*
X100369342*
X100095534Y-57116724*
X99928866Y-56926248*
X99857438Y-56735772*
X99809820Y-56354820*
X99845534Y-56069104*
X99988390Y-55688152*
X100107438Y-55497676*
X100321724Y-55307200*
X100619342Y-55211962*
X100809820*
X101083628Y-55307200*
X101166962Y-55402438*
X101893152Y-56450058D02*
G01X103416962D01*
X104905058Y-55211962D02*
G01X105095534D01*
X105274104Y-55307200*
X105357438Y-55402438*
X105428866Y-55592914*
X105476486Y-55973866*
X105416962Y-56450058*
X105274104Y-56831010*
X105155058Y-57021486*
X105047914Y-57116724*
X104845534Y-57211962*
X104655058*
X104476486Y-57116724*
X104393152Y-57021486*
X104321724Y-56831010*
X104274104Y-56450058*
X104333628Y-55973866*
X104476486Y-55592914*
X104595534Y-55402438*
X104702676Y-55307200*
X104905058Y-55211962*
X106309820Y-55402438D02*
G01X106416962Y-55307200D01*
X106619342Y-55211962*
X107095534*
X107274104Y-55307200*
X107357438Y-55402438*
X107428866Y-55592914*
X107405058Y-55783390*
X107274104Y-56069104*
X105988390Y-57211962*
X107226486*
X109107438Y-55878628D02*
G01X108940772Y-57211962D01*
X108726486Y-55116724D02*
G01X108071724Y-56545296D01*
X109309820*
X111036010Y-57211962D02*
G01X109893152D01*
X110464580D02*
G01X110714580Y-55211962D01*
X110488390Y-55497676*
X110274104Y-55688152*
X110071724Y-55783390*
X111988390Y-56450058D02*
G01X113512200D01*
X115000296Y-55211962D02*
G01X115190772D01*
X115369342Y-55307200*
X115452676Y-55402438*
X115524104Y-55592914*
X115571724Y-55973866*
X115512200Y-56450058*
X115369342Y-56831010*
X115250296Y-57021486*
X115143152Y-57116724*
X114940772Y-57211962*
X114750296*
X114571724Y-57116724*
X114488390Y-57021486*
X114416962Y-56831010*
X114369342Y-56450058*
X114428866Y-55973866*
X114571724Y-55592914*
X114690772Y-55402438*
X114797914Y-55307200*
X115000296Y-55211962*
X117476486D02*
G01X116524104D01*
X116309820Y-56164342*
X116416962Y-56069104*
X116619342Y-55973866*
X117095534*
X117274104Y-56069104*
X117357438Y-56164342*
X117428866Y-56354820*
X117369342Y-56831010*
X117250296Y-57021486*
X117143152Y-57116724*
X116940772Y-57211962*
X116464580*
X116286010Y-57116724*
X116202676Y-57021486*
G54D11*
X77002200Y-48507200D02*
G01X185002200D01*
X78434342Y-43900058D02*
G01X78934342D01*
X79148628Y-44685772D02*
G01X78434342D01*
Y-43185772*
X79148628*
X79791486Y-44685772D02*
G01Y-43685772D01*
Y-43828628D02*
G01X79862914Y-43757200D01*
X80005772Y-43685772*
X80220058*
X80362914Y-43757200*
X80434342Y-43900058*
Y-44685772*
Y-43900058D02*
G01X80505772Y-43757200D01*
X80648628Y-43685772*
X80862914*
X81005772Y-43757200*
X81077200Y-43900058*
Y-44685772*
X82434342D02*
G01Y-43900058D01*
X82362914Y-43757200*
X82220058Y-43685772*
X81934342*
X81791486Y-43757200*
X82434342Y-44614342D02*
G01X82291486Y-44685772D01*
X81934342*
X81791486Y-44614342*
X81720058Y-44471486*
Y-44328628*
X81791486Y-44185772*
X81934342Y-44114342*
X82291486*
X82434342Y-44042914*
X83148628Y-44685772D02*
G01Y-43685772D01*
Y-43185772D02*
G01X83077200Y-43257200D01*
X83148628Y-43328628*
X83220058Y-43257200*
X83148628Y-43185772*
Y-43328628*
X84077200Y-44685772D02*
G01X83934342Y-44614342D01*
X83862914Y-44471486*
Y-43185772*
X85791486Y-44685772D02*
G01Y-43685772D01*
Y-43185772D02*
G01X85720058Y-43257200D01*
X85791486Y-43328628*
X85862914Y-43257200*
X85791486Y-43185772*
Y-43328628*
X86505772Y-43685772D02*
G01Y-44685772D01*
Y-43828628D02*
G01X86577200Y-43757200D01*
X86720058Y-43685772*
X86934342*
X87077200Y-43757200*
X87148628Y-43900058*
Y-44685772*
X87648628Y-43685772D02*
G01X88220058D01*
X87862914Y-44685772D02*
G01Y-43400058D01*
X87934342Y-43257200*
X88077200Y-43185772*
X88220058*
X88934342Y-44685772D02*
G01X88791486Y-44614342D01*
X88720058Y-44542914*
X88648628Y-44400058*
Y-43971486*
X88720058Y-43828628*
X88791486Y-43757200*
X88934342Y-43685772*
X89148628*
X89291486Y-43757200*
X89362914Y-43828628*
X89434342Y-43971486*
Y-44400058*
X89362914Y-44542914*
X89291486Y-44614342*
X89148628Y-44685772*
X88934342*
X91005772Y-43971486D02*
G01X90934342Y-43900058D01*
X90791486Y-43828628*
X90648628*
X90505772Y-43900058*
X90434342Y-43971486*
X90362914Y-44114342*
Y-44257200*
X90434342Y-44400058*
X90505772Y-44471486*
X90648628Y-44542914*
X90791486*
X90934342Y-44471486*
X91005772Y-44400058*
Y-43828628D02*
G01Y-44400058D01*
X91077200Y-44471486*
X91148628*
X91291486Y-44400058*
X91362914Y-44257200*
Y-43900058*
X91220058Y-43685772*
X91005772Y-43542914*
X90720058Y-43471486*
X90434342Y-43542914*
X90220058Y-43685772*
X90077200Y-43900058*
X90005772Y-44185772*
X90077200Y-44471486*
X90220058Y-44685772*
X90434342Y-44828628*
X90720058Y-44900058*
X91005772Y-44828628*
X91220058Y-44685772*
X91934342Y-44614342D02*
G01X92077200Y-44685772D01*
X92362914*
X92505772Y-44614342*
X92577200Y-44471486*
Y-44400058*
X92505772Y-44257200*
X92362914Y-44185772*
X92148628*
X92005772Y-44114342*
X91934342Y-43971486*
Y-43900058*
X92005772Y-43757200*
X92148628Y-43685772*
X92362914*
X92505772Y-43757200*
X93005772Y-43685772D02*
G01X93577200D01*
X93220058Y-43185772D02*
G01Y-44471486D01*
X93291486Y-44614342*
X93434342Y-44685772*
X93577200*
X94720058Y-43685772D02*
G01Y-44685772D01*
X94077200Y-43685772D02*
G01Y-44471486D01*
X94148628Y-44614342*
X94291486Y-44685772*
X94505772*
X94648628Y-44614342*
X94720058Y-44542914*
X96077200Y-44685772D02*
G01Y-43185772D01*
Y-44614342D02*
G01X95934342Y-44685772D01*
X95648628*
X95505772Y-44614342*
X95434342Y-44542914*
X95362914Y-44400058*
Y-43971486*
X95434342Y-43828628*
X95505772Y-43757200*
X95648628Y-43685772*
X95934342*
X96077200Y-43757200*
X96791486Y-44685772D02*
G01Y-43685772D01*
Y-43185772D02*
G01X96720058Y-43257200D01*
X96791486Y-43328628*
X96862914Y-43257200*
X96791486Y-43185772*
Y-43328628*
X97720058Y-44685772D02*
G01X97577200Y-44614342D01*
X97505772Y-44542914*
X97434342Y-44400058*
Y-43971486*
X97505772Y-43828628*
X97577200Y-43757200*
X97720058Y-43685772*
X97934342*
X98077200Y-43757200*
X98148628Y-43828628*
X98220058Y-43971486*
Y-44400058*
X98148628Y-44542914*
X98077200Y-44614342*
X97934342Y-44685772*
X97720058*
X98862914Y-43685772D02*
G01Y-45185772D01*
Y-43757200D02*
G01X99005772Y-43685772D01*
X99291486*
X99434342Y-43757200*
X99505772Y-43828628*
X99577200Y-43971486*
Y-44400058*
X99505772Y-44542914*
X99434342Y-44614342*
X99291486Y-44685772*
X99005772*
X98862914Y-44614342*
X100862914Y-44685772D02*
G01Y-43900058D01*
X100791486Y-43757200*
X100648628Y-43685772*
X100362914*
X100220058Y-43757200*
X100862914Y-44614342D02*
G01X100720058Y-44685772D01*
X100362914*
X100220058Y-44614342*
X100148628Y-44471486*
Y-44328628*
X100220058Y-44185772*
X100362914Y-44114342*
X100720058*
X100862914Y-44042914*
X101791486Y-44685772D02*
G01X101648628Y-44614342D01*
X101577200Y-44471486*
Y-43185772*
X102934342Y-44614342D02*
G01X102791486Y-44685772D01*
X102505772*
X102362914Y-44614342*
X102291486Y-44471486*
Y-43900058*
X102362914Y-43757200*
X102505772Y-43685772*
X102791486*
X102934342Y-43757200*
X103005772Y-43900058*
Y-44042914*
X102291486Y-44185772*
X103862914Y-44685772D02*
G01X103720058Y-44614342D01*
X103648628Y-44542914*
X103577200Y-44400058*
Y-43971486*
X103648628Y-43828628*
X103720058Y-43757200*
X103862914Y-43685772*
X104077200*
X104220058Y-43757200*
X104291486Y-43828628*
X104362914Y-43971486*
Y-44400058*
X104291486Y-44542914*
X104220058Y-44614342*
X104077200Y-44685772*
X103862914*
X105220058D02*
G01X105077200Y-44614342D01*
X105005772Y-44471486*
Y-43185772*
X106005772Y-44685772D02*
G01X105862914Y-44614342D01*
X105791486Y-44542914*
X105720058Y-44400058*
Y-43971486*
X105791486Y-43828628*
X105862914Y-43757200*
X106005772Y-43685772*
X106220058*
X106362914Y-43757200*
X106434342Y-43828628*
X106505772Y-43971486*
Y-44400058*
X106434342Y-44542914*
X106362914Y-44614342*
X106220058Y-44685772*
X106005772*
X107791486Y-43685772D02*
G01Y-44900058D01*
X107720058Y-45042914*
X107648628Y-45114342*
X107505772Y-45185772*
X107291486*
X107148628Y-45114342*
X107791486Y-44614342D02*
G01X107648628Y-44685772D01*
X107362914*
X107220058Y-44614342*
X107148628Y-44542914*
X107077200Y-44400058*
Y-43971486*
X107148628Y-43828628*
X107220058Y-43757200*
X107362914Y-43685772*
X107648628*
X107791486Y-43757200*
X108720058Y-44685772D02*
G01X108577200Y-44614342D01*
X108505772Y-44542914*
X108434342Y-44400058*
Y-43971486*
X108505772Y-43828628*
X108577200Y-43757200*
X108720058Y-43685772*
X108934342*
X109077200Y-43757200*
X109148628Y-43828628*
X109220058Y-43971486*
Y-44400058*
X109148628Y-44542914*
X109077200Y-44614342*
X108934342Y-44685772*
X108720058*
X109862914Y-44542914D02*
G01X109934342Y-44614342D01*
X109862914Y-44685772*
X109791486Y-44614342*
X109862914Y-44542914*
Y-44685772*
X111220058Y-44614342D02*
G01X111077200Y-44685772D01*
X110791486*
X110648628Y-44614342*
X110577200Y-44542914*
X110505772Y-44400058*
Y-43971486*
X110577200Y-43828628*
X110648628Y-43757200*
X110791486Y-43685772*
X111077200*
X111220058Y-43757200*
X112077200Y-44685772D02*
G01X111934342Y-44614342D01*
X111862914Y-44542914*
X111791486Y-44400058*
Y-43971486*
X111862914Y-43828628*
X111934342Y-43757200*
X112077200Y-43685772*
X112291486*
X112434342Y-43757200*
X112505772Y-43828628*
X112577200Y-43971486*
Y-44400058*
X112505772Y-44542914*
X112434342Y-44614342*
X112291486Y-44685772*
X112077200*
X113220058D02*
G01Y-43685772D01*
Y-43828628D02*
G01X113291486Y-43757200D01*
X113434342Y-43685772*
X113648628*
X113791486Y-43757200*
X113862914Y-43900058*
Y-44685772*
Y-43900058D02*
G01X113934342Y-43757200D01*
X114077200Y-43685772*
X114291486*
X114434342Y-43757200*
X114505772Y-43900058*
Y-44685772*
X79291486Y-41542914D02*
G01X79220058Y-41614342D01*
X79005772Y-41685772*
X78862914*
X78648628Y-41614342*
X78505772Y-41471486*
X78434342Y-41328628*
X78362914Y-41042914*
Y-40828628*
X78434342Y-40542914*
X78505772Y-40400058*
X78648628Y-40257200*
X78862914Y-40185772*
X79005772*
X79220058Y-40257200*
X79291486Y-40328628*
X80505772Y-41614342D02*
G01X80362914Y-41685772D01*
X80077200*
X79934342Y-41614342*
X79862914Y-41471486*
Y-40900058*
X79934342Y-40757200*
X80077200Y-40685772*
X80362914*
X80505772Y-40757200*
X80577200Y-40900058*
Y-41042914*
X79862914Y-41185772*
X81434342Y-41685772D02*
G01X81291486Y-41614342D01*
X81220058Y-41471486*
Y-40185772*
X82220058Y-41685772D02*
G01X82077200Y-41614342D01*
X82005772Y-41471486*
Y-40185772*
X83934342Y-41114342D02*
G01X85077200D01*
X84505772Y-41685772D02*
G01Y-40542914D01*
X85648628Y-40185772D02*
G01X86577200D01*
X86077200Y-40757200*
X86291486*
X86434342Y-40828628*
X86505772Y-40900058*
X86577200Y-41042914*
Y-41400058*
X86505772Y-41542914*
X86434342Y-41614342*
X86291486Y-41685772*
X85862914*
X85720058Y-41614342*
X85648628Y-41542914*
X87291486Y-41685772D02*
G01X87577200D01*
X87720058Y-41614342*
X87791486Y-41542914*
X87934342Y-41328628*
X88005772Y-41042914*
Y-40471486*
X87934342Y-40328628*
X87862914Y-40257200*
X87720058Y-40185772*
X87434342*
X87291486Y-40257200*
X87220058Y-40328628*
X87148628Y-40471486*
Y-40828628*
X87220058Y-40971486*
X87291486Y-41042914*
X87434342Y-41114342*
X87720058*
X87862914Y-41042914*
X87934342Y-40971486*
X88005772Y-40828628*
X89648628Y-40185772D02*
G01X90577200D01*
X90077200Y-40757200*
X90291486*
X90434342Y-40828628*
X90505772Y-40900058*
X90577200Y-41042914*
Y-41400058*
X90505772Y-41542914*
X90434342Y-41614342*
X90291486Y-41685772*
X89862914*
X89720058Y-41614342*
X89648628Y-41542914*
X91148628Y-40328628D02*
G01X91220058Y-40257200D01*
X91362914Y-40185772*
X91720058*
X91862914Y-40257200*
X91934342Y-40328628*
X92005772Y-40471486*
Y-40614342*
X91934342Y-40828628*
X91077200Y-41685772*
X92005772*
X92720058D02*
G01X93005772D01*
X93148628Y-41614342*
X93220058Y-41542914*
X93362914Y-41328628*
X93434342Y-41042914*
Y-40471486*
X93362914Y-40328628*
X93291486Y-40257200*
X93148628Y-40185772*
X92862914*
X92720058Y-40257200*
X92648628Y-40328628*
X92577200Y-40471486*
Y-40828628*
X92648628Y-40971486*
X92720058Y-41042914*
X92862914Y-41114342*
X93148628*
X93291486Y-41042914*
X93362914Y-40971486*
X93434342Y-40828628*
X95862914Y-40185772D02*
G01X95577200D01*
X95434342Y-40257200*
X95362914Y-40328628*
X95220058Y-40542914*
X95148628Y-40828628*
Y-41400058*
X95220058Y-41542914*
X95291486Y-41614342*
X95434342Y-41685772*
X95720058*
X95862914Y-41614342*
X95934342Y-41542914*
X96005772Y-41400058*
Y-41042914*
X95934342Y-40900058*
X95862914Y-40828628*
X95720058Y-40757200*
X95434342*
X95291486Y-40828628*
X95220058Y-40900058*
X95148628Y-41042914*
X96505772Y-40185772D02*
G01X97505772D01*
X96862914Y-41685772*
X98720058Y-40185772D02*
G01X98434342D01*
X98291486Y-40257200*
X98220058Y-40328628*
X98077200Y-40542914*
X98005772Y-40828628*
Y-41400058*
X98077200Y-41542914*
X98148628Y-41614342*
X98291486Y-41685772*
X98577200*
X98720058Y-41614342*
X98791486Y-41542914*
X98862914Y-41400058*
Y-41042914*
X98791486Y-40900058*
X98720058Y-40828628*
X98577200Y-40757200*
X98291486*
X98148628Y-40828628*
X98077200Y-40900058*
X98005772Y-41042914*
X100577200Y-40328628D02*
G01X100648628Y-40257200D01*
X100791486Y-40185772*
X101148628*
X101291486Y-40257200*
X101362914Y-40328628*
X101434342Y-40471486*
Y-40614342*
X101362914Y-40828628*
X100505772Y-41685772*
X101434342*
X102148628D02*
G01X102434342D01*
X102577200Y-41614342*
X102648628Y-41542914*
X102791486Y-41328628*
X102862914Y-41042914*
Y-40471486*
X102791486Y-40328628*
X102720058Y-40257200*
X102577200Y-40185772*
X102291486*
X102148628Y-40257200*
X102077200Y-40328628*
X102005772Y-40471486*
Y-40828628*
X102077200Y-40971486*
X102148628Y-41042914*
X102291486Y-41114342*
X102577200*
X102720058Y-41042914*
X102791486Y-40971486*
X102862914Y-40828628*
X105362914Y-40185772D02*
G01X104648628D01*
X104577200Y-40900058*
X104648628Y-40828628*
X104791486Y-40757200*
X105148628*
X105291486Y-40828628*
X105362914Y-40900058*
X105434342Y-41042914*
Y-41400058*
X105362914Y-41542914*
X105291486Y-41614342*
X105148628Y-41685772*
X104791486*
X104648628Y-41614342*
X104577200Y-41542914*
X106791486Y-40185772D02*
G01X106077200D01*
X106005772Y-40900058*
X106077200Y-40828628*
X106220058Y-40757200*
X106577200*
X106720058Y-40828628*
X106791486Y-40900058*
X106862914Y-41042914*
Y-41400058*
X106791486Y-41542914*
X106720058Y-41614342*
X106577200Y-41685772*
X106220058*
X106077200Y-41614342*
X106005772Y-41542914*
X78220058Y-37185772D02*
G01X78720058Y-38685772D01*
X79220058Y-37185772*
X79720058Y-38685772D02*
G01Y-37685772D01*
Y-37185772D02*
G01X79648628Y-37257200D01*
X79720058Y-37328628*
X79791486Y-37257200*
X79720058Y-37185772*
Y-37328628*
X81077200Y-38685772D02*
G01Y-37900058D01*
X81005772Y-37757200*
X80862914Y-37685772*
X80577200*
X80434342Y-37757200*
X81077200Y-38614342D02*
G01X80934342Y-38685772D01*
X80577200*
X80434342Y-38614342*
X80362914Y-38471486*
Y-38328628*
X80434342Y-38185772*
X80577200Y-38114342*
X80934342*
X81077200Y-38042914*
X83648628Y-38685772D02*
G01X82934342D01*
Y-37185772*
X84791486Y-38685772D02*
G01Y-37900058D01*
X84720058Y-37757200*
X84577200Y-37685772*
X84291486*
X84148628Y-37757200*
X84791486Y-38614342D02*
G01X84648628Y-38685772D01*
X84291486*
X84148628Y-38614342*
X84077200Y-38471486*
Y-38328628*
X84148628Y-38185772*
X84291486Y-38114342*
X84648628*
X84791486Y-38042914*
X85362914Y-37685772D02*
G01X85720058Y-38685772D01*
X86077200Y-37685772*
X87291486Y-38685772D02*
G01Y-37900058D01*
X87220058Y-37757200*
X87077200Y-37685772*
X86791486*
X86648628Y-37757200*
X87291486Y-38614342D02*
G01X87148628Y-38685772D01*
X86791486*
X86648628Y-38614342*
X86577200Y-38471486*
Y-38328628*
X86648628Y-38185772*
X86791486Y-38114342*
X87148628*
X87291486Y-38042914*
X88005772Y-38685772D02*
G01Y-37685772D01*
Y-37971486D02*
G01X88077200Y-37828628D01*
X88148628Y-37757200*
X88291486Y-37685772*
X88434342*
X88934342Y-38685772D02*
G01Y-37685772D01*
Y-37185772D02*
G01X88862914Y-37257200D01*
X88934342Y-37328628*
X89005772Y-37257200*
X88934342Y-37185772*
Y-37328628*
X90291486Y-38685772D02*
G01Y-37900058D01*
X90220058Y-37757200*
X90077200Y-37685772*
X89791486*
X89648628Y-37757200*
X90291486Y-38614342D02*
G01X90148628Y-38685772D01*
X89791486*
X89648628Y-38614342*
X89577200Y-38471486*
Y-38328628*
X89648628Y-38185772*
X89791486Y-38114342*
X90148628*
X90291486Y-38042914*
X91005772Y-37685772D02*
G01Y-38685772D01*
Y-37828628D02*
G01X91077200Y-37757200D01*
X91220058Y-37685772*
X91434342*
X91577200Y-37757200*
X91648628Y-37900058*
Y-38685772*
X92577200D02*
G01X92434342Y-38614342D01*
X92362914Y-38542914*
X92291486Y-38400058*
Y-37971486*
X92362914Y-37828628*
X92434342Y-37757200*
X92577200Y-37685772*
X92791486*
X92934342Y-37757200*
X93005772Y-37828628*
X93077200Y-37971486*
Y-38400058*
X93005772Y-38542914*
X92934342Y-38614342*
X92791486Y-38685772*
X92577200*
X94791486Y-37328628D02*
G01X94862914Y-37257200D01*
X95005772Y-37185772*
X95362914*
X95505772Y-37257200*
X95577200Y-37328628*
X95648628Y-37471486*
Y-37614342*
X95577200Y-37828628*
X94720058Y-38685772*
X95648628*
X96148628Y-37185772D02*
G01X97077200D01*
X96577200Y-37757200*
X96791486*
X96934342Y-37828628*
X97005772Y-37900058*
X97077200Y-38042914*
Y-38400058*
X97005772Y-38542914*
X96934342Y-38614342*
X96791486Y-38685772*
X96362914*
X96220058Y-38614342*
X96148628Y-38542914*
X98862914Y-38114342D02*
G01X100005772D01*
X101720058Y-37185772D02*
G01X102648628D01*
X102148628Y-37757200*
X102362914*
X102505772Y-37828628*
X102577200Y-37900058*
X102648628Y-38042914*
Y-38400058*
X102577200Y-38542914*
X102505772Y-38614342*
X102362914Y-38685772*
X101934342*
X101791486Y-38614342*
X101720058Y-38542914*
X103148628Y-37185772D02*
G01X104077200D01*
X103577200Y-37757200*
X103791486*
X103934342Y-37828628*
X104005772Y-37900058*
X104077200Y-38042914*
Y-38400058*
X104005772Y-38542914*
X103934342Y-38614342*
X103791486Y-38685772*
X103362914*
X103220058Y-38614342*
X103148628Y-38542914*
X105005772Y-37185772D02*
G01X105148628D01*
X105291486Y-37257200*
X105362914Y-37328628*
X105434342Y-37471486*
X105505772Y-37757200*
Y-38114342*
X105434342Y-38400058*
X105362914Y-38542914*
X105291486Y-38614342*
X105148628Y-38685772*
X105005772*
X104862914Y-38614342*
X104791486Y-38542914*
X104720058Y-38400058*
X104648628Y-38114342*
Y-37757200*
X104720058Y-37471486*
X104791486Y-37328628*
X104862914Y-37257200*
X105005772Y-37185772*
X106862914D02*
G01X106148628D01*
X106077200Y-37900058*
X106148628Y-37828628*
X106291486Y-37757200*
X106648628*
X106791486Y-37828628*
X106862914Y-37900058*
X106934342Y-38042914*
Y-38400058*
X106862914Y-38542914*
X106791486Y-38614342*
X106648628Y-38685772*
X106291486*
X106148628Y-38614342*
X106077200Y-38542914*
X107862914Y-37185772D02*
G01X108005772D01*
X108148628Y-37257200*
X108220058Y-37328628*
X108291486Y-37471486*
X108362914Y-37757200*
Y-38114342*
X108291486Y-38400058*
X108220058Y-38542914*
X108148628Y-38614342*
X108005772Y-38685772*
X107862914*
X107720058Y-38614342*
X107648628Y-38542914*
X107577200Y-38400058*
X107505772Y-38114342*
Y-37757200*
X107577200Y-37471486*
X107648628Y-37328628*
X107720058Y-37257200*
X107862914Y-37185772*
X110148628Y-38685772D02*
G01Y-37185772D01*
X110720058*
X110862914Y-37257200*
X110934342Y-37328628*
X111005772Y-37471486*
Y-37685772*
X110934342Y-37828628*
X110862914Y-37900058*
X110720058Y-37971486*
X110148628*
X111862914Y-38685772D02*
G01X111720058Y-38614342D01*
X111648628Y-38542914*
X111577200Y-38400058*
Y-37971486*
X111648628Y-37828628*
X111720058Y-37757200*
X111862914Y-37685772*
X112077200*
X112220058Y-37757200*
X112291486Y-37828628*
X112362914Y-37971486*
Y-38400058*
X112291486Y-38542914*
X112220058Y-38614342*
X112077200Y-38685772*
X111862914*
X112862914Y-37685772D02*
G01X113648628D01*
X112862914Y-38685772*
X113648628*
X114077200Y-37685772D02*
G01X114862914D01*
X114077200Y-38685772*
X114862914*
X116077200Y-37685772D02*
G01Y-38685772D01*
X115434342Y-37685772D02*
G01Y-38471486D01*
X115505772Y-38614342*
X115648628Y-38685772*
X115862914*
X116005772Y-38614342*
X116077200Y-38542914*
X117005772Y-38685772D02*
G01X116862914Y-38614342D01*
X116791486Y-38542914*
X116720058Y-38400058*
Y-37971486*
X116791486Y-37828628*
X116862914Y-37757200*
X117005772Y-37685772*
X117220058*
X117362914Y-37757200*
X117434342Y-37828628*
X117505772Y-37971486*
Y-38400058*
X117434342Y-38542914*
X117362914Y-38614342*
X117220058Y-38685772*
X117005772*
X118362914D02*
G01X118220058Y-38614342D01*
X118148628Y-38471486*
Y-37185772*
X119148628Y-38685772D02*
G01X119005772Y-38614342D01*
X118934342Y-38542914*
X118862914Y-38400058*
Y-37971486*
X118934342Y-37828628*
X119005772Y-37757200*
X119148628Y-37685772*
X119362914*
X119505772Y-37757200*
X119577200Y-37828628*
X119648628Y-37971486*
Y-38400058*
X119577200Y-38542914*
X119505772Y-38614342*
X119362914Y-38685772*
X119148628*
X122077200D02*
G01Y-37185772D01*
Y-38614342D02*
G01X121934342Y-38685772D01*
X121648628*
X121505772Y-38614342*
X121434342Y-38542914*
X121362914Y-38400058*
Y-37971486*
X121434342Y-37828628*
X121505772Y-37757200*
X121648628Y-37685772*
X121934342*
X122077200Y-37757200*
X123362914Y-38614342D02*
G01X123220058Y-38685772D01*
X122934342*
X122791486Y-38614342*
X122720058Y-38471486*
Y-37900058*
X122791486Y-37757200*
X122934342Y-37685772*
X123220058*
X123362914Y-37757200*
X123434342Y-37900058*
Y-38042914*
X122720058Y-38185772*
X124291486Y-38685772D02*
G01X124148628Y-38614342D01*
X124077200Y-38471486*
Y-37185772*
X126505772Y-37900058D02*
G01X126005772D01*
Y-38685772D02*
G01Y-37185772D01*
X126720058*
X127291486Y-38685772D02*
G01Y-37685772D01*
Y-37971486D02*
G01X127362914Y-37828628D01*
X127434342Y-37757200*
X127577200Y-37685772*
X127720058*
X128220058Y-38685772D02*
G01Y-37685772D01*
Y-37185772D02*
G01X128148628Y-37257200D01*
X128220058Y-37328628*
X128291486Y-37257200*
X128220058Y-37185772*
Y-37328628*
X129577200Y-37685772D02*
G01Y-38685772D01*
X128934342Y-37685772D02*
G01Y-38471486D01*
X129005772Y-38614342*
X129148628Y-38685772*
X129362914*
X129505772Y-38614342*
X129577200Y-38542914*
X130505772Y-38685772D02*
G01X130362914Y-38614342D01*
X130291486Y-38471486*
Y-37185772*
X131077200Y-38685772D02*
G01Y-37685772D01*
Y-37185772D02*
G01X131005772Y-37257200D01*
X131077200Y-37328628*
X131148628Y-37257200*
X131077200Y-37185772*
Y-37328628*
X133362914Y-39257200D02*
G01X133291486Y-39185772D01*
X133148628Y-38971486*
X133077200Y-38828628*
X133005772Y-38614342*
X132934342Y-38257200*
Y-37971486*
X133005772Y-37614342*
X133077200Y-37400058*
X133148628Y-37257200*
X133291486Y-37042914*
X133362914Y-36971486*
X133934342Y-37185772D02*
G01Y-38400058D01*
X134005772Y-38542914*
X134077200Y-38614342*
X134220058Y-38685772*
X134505772*
X134648628Y-38614342*
X134720058Y-38542914*
X134791486Y-38400058*
Y-37185772*
X135505772Y-38685772D02*
G01Y-37185772D01*
X135862914*
X136077200Y-37257200*
X136220058Y-37400058*
X136291486Y-37542914*
X136362914Y-37828628*
Y-38042914*
X136291486Y-38328628*
X136220058Y-38471486*
X136077200Y-38614342*
X135862914Y-38685772*
X135505772*
X136862914Y-39257200D02*
G01X136934342Y-39185772D01*
X137077200Y-38971486*
X137148628Y-38828628*
X137220058Y-38614342*
X137291486Y-38257200*
Y-37971486*
X137220058Y-37614342*
X137148628Y-37400058*
X137077200Y-37257200*
X136934342Y-37042914*
X136862914Y-36971486*
X78432342Y-47685772D02*
G01Y-46185772D01*
X79003772*
X79146628Y-46257200*
X79218058Y-46328628*
X79289486Y-46471486*
Y-46685772*
X79218058Y-46828628*
X79146628Y-46900058*
X79003772Y-46971486*
X78432342*
X79932342Y-47542914D02*
G01X80003772Y-47614342D01*
X79932342Y-47685772*
X79860914Y-47614342*
X79932342Y-47542914*
Y-47685772*
X80646628D02*
G01Y-46185772D01*
X81146628D02*
G01X81646628Y-47685772D01*
X82146628Y-46185772*
X82575200Y-47257200D02*
G01X83289486D01*
X82432342Y-47685772D02*
G01X82932342Y-46185772D01*
X83432342Y-47685772*
X83932342Y-47542914D02*
G01X84003772Y-47614342D01*
X83932342Y-47685772*
X83860914Y-47614342*
X83932342Y-47542914*
Y-47685772*
X86575200D02*
G01X85718058D01*
X86146628D02*
G01Y-46185772D01*
X86003772Y-46400058*
X85860914Y-46542914*
X85718058Y-46614342*
X87503772Y-46185772D02*
G01X87646628D01*
X87789486Y-46257200*
X87860914Y-46328628*
X87932342Y-46471486*
X88003772Y-46757200*
Y-47114342*
X87932342Y-47400058*
X87860914Y-47542914*
X87789486Y-47614342*
X87646628Y-47685772*
X87503772*
X87360914Y-47614342*
X87289486Y-47542914*
X87218058Y-47400058*
X87146628Y-47114342*
Y-46757200*
X87218058Y-46471486*
X87289486Y-46328628*
X87360914Y-46257200*
X87503772Y-46185772*
X89360914D02*
G01X88646628D01*
X88575200Y-46900058*
X88646628Y-46828628*
X88789486Y-46757200*
X89146628*
X89289486Y-46828628*
X89360914Y-46900058*
X89432342Y-47042914*
Y-47400058*
X89360914Y-47542914*
X89289486Y-47614342*
X89146628Y-47685772*
X88789486*
X88646628Y-47614342*
X88575200Y-47542914*
X90289486Y-46828628D02*
G01X90146628Y-46757200D01*
X90075200Y-46685772*
X90003772Y-46542914*
Y-46471486*
X90075200Y-46328628*
X90146628Y-46257200*
X90289486Y-46185772*
X90575200*
X90718058Y-46257200*
X90789486Y-46328628*
X90860914Y-46471486*
Y-46542914*
X90789486Y-46685772*
X90718058Y-46757200*
X90575200Y-46828628*
X90289486*
X90146628Y-46900058*
X90075200Y-46971486*
X90003772Y-47114342*
Y-47400058*
X90075200Y-47542914*
X90146628Y-47614342*
X90289486Y-47685772*
X90575200*
X90718058Y-47614342*
X90789486Y-47542914*
X90860914Y-47400058*
Y-47114342*
X90789486Y-46971486*
X90718058Y-46900058*
X90575200Y-46828628*
X91360914Y-46185772D02*
G01X92360914D01*
X91718058Y-47685772*
X93146628Y-46828628D02*
G01X93003772Y-46757200D01*
X92932342Y-46685772*
X92860914Y-46542914*
Y-46471486*
X92932342Y-46328628*
X93003772Y-46257200*
X93146628Y-46185772*
X93432342*
X93575200Y-46257200*
X93646628Y-46328628*
X93718058Y-46471486*
Y-46542914*
X93646628Y-46685772*
X93575200Y-46757200*
X93432342Y-46828628*
X93146628*
X93003772Y-46900058*
X92932342Y-46971486*
X92860914Y-47114342*
Y-47400058*
X92932342Y-47542914*
X93003772Y-47614342*
X93146628Y-47685772*
X93432342*
X93575200Y-47614342*
X93646628Y-47542914*
X93718058Y-47400058*
Y-47114342*
X93646628Y-46971486*
X93575200Y-46900058*
X93432342Y-46828628*
X94575200D02*
G01X94432342Y-46757200D01*
X94360914Y-46685772*
X94289486Y-46542914*
Y-46471486*
X94360914Y-46328628*
X94432342Y-46257200*
X94575200Y-46185772*
X94860914*
X95003772Y-46257200*
X95075200Y-46328628*
X95146628Y-46471486*
Y-46542914*
X95075200Y-46685772*
X95003772Y-46757200*
X94860914Y-46828628*
X94575200*
X94432342Y-46900058*
X94360914Y-46971486*
X94289486Y-47114342*
Y-47400058*
X94360914Y-47542914*
X94432342Y-47614342*
X94575200Y-47685772*
X94860914*
X95003772Y-47614342*
X95075200Y-47542914*
X95146628Y-47400058*
Y-47114342*
X95075200Y-46971486*
X95003772Y-46900058*
X94860914Y-46828628*
X96075200Y-46185772D02*
G01X96218058D01*
X96360914Y-46257200*
X96432342Y-46328628*
X96503772Y-46471486*
X96575200Y-46757200*
Y-47114342*
X96503772Y-47400058*
X96432342Y-47542914*
X96360914Y-47614342*
X96218058Y-47685772*
X96075200*
X95932342Y-47614342*
X95860914Y-47542914*
X95789486Y-47400058*
X95718058Y-47114342*
Y-46757200*
X95789486Y-46471486*
X95860914Y-46328628*
X95932342Y-46257200*
X96075200Y-46185772*
X97503772D02*
G01X97646628D01*
X97789486Y-46257200*
X97860914Y-46328628*
X97932342Y-46471486*
X98003772Y-46757200*
Y-47114342*
X97932342Y-47400058*
X97860914Y-47542914*
X97789486Y-47614342*
X97646628Y-47685772*
X97503772*
X97360914Y-47614342*
X97289486Y-47542914*
X97218058Y-47400058*
X97146628Y-47114342*
Y-46757200*
X97218058Y-46471486*
X97289486Y-46328628*
X97360914Y-46257200*
X97503772Y-46185772*
X99432342Y-47685772D02*
G01X98575200D01*
X99003772D02*
G01Y-46185772D01*
X98860914Y-46400058*
X98718058Y-46542914*
X98575200Y-46614342*
X99932342Y-46185772D02*
G01X100860914D01*
X100360914Y-46757200*
X100575200*
X100718058Y-46828628*
X100789486Y-46900058*
X100860914Y-47042914*
Y-47400058*
X100789486Y-47542914*
X100718058Y-47614342*
X100575200Y-47685772*
X100146628*
X100003772Y-47614342*
X99932342Y-47542914*
G54D13*
X78643152Y-35816724D02*
G01X78928866Y-35911962D01*
X79405058*
X79595534Y-35816724*
X79690772Y-35721486*
X79786010Y-35531010*
Y-35340534*
X79690772Y-35150058*
X79595534Y-35054820*
X79405058Y-34959580*
X79024104Y-34864342*
X78833628Y-34769104*
X78738390Y-34673866*
X78643152Y-34483390*
Y-34292914*
X78738390Y-34102438*
X78833628Y-34007200*
X79024104Y-33911962*
X79500296*
X79786010Y-34007200*
X80357438Y-34578628D02*
G01X81119342D01*
X80643152Y-33911962D02*
G01Y-35626248D01*
X80738390Y-35816724*
X80928866Y-35911962*
X81119342*
X82643152Y-34578628D02*
G01Y-35911962D01*
X81786010Y-34578628D02*
G01Y-35626248D01*
X81881248Y-35816724*
X82071724Y-35911962*
X82357438*
X82547914Y-35816724*
X82643152Y-35721486*
X84452676Y-35911962D02*
G01Y-33911962D01*
Y-35816724D02*
G01X84262200Y-35911962D01*
X83881248*
X83690772Y-35816724*
X83595534Y-35721486*
X83500296Y-35531010*
Y-34959580*
X83595534Y-34769104*
X83690772Y-34673866*
X83881248Y-34578628*
X84262200*
X84452676Y-34673866*
X85405058Y-35911962D02*
G01Y-34578628D01*
Y-33911962D02*
G01X85309820Y-34007200D01*
X85405058Y-34102438*
X85500296Y-34007200*
X85405058Y-33911962*
Y-34102438*
X86643152Y-35911962D02*
G01X86452676Y-35816724D01*
X86357438Y-35721486*
X86262200Y-35531010*
Y-34959580*
X86357438Y-34769104*
X86452676Y-34673866*
X86643152Y-34578628*
X86928866*
X87119342Y-34673866*
X87214580Y-34769104*
X87309820Y-34959580*
Y-35531010*
X87214580Y-35721486*
X87119342Y-35816724*
X86928866Y-35911962*
X86643152*
X89690772D02*
G01Y-33911962D01*
X90452676*
X90643152Y-34007200*
X90738390Y-34102438*
X90833628Y-34292914*
Y-34578628*
X90738390Y-34769104*
X90643152Y-34864342*
X90452676Y-34959580*
X89690772*
X92547914Y-35911962D02*
G01Y-34864342D01*
X92452676Y-34673866*
X92262200Y-34578628*
X91881248*
X91690772Y-34673866*
X92547914Y-35816724D02*
G01X92357438Y-35911962D01*
X91881248*
X91690772Y-35816724*
X91595534Y-35626248*
Y-35435772*
X91690772Y-35245296*
X91881248Y-35150058*
X92357438*
X92547914Y-35054820*
X93786010Y-35911962D02*
G01X93595534Y-35816724D01*
X93500296Y-35626248*
Y-33911962*
X95309820Y-35816724D02*
G01X95119342Y-35911962D01*
X94738390*
X94547914Y-35816724*
X94452676Y-35626248*
Y-34864342*
X94547914Y-34673866*
X94738390Y-34578628*
X95119342*
X95309820Y-34673866*
X95405058Y-34864342*
Y-35054820*
X94452676Y-35245296*
X96547914Y-35911962D02*
G01X96357438Y-35816724D01*
X96262200Y-35721486*
X96166962Y-35531010*
Y-34959580*
X96262200Y-34769104*
X96357438Y-34673866*
X96547914Y-34578628*
X96833628*
X97024104Y-34673866*
X97119342Y-34769104*
X97214580Y-34959580*
Y-35531010*
X97119342Y-35721486*
X97024104Y-35816724*
X96833628Y-35911962*
X96547914*
X98357438D02*
G01X98166962Y-35816724D01*
X98071724Y-35626248*
Y-33911962*
X99405058Y-35911962D02*
G01X99214580Y-35816724D01*
X99119342Y-35721486*
X99024104Y-35531010*
Y-34959580*
X99119342Y-34769104*
X99214580Y-34673866*
X99405058Y-34578628*
X99690772*
X99881248Y-34673866*
X99976486Y-34769104*
X100071724Y-34959580*
Y-35531010*
X99976486Y-35721486*
X99881248Y-35816724*
X99690772Y-35911962*
X99405058*
X101786010Y-34578628D02*
G01Y-36197676D01*
X101690772Y-36388152*
X101595534Y-36483390*
X101405058Y-36578628*
X101119342*
X100928866Y-36483390*
X101786010Y-35816724D02*
G01X101595534Y-35911962D01*
X101214580*
X101024104Y-35816724*
X100928866Y-35721486*
X100833628Y-35531010*
Y-34959580*
X100928866Y-34769104*
X101024104Y-34673866*
X101214580Y-34578628*
X101595534*
X101786010Y-34673866*
X103024104Y-35911962D02*
G01X102833628Y-35816724D01*
X102738390Y-35721486*
X102643152Y-35531010*
Y-34959580*
X102738390Y-34769104*
X102833628Y-34673866*
X103024104Y-34578628*
X103309820*
X103500296Y-34673866*
X103595534Y-34769104*
X103690772Y-34959580*
Y-35531010*
X103595534Y-35721486*
X103500296Y-35816724*
X103309820Y-35911962*
X103024104*
X106928866D02*
G01Y-33911962D01*
Y-35816724D02*
G01X106738390Y-35911962D01*
X106357438*
X106166962Y-35816724*
X106071724Y-35721486*
X105976486Y-35531010*
Y-34959580*
X106071724Y-34769104*
X106166962Y-34673866*
X106357438Y-34578628*
X106738390*
X106928866Y-34673866*
X107881248Y-35911962D02*
G01Y-34578628D01*
Y-33911962D02*
G01X107786010Y-34007200D01*
X107881248Y-34102438*
X107976486Y-34007200*
X107881248Y-33911962*
Y-34102438*
X110262200Y-35340534D02*
G01X111214580D01*
X110071724Y-35911962D02*
G01X110738390Y-33911962D01*
X111405058Y-35911962*
X112071724Y-34578628D02*
G01Y-35911962D01*
Y-34769104D02*
G01X112166962Y-34673866D01*
X112357438Y-34578628*
X112643152*
X112833628Y-34673866*
X112928866Y-34864342*
Y-35911962*
X114738390D02*
G01Y-33911962D01*
Y-35816724D02*
G01X114547914Y-35911962D01*
X114166962*
X113976486Y-35816724*
X113881248Y-35721486*
X113786010Y-35531010*
Y-34959580*
X113881248Y-34769104*
X113976486Y-34673866*
X114166962Y-34578628*
X114547914*
X114738390Y-34673866*
X115690772Y-35911962D02*
G01Y-34578628D01*
Y-34959580D02*
G01X115786010Y-34769104D01*
X115881248Y-34673866*
X116071724Y-34578628*
X116262200*
X117690772Y-35816724D02*
G01X117500296Y-35911962D01*
X117119342*
X116928866Y-35816724*
X116833628Y-35626248*
Y-34864342*
X116928866Y-34673866*
X117119342Y-34578628*
X117500296*
X117690772Y-34673866*
X117786010Y-34864342*
Y-35054820*
X116833628Y-35245296*
X119500296Y-35911962D02*
G01Y-34864342D01*
X119405058Y-34673866*
X119214580Y-34578628*
X118833628*
X118643152Y-34673866*
X119500296Y-35816724D02*
G01X119309820Y-35911962D01*
X118833628*
X118643152Y-35816724*
X118547914Y-35626248*
Y-35435772*
X118643152Y-35245296*
X118833628Y-35150058*
X119309820*
X119500296Y-35054820*
X121976486Y-35911962D02*
G01Y-33911962D01*
X122738390*
X122928866Y-34007200*
X123024104Y-34102438*
X123119342Y-34292914*
Y-34578628*
X123024104Y-34769104*
X122928866Y-34864342*
X122738390Y-34959580*
X121976486*
X124833628Y-35911962D02*
G01Y-34864342D01*
X124738390Y-34673866*
X124547914Y-34578628*
X124166962*
X123976486Y-34673866*
X124833628Y-35816724D02*
G01X124643152Y-35911962D01*
X124166962*
X123976486Y-35816724*
X123881248Y-35626248*
Y-35435772*
X123976486Y-35245296*
X124166962Y-35150058*
X124643152*
X124833628Y-35054820*
X126071724Y-35911962D02*
G01X125881248Y-35816724D01*
X125786010Y-35626248*
Y-33911962*
X127595534Y-35816724D02*
G01X127405058Y-35911962D01*
X127024104*
X126833628Y-35816724*
X126738390Y-35626248*
Y-34864342*
X126833628Y-34673866*
X127024104Y-34578628*
X127405058*
X127595534Y-34673866*
X127690772Y-34864342*
Y-35054820*
X126738390Y-35245296*
X128833628Y-35911962D02*
G01X128643152Y-35816724D01*
X128547914Y-35721486*
X128452676Y-35531010*
Y-34959580*
X128547914Y-34769104*
X128643152Y-34673866*
X128833628Y-34578628*
X129119342*
X129309820Y-34673866*
X129405058Y-34769104*
X129500296Y-34959580*
Y-35531010*
X129405058Y-35721486*
X129309820Y-35816724*
X129119342Y-35911962*
X128833628*
X130643152D02*
G01X130452676Y-35816724D01*
X130357438Y-35626248*
Y-33911962*
X131690772Y-35911962D02*
G01X131500296Y-35816724D01*
X131405058Y-35721486*
X131309820Y-35531010*
Y-34959580*
X131405058Y-34769104*
X131500296Y-34673866*
X131690772Y-34578628*
X131976486*
X132166960Y-34673866*
X132262200Y-34769104*
X132357438Y-34959580*
Y-35531010*
X132262200Y-35721486*
X132166960Y-35816724*
X131976486Y-35911962*
X131690772*
X134071722Y-34578628D02*
G01Y-36197676D01*
X133976486Y-36388152*
X133881248Y-36483390*
X133690772Y-36578628*
X133405058*
X133214580Y-36483390*
X134071722Y-35816724D02*
G01X133881248Y-35911962D01*
X133500296*
X133309820Y-35816724*
X133214580Y-35721486*
X133119342Y-35531010*
Y-34959580*
X133214580Y-34769104*
X133309820Y-34673866*
X133500296Y-34578628*
X133881248*
X134071722Y-34673866*
X135309820Y-35911962D02*
G01X135119342Y-35816724D01*
X135024104Y-35721486*
X134928866Y-35531010*
Y-34959580*
X135024104Y-34769104*
X135119342Y-34673866*
X135309820Y-34578628*
X135595534*
X135786010Y-34673866*
X135881248Y-34769104*
X135976486Y-34959580*
Y-35531010*
X135881248Y-35721486*
X135786010Y-35816724*
X135595534Y-35911962*
X135309820*
G54D11*
X97002200Y-58507200D02*
G01Y-61507200D01*
X161002200Y-58507200D02*
G01Y-65007200D01*
G54D12*
X78973580Y-52476248D02*
G01Y-50776248D01*
X79925962*
X80497390Y-50857200*
X80878342Y-51019104*
X81068820Y-51181010*
X81259296Y-51504820*
Y-51747676*
X81068820Y-52071486*
X80878342Y-52233390*
X80497390Y-52395296*
X79925962Y-52476248*
X78973580*
X82973580D02*
G01Y-50776248D01*
X84687866Y-52395296D02*
G01X85259296Y-52476248D01*
X86211676*
X86592628Y-52395296*
X86783104Y-52314342*
X86973580Y-52152438*
Y-51990534*
X86783104Y-51828628*
X86592628Y-51747676*
X86211676Y-51666724*
X85449772Y-51585772*
X85068820Y-51504820*
X84878342Y-51423866*
X84687866Y-51261962*
Y-51100058*
X84878342Y-50938152*
X85068820Y-50857200*
X85449772Y-50776248*
X86402152*
X86973580Y-50857200*
X88687866Y-51585772D02*
G01X90021200D01*
X90592628Y-52476248D02*
G01X88687866D01*
Y-50776248*
X90592628*
X94402152Y-50857200D02*
G01X94021200Y-50776248D01*
X93449772*
X92878342Y-50857200*
X92497390Y-51019104*
X92306914Y-51181010*
X92116438Y-51504820*
Y-51747676*
X92306914Y-52071486*
X92497390Y-52233390*
X92878342Y-52395296*
X93449772Y-52476248*
X93830724*
X94402152Y-52395296*
X94592628Y-52314342*
Y-51747676*
X93830724*
X96306914Y-52476248D02*
G01Y-50776248D01*
X98592628Y-52476248*
Y-50776248*
X101259296D02*
G01X102021200D01*
X102402152Y-50857200*
X102783104Y-51019104*
X102973580Y-51342914*
Y-51909580*
X102783104Y-52233390*
X102402152Y-52395296*
X102021200Y-52476248*
X101259296*
X100878342Y-52395296*
X100497390Y-52233390*
X100306914Y-51909580*
Y-51342914*
X100497390Y-51019104*
X100878342Y-50857200*
X101259296Y-50776248*
X107164058D02*
G01X108497390Y-52476248D01*
X109830724Y-50776248*
X111164058Y-52476248D02*
G01Y-50776248D01*
X112878342Y-52395296D02*
G01X113449772Y-52476248D01*
X114402152*
X114783104Y-52395296*
X114973580Y-52314342*
X115164058Y-52152438*
Y-51990534*
X114973580Y-51828628*
X114783104Y-51747676*
X114402152Y-51666724*
X113640248Y-51585772*
X113259296Y-51504820*
X113068820Y-51423866*
X112878342Y-51261962*
Y-51100058*
X113068820Y-50938152*
X113259296Y-50857200*
X113640248Y-50776248*
X114592628*
X115164058Y-50857200*
X116306914Y-50776248D02*
G01X118592628D01*
X117449772Y-52476248D02*
G01Y-50776248D01*
X119735486Y-51990534D02*
G01X121640248D01*
X119354534Y-52476248D02*
G01X120687866Y-50776248D01*
X122021200Y-52476248*
X128306914D02*
G01X126402152D01*
Y-50776248*
X129449772Y-51990534D02*
G01X131354534D01*
X129068818Y-52476248D02*
G01X130402152Y-50776248D01*
X131735486Y-52476248*
X132497390Y-50776248D02*
G01X134783104D01*
X133640246Y-52476248D02*
G01Y-50776248D01*
X136878342D02*
G01X137640248D01*
X138021200Y-50857200*
X138402152Y-51019104*
X138592628Y-51342914*
Y-51909580*
X138402152Y-52233390*
X138021200Y-52395296*
X137640248Y-52476248*
X136878342*
X136497390Y-52395296*
X136116438Y-52233390*
X135925962Y-51909580*
Y-51342914*
X136116438Y-51019104*
X136497390Y-50857200*
X136878342Y-50776248*
X142783104D02*
G01X145068820D01*
X143925962Y-52476248D02*
G01Y-50776248D01*
X147164058D02*
G01X147925962D01*
X148306914Y-50857200*
X148687866Y-51019104*
X148878342Y-51342914*
Y-51909580*
X148687866Y-52233390*
X148306914Y-52395296*
X147925962Y-52476248*
X147164058*
X146783104Y-52395296*
X146402152Y-52233390*
X146211676Y-51909580*
Y-51342914*
X146402152Y-51019104*
X146783104Y-50857200*
X147164058Y-50776248*
X150592628Y-52476248D02*
G01Y-50776248D01*
X152116438*
X152497390Y-50857200*
X152687866Y-50938152*
X152878342Y-51100058*
Y-51342914*
X152687866Y-51504820*
X152497390Y-51585772*
X152116438Y-51666724*
X150592628*
G54D15*
X113580714Y46692858D02*
G01X113795000Y46621430D01*
X114152142*
X114295000Y46692858*
X114366428Y46764286*
X114437858Y46907144*
Y47050000*
X114366428Y47192858*
X114295000Y47264286*
X114152142Y47335716*
X113866428Y47407144*
X113723572Y47478572*
X113652142Y47550000*
X113580714Y47692858*
Y47835716*
X113652142Y47978572*
X113723572Y48050000*
X113866428Y48121430*
X114223572*
X114437858Y48050000*
X115366428Y48121430D02*
G01X115652142D01*
X115795000Y48050000*
X115937858Y47907144*
X116009286Y47621430*
Y47121430*
X115937858Y46835716*
X115795000Y46692858*
X115652142Y46621430*
X115366428*
X115223572Y46692858*
X115080714Y46835716*
X115009286Y47121430*
Y47621430*
X115080714Y47907144*
X115223572Y48050000*
X115366428Y48121430*
X117366428Y46621430D02*
G01X116652142D01*
Y48121430*
X117866428Y46621430D02*
G01Y48121430D01*
X118223572*
X118437858Y48050000*
X118580714Y47907144*
X118652142Y47764286*
X118723572Y47478572*
Y47264286*
X118652142Y46978572*
X118580714Y46835716*
X118437858Y46692858*
X118223572Y46621430*
X117866428*
X119366428Y47407144D02*
G01X119866428D01*
X120080714Y46621430D02*
G01X119366428D01*
Y48121430*
X120080714*
X121580714Y46621430D02*
G01X121080714Y47335716D01*
X120723572Y46621430D02*
G01Y48121430D01*
X121295000*
X121437858Y48050000*
X121509286Y47978572*
X121580714Y47835716*
Y47621430*
X121509286Y47478572*
X121437858Y47407144*
X121295000Y47335716*
X120723572*
X122223572Y46621430D02*
G01Y48121430D01*
X122795000*
X122937858Y48050000*
X123009286Y47978572*
X123080714Y47835716*
Y47621430*
X123009286Y47478572*
X122937858Y47407144*
X122795000Y47335716*
X122223572*
X123652142Y47050000D02*
G01X124366428D01*
X123509286Y46621430D02*
G01X124009286Y48121430D01*
X124509286Y46621430*
X124937858Y46692858D02*
G01X125152142Y46621430D01*
X125509286*
X125652142Y46692858*
X125723572Y46764286*
X125795000Y46907144*
Y47050000*
X125723572Y47192858*
X125652142Y47264286*
X125509286Y47335716*
X125223572Y47407144*
X125080714Y47478572*
X125009286Y47550000*
X124937858Y47692858*
Y47835716*
X125009286Y47978572*
X125080714Y48050000*
X125223572Y48121430*
X125580714*
X125795000Y48050000*
X126223572Y48121430D02*
G01X127080714D01*
X126652142Y46621430D02*
G01Y48121430D01*
X127580714Y47407144D02*
G01X128080714D01*
X128295000Y46621430D02*
G01X127580714D01*
Y48121430*
X128295000*
X130580714Y47407144D02*
G01X130795000Y47335716D01*
X130866428Y47264286*
X130937858Y47121430*
Y46907144*
X130866428Y46764286*
X130795000Y46692858*
X130652142Y46621430*
X130080714*
Y48121430*
X130580714*
X130723572Y48050000*
X130795000Y47978572*
X130866428Y47835716*
Y47692858*
X130795000Y47550000*
X130723572Y47478572*
X130580714Y47407144*
X130080714*
X131866428Y48121430D02*
G01X132152142D01*
X132295000Y48050000*
X132437858Y47907144*
X132509286Y47621430*
Y47121430*
X132437858Y46835716*
X132295000Y46692858*
X132152142Y46621430*
X131866428*
X131723572Y46692858*
X131580714Y46835716*
X131509286Y47121430*
Y47621430*
X131580714Y47907144*
X131723572Y48050000*
X131866428Y48121430*
X132937858D02*
G01X133795000D01*
X133366428Y46621430D02*
G01Y48121430D01*
X134080714D02*
G01X134937858D01*
X134509286Y46621430D02*
G01Y48121430D01*
X135723572D02*
G01X136009286D01*
X136152142Y48050000*
X136295000Y47907144*
X136366428Y47621430*
Y47121430*
X136295000Y46835716*
X136152142Y46692858*
X136009286Y46621430*
X135723572*
X135580714Y46692858*
X135437858Y46835716*
X135366428Y47121430*
Y47621430*
X135437858Y47907144*
X135580714Y48050000*
X135723572Y48121430*
X137009286Y46621430D02*
G01Y48121430D01*
X137509286Y47050000*
X138009286Y48121430*
Y46621430*
G54D11*
X47000000Y4500000D02*
G01X46977210Y4760472D01*
X46909538Y5013030*
X46799038Y5250000*
X46649066Y5464180*
X46464180Y5649066*
X46250000Y5799038*
X46013030Y5909538*
X45760472Y5977210*
X45500000Y6000000*
X28500000D02*
G01X28239526Y5977210D01*
X27986968Y5909538*
X27750000Y5799038*
X27535818Y5649066*
X27350932Y5464180*
X27200960Y5250000*
X27090460Y5013030*
X27022788Y4760472*
X27000000Y4500000*
X0Y64000000D02*
G01Y0D01*
X110000000Y64000000D02*
G01X0D01*
X110000000Y0D02*
G01Y64000000D01*
X47000000Y0D02*
G01X110000000D01*
X47000000Y4500000D02*
G01Y0D01*
X28500000Y6000000D02*
G01X45500000D01*
X27000000Y0D02*
G01Y4500000D01*
X0Y0D02*
G01X27000000D01*
M02*
