G04 #@! TF.GenerationSoftware,KiCad,Pcbnew,(5.1.7)-1*
G04 #@! TF.CreationDate,2020-12-03T10:55:37+01:00*
G04 #@! TF.ProjectId,C-0241-05,432d3032-3431-42d3-9035-2e6b69636164,rev?*
G04 #@! TF.SameCoordinates,PX5f5e100PY7ed6b40*
G04 #@! TF.FileFunction,Legend,Top*
G04 #@! TF.FilePolarity,Positive*
%FSLAX46Y46*%
G04 Gerber Fmt 4.6, Leading zero omitted, Abs format (unit mm)*
G04 Created by KiCad (PCBNEW (5.1.7)-1) date 2020-12-03 10:55:37*
%MOMM*%
%LPD*%
G01*
G04 APERTURE LIST*
%ADD10C,0.100000*%
%ADD11C,0.150000*%
%ADD12C,0.340000*%
%ADD13C,0.400000*%
%ADD14C,0.300000*%
G04 #@! TA.AperFunction,Profile*
%ADD15C,0.150000*%
G04 #@! TD*
%ADD16C,2.602000*%
%ADD17C,1.602000*%
%ADD18O,4.102000X2.102000*%
%ADD19O,6.102000X3.102000*%
%ADD20C,3.000000*%
%ADD21C,6.102000*%
%ADD22C,5.302000*%
%ADD23C,5.102000*%
%ADD24C,1.672000*%
%ADD25C,1.802000*%
%ADD26O,1.702000X1.702000*%
%ADD27O,1.802000X1.802000*%
%ADD28C,1.302000*%
%ADD29O,1.202000X1.702000*%
%ADD30C,1.102000*%
%ADD31O,0.902000X1.102000*%
%ADD32O,1.602000X2.102000*%
G04 APERTURE END LIST*
D10*
D11*
X77002200Y-33007200D02*
X77002200Y-65007200D01*
X185002200Y-65007200D01*
X185002200Y-33007200D01*
X77002200Y-33007200D01*
D10*
D11*
X-90000000Y123000000D02*
X-90000000Y-67007200D01*
X187002200Y-67007200D01*
X187002200Y123000000D01*
X-90000000Y123000000D01*
D10*
D11*
X-88000000Y121000000D02*
X-88000000Y-65007200D01*
X185002200Y-65007200D01*
X185002200Y121000000D01*
X-88000000Y121000000D01*
D10*
D11*
X-40000000Y121000000D02*
X-40000000Y123000000D01*
D10*
D11*
X10000000Y121000000D02*
X10000000Y123000000D01*
D10*
D11*
X60000000Y121000000D02*
X60000000Y123000000D01*
D10*
D11*
X110000000Y121000000D02*
X110000000Y123000000D01*
D10*
D11*
X160000000Y121000000D02*
X160000000Y123000000D01*
D10*
D11*
X-63934524Y121411905D02*
X-64677381Y121411905D01*
X-64305953Y121411905D02*
X-64305953Y122711905D01*
X-64429762Y122526191D01*
X-64553572Y122402381D01*
X-64677381Y122340477D01*
D10*
D11*
X-14677381Y122588096D02*
X-14615477Y122650000D01*
X-14491667Y122711905D01*
X-14182143Y122711905D01*
X-14058334Y122650000D01*
X-13996429Y122588096D01*
X-13934524Y122464286D01*
X-13934524Y122340477D01*
X-13996429Y122154762D01*
X-14739286Y121411905D01*
X-13934524Y121411905D01*
D10*
D11*
X35260714Y122711905D02*
X36065476Y122711905D01*
X35632142Y122216667D01*
X35817857Y122216667D01*
X35941666Y122154762D01*
X36003571Y122092858D01*
X36065476Y121969048D01*
X36065476Y121659524D01*
X36003571Y121535715D01*
X35941666Y121473810D01*
X35817857Y121411905D01*
X35446428Y121411905D01*
X35322619Y121473810D01*
X35260714Y121535715D01*
D10*
D11*
X85941666Y122278572D02*
X85941666Y121411905D01*
X85632142Y122773810D02*
X85322619Y121845239D01*
X86127380Y121845239D01*
D10*
D11*
X136003571Y122711905D02*
X135384523Y122711905D01*
X135322619Y122092858D01*
X135384523Y122154762D01*
X135508333Y122216667D01*
X135817857Y122216667D01*
X135941666Y122154762D01*
X136003571Y122092858D01*
X136065476Y121969048D01*
X136065476Y121659524D01*
X136003571Y121535715D01*
X135941666Y121473810D01*
X135817857Y121411905D01*
X135508333Y121411905D01*
X135384523Y121473810D01*
X135322619Y121535715D01*
D10*
D11*
X185941666Y122711905D02*
X185694047Y122711905D01*
X185570238Y122650000D01*
X185508333Y122588096D01*
X185384523Y122402381D01*
X185322619Y122154762D01*
X185322619Y121659524D01*
X185384523Y121535715D01*
X185446428Y121473810D01*
X185570238Y121411905D01*
X185817857Y121411905D01*
X185941666Y121473810D01*
X186003571Y121535715D01*
X186065476Y121659524D01*
X186065476Y121969048D01*
X186003571Y122092858D01*
X185941666Y122154762D01*
X185817857Y122216667D01*
X185570238Y122216667D01*
X185446428Y122154762D01*
X185384523Y122092858D01*
X185322619Y121969048D01*
D10*
D11*
X-40000000Y-65007200D02*
X-40000000Y-67007200D01*
D10*
D11*
X10000000Y-65007200D02*
X10000000Y-67007200D01*
D10*
D11*
X60000000Y-65007200D02*
X60000000Y-67007200D01*
D10*
D11*
X110000000Y-65007200D02*
X110000000Y-67007200D01*
D10*
D11*
X160000000Y-65007200D02*
X160000000Y-67007200D01*
D10*
D11*
X-63934524Y-66595295D02*
X-64677381Y-66595295D01*
X-64305953Y-66595295D02*
X-64305953Y-65295295D01*
X-64429762Y-65481009D01*
X-64553572Y-65604819D01*
X-64677381Y-65666723D01*
D10*
D11*
X-14677381Y-65419104D02*
X-14615477Y-65357200D01*
X-14491667Y-65295295D01*
X-14182143Y-65295295D01*
X-14058334Y-65357200D01*
X-13996429Y-65419104D01*
X-13934524Y-65542914D01*
X-13934524Y-65666723D01*
X-13996429Y-65852438D01*
X-14739286Y-66595295D01*
X-13934524Y-66595295D01*
D10*
D11*
X35260714Y-65295295D02*
X36065476Y-65295295D01*
X35632142Y-65790533D01*
X35817857Y-65790533D01*
X35941666Y-65852438D01*
X36003571Y-65914342D01*
X36065476Y-66038152D01*
X36065476Y-66347676D01*
X36003571Y-66471485D01*
X35941666Y-66533390D01*
X35817857Y-66595295D01*
X35446428Y-66595295D01*
X35322619Y-66533390D01*
X35260714Y-66471485D01*
D10*
D11*
X85941666Y-65728628D02*
X85941666Y-66595295D01*
X85632142Y-65233390D02*
X85322619Y-66161961D01*
X86127380Y-66161961D01*
D10*
D11*
X136003571Y-65295295D02*
X135384523Y-65295295D01*
X135322619Y-65914342D01*
X135384523Y-65852438D01*
X135508333Y-65790533D01*
X135817857Y-65790533D01*
X135941666Y-65852438D01*
X136003571Y-65914342D01*
X136065476Y-66038152D01*
X136065476Y-66347676D01*
X136003571Y-66471485D01*
X135941666Y-66533390D01*
X135817857Y-66595295D01*
X135508333Y-66595295D01*
X135384523Y-66533390D01*
X135322619Y-66471485D01*
D10*
D11*
X185941666Y-65295295D02*
X185694047Y-65295295D01*
X185570238Y-65357200D01*
X185508333Y-65419104D01*
X185384523Y-65604819D01*
X185322619Y-65852438D01*
X185322619Y-66347676D01*
X185384523Y-66471485D01*
X185446428Y-66533390D01*
X185570238Y-66595295D01*
X185817857Y-66595295D01*
X185941666Y-66533390D01*
X186003571Y-66471485D01*
X186065476Y-66347676D01*
X186065476Y-66038152D01*
X186003571Y-65914342D01*
X185941666Y-65852438D01*
X185817857Y-65790533D01*
X185570238Y-65790533D01*
X185446428Y-65852438D01*
X185384523Y-65914342D01*
X185322619Y-66038152D01*
D10*
D11*
X-90000000Y73000000D02*
X-88000000Y73000000D01*
D10*
D11*
X-90000000Y23000000D02*
X-88000000Y23000000D01*
D10*
D11*
X-90000000Y-27000000D02*
X-88000000Y-27000000D01*
D10*
D11*
X-89309524Y97783334D02*
X-88690477Y97783334D01*
X-89433334Y97411905D02*
X-89000000Y98711905D01*
X-88566667Y97411905D01*
D10*
D11*
X-88907143Y48092858D02*
X-88721429Y48030953D01*
X-88659524Y47969048D01*
X-88597620Y47845239D01*
X-88597620Y47659524D01*
X-88659524Y47535715D01*
X-88721429Y47473810D01*
X-88845239Y47411905D01*
X-89340477Y47411905D01*
X-89340477Y48711905D01*
X-88907143Y48711905D01*
X-88783334Y48650000D01*
X-88721429Y48588096D01*
X-88659524Y48464286D01*
X-88659524Y48340477D01*
X-88721429Y48216667D01*
X-88783334Y48154762D01*
X-88907143Y48092858D01*
X-89340477Y48092858D01*
D10*
D11*
X-88597620Y-2464285D02*
X-88659524Y-2526190D01*
X-88845239Y-2588095D01*
X-88969048Y-2588095D01*
X-89154762Y-2526190D01*
X-89278572Y-2402380D01*
X-89340477Y-2278571D01*
X-89402381Y-2030952D01*
X-89402381Y-1845238D01*
X-89340477Y-1597619D01*
X-89278572Y-1473809D01*
X-89154762Y-1350000D01*
X-88969048Y-1288095D01*
X-88845239Y-1288095D01*
X-88659524Y-1350000D01*
X-88597620Y-1411904D01*
D10*
D11*
X-89340477Y-52588095D02*
X-89340477Y-51288095D01*
X-89030953Y-51288095D01*
X-88845239Y-51350000D01*
X-88721429Y-51473809D01*
X-88659524Y-51597619D01*
X-88597620Y-51845238D01*
X-88597620Y-52030952D01*
X-88659524Y-52278571D01*
X-88721429Y-52402380D01*
X-88845239Y-52526190D01*
X-89030953Y-52588095D01*
X-89340477Y-52588095D01*
D10*
D11*
X187002200Y73000000D02*
X185002200Y73000000D01*
D10*
D11*
X187002200Y23000000D02*
X185002200Y23000000D01*
D10*
D11*
X187002200Y-27000000D02*
X185002200Y-27000000D01*
D10*
D11*
X185692676Y97783334D02*
X186311723Y97783334D01*
X185568866Y97411905D02*
X186002200Y98711905D01*
X186435533Y97411905D01*
D10*
D11*
X186095057Y48092858D02*
X186280771Y48030953D01*
X186342676Y47969048D01*
X186404580Y47845239D01*
X186404580Y47659524D01*
X186342676Y47535715D01*
X186280771Y47473810D01*
X186156961Y47411905D01*
X185661723Y47411905D01*
X185661723Y48711905D01*
X186095057Y48711905D01*
X186218866Y48650000D01*
X186280771Y48588096D01*
X186342676Y48464286D01*
X186342676Y48340477D01*
X186280771Y48216667D01*
X186218866Y48154762D01*
X186095057Y48092858D01*
X185661723Y48092858D01*
D10*
D11*
X186404580Y-2464285D02*
X186342676Y-2526190D01*
X186156961Y-2588095D01*
X186033152Y-2588095D01*
X185847438Y-2526190D01*
X185723628Y-2402380D01*
X185661723Y-2278571D01*
X185599819Y-2030952D01*
X185599819Y-1845238D01*
X185661723Y-1597619D01*
X185723628Y-1473809D01*
X185847438Y-1350000D01*
X186033152Y-1288095D01*
X186156961Y-1288095D01*
X186342676Y-1350000D01*
X186404580Y-1411904D01*
D10*
D11*
X185661723Y-52588095D02*
X185661723Y-51288095D01*
X185971247Y-51288095D01*
X186156961Y-51350000D01*
X186280771Y-51473809D01*
X186342676Y-51597619D01*
X186404580Y-51845238D01*
X186404580Y-52030952D01*
X186342676Y-52278571D01*
X186280771Y-52402380D01*
X186156961Y-52526190D01*
X185971247Y-52588095D01*
X185661723Y-52588095D01*
D10*
D11*
X100481961Y-60876247D02*
X100481961Y-59176247D01*
X100886723Y-59176247D01*
X101129580Y-59257200D01*
X101291485Y-59419104D01*
X101372438Y-59581009D01*
X101453390Y-59904819D01*
X101453390Y-60147676D01*
X101372438Y-60471485D01*
X101291485Y-60633390D01*
X101129580Y-60795295D01*
X100886723Y-60876247D01*
X100481961Y-60876247D01*
X102910533Y-60876247D02*
X102910533Y-59985771D01*
X102829580Y-59823866D01*
X102667676Y-59742914D01*
X102343866Y-59742914D01*
X102181961Y-59823866D01*
X102910533Y-60795295D02*
X102748628Y-60876247D01*
X102343866Y-60876247D01*
X102181961Y-60795295D01*
X102101009Y-60633390D01*
X102101009Y-60471485D01*
X102181961Y-60309580D01*
X102343866Y-60228628D01*
X102748628Y-60228628D01*
X102910533Y-60147676D01*
X103477200Y-59742914D02*
X104124819Y-59742914D01*
X103720057Y-59176247D02*
X103720057Y-60633390D01*
X103801009Y-60795295D01*
X103962914Y-60876247D01*
X104124819Y-60876247D01*
X105339104Y-60795295D02*
X105177200Y-60876247D01*
X104853390Y-60876247D01*
X104691485Y-60795295D01*
X104610533Y-60633390D01*
X104610533Y-59985771D01*
X104691485Y-59823866D01*
X104853390Y-59742914D01*
X105177200Y-59742914D01*
X105339104Y-59823866D01*
X105420057Y-59985771D01*
X105420057Y-60147676D01*
X104610533Y-60309580D01*
X106148628Y-60714342D02*
X106229580Y-60795295D01*
X106148628Y-60876247D01*
X106067676Y-60795295D01*
X106148628Y-60714342D01*
X106148628Y-60876247D01*
X106148628Y-59823866D02*
X106229580Y-59904819D01*
X106148628Y-59985771D01*
X106067676Y-59904819D01*
X106148628Y-59823866D01*
X106148628Y-59985771D01*
X108172438Y-59338152D02*
X108253390Y-59257200D01*
X108415295Y-59176247D01*
X108820057Y-59176247D01*
X108981961Y-59257200D01*
X109062914Y-59338152D01*
X109143866Y-59500057D01*
X109143866Y-59661961D01*
X109062914Y-59904819D01*
X108091485Y-60876247D01*
X109143866Y-60876247D01*
X110196247Y-59176247D02*
X110358152Y-59176247D01*
X110520057Y-59257200D01*
X110601009Y-59338152D01*
X110681961Y-59500057D01*
X110762914Y-59823866D01*
X110762914Y-60228628D01*
X110681961Y-60552438D01*
X110601009Y-60714342D01*
X110520057Y-60795295D01*
X110358152Y-60876247D01*
X110196247Y-60876247D01*
X110034342Y-60795295D01*
X109953390Y-60714342D01*
X109872438Y-60552438D01*
X109791485Y-60228628D01*
X109791485Y-59823866D01*
X109872438Y-59500057D01*
X109953390Y-59338152D01*
X110034342Y-59257200D01*
X110196247Y-59176247D01*
X111410533Y-59338152D02*
X111491485Y-59257200D01*
X111653390Y-59176247D01*
X112058152Y-59176247D01*
X112220057Y-59257200D01*
X112301009Y-59338152D01*
X112381961Y-59500057D01*
X112381961Y-59661961D01*
X112301009Y-59904819D01*
X111329580Y-60876247D01*
X112381961Y-60876247D01*
X113434342Y-59176247D02*
X113596247Y-59176247D01*
X113758152Y-59257200D01*
X113839104Y-59338152D01*
X113920057Y-59500057D01*
X114001009Y-59823866D01*
X114001009Y-60228628D01*
X113920057Y-60552438D01*
X113839104Y-60714342D01*
X113758152Y-60795295D01*
X113596247Y-60876247D01*
X113434342Y-60876247D01*
X113272438Y-60795295D01*
X113191485Y-60714342D01*
X113110533Y-60552438D01*
X113029580Y-60228628D01*
X113029580Y-59823866D01*
X113110533Y-59500057D01*
X113191485Y-59338152D01*
X113272438Y-59257200D01*
X113434342Y-59176247D01*
X114729580Y-60228628D02*
X116024819Y-60228628D01*
X117724819Y-60876247D02*
X116753390Y-60876247D01*
X117239104Y-60876247D02*
X117239104Y-59176247D01*
X117077200Y-59419104D01*
X116915295Y-59581009D01*
X116753390Y-59661961D01*
X118372438Y-59338152D02*
X118453390Y-59257200D01*
X118615295Y-59176247D01*
X119020057Y-59176247D01*
X119181961Y-59257200D01*
X119262914Y-59338152D01*
X119343866Y-59500057D01*
X119343866Y-59661961D01*
X119262914Y-59904819D01*
X118291485Y-60876247D01*
X119343866Y-60876247D01*
X120072438Y-60228628D02*
X121367676Y-60228628D01*
X122501009Y-59176247D02*
X122662914Y-59176247D01*
X122824819Y-59257200D01*
X122905771Y-59338152D01*
X122986723Y-59500057D01*
X123067676Y-59823866D01*
X123067676Y-60228628D01*
X122986723Y-60552438D01*
X122905771Y-60714342D01*
X122824819Y-60795295D01*
X122662914Y-60876247D01*
X122501009Y-60876247D01*
X122339104Y-60795295D01*
X122258152Y-60714342D01*
X122177200Y-60552438D01*
X122096247Y-60228628D01*
X122096247Y-59823866D01*
X122177200Y-59500057D01*
X122258152Y-59338152D01*
X122339104Y-59257200D01*
X122501009Y-59176247D01*
X123634342Y-59176247D02*
X124686723Y-59176247D01*
X124120057Y-59823866D01*
X124362914Y-59823866D01*
X124524819Y-59904819D01*
X124605771Y-59985771D01*
X124686723Y-60147676D01*
X124686723Y-60552438D01*
X124605771Y-60714342D01*
X124524819Y-60795295D01*
X124362914Y-60876247D01*
X123877200Y-60876247D01*
X123715295Y-60795295D01*
X123634342Y-60714342D01*
D10*
D11*
X77002200Y-61507200D02*
X185002200Y-61507200D01*
D10*
D11*
X77002200Y-58507200D02*
X185002200Y-58507200D01*
D10*
D12*
X164599390Y-60876247D02*
X164032723Y-60066723D01*
X163627961Y-60876247D02*
X163627961Y-59176247D01*
X164275580Y-59176247D01*
X164437485Y-59257200D01*
X164518438Y-59338152D01*
X164599390Y-59500057D01*
X164599390Y-59742914D01*
X164518438Y-59904819D01*
X164437485Y-59985771D01*
X164275580Y-60066723D01*
X163627961Y-60066723D01*
X165975580Y-60795295D02*
X165813676Y-60876247D01*
X165489866Y-60876247D01*
X165327961Y-60795295D01*
X165247009Y-60633390D01*
X165247009Y-59985771D01*
X165327961Y-59823866D01*
X165489866Y-59742914D01*
X165813676Y-59742914D01*
X165975580Y-59823866D01*
X166056533Y-59985771D01*
X166056533Y-60147676D01*
X165247009Y-60309580D01*
X166623200Y-59742914D02*
X167027961Y-60876247D01*
X167432723Y-59742914D01*
X168080342Y-60714342D02*
X168161295Y-60795295D01*
X168080342Y-60876247D01*
X167999390Y-60795295D01*
X168080342Y-60714342D01*
X168080342Y-60876247D01*
X168080342Y-59823866D02*
X168161295Y-59904819D01*
X168080342Y-59985771D01*
X167999390Y-59904819D01*
X168080342Y-59823866D01*
X168080342Y-59985771D01*
D10*
D11*
X78401009Y-60795295D02*
X78643866Y-60876247D01*
X79048628Y-60876247D01*
X79210533Y-60795295D01*
X79291485Y-60714342D01*
X79372438Y-60552438D01*
X79372438Y-60390533D01*
X79291485Y-60228628D01*
X79210533Y-60147676D01*
X79048628Y-60066723D01*
X78724819Y-59985771D01*
X78562914Y-59904819D01*
X78481961Y-59823866D01*
X78401009Y-59661961D01*
X78401009Y-59500057D01*
X78481961Y-59338152D01*
X78562914Y-59257200D01*
X78724819Y-59176247D01*
X79129580Y-59176247D01*
X79372438Y-59257200D01*
X80101009Y-60876247D02*
X80101009Y-59742914D01*
X80101009Y-59176247D02*
X80020057Y-59257200D01*
X80101009Y-59338152D01*
X80181961Y-59257200D01*
X80101009Y-59176247D01*
X80101009Y-59338152D01*
X80748628Y-59742914D02*
X81639104Y-59742914D01*
X80748628Y-60876247D01*
X81639104Y-60876247D01*
X82934342Y-60795295D02*
X82772438Y-60876247D01*
X82448628Y-60876247D01*
X82286723Y-60795295D01*
X82205771Y-60633390D01*
X82205771Y-59985771D01*
X82286723Y-59823866D01*
X82448628Y-59742914D01*
X82772438Y-59742914D01*
X82934342Y-59823866D01*
X83015295Y-59985771D01*
X83015295Y-60147676D01*
X82205771Y-60309580D01*
X83743866Y-60714342D02*
X83824819Y-60795295D01*
X83743866Y-60876247D01*
X83662914Y-60795295D01*
X83743866Y-60714342D01*
X83743866Y-60876247D01*
X83743866Y-59823866D02*
X83824819Y-59904819D01*
X83743866Y-59985771D01*
X83662914Y-59904819D01*
X83743866Y-59823866D01*
X83743866Y-59985771D01*
X85767676Y-60390533D02*
X86577200Y-60390533D01*
X85605771Y-60876247D02*
X86172438Y-59176247D01*
X86739104Y-60876247D01*
X88034342Y-59742914D02*
X88034342Y-60876247D01*
X87629580Y-59095295D02*
X87224819Y-60309580D01*
X88277200Y-60309580D01*
D10*
D11*
X163481961Y-63676247D02*
X163481961Y-61976247D01*
X165020057Y-63676247D02*
X165020057Y-61976247D01*
X165020057Y-63595295D02*
X164858152Y-63676247D01*
X164534342Y-63676247D01*
X164372438Y-63595295D01*
X164291485Y-63514342D01*
X164210533Y-63352438D01*
X164210533Y-62866723D01*
X164291485Y-62704819D01*
X164372438Y-62623866D01*
X164534342Y-62542914D01*
X164858152Y-62542914D01*
X165020057Y-62623866D01*
X165829580Y-63514342D02*
X165910533Y-63595295D01*
X165829580Y-63676247D01*
X165748628Y-63595295D01*
X165829580Y-63514342D01*
X165829580Y-63676247D01*
X165829580Y-62623866D02*
X165910533Y-62704819D01*
X165829580Y-62785771D01*
X165748628Y-62704819D01*
X165829580Y-62623866D01*
X165829580Y-62785771D01*
X168824819Y-63676247D02*
X167853390Y-63676247D01*
X168339104Y-63676247D02*
X168339104Y-61976247D01*
X168177200Y-62219104D01*
X168015295Y-62381009D01*
X167853390Y-62461961D01*
X170767676Y-61895295D02*
X169310533Y-64081009D01*
X172224819Y-63676247D02*
X171253390Y-63676247D01*
X171739104Y-63676247D02*
X171739104Y-61976247D01*
X171577200Y-62219104D01*
X171415295Y-62381009D01*
X171253390Y-62461961D01*
D10*
D11*
X77002200Y-54507200D02*
X185002200Y-54507200D01*
D10*
D13*
X78714580Y-55211961D02*
X79857438Y-55211961D01*
X79036009Y-57211961D02*
X79286009Y-55211961D01*
X80274104Y-57211961D02*
X80440771Y-55878628D01*
X80524104Y-55211961D02*
X80416961Y-55307200D01*
X80500295Y-55402438D01*
X80607438Y-55307200D01*
X80524104Y-55211961D01*
X80500295Y-55402438D01*
X81107438Y-55878628D02*
X81869342Y-55878628D01*
X81476485Y-55211961D02*
X81262200Y-56926247D01*
X81333628Y-57116723D01*
X81512200Y-57211961D01*
X81702676Y-57211961D01*
X82655057Y-57211961D02*
X82476485Y-57116723D01*
X82405057Y-56926247D01*
X82619342Y-55211961D01*
X84190771Y-57116723D02*
X83988390Y-57211961D01*
X83607438Y-57211961D01*
X83428866Y-57116723D01*
X83357438Y-56926247D01*
X83452676Y-56164342D01*
X83571723Y-55973866D01*
X83774104Y-55878628D01*
X84155057Y-55878628D01*
X84333628Y-55973866D01*
X84405057Y-56164342D01*
X84381247Y-56354819D01*
X83405057Y-56545295D01*
X85155057Y-57021485D02*
X85238390Y-57116723D01*
X85131247Y-57211961D01*
X85047914Y-57116723D01*
X85155057Y-57021485D01*
X85131247Y-57211961D01*
X85286009Y-55973866D02*
X85369342Y-56069104D01*
X85262200Y-56164342D01*
X85178866Y-56069104D01*
X85286009Y-55973866D01*
X85262200Y-56164342D01*
X87738390Y-56164342D02*
X88405057Y-56164342D01*
X88559819Y-57211961D02*
X87607438Y-57211961D01*
X87857438Y-55211961D01*
X88809819Y-55211961D01*
X89333628Y-57116723D02*
X89607438Y-57211961D01*
X90083628Y-57211961D01*
X90286009Y-57116723D01*
X90393152Y-57021485D01*
X90512200Y-56831009D01*
X90536009Y-56640533D01*
X90464580Y-56450057D01*
X90381247Y-56354819D01*
X90202676Y-56259580D01*
X89833628Y-56164342D01*
X89655057Y-56069104D01*
X89571723Y-55973866D01*
X89500295Y-55783390D01*
X89524104Y-55592914D01*
X89643152Y-55402438D01*
X89750295Y-55307200D01*
X89952676Y-55211961D01*
X90428866Y-55211961D01*
X90702676Y-55307200D01*
X92119342Y-56164342D02*
X92393152Y-56259580D01*
X92476485Y-56354819D01*
X92547914Y-56545295D01*
X92512200Y-56831009D01*
X92393152Y-57021485D01*
X92286009Y-57116723D01*
X92083628Y-57211961D01*
X91321723Y-57211961D01*
X91571723Y-55211961D01*
X92238390Y-55211961D01*
X92416961Y-55307200D01*
X92500295Y-55402438D01*
X92571723Y-55592914D01*
X92547914Y-55783390D01*
X92428866Y-55973866D01*
X92321723Y-56069104D01*
X92119342Y-56164342D01*
X91452676Y-56164342D01*
X93321723Y-57211961D02*
X93571723Y-55211961D01*
X95893152Y-56450057D02*
X97416961Y-56450057D01*
X100964580Y-57021485D02*
X100857438Y-57116723D01*
X100559819Y-57211961D01*
X100369342Y-57211961D01*
X100095533Y-57116723D01*
X99928866Y-56926247D01*
X99857438Y-56735771D01*
X99809819Y-56354819D01*
X99845533Y-56069104D01*
X99988390Y-55688152D01*
X100107438Y-55497676D01*
X100321723Y-55307200D01*
X100619342Y-55211961D01*
X100809819Y-55211961D01*
X101083628Y-55307200D01*
X101166961Y-55402438D01*
X101893152Y-56450057D02*
X103416961Y-56450057D01*
X104905057Y-55211961D02*
X105095533Y-55211961D01*
X105274104Y-55307200D01*
X105357438Y-55402438D01*
X105428866Y-55592914D01*
X105476485Y-55973866D01*
X105416961Y-56450057D01*
X105274104Y-56831009D01*
X105155057Y-57021485D01*
X105047914Y-57116723D01*
X104845533Y-57211961D01*
X104655057Y-57211961D01*
X104476485Y-57116723D01*
X104393152Y-57021485D01*
X104321723Y-56831009D01*
X104274104Y-56450057D01*
X104333628Y-55973866D01*
X104476485Y-55592914D01*
X104595533Y-55402438D01*
X104702676Y-55307200D01*
X104905057Y-55211961D01*
X106309819Y-55402438D02*
X106416961Y-55307200D01*
X106619342Y-55211961D01*
X107095533Y-55211961D01*
X107274104Y-55307200D01*
X107357438Y-55402438D01*
X107428866Y-55592914D01*
X107405057Y-55783390D01*
X107274104Y-56069104D01*
X105988390Y-57211961D01*
X107226485Y-57211961D01*
X109107438Y-55878628D02*
X108940771Y-57211961D01*
X108726485Y-55116723D02*
X108071723Y-56545295D01*
X109309819Y-56545295D01*
X111036009Y-57211961D02*
X109893152Y-57211961D01*
X110464580Y-57211961D02*
X110714580Y-55211961D01*
X110488390Y-55497676D01*
X110274104Y-55688152D01*
X110071723Y-55783390D01*
X111988390Y-56450057D02*
X113512200Y-56450057D01*
X115000295Y-55211961D02*
X115190771Y-55211961D01*
X115369342Y-55307200D01*
X115452676Y-55402438D01*
X115524104Y-55592914D01*
X115571723Y-55973866D01*
X115512200Y-56450057D01*
X115369342Y-56831009D01*
X115250295Y-57021485D01*
X115143152Y-57116723D01*
X114940771Y-57211961D01*
X114750295Y-57211961D01*
X114571723Y-57116723D01*
X114488390Y-57021485D01*
X114416961Y-56831009D01*
X114369342Y-56450057D01*
X114428866Y-55973866D01*
X114571723Y-55592914D01*
X114690771Y-55402438D01*
X114797914Y-55307200D01*
X115000295Y-55211961D01*
X117476485Y-55211961D02*
X116524104Y-55211961D01*
X116309819Y-56164342D01*
X116416961Y-56069104D01*
X116619342Y-55973866D01*
X117095533Y-55973866D01*
X117274104Y-56069104D01*
X117357438Y-56164342D01*
X117428866Y-56354819D01*
X117369342Y-56831009D01*
X117250295Y-57021485D01*
X117143152Y-57116723D01*
X116940771Y-57211961D01*
X116464580Y-57211961D01*
X116286009Y-57116723D01*
X116202676Y-57021485D01*
D10*
D11*
X77002200Y-48507200D02*
X185002200Y-48507200D01*
D10*
D11*
X78434342Y-43900057D02*
X78934342Y-43900057D01*
X79148628Y-44685771D02*
X78434342Y-44685771D01*
X78434342Y-43185771D01*
X79148628Y-43185771D01*
X79791485Y-44685771D02*
X79791485Y-43685771D01*
X79791485Y-43828628D02*
X79862914Y-43757200D01*
X80005771Y-43685771D01*
X80220057Y-43685771D01*
X80362914Y-43757200D01*
X80434342Y-43900057D01*
X80434342Y-44685771D01*
X80434342Y-43900057D02*
X80505771Y-43757200D01*
X80648628Y-43685771D01*
X80862914Y-43685771D01*
X81005771Y-43757200D01*
X81077200Y-43900057D01*
X81077200Y-44685771D01*
X82434342Y-44685771D02*
X82434342Y-43900057D01*
X82362914Y-43757200D01*
X82220057Y-43685771D01*
X81934342Y-43685771D01*
X81791485Y-43757200D01*
X82434342Y-44614342D02*
X82291485Y-44685771D01*
X81934342Y-44685771D01*
X81791485Y-44614342D01*
X81720057Y-44471485D01*
X81720057Y-44328628D01*
X81791485Y-44185771D01*
X81934342Y-44114342D01*
X82291485Y-44114342D01*
X82434342Y-44042914D01*
X83148628Y-44685771D02*
X83148628Y-43685771D01*
X83148628Y-43185771D02*
X83077200Y-43257200D01*
X83148628Y-43328628D01*
X83220057Y-43257200D01*
X83148628Y-43185771D01*
X83148628Y-43328628D01*
X84077200Y-44685771D02*
X83934342Y-44614342D01*
X83862914Y-44471485D01*
X83862914Y-43185771D01*
X85791485Y-44685771D02*
X85791485Y-43685771D01*
X85791485Y-43185771D02*
X85720057Y-43257200D01*
X85791485Y-43328628D01*
X85862914Y-43257200D01*
X85791485Y-43185771D01*
X85791485Y-43328628D01*
X86505771Y-43685771D02*
X86505771Y-44685771D01*
X86505771Y-43828628D02*
X86577200Y-43757200D01*
X86720057Y-43685771D01*
X86934342Y-43685771D01*
X87077200Y-43757200D01*
X87148628Y-43900057D01*
X87148628Y-44685771D01*
X87648628Y-43685771D02*
X88220057Y-43685771D01*
X87862914Y-44685771D02*
X87862914Y-43400057D01*
X87934342Y-43257200D01*
X88077200Y-43185771D01*
X88220057Y-43185771D01*
X88934342Y-44685771D02*
X88791485Y-44614342D01*
X88720057Y-44542914D01*
X88648628Y-44400057D01*
X88648628Y-43971485D01*
X88720057Y-43828628D01*
X88791485Y-43757200D01*
X88934342Y-43685771D01*
X89148628Y-43685771D01*
X89291485Y-43757200D01*
X89362914Y-43828628D01*
X89434342Y-43971485D01*
X89434342Y-44400057D01*
X89362914Y-44542914D01*
X89291485Y-44614342D01*
X89148628Y-44685771D01*
X88934342Y-44685771D01*
X91005771Y-43971485D02*
X90934342Y-43900057D01*
X90791485Y-43828628D01*
X90648628Y-43828628D01*
X90505771Y-43900057D01*
X90434342Y-43971485D01*
X90362914Y-44114342D01*
X90362914Y-44257200D01*
X90434342Y-44400057D01*
X90505771Y-44471485D01*
X90648628Y-44542914D01*
X90791485Y-44542914D01*
X90934342Y-44471485D01*
X91005771Y-44400057D01*
X91005771Y-43828628D02*
X91005771Y-44400057D01*
X91077200Y-44471485D01*
X91148628Y-44471485D01*
X91291485Y-44400057D01*
X91362914Y-44257200D01*
X91362914Y-43900057D01*
X91220057Y-43685771D01*
X91005771Y-43542914D01*
X90720057Y-43471485D01*
X90434342Y-43542914D01*
X90220057Y-43685771D01*
X90077200Y-43900057D01*
X90005771Y-44185771D01*
X90077200Y-44471485D01*
X90220057Y-44685771D01*
X90434342Y-44828628D01*
X90720057Y-44900057D01*
X91005771Y-44828628D01*
X91220057Y-44685771D01*
X91934342Y-44614342D02*
X92077200Y-44685771D01*
X92362914Y-44685771D01*
X92505771Y-44614342D01*
X92577200Y-44471485D01*
X92577200Y-44400057D01*
X92505771Y-44257200D01*
X92362914Y-44185771D01*
X92148628Y-44185771D01*
X92005771Y-44114342D01*
X91934342Y-43971485D01*
X91934342Y-43900057D01*
X92005771Y-43757200D01*
X92148628Y-43685771D01*
X92362914Y-43685771D01*
X92505771Y-43757200D01*
X93005771Y-43685771D02*
X93577200Y-43685771D01*
X93220057Y-43185771D02*
X93220057Y-44471485D01*
X93291485Y-44614342D01*
X93434342Y-44685771D01*
X93577200Y-44685771D01*
X94720057Y-43685771D02*
X94720057Y-44685771D01*
X94077200Y-43685771D02*
X94077200Y-44471485D01*
X94148628Y-44614342D01*
X94291485Y-44685771D01*
X94505771Y-44685771D01*
X94648628Y-44614342D01*
X94720057Y-44542914D01*
X96077200Y-44685771D02*
X96077200Y-43185771D01*
X96077200Y-44614342D02*
X95934342Y-44685771D01*
X95648628Y-44685771D01*
X95505771Y-44614342D01*
X95434342Y-44542914D01*
X95362914Y-44400057D01*
X95362914Y-43971485D01*
X95434342Y-43828628D01*
X95505771Y-43757200D01*
X95648628Y-43685771D01*
X95934342Y-43685771D01*
X96077200Y-43757200D01*
X96791485Y-44685771D02*
X96791485Y-43685771D01*
X96791485Y-43185771D02*
X96720057Y-43257200D01*
X96791485Y-43328628D01*
X96862914Y-43257200D01*
X96791485Y-43185771D01*
X96791485Y-43328628D01*
X97720057Y-44685771D02*
X97577200Y-44614342D01*
X97505771Y-44542914D01*
X97434342Y-44400057D01*
X97434342Y-43971485D01*
X97505771Y-43828628D01*
X97577200Y-43757200D01*
X97720057Y-43685771D01*
X97934342Y-43685771D01*
X98077200Y-43757200D01*
X98148628Y-43828628D01*
X98220057Y-43971485D01*
X98220057Y-44400057D01*
X98148628Y-44542914D01*
X98077200Y-44614342D01*
X97934342Y-44685771D01*
X97720057Y-44685771D01*
X98862914Y-43685771D02*
X98862914Y-45185771D01*
X98862914Y-43757200D02*
X99005771Y-43685771D01*
X99291485Y-43685771D01*
X99434342Y-43757200D01*
X99505771Y-43828628D01*
X99577200Y-43971485D01*
X99577200Y-44400057D01*
X99505771Y-44542914D01*
X99434342Y-44614342D01*
X99291485Y-44685771D01*
X99005771Y-44685771D01*
X98862914Y-44614342D01*
X100862914Y-44685771D02*
X100862914Y-43900057D01*
X100791485Y-43757200D01*
X100648628Y-43685771D01*
X100362914Y-43685771D01*
X100220057Y-43757200D01*
X100862914Y-44614342D02*
X100720057Y-44685771D01*
X100362914Y-44685771D01*
X100220057Y-44614342D01*
X100148628Y-44471485D01*
X100148628Y-44328628D01*
X100220057Y-44185771D01*
X100362914Y-44114342D01*
X100720057Y-44114342D01*
X100862914Y-44042914D01*
X101791485Y-44685771D02*
X101648628Y-44614342D01*
X101577200Y-44471485D01*
X101577200Y-43185771D01*
X102934342Y-44614342D02*
X102791485Y-44685771D01*
X102505771Y-44685771D01*
X102362914Y-44614342D01*
X102291485Y-44471485D01*
X102291485Y-43900057D01*
X102362914Y-43757200D01*
X102505771Y-43685771D01*
X102791485Y-43685771D01*
X102934342Y-43757200D01*
X103005771Y-43900057D01*
X103005771Y-44042914D01*
X102291485Y-44185771D01*
X103862914Y-44685771D02*
X103720057Y-44614342D01*
X103648628Y-44542914D01*
X103577200Y-44400057D01*
X103577200Y-43971485D01*
X103648628Y-43828628D01*
X103720057Y-43757200D01*
X103862914Y-43685771D01*
X104077200Y-43685771D01*
X104220057Y-43757200D01*
X104291485Y-43828628D01*
X104362914Y-43971485D01*
X104362914Y-44400057D01*
X104291485Y-44542914D01*
X104220057Y-44614342D01*
X104077200Y-44685771D01*
X103862914Y-44685771D01*
X105220057Y-44685771D02*
X105077200Y-44614342D01*
X105005771Y-44471485D01*
X105005771Y-43185771D01*
X106005771Y-44685771D02*
X105862914Y-44614342D01*
X105791485Y-44542914D01*
X105720057Y-44400057D01*
X105720057Y-43971485D01*
X105791485Y-43828628D01*
X105862914Y-43757200D01*
X106005771Y-43685771D01*
X106220057Y-43685771D01*
X106362914Y-43757200D01*
X106434342Y-43828628D01*
X106505771Y-43971485D01*
X106505771Y-44400057D01*
X106434342Y-44542914D01*
X106362914Y-44614342D01*
X106220057Y-44685771D01*
X106005771Y-44685771D01*
X107791485Y-43685771D02*
X107791485Y-44900057D01*
X107720057Y-45042914D01*
X107648628Y-45114342D01*
X107505771Y-45185771D01*
X107291485Y-45185771D01*
X107148628Y-45114342D01*
X107791485Y-44614342D02*
X107648628Y-44685771D01*
X107362914Y-44685771D01*
X107220057Y-44614342D01*
X107148628Y-44542914D01*
X107077200Y-44400057D01*
X107077200Y-43971485D01*
X107148628Y-43828628D01*
X107220057Y-43757200D01*
X107362914Y-43685771D01*
X107648628Y-43685771D01*
X107791485Y-43757200D01*
X108720057Y-44685771D02*
X108577200Y-44614342D01*
X108505771Y-44542914D01*
X108434342Y-44400057D01*
X108434342Y-43971485D01*
X108505771Y-43828628D01*
X108577200Y-43757200D01*
X108720057Y-43685771D01*
X108934342Y-43685771D01*
X109077200Y-43757200D01*
X109148628Y-43828628D01*
X109220057Y-43971485D01*
X109220057Y-44400057D01*
X109148628Y-44542914D01*
X109077200Y-44614342D01*
X108934342Y-44685771D01*
X108720057Y-44685771D01*
X109862914Y-44542914D02*
X109934342Y-44614342D01*
X109862914Y-44685771D01*
X109791485Y-44614342D01*
X109862914Y-44542914D01*
X109862914Y-44685771D01*
X111220057Y-44614342D02*
X111077200Y-44685771D01*
X110791485Y-44685771D01*
X110648628Y-44614342D01*
X110577200Y-44542914D01*
X110505771Y-44400057D01*
X110505771Y-43971485D01*
X110577200Y-43828628D01*
X110648628Y-43757200D01*
X110791485Y-43685771D01*
X111077200Y-43685771D01*
X111220057Y-43757200D01*
X112077200Y-44685771D02*
X111934342Y-44614342D01*
X111862914Y-44542914D01*
X111791485Y-44400057D01*
X111791485Y-43971485D01*
X111862914Y-43828628D01*
X111934342Y-43757200D01*
X112077200Y-43685771D01*
X112291485Y-43685771D01*
X112434342Y-43757200D01*
X112505771Y-43828628D01*
X112577200Y-43971485D01*
X112577200Y-44400057D01*
X112505771Y-44542914D01*
X112434342Y-44614342D01*
X112291485Y-44685771D01*
X112077200Y-44685771D01*
X113220057Y-44685771D02*
X113220057Y-43685771D01*
X113220057Y-43828628D02*
X113291485Y-43757200D01*
X113434342Y-43685771D01*
X113648628Y-43685771D01*
X113791485Y-43757200D01*
X113862914Y-43900057D01*
X113862914Y-44685771D01*
X113862914Y-43900057D02*
X113934342Y-43757200D01*
X114077200Y-43685771D01*
X114291485Y-43685771D01*
X114434342Y-43757200D01*
X114505771Y-43900057D01*
X114505771Y-44685771D01*
D10*
D11*
X79291485Y-41542914D02*
X79220057Y-41614342D01*
X79005771Y-41685771D01*
X78862914Y-41685771D01*
X78648628Y-41614342D01*
X78505771Y-41471485D01*
X78434342Y-41328628D01*
X78362914Y-41042914D01*
X78362914Y-40828628D01*
X78434342Y-40542914D01*
X78505771Y-40400057D01*
X78648628Y-40257200D01*
X78862914Y-40185771D01*
X79005771Y-40185771D01*
X79220057Y-40257200D01*
X79291485Y-40328628D01*
X80505771Y-41614342D02*
X80362914Y-41685771D01*
X80077200Y-41685771D01*
X79934342Y-41614342D01*
X79862914Y-41471485D01*
X79862914Y-40900057D01*
X79934342Y-40757200D01*
X80077200Y-40685771D01*
X80362914Y-40685771D01*
X80505771Y-40757200D01*
X80577200Y-40900057D01*
X80577200Y-41042914D01*
X79862914Y-41185771D01*
X81434342Y-41685771D02*
X81291485Y-41614342D01*
X81220057Y-41471485D01*
X81220057Y-40185771D01*
X82220057Y-41685771D02*
X82077200Y-41614342D01*
X82005771Y-41471485D01*
X82005771Y-40185771D01*
X83934342Y-41114342D02*
X85077200Y-41114342D01*
X84505771Y-41685771D02*
X84505771Y-40542914D01*
X85648628Y-40185771D02*
X86577200Y-40185771D01*
X86077200Y-40757200D01*
X86291485Y-40757200D01*
X86434342Y-40828628D01*
X86505771Y-40900057D01*
X86577200Y-41042914D01*
X86577200Y-41400057D01*
X86505771Y-41542914D01*
X86434342Y-41614342D01*
X86291485Y-41685771D01*
X85862914Y-41685771D01*
X85720057Y-41614342D01*
X85648628Y-41542914D01*
X87291485Y-41685771D02*
X87577200Y-41685771D01*
X87720057Y-41614342D01*
X87791485Y-41542914D01*
X87934342Y-41328628D01*
X88005771Y-41042914D01*
X88005771Y-40471485D01*
X87934342Y-40328628D01*
X87862914Y-40257200D01*
X87720057Y-40185771D01*
X87434342Y-40185771D01*
X87291485Y-40257200D01*
X87220057Y-40328628D01*
X87148628Y-40471485D01*
X87148628Y-40828628D01*
X87220057Y-40971485D01*
X87291485Y-41042914D01*
X87434342Y-41114342D01*
X87720057Y-41114342D01*
X87862914Y-41042914D01*
X87934342Y-40971485D01*
X88005771Y-40828628D01*
X89648628Y-40185771D02*
X90577200Y-40185771D01*
X90077200Y-40757200D01*
X90291485Y-40757200D01*
X90434342Y-40828628D01*
X90505771Y-40900057D01*
X90577200Y-41042914D01*
X90577200Y-41400057D01*
X90505771Y-41542914D01*
X90434342Y-41614342D01*
X90291485Y-41685771D01*
X89862914Y-41685771D01*
X89720057Y-41614342D01*
X89648628Y-41542914D01*
X91148628Y-40328628D02*
X91220057Y-40257200D01*
X91362914Y-40185771D01*
X91720057Y-40185771D01*
X91862914Y-40257200D01*
X91934342Y-40328628D01*
X92005771Y-40471485D01*
X92005771Y-40614342D01*
X91934342Y-40828628D01*
X91077200Y-41685771D01*
X92005771Y-41685771D01*
X92720057Y-41685771D02*
X93005771Y-41685771D01*
X93148628Y-41614342D01*
X93220057Y-41542914D01*
X93362914Y-41328628D01*
X93434342Y-41042914D01*
X93434342Y-40471485D01*
X93362914Y-40328628D01*
X93291485Y-40257200D01*
X93148628Y-40185771D01*
X92862914Y-40185771D01*
X92720057Y-40257200D01*
X92648628Y-40328628D01*
X92577200Y-40471485D01*
X92577200Y-40828628D01*
X92648628Y-40971485D01*
X92720057Y-41042914D01*
X92862914Y-41114342D01*
X93148628Y-41114342D01*
X93291485Y-41042914D01*
X93362914Y-40971485D01*
X93434342Y-40828628D01*
X95862914Y-40185771D02*
X95577200Y-40185771D01*
X95434342Y-40257200D01*
X95362914Y-40328628D01*
X95220057Y-40542914D01*
X95148628Y-40828628D01*
X95148628Y-41400057D01*
X95220057Y-41542914D01*
X95291485Y-41614342D01*
X95434342Y-41685771D01*
X95720057Y-41685771D01*
X95862914Y-41614342D01*
X95934342Y-41542914D01*
X96005771Y-41400057D01*
X96005771Y-41042914D01*
X95934342Y-40900057D01*
X95862914Y-40828628D01*
X95720057Y-40757200D01*
X95434342Y-40757200D01*
X95291485Y-40828628D01*
X95220057Y-40900057D01*
X95148628Y-41042914D01*
X96505771Y-40185771D02*
X97505771Y-40185771D01*
X96862914Y-41685771D01*
X98720057Y-40185771D02*
X98434342Y-40185771D01*
X98291485Y-40257200D01*
X98220057Y-40328628D01*
X98077200Y-40542914D01*
X98005771Y-40828628D01*
X98005771Y-41400057D01*
X98077200Y-41542914D01*
X98148628Y-41614342D01*
X98291485Y-41685771D01*
X98577200Y-41685771D01*
X98720057Y-41614342D01*
X98791485Y-41542914D01*
X98862914Y-41400057D01*
X98862914Y-41042914D01*
X98791485Y-40900057D01*
X98720057Y-40828628D01*
X98577200Y-40757200D01*
X98291485Y-40757200D01*
X98148628Y-40828628D01*
X98077200Y-40900057D01*
X98005771Y-41042914D01*
X100577200Y-40328628D02*
X100648628Y-40257200D01*
X100791485Y-40185771D01*
X101148628Y-40185771D01*
X101291485Y-40257200D01*
X101362914Y-40328628D01*
X101434342Y-40471485D01*
X101434342Y-40614342D01*
X101362914Y-40828628D01*
X100505771Y-41685771D01*
X101434342Y-41685771D01*
X102148628Y-41685771D02*
X102434342Y-41685771D01*
X102577200Y-41614342D01*
X102648628Y-41542914D01*
X102791485Y-41328628D01*
X102862914Y-41042914D01*
X102862914Y-40471485D01*
X102791485Y-40328628D01*
X102720057Y-40257200D01*
X102577200Y-40185771D01*
X102291485Y-40185771D01*
X102148628Y-40257200D01*
X102077200Y-40328628D01*
X102005771Y-40471485D01*
X102005771Y-40828628D01*
X102077200Y-40971485D01*
X102148628Y-41042914D01*
X102291485Y-41114342D01*
X102577200Y-41114342D01*
X102720057Y-41042914D01*
X102791485Y-40971485D01*
X102862914Y-40828628D01*
X105362914Y-40185771D02*
X104648628Y-40185771D01*
X104577200Y-40900057D01*
X104648628Y-40828628D01*
X104791485Y-40757200D01*
X105148628Y-40757200D01*
X105291485Y-40828628D01*
X105362914Y-40900057D01*
X105434342Y-41042914D01*
X105434342Y-41400057D01*
X105362914Y-41542914D01*
X105291485Y-41614342D01*
X105148628Y-41685771D01*
X104791485Y-41685771D01*
X104648628Y-41614342D01*
X104577200Y-41542914D01*
X106791485Y-40185771D02*
X106077200Y-40185771D01*
X106005771Y-40900057D01*
X106077200Y-40828628D01*
X106220057Y-40757200D01*
X106577200Y-40757200D01*
X106720057Y-40828628D01*
X106791485Y-40900057D01*
X106862914Y-41042914D01*
X106862914Y-41400057D01*
X106791485Y-41542914D01*
X106720057Y-41614342D01*
X106577200Y-41685771D01*
X106220057Y-41685771D01*
X106077200Y-41614342D01*
X106005771Y-41542914D01*
D10*
D11*
X78220057Y-37185771D02*
X78720057Y-38685771D01*
X79220057Y-37185771D01*
X79720057Y-38685771D02*
X79720057Y-37685771D01*
X79720057Y-37185771D02*
X79648628Y-37257200D01*
X79720057Y-37328628D01*
X79791485Y-37257200D01*
X79720057Y-37185771D01*
X79720057Y-37328628D01*
X81077200Y-38685771D02*
X81077200Y-37900057D01*
X81005771Y-37757200D01*
X80862914Y-37685771D01*
X80577200Y-37685771D01*
X80434342Y-37757200D01*
X81077200Y-38614342D02*
X80934342Y-38685771D01*
X80577200Y-38685771D01*
X80434342Y-38614342D01*
X80362914Y-38471485D01*
X80362914Y-38328628D01*
X80434342Y-38185771D01*
X80577200Y-38114342D01*
X80934342Y-38114342D01*
X81077200Y-38042914D01*
X83648628Y-38685771D02*
X82934342Y-38685771D01*
X82934342Y-37185771D01*
X84791485Y-38685771D02*
X84791485Y-37900057D01*
X84720057Y-37757200D01*
X84577200Y-37685771D01*
X84291485Y-37685771D01*
X84148628Y-37757200D01*
X84791485Y-38614342D02*
X84648628Y-38685771D01*
X84291485Y-38685771D01*
X84148628Y-38614342D01*
X84077200Y-38471485D01*
X84077200Y-38328628D01*
X84148628Y-38185771D01*
X84291485Y-38114342D01*
X84648628Y-38114342D01*
X84791485Y-38042914D01*
X85362914Y-37685771D02*
X85720057Y-38685771D01*
X86077200Y-37685771D01*
X87291485Y-38685771D02*
X87291485Y-37900057D01*
X87220057Y-37757200D01*
X87077200Y-37685771D01*
X86791485Y-37685771D01*
X86648628Y-37757200D01*
X87291485Y-38614342D02*
X87148628Y-38685771D01*
X86791485Y-38685771D01*
X86648628Y-38614342D01*
X86577200Y-38471485D01*
X86577200Y-38328628D01*
X86648628Y-38185771D01*
X86791485Y-38114342D01*
X87148628Y-38114342D01*
X87291485Y-38042914D01*
X88005771Y-38685771D02*
X88005771Y-37685771D01*
X88005771Y-37971485D02*
X88077200Y-37828628D01*
X88148628Y-37757200D01*
X88291485Y-37685771D01*
X88434342Y-37685771D01*
X88934342Y-38685771D02*
X88934342Y-37685771D01*
X88934342Y-37185771D02*
X88862914Y-37257200D01*
X88934342Y-37328628D01*
X89005771Y-37257200D01*
X88934342Y-37185771D01*
X88934342Y-37328628D01*
X90291485Y-38685771D02*
X90291485Y-37900057D01*
X90220057Y-37757200D01*
X90077200Y-37685771D01*
X89791485Y-37685771D01*
X89648628Y-37757200D01*
X90291485Y-38614342D02*
X90148628Y-38685771D01*
X89791485Y-38685771D01*
X89648628Y-38614342D01*
X89577200Y-38471485D01*
X89577200Y-38328628D01*
X89648628Y-38185771D01*
X89791485Y-38114342D01*
X90148628Y-38114342D01*
X90291485Y-38042914D01*
X91005771Y-37685771D02*
X91005771Y-38685771D01*
X91005771Y-37828628D02*
X91077200Y-37757200D01*
X91220057Y-37685771D01*
X91434342Y-37685771D01*
X91577200Y-37757200D01*
X91648628Y-37900057D01*
X91648628Y-38685771D01*
X92577200Y-38685771D02*
X92434342Y-38614342D01*
X92362914Y-38542914D01*
X92291485Y-38400057D01*
X92291485Y-37971485D01*
X92362914Y-37828628D01*
X92434342Y-37757200D01*
X92577200Y-37685771D01*
X92791485Y-37685771D01*
X92934342Y-37757200D01*
X93005771Y-37828628D01*
X93077200Y-37971485D01*
X93077200Y-38400057D01*
X93005771Y-38542914D01*
X92934342Y-38614342D01*
X92791485Y-38685771D01*
X92577200Y-38685771D01*
X94791485Y-37328628D02*
X94862914Y-37257200D01*
X95005771Y-37185771D01*
X95362914Y-37185771D01*
X95505771Y-37257200D01*
X95577200Y-37328628D01*
X95648628Y-37471485D01*
X95648628Y-37614342D01*
X95577200Y-37828628D01*
X94720057Y-38685771D01*
X95648628Y-38685771D01*
X96148628Y-37185771D02*
X97077200Y-37185771D01*
X96577200Y-37757200D01*
X96791485Y-37757200D01*
X96934342Y-37828628D01*
X97005771Y-37900057D01*
X97077200Y-38042914D01*
X97077200Y-38400057D01*
X97005771Y-38542914D01*
X96934342Y-38614342D01*
X96791485Y-38685771D01*
X96362914Y-38685771D01*
X96220057Y-38614342D01*
X96148628Y-38542914D01*
X98862914Y-38114342D02*
X100005771Y-38114342D01*
X101720057Y-37185771D02*
X102648628Y-37185771D01*
X102148628Y-37757200D01*
X102362914Y-37757200D01*
X102505771Y-37828628D01*
X102577200Y-37900057D01*
X102648628Y-38042914D01*
X102648628Y-38400057D01*
X102577200Y-38542914D01*
X102505771Y-38614342D01*
X102362914Y-38685771D01*
X101934342Y-38685771D01*
X101791485Y-38614342D01*
X101720057Y-38542914D01*
X103148628Y-37185771D02*
X104077200Y-37185771D01*
X103577200Y-37757200D01*
X103791485Y-37757200D01*
X103934342Y-37828628D01*
X104005771Y-37900057D01*
X104077200Y-38042914D01*
X104077200Y-38400057D01*
X104005771Y-38542914D01*
X103934342Y-38614342D01*
X103791485Y-38685771D01*
X103362914Y-38685771D01*
X103220057Y-38614342D01*
X103148628Y-38542914D01*
X105005771Y-37185771D02*
X105148628Y-37185771D01*
X105291485Y-37257200D01*
X105362914Y-37328628D01*
X105434342Y-37471485D01*
X105505771Y-37757200D01*
X105505771Y-38114342D01*
X105434342Y-38400057D01*
X105362914Y-38542914D01*
X105291485Y-38614342D01*
X105148628Y-38685771D01*
X105005771Y-38685771D01*
X104862914Y-38614342D01*
X104791485Y-38542914D01*
X104720057Y-38400057D01*
X104648628Y-38114342D01*
X104648628Y-37757200D01*
X104720057Y-37471485D01*
X104791485Y-37328628D01*
X104862914Y-37257200D01*
X105005771Y-37185771D01*
X106862914Y-37185771D02*
X106148628Y-37185771D01*
X106077200Y-37900057D01*
X106148628Y-37828628D01*
X106291485Y-37757200D01*
X106648628Y-37757200D01*
X106791485Y-37828628D01*
X106862914Y-37900057D01*
X106934342Y-38042914D01*
X106934342Y-38400057D01*
X106862914Y-38542914D01*
X106791485Y-38614342D01*
X106648628Y-38685771D01*
X106291485Y-38685771D01*
X106148628Y-38614342D01*
X106077200Y-38542914D01*
X107862914Y-37185771D02*
X108005771Y-37185771D01*
X108148628Y-37257200D01*
X108220057Y-37328628D01*
X108291485Y-37471485D01*
X108362914Y-37757200D01*
X108362914Y-38114342D01*
X108291485Y-38400057D01*
X108220057Y-38542914D01*
X108148628Y-38614342D01*
X108005771Y-38685771D01*
X107862914Y-38685771D01*
X107720057Y-38614342D01*
X107648628Y-38542914D01*
X107577200Y-38400057D01*
X107505771Y-38114342D01*
X107505771Y-37757200D01*
X107577200Y-37471485D01*
X107648628Y-37328628D01*
X107720057Y-37257200D01*
X107862914Y-37185771D01*
X110148628Y-38685771D02*
X110148628Y-37185771D01*
X110720057Y-37185771D01*
X110862914Y-37257200D01*
X110934342Y-37328628D01*
X111005771Y-37471485D01*
X111005771Y-37685771D01*
X110934342Y-37828628D01*
X110862914Y-37900057D01*
X110720057Y-37971485D01*
X110148628Y-37971485D01*
X111862914Y-38685771D02*
X111720057Y-38614342D01*
X111648628Y-38542914D01*
X111577200Y-38400057D01*
X111577200Y-37971485D01*
X111648628Y-37828628D01*
X111720057Y-37757200D01*
X111862914Y-37685771D01*
X112077200Y-37685771D01*
X112220057Y-37757200D01*
X112291485Y-37828628D01*
X112362914Y-37971485D01*
X112362914Y-38400057D01*
X112291485Y-38542914D01*
X112220057Y-38614342D01*
X112077200Y-38685771D01*
X111862914Y-38685771D01*
X112862914Y-37685771D02*
X113648628Y-37685771D01*
X112862914Y-38685771D01*
X113648628Y-38685771D01*
X114077200Y-37685771D02*
X114862914Y-37685771D01*
X114077200Y-38685771D01*
X114862914Y-38685771D01*
X116077200Y-37685771D02*
X116077200Y-38685771D01*
X115434342Y-37685771D02*
X115434342Y-38471485D01*
X115505771Y-38614342D01*
X115648628Y-38685771D01*
X115862914Y-38685771D01*
X116005771Y-38614342D01*
X116077200Y-38542914D01*
X117005771Y-38685771D02*
X116862914Y-38614342D01*
X116791485Y-38542914D01*
X116720057Y-38400057D01*
X116720057Y-37971485D01*
X116791485Y-37828628D01*
X116862914Y-37757200D01*
X117005771Y-37685771D01*
X117220057Y-37685771D01*
X117362914Y-37757200D01*
X117434342Y-37828628D01*
X117505771Y-37971485D01*
X117505771Y-38400057D01*
X117434342Y-38542914D01*
X117362914Y-38614342D01*
X117220057Y-38685771D01*
X117005771Y-38685771D01*
X118362914Y-38685771D02*
X118220057Y-38614342D01*
X118148628Y-38471485D01*
X118148628Y-37185771D01*
X119148628Y-38685771D02*
X119005771Y-38614342D01*
X118934342Y-38542914D01*
X118862914Y-38400057D01*
X118862914Y-37971485D01*
X118934342Y-37828628D01*
X119005771Y-37757200D01*
X119148628Y-37685771D01*
X119362914Y-37685771D01*
X119505771Y-37757200D01*
X119577200Y-37828628D01*
X119648628Y-37971485D01*
X119648628Y-38400057D01*
X119577200Y-38542914D01*
X119505771Y-38614342D01*
X119362914Y-38685771D01*
X119148628Y-38685771D01*
X122077200Y-38685771D02*
X122077200Y-37185771D01*
X122077200Y-38614342D02*
X121934342Y-38685771D01*
X121648628Y-38685771D01*
X121505771Y-38614342D01*
X121434342Y-38542914D01*
X121362914Y-38400057D01*
X121362914Y-37971485D01*
X121434342Y-37828628D01*
X121505771Y-37757200D01*
X121648628Y-37685771D01*
X121934342Y-37685771D01*
X122077200Y-37757200D01*
X123362914Y-38614342D02*
X123220057Y-38685771D01*
X122934342Y-38685771D01*
X122791485Y-38614342D01*
X122720057Y-38471485D01*
X122720057Y-37900057D01*
X122791485Y-37757200D01*
X122934342Y-37685771D01*
X123220057Y-37685771D01*
X123362914Y-37757200D01*
X123434342Y-37900057D01*
X123434342Y-38042914D01*
X122720057Y-38185771D01*
X124291485Y-38685771D02*
X124148628Y-38614342D01*
X124077200Y-38471485D01*
X124077200Y-37185771D01*
X126505771Y-37900057D02*
X126005771Y-37900057D01*
X126005771Y-38685771D02*
X126005771Y-37185771D01*
X126720057Y-37185771D01*
X127291485Y-38685771D02*
X127291485Y-37685771D01*
X127291485Y-37971485D02*
X127362914Y-37828628D01*
X127434342Y-37757200D01*
X127577200Y-37685771D01*
X127720057Y-37685771D01*
X128220057Y-38685771D02*
X128220057Y-37685771D01*
X128220057Y-37185771D02*
X128148628Y-37257200D01*
X128220057Y-37328628D01*
X128291485Y-37257200D01*
X128220057Y-37185771D01*
X128220057Y-37328628D01*
X129577200Y-37685771D02*
X129577200Y-38685771D01*
X128934342Y-37685771D02*
X128934342Y-38471485D01*
X129005771Y-38614342D01*
X129148628Y-38685771D01*
X129362914Y-38685771D01*
X129505771Y-38614342D01*
X129577200Y-38542914D01*
X130505771Y-38685771D02*
X130362914Y-38614342D01*
X130291485Y-38471485D01*
X130291485Y-37185771D01*
X131077200Y-38685771D02*
X131077200Y-37685771D01*
X131077200Y-37185771D02*
X131005771Y-37257200D01*
X131077200Y-37328628D01*
X131148628Y-37257200D01*
X131077200Y-37185771D01*
X131077200Y-37328628D01*
X133362914Y-39257200D02*
X133291485Y-39185771D01*
X133148628Y-38971485D01*
X133077200Y-38828628D01*
X133005771Y-38614342D01*
X132934342Y-38257200D01*
X132934342Y-37971485D01*
X133005771Y-37614342D01*
X133077200Y-37400057D01*
X133148628Y-37257200D01*
X133291485Y-37042914D01*
X133362914Y-36971485D01*
X133934342Y-37185771D02*
X133934342Y-38400057D01*
X134005771Y-38542914D01*
X134077200Y-38614342D01*
X134220057Y-38685771D01*
X134505771Y-38685771D01*
X134648628Y-38614342D01*
X134720057Y-38542914D01*
X134791485Y-38400057D01*
X134791485Y-37185771D01*
X135505771Y-38685771D02*
X135505771Y-37185771D01*
X135862914Y-37185771D01*
X136077200Y-37257200D01*
X136220057Y-37400057D01*
X136291485Y-37542914D01*
X136362914Y-37828628D01*
X136362914Y-38042914D01*
X136291485Y-38328628D01*
X136220057Y-38471485D01*
X136077200Y-38614342D01*
X135862914Y-38685771D01*
X135505771Y-38685771D01*
X136862914Y-39257200D02*
X136934342Y-39185771D01*
X137077200Y-38971485D01*
X137148628Y-38828628D01*
X137220057Y-38614342D01*
X137291485Y-38257200D01*
X137291485Y-37971485D01*
X137220057Y-37614342D01*
X137148628Y-37400057D01*
X137077200Y-37257200D01*
X136934342Y-37042914D01*
X136862914Y-36971485D01*
D10*
D11*
X78432342Y-47685771D02*
X78432342Y-46185771D01*
X79003771Y-46185771D01*
X79146628Y-46257200D01*
X79218057Y-46328628D01*
X79289485Y-46471485D01*
X79289485Y-46685771D01*
X79218057Y-46828628D01*
X79146628Y-46900057D01*
X79003771Y-46971485D01*
X78432342Y-46971485D01*
X79932342Y-47542914D02*
X80003771Y-47614342D01*
X79932342Y-47685771D01*
X79860914Y-47614342D01*
X79932342Y-47542914D01*
X79932342Y-47685771D01*
X80646628Y-47685771D02*
X80646628Y-46185771D01*
X81146628Y-46185771D02*
X81646628Y-47685771D01*
X82146628Y-46185771D01*
X82575200Y-47257200D02*
X83289485Y-47257200D01*
X82432342Y-47685771D02*
X82932342Y-46185771D01*
X83432342Y-47685771D01*
X83932342Y-47542914D02*
X84003771Y-47614342D01*
X83932342Y-47685771D01*
X83860914Y-47614342D01*
X83932342Y-47542914D01*
X83932342Y-47685771D01*
X86575200Y-47685771D02*
X85718057Y-47685771D01*
X86146628Y-47685771D02*
X86146628Y-46185771D01*
X86003771Y-46400057D01*
X85860914Y-46542914D01*
X85718057Y-46614342D01*
X87503771Y-46185771D02*
X87646628Y-46185771D01*
X87789485Y-46257200D01*
X87860914Y-46328628D01*
X87932342Y-46471485D01*
X88003771Y-46757200D01*
X88003771Y-47114342D01*
X87932342Y-47400057D01*
X87860914Y-47542914D01*
X87789485Y-47614342D01*
X87646628Y-47685771D01*
X87503771Y-47685771D01*
X87360914Y-47614342D01*
X87289485Y-47542914D01*
X87218057Y-47400057D01*
X87146628Y-47114342D01*
X87146628Y-46757200D01*
X87218057Y-46471485D01*
X87289485Y-46328628D01*
X87360914Y-46257200D01*
X87503771Y-46185771D01*
X89360914Y-46185771D02*
X88646628Y-46185771D01*
X88575200Y-46900057D01*
X88646628Y-46828628D01*
X88789485Y-46757200D01*
X89146628Y-46757200D01*
X89289485Y-46828628D01*
X89360914Y-46900057D01*
X89432342Y-47042914D01*
X89432342Y-47400057D01*
X89360914Y-47542914D01*
X89289485Y-47614342D01*
X89146628Y-47685771D01*
X88789485Y-47685771D01*
X88646628Y-47614342D01*
X88575200Y-47542914D01*
X90289485Y-46828628D02*
X90146628Y-46757200D01*
X90075200Y-46685771D01*
X90003771Y-46542914D01*
X90003771Y-46471485D01*
X90075200Y-46328628D01*
X90146628Y-46257200D01*
X90289485Y-46185771D01*
X90575200Y-46185771D01*
X90718057Y-46257200D01*
X90789485Y-46328628D01*
X90860914Y-46471485D01*
X90860914Y-46542914D01*
X90789485Y-46685771D01*
X90718057Y-46757200D01*
X90575200Y-46828628D01*
X90289485Y-46828628D01*
X90146628Y-46900057D01*
X90075200Y-46971485D01*
X90003771Y-47114342D01*
X90003771Y-47400057D01*
X90075200Y-47542914D01*
X90146628Y-47614342D01*
X90289485Y-47685771D01*
X90575200Y-47685771D01*
X90718057Y-47614342D01*
X90789485Y-47542914D01*
X90860914Y-47400057D01*
X90860914Y-47114342D01*
X90789485Y-46971485D01*
X90718057Y-46900057D01*
X90575200Y-46828628D01*
X91360914Y-46185771D02*
X92360914Y-46185771D01*
X91718057Y-47685771D01*
X93146628Y-46828628D02*
X93003771Y-46757200D01*
X92932342Y-46685771D01*
X92860914Y-46542914D01*
X92860914Y-46471485D01*
X92932342Y-46328628D01*
X93003771Y-46257200D01*
X93146628Y-46185771D01*
X93432342Y-46185771D01*
X93575200Y-46257200D01*
X93646628Y-46328628D01*
X93718057Y-46471485D01*
X93718057Y-46542914D01*
X93646628Y-46685771D01*
X93575200Y-46757200D01*
X93432342Y-46828628D01*
X93146628Y-46828628D01*
X93003771Y-46900057D01*
X92932342Y-46971485D01*
X92860914Y-47114342D01*
X92860914Y-47400057D01*
X92932342Y-47542914D01*
X93003771Y-47614342D01*
X93146628Y-47685771D01*
X93432342Y-47685771D01*
X93575200Y-47614342D01*
X93646628Y-47542914D01*
X93718057Y-47400057D01*
X93718057Y-47114342D01*
X93646628Y-46971485D01*
X93575200Y-46900057D01*
X93432342Y-46828628D01*
X94575200Y-46828628D02*
X94432342Y-46757200D01*
X94360914Y-46685771D01*
X94289485Y-46542914D01*
X94289485Y-46471485D01*
X94360914Y-46328628D01*
X94432342Y-46257200D01*
X94575200Y-46185771D01*
X94860914Y-46185771D01*
X95003771Y-46257200D01*
X95075200Y-46328628D01*
X95146628Y-46471485D01*
X95146628Y-46542914D01*
X95075200Y-46685771D01*
X95003771Y-46757200D01*
X94860914Y-46828628D01*
X94575200Y-46828628D01*
X94432342Y-46900057D01*
X94360914Y-46971485D01*
X94289485Y-47114342D01*
X94289485Y-47400057D01*
X94360914Y-47542914D01*
X94432342Y-47614342D01*
X94575200Y-47685771D01*
X94860914Y-47685771D01*
X95003771Y-47614342D01*
X95075200Y-47542914D01*
X95146628Y-47400057D01*
X95146628Y-47114342D01*
X95075200Y-46971485D01*
X95003771Y-46900057D01*
X94860914Y-46828628D01*
X96075200Y-46185771D02*
X96218057Y-46185771D01*
X96360914Y-46257200D01*
X96432342Y-46328628D01*
X96503771Y-46471485D01*
X96575200Y-46757200D01*
X96575200Y-47114342D01*
X96503771Y-47400057D01*
X96432342Y-47542914D01*
X96360914Y-47614342D01*
X96218057Y-47685771D01*
X96075200Y-47685771D01*
X95932342Y-47614342D01*
X95860914Y-47542914D01*
X95789485Y-47400057D01*
X95718057Y-47114342D01*
X95718057Y-46757200D01*
X95789485Y-46471485D01*
X95860914Y-46328628D01*
X95932342Y-46257200D01*
X96075200Y-46185771D01*
X97503771Y-46185771D02*
X97646628Y-46185771D01*
X97789485Y-46257200D01*
X97860914Y-46328628D01*
X97932342Y-46471485D01*
X98003771Y-46757200D01*
X98003771Y-47114342D01*
X97932342Y-47400057D01*
X97860914Y-47542914D01*
X97789485Y-47614342D01*
X97646628Y-47685771D01*
X97503771Y-47685771D01*
X97360914Y-47614342D01*
X97289485Y-47542914D01*
X97218057Y-47400057D01*
X97146628Y-47114342D01*
X97146628Y-46757200D01*
X97218057Y-46471485D01*
X97289485Y-46328628D01*
X97360914Y-46257200D01*
X97503771Y-46185771D01*
X99432342Y-47685771D02*
X98575200Y-47685771D01*
X99003771Y-47685771D02*
X99003771Y-46185771D01*
X98860914Y-46400057D01*
X98718057Y-46542914D01*
X98575200Y-46614342D01*
X99932342Y-46185771D02*
X100860914Y-46185771D01*
X100360914Y-46757200D01*
X100575200Y-46757200D01*
X100718057Y-46828628D01*
X100789485Y-46900057D01*
X100860914Y-47042914D01*
X100860914Y-47400057D01*
X100789485Y-47542914D01*
X100718057Y-47614342D01*
X100575200Y-47685771D01*
X100146628Y-47685771D01*
X100003771Y-47614342D01*
X99932342Y-47542914D01*
D10*
D13*
X78643152Y-35816723D02*
X78928866Y-35911961D01*
X79405057Y-35911961D01*
X79595533Y-35816723D01*
X79690771Y-35721485D01*
X79786009Y-35531009D01*
X79786009Y-35340533D01*
X79690771Y-35150057D01*
X79595533Y-35054819D01*
X79405057Y-34959580D01*
X79024104Y-34864342D01*
X78833628Y-34769104D01*
X78738390Y-34673866D01*
X78643152Y-34483390D01*
X78643152Y-34292914D01*
X78738390Y-34102438D01*
X78833628Y-34007200D01*
X79024104Y-33911961D01*
X79500295Y-33911961D01*
X79786009Y-34007200D01*
X80357438Y-34578628D02*
X81119342Y-34578628D01*
X80643152Y-33911961D02*
X80643152Y-35626247D01*
X80738390Y-35816723D01*
X80928866Y-35911961D01*
X81119342Y-35911961D01*
X82643152Y-34578628D02*
X82643152Y-35911961D01*
X81786009Y-34578628D02*
X81786009Y-35626247D01*
X81881247Y-35816723D01*
X82071723Y-35911961D01*
X82357438Y-35911961D01*
X82547914Y-35816723D01*
X82643152Y-35721485D01*
X84452676Y-35911961D02*
X84452676Y-33911961D01*
X84452676Y-35816723D02*
X84262200Y-35911961D01*
X83881247Y-35911961D01*
X83690771Y-35816723D01*
X83595533Y-35721485D01*
X83500295Y-35531009D01*
X83500295Y-34959580D01*
X83595533Y-34769104D01*
X83690771Y-34673866D01*
X83881247Y-34578628D01*
X84262200Y-34578628D01*
X84452676Y-34673866D01*
X85405057Y-35911961D02*
X85405057Y-34578628D01*
X85405057Y-33911961D02*
X85309819Y-34007200D01*
X85405057Y-34102438D01*
X85500295Y-34007200D01*
X85405057Y-33911961D01*
X85405057Y-34102438D01*
X86643152Y-35911961D02*
X86452676Y-35816723D01*
X86357438Y-35721485D01*
X86262200Y-35531009D01*
X86262200Y-34959580D01*
X86357438Y-34769104D01*
X86452676Y-34673866D01*
X86643152Y-34578628D01*
X86928866Y-34578628D01*
X87119342Y-34673866D01*
X87214580Y-34769104D01*
X87309819Y-34959580D01*
X87309819Y-35531009D01*
X87214580Y-35721485D01*
X87119342Y-35816723D01*
X86928866Y-35911961D01*
X86643152Y-35911961D01*
X89690771Y-35911961D02*
X89690771Y-33911961D01*
X90452676Y-33911961D01*
X90643152Y-34007200D01*
X90738390Y-34102438D01*
X90833628Y-34292914D01*
X90833628Y-34578628D01*
X90738390Y-34769104D01*
X90643152Y-34864342D01*
X90452676Y-34959580D01*
X89690771Y-34959580D01*
X92547914Y-35911961D02*
X92547914Y-34864342D01*
X92452676Y-34673866D01*
X92262200Y-34578628D01*
X91881247Y-34578628D01*
X91690771Y-34673866D01*
X92547914Y-35816723D02*
X92357438Y-35911961D01*
X91881247Y-35911961D01*
X91690771Y-35816723D01*
X91595533Y-35626247D01*
X91595533Y-35435771D01*
X91690771Y-35245295D01*
X91881247Y-35150057D01*
X92357438Y-35150057D01*
X92547914Y-35054819D01*
X93786009Y-35911961D02*
X93595533Y-35816723D01*
X93500295Y-35626247D01*
X93500295Y-33911961D01*
X95309819Y-35816723D02*
X95119342Y-35911961D01*
X94738390Y-35911961D01*
X94547914Y-35816723D01*
X94452676Y-35626247D01*
X94452676Y-34864342D01*
X94547914Y-34673866D01*
X94738390Y-34578628D01*
X95119342Y-34578628D01*
X95309819Y-34673866D01*
X95405057Y-34864342D01*
X95405057Y-35054819D01*
X94452676Y-35245295D01*
X96547914Y-35911961D02*
X96357438Y-35816723D01*
X96262200Y-35721485D01*
X96166961Y-35531009D01*
X96166961Y-34959580D01*
X96262200Y-34769104D01*
X96357438Y-34673866D01*
X96547914Y-34578628D01*
X96833628Y-34578628D01*
X97024104Y-34673866D01*
X97119342Y-34769104D01*
X97214580Y-34959580D01*
X97214580Y-35531009D01*
X97119342Y-35721485D01*
X97024104Y-35816723D01*
X96833628Y-35911961D01*
X96547914Y-35911961D01*
X98357438Y-35911961D02*
X98166961Y-35816723D01*
X98071723Y-35626247D01*
X98071723Y-33911961D01*
X99405057Y-35911961D02*
X99214580Y-35816723D01*
X99119342Y-35721485D01*
X99024104Y-35531009D01*
X99024104Y-34959580D01*
X99119342Y-34769104D01*
X99214580Y-34673866D01*
X99405057Y-34578628D01*
X99690771Y-34578628D01*
X99881247Y-34673866D01*
X99976485Y-34769104D01*
X100071723Y-34959580D01*
X100071723Y-35531009D01*
X99976485Y-35721485D01*
X99881247Y-35816723D01*
X99690771Y-35911961D01*
X99405057Y-35911961D01*
X101786009Y-34578628D02*
X101786009Y-36197676D01*
X101690771Y-36388152D01*
X101595533Y-36483390D01*
X101405057Y-36578628D01*
X101119342Y-36578628D01*
X100928866Y-36483390D01*
X101786009Y-35816723D02*
X101595533Y-35911961D01*
X101214580Y-35911961D01*
X101024104Y-35816723D01*
X100928866Y-35721485D01*
X100833628Y-35531009D01*
X100833628Y-34959580D01*
X100928866Y-34769104D01*
X101024104Y-34673866D01*
X101214580Y-34578628D01*
X101595533Y-34578628D01*
X101786009Y-34673866D01*
X103024104Y-35911961D02*
X102833628Y-35816723D01*
X102738390Y-35721485D01*
X102643152Y-35531009D01*
X102643152Y-34959580D01*
X102738390Y-34769104D01*
X102833628Y-34673866D01*
X103024104Y-34578628D01*
X103309819Y-34578628D01*
X103500295Y-34673866D01*
X103595533Y-34769104D01*
X103690771Y-34959580D01*
X103690771Y-35531009D01*
X103595533Y-35721485D01*
X103500295Y-35816723D01*
X103309819Y-35911961D01*
X103024104Y-35911961D01*
X106928866Y-35911961D02*
X106928866Y-33911961D01*
X106928866Y-35816723D02*
X106738390Y-35911961D01*
X106357438Y-35911961D01*
X106166961Y-35816723D01*
X106071723Y-35721485D01*
X105976485Y-35531009D01*
X105976485Y-34959580D01*
X106071723Y-34769104D01*
X106166961Y-34673866D01*
X106357438Y-34578628D01*
X106738390Y-34578628D01*
X106928866Y-34673866D01*
X107881247Y-35911961D02*
X107881247Y-34578628D01*
X107881247Y-33911961D02*
X107786009Y-34007200D01*
X107881247Y-34102438D01*
X107976485Y-34007200D01*
X107881247Y-33911961D01*
X107881247Y-34102438D01*
X110262200Y-35340533D02*
X111214580Y-35340533D01*
X110071723Y-35911961D02*
X110738390Y-33911961D01*
X111405057Y-35911961D01*
X112071723Y-34578628D02*
X112071723Y-35911961D01*
X112071723Y-34769104D02*
X112166961Y-34673866D01*
X112357438Y-34578628D01*
X112643152Y-34578628D01*
X112833628Y-34673866D01*
X112928866Y-34864342D01*
X112928866Y-35911961D01*
X114738390Y-35911961D02*
X114738390Y-33911961D01*
X114738390Y-35816723D02*
X114547914Y-35911961D01*
X114166961Y-35911961D01*
X113976485Y-35816723D01*
X113881247Y-35721485D01*
X113786009Y-35531009D01*
X113786009Y-34959580D01*
X113881247Y-34769104D01*
X113976485Y-34673866D01*
X114166961Y-34578628D01*
X114547914Y-34578628D01*
X114738390Y-34673866D01*
X115690771Y-35911961D02*
X115690771Y-34578628D01*
X115690771Y-34959580D02*
X115786009Y-34769104D01*
X115881247Y-34673866D01*
X116071723Y-34578628D01*
X116262200Y-34578628D01*
X117690771Y-35816723D02*
X117500295Y-35911961D01*
X117119342Y-35911961D01*
X116928866Y-35816723D01*
X116833628Y-35626247D01*
X116833628Y-34864342D01*
X116928866Y-34673866D01*
X117119342Y-34578628D01*
X117500295Y-34578628D01*
X117690771Y-34673866D01*
X117786009Y-34864342D01*
X117786009Y-35054819D01*
X116833628Y-35245295D01*
X119500295Y-35911961D02*
X119500295Y-34864342D01*
X119405057Y-34673866D01*
X119214580Y-34578628D01*
X118833628Y-34578628D01*
X118643152Y-34673866D01*
X119500295Y-35816723D02*
X119309819Y-35911961D01*
X118833628Y-35911961D01*
X118643152Y-35816723D01*
X118547914Y-35626247D01*
X118547914Y-35435771D01*
X118643152Y-35245295D01*
X118833628Y-35150057D01*
X119309819Y-35150057D01*
X119500295Y-35054819D01*
X121976485Y-35911961D02*
X121976485Y-33911961D01*
X122738390Y-33911961D01*
X122928866Y-34007200D01*
X123024104Y-34102438D01*
X123119342Y-34292914D01*
X123119342Y-34578628D01*
X123024104Y-34769104D01*
X122928866Y-34864342D01*
X122738390Y-34959580D01*
X121976485Y-34959580D01*
X124833628Y-35911961D02*
X124833628Y-34864342D01*
X124738390Y-34673866D01*
X124547914Y-34578628D01*
X124166961Y-34578628D01*
X123976485Y-34673866D01*
X124833628Y-35816723D02*
X124643152Y-35911961D01*
X124166961Y-35911961D01*
X123976485Y-35816723D01*
X123881247Y-35626247D01*
X123881247Y-35435771D01*
X123976485Y-35245295D01*
X124166961Y-35150057D01*
X124643152Y-35150057D01*
X124833628Y-35054819D01*
X126071723Y-35911961D02*
X125881247Y-35816723D01*
X125786009Y-35626247D01*
X125786009Y-33911961D01*
X127595533Y-35816723D02*
X127405057Y-35911961D01*
X127024104Y-35911961D01*
X126833628Y-35816723D01*
X126738390Y-35626247D01*
X126738390Y-34864342D01*
X126833628Y-34673866D01*
X127024104Y-34578628D01*
X127405057Y-34578628D01*
X127595533Y-34673866D01*
X127690771Y-34864342D01*
X127690771Y-35054819D01*
X126738390Y-35245295D01*
X128833628Y-35911961D02*
X128643152Y-35816723D01*
X128547914Y-35721485D01*
X128452676Y-35531009D01*
X128452676Y-34959580D01*
X128547914Y-34769104D01*
X128643152Y-34673866D01*
X128833628Y-34578628D01*
X129119342Y-34578628D01*
X129309819Y-34673866D01*
X129405057Y-34769104D01*
X129500295Y-34959580D01*
X129500295Y-35531009D01*
X129405057Y-35721485D01*
X129309819Y-35816723D01*
X129119342Y-35911961D01*
X128833628Y-35911961D01*
X130643152Y-35911961D02*
X130452676Y-35816723D01*
X130357438Y-35626247D01*
X130357438Y-33911961D01*
X131690771Y-35911961D02*
X131500295Y-35816723D01*
X131405057Y-35721485D01*
X131309819Y-35531009D01*
X131309819Y-34959580D01*
X131405057Y-34769104D01*
X131500295Y-34673866D01*
X131690771Y-34578628D01*
X131976485Y-34578628D01*
X132166961Y-34673866D01*
X132262199Y-34769104D01*
X132357438Y-34959580D01*
X132357438Y-35531009D01*
X132262199Y-35721485D01*
X132166961Y-35816723D01*
X131976485Y-35911961D01*
X131690771Y-35911961D01*
X134071723Y-34578628D02*
X134071723Y-36197676D01*
X133976485Y-36388152D01*
X133881247Y-36483390D01*
X133690771Y-36578628D01*
X133405057Y-36578628D01*
X133214580Y-36483390D01*
X134071723Y-35816723D02*
X133881247Y-35911961D01*
X133500295Y-35911961D01*
X133309819Y-35816723D01*
X133214580Y-35721485D01*
X133119342Y-35531009D01*
X133119342Y-34959580D01*
X133214580Y-34769104D01*
X133309819Y-34673866D01*
X133500295Y-34578628D01*
X133881247Y-34578628D01*
X134071723Y-34673866D01*
X135309819Y-35911961D02*
X135119342Y-35816723D01*
X135024104Y-35721485D01*
X134928866Y-35531009D01*
X134928866Y-34959580D01*
X135024104Y-34769104D01*
X135119342Y-34673866D01*
X135309819Y-34578628D01*
X135595533Y-34578628D01*
X135786009Y-34673866D01*
X135881247Y-34769104D01*
X135976485Y-34959580D01*
X135976485Y-35531009D01*
X135881247Y-35721485D01*
X135786009Y-35816723D01*
X135595533Y-35911961D01*
X135309819Y-35911961D01*
D10*
D11*
X97002200Y-58507200D02*
X97002200Y-61507200D01*
D10*
D11*
X161002200Y-58507200D02*
X161002200Y-65007200D01*
D10*
D12*
X78973580Y-52476247D02*
X78973580Y-50776247D01*
X79925961Y-50776247D01*
X80497390Y-50857200D01*
X80878342Y-51019104D01*
X81068819Y-51181009D01*
X81259295Y-51504819D01*
X81259295Y-51747676D01*
X81068819Y-52071485D01*
X80878342Y-52233390D01*
X80497390Y-52395295D01*
X79925961Y-52476247D01*
X78973580Y-52476247D01*
X82973580Y-52476247D02*
X82973580Y-50776247D01*
X84687866Y-52395295D02*
X85259295Y-52476247D01*
X86211676Y-52476247D01*
X86592628Y-52395295D01*
X86783104Y-52314342D01*
X86973580Y-52152438D01*
X86973580Y-51990533D01*
X86783104Y-51828628D01*
X86592628Y-51747676D01*
X86211676Y-51666723D01*
X85449771Y-51585771D01*
X85068819Y-51504819D01*
X84878342Y-51423866D01*
X84687866Y-51261961D01*
X84687866Y-51100057D01*
X84878342Y-50938152D01*
X85068819Y-50857200D01*
X85449771Y-50776247D01*
X86402152Y-50776247D01*
X86973580Y-50857200D01*
X88687866Y-51585771D02*
X90021200Y-51585771D01*
X90592628Y-52476247D02*
X88687866Y-52476247D01*
X88687866Y-50776247D01*
X90592628Y-50776247D01*
X94402152Y-50857200D02*
X94021200Y-50776247D01*
X93449771Y-50776247D01*
X92878342Y-50857200D01*
X92497390Y-51019104D01*
X92306914Y-51181009D01*
X92116438Y-51504819D01*
X92116438Y-51747676D01*
X92306914Y-52071485D01*
X92497390Y-52233390D01*
X92878342Y-52395295D01*
X93449771Y-52476247D01*
X93830723Y-52476247D01*
X94402152Y-52395295D01*
X94592628Y-52314342D01*
X94592628Y-51747676D01*
X93830723Y-51747676D01*
X96306914Y-52476247D02*
X96306914Y-50776247D01*
X98592628Y-52476247D01*
X98592628Y-50776247D01*
X101259295Y-50776247D02*
X102021200Y-50776247D01*
X102402152Y-50857200D01*
X102783104Y-51019104D01*
X102973580Y-51342914D01*
X102973580Y-51909580D01*
X102783104Y-52233390D01*
X102402152Y-52395295D01*
X102021200Y-52476247D01*
X101259295Y-52476247D01*
X100878342Y-52395295D01*
X100497390Y-52233390D01*
X100306914Y-51909580D01*
X100306914Y-51342914D01*
X100497390Y-51019104D01*
X100878342Y-50857200D01*
X101259295Y-50776247D01*
X107164057Y-50776247D02*
X108497390Y-52476247D01*
X109830723Y-50776247D01*
X111164057Y-52476247D02*
X111164057Y-50776247D01*
X112878342Y-52395295D02*
X113449771Y-52476247D01*
X114402152Y-52476247D01*
X114783104Y-52395295D01*
X114973580Y-52314342D01*
X115164057Y-52152438D01*
X115164057Y-51990533D01*
X114973580Y-51828628D01*
X114783104Y-51747676D01*
X114402152Y-51666723D01*
X113640247Y-51585771D01*
X113259295Y-51504819D01*
X113068819Y-51423866D01*
X112878342Y-51261961D01*
X112878342Y-51100057D01*
X113068819Y-50938152D01*
X113259295Y-50857200D01*
X113640247Y-50776247D01*
X114592628Y-50776247D01*
X115164057Y-50857200D01*
X116306914Y-50776247D02*
X118592628Y-50776247D01*
X117449771Y-52476247D02*
X117449771Y-50776247D01*
X119735485Y-51990533D02*
X121640247Y-51990533D01*
X119354533Y-52476247D02*
X120687866Y-50776247D01*
X122021200Y-52476247D01*
X128306914Y-52476247D02*
X126402152Y-52476247D01*
X126402152Y-50776247D01*
X129449771Y-51990533D02*
X131354533Y-51990533D01*
X129068819Y-52476247D02*
X130402152Y-50776247D01*
X131735485Y-52476247D01*
X132497390Y-50776247D02*
X134783104Y-50776247D01*
X133640247Y-52476247D02*
X133640247Y-50776247D01*
X136878342Y-50776247D02*
X137640247Y-50776247D01*
X138021200Y-50857200D01*
X138402152Y-51019104D01*
X138592628Y-51342914D01*
X138592628Y-51909580D01*
X138402152Y-52233390D01*
X138021200Y-52395295D01*
X137640247Y-52476247D01*
X136878342Y-52476247D01*
X136497390Y-52395295D01*
X136116438Y-52233390D01*
X135925961Y-51909580D01*
X135925961Y-51342914D01*
X136116438Y-51019104D01*
X136497390Y-50857200D01*
X136878342Y-50776247D01*
X142783104Y-50776247D02*
X145068819Y-50776247D01*
X143925961Y-52476247D02*
X143925961Y-50776247D01*
X147164057Y-50776247D02*
X147925961Y-50776247D01*
X148306914Y-50857200D01*
X148687866Y-51019104D01*
X148878342Y-51342914D01*
X148878342Y-51909580D01*
X148687866Y-52233390D01*
X148306914Y-52395295D01*
X147925961Y-52476247D01*
X147164057Y-52476247D01*
X146783104Y-52395295D01*
X146402152Y-52233390D01*
X146211676Y-51909580D01*
X146211676Y-51342914D01*
X146402152Y-51019104D01*
X146783104Y-50857200D01*
X147164057Y-50776247D01*
X150592628Y-52476247D02*
X150592628Y-50776247D01*
X152116438Y-50776247D01*
X152497390Y-50857200D01*
X152687866Y-50938152D01*
X152878342Y-51100057D01*
X152878342Y-51342914D01*
X152687866Y-51504819D01*
X152497390Y-51585771D01*
X152116438Y-51666723D01*
X150592628Y-51666723D01*
D11*
X5650000Y27833334D02*
X5616666Y27766667D01*
X5616666Y27666667D01*
X5650000Y27566667D01*
X5716666Y27500000D01*
X5783333Y27466667D01*
X5916666Y27433334D01*
X6016666Y27433334D01*
X6150000Y27466667D01*
X6216666Y27500000D01*
X6283333Y27566667D01*
X6316666Y27666667D01*
X6316666Y27733334D01*
X6283333Y27833334D01*
X6250000Y27866667D01*
X6016666Y27866667D01*
X6016666Y27733334D01*
X6316666Y28566667D02*
X5983333Y28333334D01*
X6316666Y28166667D02*
X5616666Y28166667D01*
X5616666Y28433334D01*
X5650000Y28500000D01*
X5683333Y28533334D01*
X5750000Y28566667D01*
X5850000Y28566667D01*
X5916666Y28533334D01*
X5950000Y28500000D01*
X5983333Y28433334D01*
X5983333Y28166667D01*
X5950000Y28866667D02*
X5950000Y29100000D01*
X6316666Y29200000D02*
X6316666Y28866667D01*
X5616666Y28866667D01*
X5616666Y29200000D01*
X5950000Y29500000D02*
X5950000Y29733334D01*
X6316666Y29833334D02*
X6316666Y29500000D01*
X5616666Y29500000D01*
X5616666Y29833334D01*
X6316666Y30133334D02*
X5616666Y30133334D01*
X6316666Y30533334D01*
X5616666Y30533334D01*
X1716666Y27950000D02*
X1383333Y27716667D01*
X1716666Y27550000D02*
X1016666Y27550000D01*
X1016666Y27816667D01*
X1050000Y27883334D01*
X1083333Y27916667D01*
X1150000Y27950000D01*
X1250000Y27950000D01*
X1316666Y27916667D01*
X1350000Y27883334D01*
X1383333Y27816667D01*
X1383333Y27550000D01*
X1350000Y28250000D02*
X1350000Y28483334D01*
X1716666Y28583334D02*
X1716666Y28250000D01*
X1016666Y28250000D01*
X1016666Y28583334D01*
X1716666Y28883334D02*
X1016666Y28883334D01*
X1016666Y29050000D01*
X1050000Y29150000D01*
X1116666Y29216667D01*
X1183333Y29250000D01*
X1316666Y29283334D01*
X1416666Y29283334D01*
X1550000Y29250000D01*
X1616666Y29216667D01*
X1683333Y29150000D01*
X1716666Y29050000D01*
X1716666Y28883334D01*
D14*
X113580714Y52992858D02*
X113795000Y52921429D01*
X114152142Y52921429D01*
X114295000Y52992858D01*
X114366428Y53064286D01*
X114437857Y53207143D01*
X114437857Y53350000D01*
X114366428Y53492858D01*
X114295000Y53564286D01*
X114152142Y53635715D01*
X113866428Y53707143D01*
X113723571Y53778572D01*
X113652142Y53850000D01*
X113580714Y53992858D01*
X113580714Y54135715D01*
X113652142Y54278572D01*
X113723571Y54350000D01*
X113866428Y54421429D01*
X114223571Y54421429D01*
X114437857Y54350000D01*
X115080714Y52921429D02*
X115080714Y54421429D01*
X116509285Y52921429D02*
X115795000Y52921429D01*
X115795000Y54421429D01*
X117009285Y52921429D02*
X117009285Y54421429D01*
X117866428Y52921429D02*
X117223571Y53778572D01*
X117866428Y54421429D02*
X117009285Y53564286D01*
X118437857Y52992858D02*
X118652142Y52921429D01*
X119009285Y52921429D01*
X119152142Y52992858D01*
X119223571Y53064286D01*
X119295000Y53207143D01*
X119295000Y53350000D01*
X119223571Y53492858D01*
X119152142Y53564286D01*
X119009285Y53635715D01*
X118723571Y53707143D01*
X118580714Y53778572D01*
X118509285Y53850000D01*
X118437857Y53992858D01*
X118437857Y54135715D01*
X118509285Y54278572D01*
X118580714Y54350000D01*
X118723571Y54421429D01*
X119080714Y54421429D01*
X119295000Y54350000D01*
X120795000Y53064286D02*
X120723571Y52992858D01*
X120509285Y52921429D01*
X120366428Y52921429D01*
X120152142Y52992858D01*
X120009285Y53135715D01*
X119937857Y53278572D01*
X119866428Y53564286D01*
X119866428Y53778572D01*
X119937857Y54064286D01*
X120009285Y54207143D01*
X120152142Y54350000D01*
X120366428Y54421429D01*
X120509285Y54421429D01*
X120723571Y54350000D01*
X120795000Y54278572D01*
X122295000Y52921429D02*
X121795000Y53635715D01*
X121437857Y52921429D02*
X121437857Y54421429D01*
X122009285Y54421429D01*
X122152142Y54350000D01*
X122223571Y54278572D01*
X122295000Y54135715D01*
X122295000Y53921429D01*
X122223571Y53778572D01*
X122152142Y53707143D01*
X122009285Y53635715D01*
X121437857Y53635715D01*
X122937857Y53707143D02*
X123437857Y53707143D01*
X123652142Y52921429D02*
X122937857Y52921429D01*
X122937857Y54421429D01*
X123652142Y54421429D01*
X124295000Y53707143D02*
X124795000Y53707143D01*
X125009285Y52921429D02*
X124295000Y52921429D01*
X124295000Y54421429D01*
X125009285Y54421429D01*
X125652142Y52921429D02*
X125652142Y54421429D01*
X126509285Y52921429D01*
X126509285Y54421429D01*
X128152142Y54421429D02*
X129009285Y54421429D01*
X128580714Y52921429D02*
X128580714Y54421429D01*
X129795000Y54421429D02*
X130080714Y54421429D01*
X130223571Y54350000D01*
X130366428Y54207143D01*
X130437857Y53921429D01*
X130437857Y53421429D01*
X130366428Y53135715D01*
X130223571Y52992858D01*
X130080714Y52921429D01*
X129795000Y52921429D01*
X129652142Y52992858D01*
X129509285Y53135715D01*
X129437857Y53421429D01*
X129437857Y53921429D01*
X129509285Y54207143D01*
X129652142Y54350000D01*
X129795000Y54421429D01*
X131080714Y52921429D02*
X131080714Y54421429D01*
X131652142Y54421429D01*
X131795000Y54350000D01*
X131866428Y54278572D01*
X131937857Y54135715D01*
X131937857Y53921429D01*
X131866428Y53778572D01*
X131795000Y53707143D01*
X131652142Y53635715D01*
X131080714Y53635715D01*
X75071428Y2214286D02*
X75000000Y2142858D01*
X74785714Y2071429D01*
X74642857Y2071429D01*
X74428571Y2142858D01*
X74285714Y2285715D01*
X74214285Y2428572D01*
X74142857Y2714286D01*
X74142857Y2928572D01*
X74214285Y3214286D01*
X74285714Y3357143D01*
X74428571Y3500000D01*
X74642857Y3571429D01*
X74785714Y3571429D01*
X75000000Y3500000D01*
X75071428Y3428572D01*
X75714285Y2642858D02*
X76857142Y2642858D01*
X77857142Y3571429D02*
X78000000Y3571429D01*
X78142857Y3500000D01*
X78214285Y3428572D01*
X78285714Y3285715D01*
X78357142Y3000000D01*
X78357142Y2642858D01*
X78285714Y2357143D01*
X78214285Y2214286D01*
X78142857Y2142858D01*
X78000000Y2071429D01*
X77857142Y2071429D01*
X77714285Y2142858D01*
X77642857Y2214286D01*
X77571428Y2357143D01*
X77500000Y2642858D01*
X77500000Y3000000D01*
X77571428Y3285715D01*
X77642857Y3428572D01*
X77714285Y3500000D01*
X77857142Y3571429D01*
X78928571Y3428572D02*
X79000000Y3500000D01*
X79142857Y3571429D01*
X79500000Y3571429D01*
X79642857Y3500000D01*
X79714285Y3428572D01*
X79785714Y3285715D01*
X79785714Y3142858D01*
X79714285Y2928572D01*
X78857142Y2071429D01*
X79785714Y2071429D01*
X81071428Y3071429D02*
X81071428Y2071429D01*
X80714285Y3642858D02*
X80357142Y2571429D01*
X81285714Y2571429D01*
X82642857Y2071429D02*
X81785714Y2071429D01*
X82214285Y2071429D02*
X82214285Y3571429D01*
X82071428Y3357143D01*
X81928571Y3214286D01*
X81785714Y3142858D01*
X83285714Y2642858D02*
X84428571Y2642858D01*
X85428571Y3571429D02*
X85571428Y3571429D01*
X85714285Y3500000D01*
X85785714Y3428572D01*
X85857142Y3285715D01*
X85928571Y3000000D01*
X85928571Y2642858D01*
X85857142Y2357143D01*
X85785714Y2214286D01*
X85714285Y2142858D01*
X85571428Y2071429D01*
X85428571Y2071429D01*
X85285714Y2142858D01*
X85214285Y2214286D01*
X85142857Y2357143D01*
X85071428Y2642858D01*
X85071428Y3000000D01*
X85142857Y3285715D01*
X85214285Y3428572D01*
X85285714Y3500000D01*
X85428571Y3571429D01*
X87285714Y3571429D02*
X86571428Y3571429D01*
X86500000Y2857143D01*
X86571428Y2928572D01*
X86714285Y3000000D01*
X87071428Y3000000D01*
X87214285Y2928572D01*
X87285714Y2857143D01*
X87357142Y2714286D01*
X87357142Y2357143D01*
X87285714Y2214286D01*
X87214285Y2142858D01*
X87071428Y2071429D01*
X86714285Y2071429D01*
X86571428Y2142858D01*
X86500000Y2214286D01*
D15*
X45500000Y6000000D02*
G75*
G02*
X47000000Y4500000I0J-1500000D01*
G01*
X27000000Y4500000D02*
G75*
G02*
X28500000Y6000000I1500000J0D01*
G01*
X0Y64000000D02*
X0Y0D01*
X110000000Y64000000D02*
X0Y64000000D01*
X110000000Y0D02*
X110000000Y64000000D01*
X47000000Y0D02*
X110000000Y0D01*
X47000000Y4500000D02*
X47000000Y0D01*
X28500000Y6000000D02*
X45500000Y6000000D01*
X27000000Y0D02*
X27000000Y4500000D01*
X0Y0D02*
X27000000Y0D01*
D10*
X70000000Y27500000D02*
X73000000Y24500000D01*
X72246000Y27516000D02*
X71246000Y27516000D01*
X72246000Y28516000D02*
X72246000Y27516000D01*
X72746000Y27516000D02*
X72746000Y28516000D01*
X73746000Y27516000D02*
X72746000Y27516000D01*
X72746000Y27016000D02*
X73746000Y27016000D01*
X72746000Y26016000D02*
X72746000Y27016000D01*
X72246000Y27016000D02*
X72246000Y26016000D01*
X71246000Y27016000D02*
X72246000Y27016000D01*
X73770755Y27266000D02*
G75*
G03*
X73770755Y27266000I-1274755J0D01*
G01*
X78121320Y30500000D02*
G75*
G03*
X78121320Y30500000I-2121320J0D01*
G01*
X73000000Y24500000D02*
X82000000Y24500000D01*
X70000000Y27500000D02*
X70000000Y36500000D01*
X82000000Y36500000D02*
X70000000Y36500000D01*
X82000000Y36500000D02*
X82000000Y24500000D01*
D11*
X9210634Y48500000D02*
G75*
G03*
X9210634Y48500000I-710634J0D01*
G01*
X66610634Y48500000D02*
G75*
G03*
X66610634Y48500000I-710634J0D01*
G01*
X64776938Y47690000D02*
X64776938Y4490000D01*
X9776938Y47690000D02*
X9776938Y4490000D01*
X64776938Y47690000D02*
X9776938Y47690000D01*
X64776938Y4490000D02*
X9776938Y4490000D01*
X28460000Y5990000D02*
X45460000Y5990000D01*
X45460000Y5990000D02*
G75*
G02*
X46960000Y4490000I0J-1500000D01*
G01*
X26960000Y4490000D02*
G75*
G02*
X28460000Y5990000I1500000J0D01*
G01*
X7268483Y5790000D02*
G75*
G03*
X7268483Y5790000I-3250011J0D01*
G01*
X8842896Y55000000D02*
G75*
G03*
X8842896Y55000000I-2834424J0D01*
G01*
X106842896Y55000000D02*
G75*
G03*
X106842896Y55000000I-2834424J0D01*
G01*
X101852896Y5790000D02*
G75*
G03*
X101852896Y5790000I-2834424J0D01*
G01*
X79700000Y32000000D02*
X80200000Y32000000D01*
X79700000Y32500000D02*
X79700000Y32000000D01*
X79200000Y32500000D02*
X79700000Y32500000D01*
X79200000Y33000000D02*
X79200000Y32500000D01*
X79700000Y33000000D02*
X79200000Y33000000D01*
X79700000Y33500000D02*
X79700000Y33000000D01*
X80200000Y33500000D02*
X79700000Y33500000D01*
X80200000Y33000000D02*
X80200000Y33500000D01*
X80700000Y33000000D02*
X80200000Y33000000D01*
X80700000Y32500000D02*
X80700000Y33000000D01*
X80200000Y32500000D02*
X80700000Y32500000D01*
X80200000Y32000000D02*
X80200000Y32500000D01*
X82950000Y30750000D02*
G75*
G03*
X82950000Y30750000I-6750000J0D01*
G01*
D10*
X90500000Y42050000D02*
X93500000Y42050000D01*
X90500000Y43550000D02*
X90500000Y42050000D01*
X93500000Y43550000D02*
X90500000Y43550000D01*
X93500000Y42050000D02*
X93500000Y43550000D01*
X89000000Y44550000D02*
X95000000Y44550000D01*
X89050000Y41050000D02*
X89000000Y41050000D01*
X95000000Y41050000D02*
X89050000Y41050000D01*
X95000000Y41050000D02*
X95000000Y44550000D01*
X89000000Y41050000D02*
X89000000Y44550000D01*
X89000000Y35050000D02*
X89000000Y38550000D01*
X95000000Y35050000D02*
X95000000Y38550000D01*
X95000000Y35050000D02*
X89050000Y35050000D01*
X89050000Y35050000D02*
X89000000Y35050000D01*
X89000000Y38550000D02*
X95000000Y38550000D01*
X93500000Y36050000D02*
X93500000Y37550000D01*
X93500000Y37550000D02*
X90500000Y37550000D01*
X90500000Y37550000D02*
X90500000Y36050000D01*
X90500000Y36050000D02*
X93500000Y36050000D01*
X90500000Y30050000D02*
X93500000Y30050000D01*
X90500000Y31550000D02*
X90500000Y30050000D01*
X93500000Y31550000D02*
X90500000Y31550000D01*
X93500000Y30050000D02*
X93500000Y31550000D01*
X89000000Y32550000D02*
X95000000Y32550000D01*
X89050000Y29050000D02*
X89000000Y29050000D01*
X95000000Y29050000D02*
X89050000Y29050000D01*
X95000000Y29050000D02*
X95000000Y32550000D01*
X89000000Y29050000D02*
X89000000Y32550000D01*
X89000000Y23050000D02*
X89000000Y26550000D01*
X95000000Y23050000D02*
X95000000Y26550000D01*
X95000000Y23050000D02*
X89050000Y23050000D01*
X89050000Y23050000D02*
X89000000Y23050000D01*
X89000000Y26550000D02*
X95000000Y26550000D01*
X93500000Y24050000D02*
X93500000Y25550000D01*
X93500000Y25550000D02*
X90500000Y25550000D01*
X90500000Y25550000D02*
X90500000Y24050000D01*
X90500000Y24050000D02*
X93500000Y24050000D01*
X90500000Y18050000D02*
X93500000Y18050000D01*
X90500000Y19550000D02*
X90500000Y18050000D01*
X93500000Y19550000D02*
X90500000Y19550000D01*
X93500000Y18050000D02*
X93500000Y19550000D01*
X89000000Y20550000D02*
X95000000Y20550000D01*
X89050000Y17050000D02*
X89000000Y17050000D01*
X95000000Y17050000D02*
X89050000Y17050000D01*
X95000000Y17050000D02*
X95000000Y20550000D01*
X89000000Y17050000D02*
X89000000Y20550000D01*
D11*
X15150000Y53600000D02*
G75*
G03*
X15150000Y53600000I-900000J0D01*
G01*
X67250000Y47800000D02*
X67250000Y5500000D01*
X7150000Y47800000D02*
X7150000Y5500000D01*
X67250000Y47800000D02*
X7150000Y47800000D01*
X67250000Y5500000D02*
X7150000Y5500000D01*
G36*
X4350000Y25650000D02*
G01*
X5350000Y26150000D01*
X5350000Y25150000D01*
X4350000Y25650000D01*
G37*
X4350000Y25650000D02*
X5350000Y26150000D01*
X5350000Y25150000D01*
X4350000Y25650000D01*
G36*
X2850000Y25650000D02*
G01*
X1850000Y26150000D01*
X1850000Y25150000D01*
X2850000Y25650000D01*
G37*
X2850000Y25650000D02*
X1850000Y26150000D01*
X1850000Y25150000D01*
X2850000Y25650000D01*
X2850000Y26150000D02*
X2850000Y25150000D01*
X4350000Y26150000D02*
X4350000Y25150000D01*
X1100000Y25650000D02*
X6100000Y25650000D01*
X5200000Y23400000D02*
G75*
G03*
X5200000Y23400000I-1600000J0D01*
G01*
X36683333Y48043334D02*
X36683333Y48743334D01*
X36850000Y48743334D01*
X36950000Y48710000D01*
X37016666Y48643334D01*
X37050000Y48576667D01*
X37083333Y48443334D01*
X37083333Y48343334D01*
X37050000Y48210000D01*
X37016666Y48143334D01*
X36950000Y48076667D01*
X36850000Y48043334D01*
X36683333Y48043334D01*
X37383333Y48043334D02*
X37383333Y48743334D01*
X37683333Y48076667D02*
X37783333Y48043334D01*
X37950000Y48043334D01*
X38016666Y48076667D01*
X38050000Y48110000D01*
X38083333Y48176667D01*
X38083333Y48243334D01*
X38050000Y48310000D01*
X38016666Y48343334D01*
X37950000Y48376667D01*
X37816666Y48410000D01*
X37750000Y48443334D01*
X37716666Y48476667D01*
X37683333Y48543334D01*
X37683333Y48610000D01*
X37716666Y48676667D01*
X37750000Y48710000D01*
X37816666Y48743334D01*
X37983333Y48743334D01*
X38083333Y48710000D01*
X38383333Y48043334D02*
X38383333Y48743334D01*
X38650000Y48743334D01*
X38716666Y48710000D01*
X38750000Y48676667D01*
X38783333Y48610000D01*
X38783333Y48510000D01*
X38750000Y48443334D01*
X38716666Y48410000D01*
X38650000Y48376667D01*
X38383333Y48376667D01*
X39450000Y48043334D02*
X39050000Y48043334D01*
X39250000Y48043334D02*
X39250000Y48743334D01*
X39183333Y48643334D01*
X39116666Y48576667D01*
X39050000Y48543334D01*
X75583333Y38300000D02*
X75683333Y38266667D01*
X75716666Y38233334D01*
X75750000Y38166667D01*
X75750000Y38066667D01*
X75716666Y38000000D01*
X75683333Y37966667D01*
X75616666Y37933334D01*
X75350000Y37933334D01*
X75350000Y38633334D01*
X75583333Y38633334D01*
X75650000Y38600000D01*
X75683333Y38566667D01*
X75716666Y38500000D01*
X75716666Y38433334D01*
X75683333Y38366667D01*
X75650000Y38333334D01*
X75583333Y38300000D01*
X75350000Y38300000D01*
X75983333Y38633334D02*
X76450000Y38633334D01*
X75983333Y37933334D01*
X76450000Y37933334D01*
X77083333Y37933334D02*
X76683333Y37933334D01*
X76883333Y37933334D02*
X76883333Y38633334D01*
X76816666Y38533334D01*
X76750000Y38466667D01*
X76683333Y38433334D01*
X91466666Y45266667D02*
X91566666Y45233334D01*
X91733333Y45233334D01*
X91800000Y45266667D01*
X91833333Y45300000D01*
X91866666Y45366667D01*
X91866666Y45433334D01*
X91833333Y45500000D01*
X91800000Y45533334D01*
X91733333Y45566667D01*
X91600000Y45600000D01*
X91533333Y45633334D01*
X91500000Y45666667D01*
X91466666Y45733334D01*
X91466666Y45800000D01*
X91500000Y45866667D01*
X91533333Y45900000D01*
X91600000Y45933334D01*
X91766666Y45933334D01*
X91866666Y45900000D01*
X92533333Y45233334D02*
X92133333Y45233334D01*
X92333333Y45233334D02*
X92333333Y45933334D01*
X92266666Y45833334D01*
X92200000Y45766667D01*
X92133333Y45733334D01*
X91466666Y39266667D02*
X91566666Y39233334D01*
X91733333Y39233334D01*
X91800000Y39266667D01*
X91833333Y39300000D01*
X91866666Y39366667D01*
X91866666Y39433334D01*
X91833333Y39500000D01*
X91800000Y39533334D01*
X91733333Y39566667D01*
X91600000Y39600000D01*
X91533333Y39633334D01*
X91500000Y39666667D01*
X91466666Y39733334D01*
X91466666Y39800000D01*
X91500000Y39866667D01*
X91533333Y39900000D01*
X91600000Y39933334D01*
X91766666Y39933334D01*
X91866666Y39900000D01*
X92133333Y39866667D02*
X92166666Y39900000D01*
X92233333Y39933334D01*
X92400000Y39933334D01*
X92466666Y39900000D01*
X92500000Y39866667D01*
X92533333Y39800000D01*
X92533333Y39733334D01*
X92500000Y39633334D01*
X92100000Y39233334D01*
X92533333Y39233334D01*
X91466666Y33266667D02*
X91566666Y33233334D01*
X91733333Y33233334D01*
X91800000Y33266667D01*
X91833333Y33300000D01*
X91866666Y33366667D01*
X91866666Y33433334D01*
X91833333Y33500000D01*
X91800000Y33533334D01*
X91733333Y33566667D01*
X91600000Y33600000D01*
X91533333Y33633334D01*
X91500000Y33666667D01*
X91466666Y33733334D01*
X91466666Y33800000D01*
X91500000Y33866667D01*
X91533333Y33900000D01*
X91600000Y33933334D01*
X91766666Y33933334D01*
X91866666Y33900000D01*
X92100000Y33933334D02*
X92533333Y33933334D01*
X92300000Y33666667D01*
X92400000Y33666667D01*
X92466666Y33633334D01*
X92500000Y33600000D01*
X92533333Y33533334D01*
X92533333Y33366667D01*
X92500000Y33300000D01*
X92466666Y33266667D01*
X92400000Y33233334D01*
X92200000Y33233334D01*
X92133333Y33266667D01*
X92100000Y33300000D01*
X91466666Y27266667D02*
X91566666Y27233334D01*
X91733333Y27233334D01*
X91800000Y27266667D01*
X91833333Y27300000D01*
X91866666Y27366667D01*
X91866666Y27433334D01*
X91833333Y27500000D01*
X91800000Y27533334D01*
X91733333Y27566667D01*
X91600000Y27600000D01*
X91533333Y27633334D01*
X91500000Y27666667D01*
X91466666Y27733334D01*
X91466666Y27800000D01*
X91500000Y27866667D01*
X91533333Y27900000D01*
X91600000Y27933334D01*
X91766666Y27933334D01*
X91866666Y27900000D01*
X92466666Y27700000D02*
X92466666Y27233334D01*
X92300000Y27966667D02*
X92133333Y27466667D01*
X92566666Y27466667D01*
X91466666Y21266667D02*
X91566666Y21233334D01*
X91733333Y21233334D01*
X91800000Y21266667D01*
X91833333Y21300000D01*
X91866666Y21366667D01*
X91866666Y21433334D01*
X91833333Y21500000D01*
X91800000Y21533334D01*
X91733333Y21566667D01*
X91600000Y21600000D01*
X91533333Y21633334D01*
X91500000Y21666667D01*
X91466666Y21733334D01*
X91466666Y21800000D01*
X91500000Y21866667D01*
X91533333Y21900000D01*
X91600000Y21933334D01*
X91766666Y21933334D01*
X91866666Y21900000D01*
X92500000Y21933334D02*
X92166666Y21933334D01*
X92133333Y21600000D01*
X92166666Y21633334D01*
X92233333Y21666667D01*
X92400000Y21666667D01*
X92466666Y21633334D01*
X92500000Y21600000D01*
X92533333Y21533334D01*
X92533333Y21366667D01*
X92500000Y21300000D01*
X92466666Y21266667D01*
X92400000Y21233334D01*
X92233333Y21233334D01*
X92166666Y21266667D01*
X92133333Y21300000D01*
X13733333Y51683334D02*
X13733333Y52383334D01*
X14000000Y52383334D01*
X14066666Y52350000D01*
X14100000Y52316667D01*
X14133333Y52250000D01*
X14133333Y52150000D01*
X14100000Y52083334D01*
X14066666Y52050000D01*
X14000000Y52016667D01*
X13733333Y52016667D01*
X14800000Y51683334D02*
X14400000Y51683334D01*
X14600000Y51683334D02*
X14600000Y52383334D01*
X14533333Y52283334D01*
X14466666Y52216667D01*
X14400000Y52183334D01*
X2800000Y20833334D02*
X2800000Y21533334D01*
X2966666Y21533334D01*
X3066666Y21500000D01*
X3133333Y21433334D01*
X3166666Y21366667D01*
X3200000Y21233334D01*
X3200000Y21133334D01*
X3166666Y21000000D01*
X3133333Y20933334D01*
X3066666Y20866667D01*
X2966666Y20833334D01*
X2800000Y20833334D01*
X3833333Y20833334D02*
X3500000Y20833334D01*
X3500000Y21533334D01*
X4433333Y20833334D02*
X4033333Y20833334D01*
X4233333Y20833334D02*
X4233333Y21533334D01*
X4166666Y21433334D01*
X4100000Y21366667D01*
X4033333Y21333334D01*
%LPC*%
D14*
X113580714Y57192858D02*
X113795000Y57121429D01*
X114152142Y57121429D01*
X114295000Y57192858D01*
X114366428Y57264286D01*
X114437857Y57407143D01*
X114437857Y57550000D01*
X114366428Y57692858D01*
X114295000Y57764286D01*
X114152142Y57835715D01*
X113866428Y57907143D01*
X113723571Y57978572D01*
X113652142Y58050000D01*
X113580714Y58192858D01*
X113580714Y58335715D01*
X113652142Y58478572D01*
X113723571Y58550000D01*
X113866428Y58621429D01*
X114223571Y58621429D01*
X114437857Y58550000D01*
X115366428Y58621429D02*
X115652142Y58621429D01*
X115795000Y58550000D01*
X115937857Y58407143D01*
X116009285Y58121429D01*
X116009285Y57621429D01*
X115937857Y57335715D01*
X115795000Y57192858D01*
X115652142Y57121429D01*
X115366428Y57121429D01*
X115223571Y57192858D01*
X115080714Y57335715D01*
X115009285Y57621429D01*
X115009285Y58121429D01*
X115080714Y58407143D01*
X115223571Y58550000D01*
X115366428Y58621429D01*
X117366428Y57121429D02*
X116652142Y57121429D01*
X116652142Y58621429D01*
X117866428Y57121429D02*
X117866428Y58621429D01*
X118223571Y58621429D01*
X118437857Y58550000D01*
X118580714Y58407143D01*
X118652142Y58264286D01*
X118723571Y57978572D01*
X118723571Y57764286D01*
X118652142Y57478572D01*
X118580714Y57335715D01*
X118437857Y57192858D01*
X118223571Y57121429D01*
X117866428Y57121429D01*
X119366428Y57907143D02*
X119866428Y57907143D01*
X120080714Y57121429D02*
X119366428Y57121429D01*
X119366428Y58621429D01*
X120080714Y58621429D01*
X121580714Y57121429D02*
X121080714Y57835715D01*
X120723571Y57121429D02*
X120723571Y58621429D01*
X121295000Y58621429D01*
X121437857Y58550000D01*
X121509285Y58478572D01*
X121580714Y58335715D01*
X121580714Y58121429D01*
X121509285Y57978572D01*
X121437857Y57907143D01*
X121295000Y57835715D01*
X120723571Y57835715D01*
X122223571Y57121429D02*
X122223571Y58621429D01*
X122723571Y57550000D01*
X123223571Y58621429D01*
X123223571Y57121429D01*
X123866428Y57550000D02*
X124580714Y57550000D01*
X123723571Y57121429D02*
X124223571Y58621429D01*
X124723571Y57121429D01*
X125152142Y57192858D02*
X125366428Y57121429D01*
X125723571Y57121429D01*
X125866428Y57192858D01*
X125937857Y57264286D01*
X126009285Y57407143D01*
X126009285Y57550000D01*
X125937857Y57692858D01*
X125866428Y57764286D01*
X125723571Y57835715D01*
X125437857Y57907143D01*
X125295000Y57978572D01*
X125223571Y58050000D01*
X125152142Y58192858D01*
X125152142Y58335715D01*
X125223571Y58478572D01*
X125295000Y58550000D01*
X125437857Y58621429D01*
X125795000Y58621429D01*
X126009285Y58550000D01*
X126652142Y57121429D02*
X126652142Y58621429D01*
X127509285Y57121429D02*
X126866428Y57978572D01*
X127509285Y58621429D02*
X126652142Y57764286D01*
X129080714Y58621429D02*
X129937857Y58621429D01*
X129509285Y57121429D02*
X129509285Y58621429D01*
X130723571Y58621429D02*
X131009285Y58621429D01*
X131152142Y58550000D01*
X131295000Y58407143D01*
X131366428Y58121429D01*
X131366428Y57621429D01*
X131295000Y57335715D01*
X131152142Y57192858D01*
X131009285Y57121429D01*
X130723571Y57121429D01*
X130580714Y57192858D01*
X130437857Y57335715D01*
X130366428Y57621429D01*
X130366428Y58121429D01*
X130437857Y58407143D01*
X130580714Y58550000D01*
X130723571Y58621429D01*
X132009285Y57121429D02*
X132009285Y58621429D01*
X132580714Y58621429D01*
X132723571Y58550000D01*
X132795000Y58478572D01*
X132866428Y58335715D01*
X132866428Y58121429D01*
X132795000Y57978572D01*
X132723571Y57907143D01*
X132580714Y57835715D01*
X132009285Y57835715D01*
G36*
G01*
X91826000Y9000000D02*
X91826000Y6500000D01*
G75*
G02*
X91775000Y6449000I-51000J0D01*
G01*
X89275000Y6449000D01*
G75*
G02*
X89224000Y6500000I0J51000D01*
G01*
X89224000Y9000000D01*
G75*
G02*
X89275000Y9051000I51000J0D01*
G01*
X91775000Y9051000D01*
G75*
G02*
X91826000Y9000000I0J-51000D01*
G01*
G37*
D16*
X86715000Y7750000D03*
X82905000Y7750000D03*
X79095000Y7750000D03*
X75285000Y7750000D03*
X71475000Y7750000D03*
G36*
G01*
X78500000Y23949000D02*
X73500000Y23949000D01*
G75*
G02*
X73449000Y24000000I0J51000D01*
G01*
X73449000Y26000000D01*
G75*
G02*
X73500000Y26051000I51000J0D01*
G01*
X78500000Y26051000D01*
G75*
G02*
X78551000Y26000000I0J-51000D01*
G01*
X78551000Y24000000D01*
G75*
G02*
X78500000Y23949000I-51000J0D01*
G01*
G37*
G36*
G01*
X78500000Y34949000D02*
X73500000Y34949000D01*
G75*
G02*
X73449000Y35000000I0J51000D01*
G01*
X73449000Y37000000D01*
G75*
G02*
X73500000Y37051000I51000J0D01*
G01*
X78500000Y37051000D01*
G75*
G02*
X78551000Y37000000I0J-51000D01*
G01*
X78551000Y35000000D01*
G75*
G02*
X78500000Y34949000I-51000J0D01*
G01*
G37*
D17*
X8500000Y48500000D03*
X65900000Y48500000D03*
D18*
X52820000Y5510000D03*
D19*
X14870000Y46510000D03*
X59070000Y46510000D03*
X59070000Y4510000D03*
X14870000Y4510000D03*
D18*
X21120000Y5510000D03*
D20*
X2500000Y61500000D03*
X9250000Y2250000D03*
D21*
X4010000Y5790000D03*
D22*
X6000000Y55000000D03*
X104000000Y55000000D03*
D23*
X99010000Y5790000D03*
D24*
X72390000Y30750000D03*
G36*
G01*
X80846000Y31535000D02*
X80846000Y29965000D01*
G75*
G02*
X80795000Y29914000I-51000J0D01*
G01*
X79225000Y29914000D01*
G75*
G02*
X79174000Y29965000I0J51000D01*
G01*
X79174000Y31535000D01*
G75*
G02*
X79225000Y31586000I51000J0D01*
G01*
X80795000Y31586000D01*
G75*
G02*
X80846000Y31535000I0J-51000D01*
G01*
G37*
G36*
G01*
X96801000Y43550000D02*
X96801000Y42050000D01*
G75*
G02*
X96750000Y41999000I-51000J0D01*
G01*
X94250000Y41999000D01*
G75*
G02*
X94199000Y42050000I0J51000D01*
G01*
X94199000Y43550000D01*
G75*
G02*
X94250000Y43601000I51000J0D01*
G01*
X96750000Y43601000D01*
G75*
G02*
X96801000Y43550000I0J-51000D01*
G01*
G37*
G36*
G01*
X89801000Y43550000D02*
X89801000Y42050000D01*
G75*
G02*
X89750000Y41999000I-51000J0D01*
G01*
X87250000Y41999000D01*
G75*
G02*
X87199000Y42050000I0J51000D01*
G01*
X87199000Y43550000D01*
G75*
G02*
X87250000Y43601000I51000J0D01*
G01*
X89750000Y43601000D01*
G75*
G02*
X89801000Y43550000I0J-51000D01*
G01*
G37*
G36*
G01*
X89801000Y37550000D02*
X89801000Y36050000D01*
G75*
G02*
X89750000Y35999000I-51000J0D01*
G01*
X87250000Y35999000D01*
G75*
G02*
X87199000Y36050000I0J51000D01*
G01*
X87199000Y37550000D01*
G75*
G02*
X87250000Y37601000I51000J0D01*
G01*
X89750000Y37601000D01*
G75*
G02*
X89801000Y37550000I0J-51000D01*
G01*
G37*
G36*
G01*
X96801000Y37550000D02*
X96801000Y36050000D01*
G75*
G02*
X96750000Y35999000I-51000J0D01*
G01*
X94250000Y35999000D01*
G75*
G02*
X94199000Y36050000I0J51000D01*
G01*
X94199000Y37550000D01*
G75*
G02*
X94250000Y37601000I51000J0D01*
G01*
X96750000Y37601000D01*
G75*
G02*
X96801000Y37550000I0J-51000D01*
G01*
G37*
G36*
G01*
X96801000Y31550000D02*
X96801000Y30050000D01*
G75*
G02*
X96750000Y29999000I-51000J0D01*
G01*
X94250000Y29999000D01*
G75*
G02*
X94199000Y30050000I0J51000D01*
G01*
X94199000Y31550000D01*
G75*
G02*
X94250000Y31601000I51000J0D01*
G01*
X96750000Y31601000D01*
G75*
G02*
X96801000Y31550000I0J-51000D01*
G01*
G37*
G36*
G01*
X89801000Y31550000D02*
X89801000Y30050000D01*
G75*
G02*
X89750000Y29999000I-51000J0D01*
G01*
X87250000Y29999000D01*
G75*
G02*
X87199000Y30050000I0J51000D01*
G01*
X87199000Y31550000D01*
G75*
G02*
X87250000Y31601000I51000J0D01*
G01*
X89750000Y31601000D01*
G75*
G02*
X89801000Y31550000I0J-51000D01*
G01*
G37*
G36*
G01*
X89801000Y25550000D02*
X89801000Y24050000D01*
G75*
G02*
X89750000Y23999000I-51000J0D01*
G01*
X87250000Y23999000D01*
G75*
G02*
X87199000Y24050000I0J51000D01*
G01*
X87199000Y25550000D01*
G75*
G02*
X87250000Y25601000I51000J0D01*
G01*
X89750000Y25601000D01*
G75*
G02*
X89801000Y25550000I0J-51000D01*
G01*
G37*
G36*
G01*
X96801000Y25550000D02*
X96801000Y24050000D01*
G75*
G02*
X96750000Y23999000I-51000J0D01*
G01*
X94250000Y23999000D01*
G75*
G02*
X94199000Y24050000I0J51000D01*
G01*
X94199000Y25550000D01*
G75*
G02*
X94250000Y25601000I51000J0D01*
G01*
X96750000Y25601000D01*
G75*
G02*
X96801000Y25550000I0J-51000D01*
G01*
G37*
G36*
G01*
X96801000Y19550000D02*
X96801000Y18050000D01*
G75*
G02*
X96750000Y17999000I-51000J0D01*
G01*
X94250000Y17999000D01*
G75*
G02*
X94199000Y18050000I0J51000D01*
G01*
X94199000Y19550000D01*
G75*
G02*
X94250000Y19601000I51000J0D01*
G01*
X96750000Y19601000D01*
G75*
G02*
X96801000Y19550000I0J-51000D01*
G01*
G37*
G36*
G01*
X89801000Y19550000D02*
X89801000Y18050000D01*
G75*
G02*
X89750000Y17999000I-51000J0D01*
G01*
X87250000Y17999000D01*
G75*
G02*
X87199000Y18050000I0J51000D01*
G01*
X87199000Y19550000D01*
G75*
G02*
X87250000Y19601000I51000J0D01*
G01*
X89750000Y19601000D01*
G75*
G02*
X89801000Y19550000I0J-51000D01*
G01*
G37*
D25*
X80100000Y56950000D03*
X90350000Y57000000D03*
G36*
G01*
X35819000Y59950000D02*
X35819000Y61550000D01*
G75*
G02*
X35870000Y61601000I51000J0D01*
G01*
X37470000Y61601000D01*
G75*
G02*
X37521000Y61550000I0J-51000D01*
G01*
X37521000Y59950000D01*
G75*
G02*
X37470000Y59899000I-51000J0D01*
G01*
X35870000Y59899000D01*
G75*
G02*
X35819000Y59950000I0J51000D01*
G01*
G37*
D26*
X39210000Y60750000D03*
X41750000Y60750000D03*
X44290000Y60750000D03*
X46830000Y60750000D03*
G36*
G01*
X61191000Y61600000D02*
X61191000Y59900000D01*
G75*
G02*
X61140000Y59849000I-51000J0D01*
G01*
X59440000Y59849000D01*
G75*
G02*
X59389000Y59900000I0J51000D01*
G01*
X59389000Y61600000D01*
G75*
G02*
X59440000Y61651000I51000J0D01*
G01*
X61140000Y61651000D01*
G75*
G02*
X61191000Y61600000I0J-51000D01*
G01*
G37*
D27*
X57750000Y60750000D03*
X55210000Y60750000D03*
D28*
X14250000Y53600000D03*
D16*
X64150000Y6500000D03*
X10250000Y6500000D03*
D20*
X95000000Y61500000D03*
D29*
X6140000Y23400000D03*
X3600000Y23400000D03*
G36*
G01*
X509000Y22650000D02*
X509000Y24150000D01*
G75*
G02*
X560000Y24201000I51000J0D01*
G01*
X1560000Y24201000D01*
G75*
G02*
X1611000Y24150000I0J-51000D01*
G01*
X1611000Y22650000D01*
G75*
G02*
X1560000Y22599000I-51000J0D01*
G01*
X560000Y22599000D01*
G75*
G02*
X509000Y22650000I0J51000D01*
G01*
G37*
D30*
X104100000Y17450000D03*
X104100000Y13050000D03*
D31*
X23050000Y52250000D03*
X21950000Y52250000D03*
D32*
X25000000Y57250000D03*
X20000000Y57250000D03*
M02*
