M48
; DRILL file {KiCad (5.1.7)-1} date 12/03/20 10:55:39
; FORMAT={-:-/ absolute / metric / decimal}
; #@! TF.CreationDate,2020-12-03T10:55:39+01:00
; #@! TF.GenerationSoftware,Kicad,Pcbnew,(5.1.7)-1
FMAT,2
METRIC
T1C0.400
T2C0.500
T3C0.700
T4C0.800
T5C1.000
T6C1.400
T7C1.500
T8C1.000
T9C1.500
T10C3.000
T11C5.000
T12C5.200
T13C6.000
%
G90
G05
T1
X2.0Y16.75
X6.74Y44.47
X8.5Y27.0
X10.06Y12.44
X10.25Y26.0
X11.5Y39.25
X11.55Y44.45
X12.461Y37.551
X12.5Y29.75
X13.2Y39.8
X13.75Y30.5
X15.01Y17.64
X16.0Y23.25
X16.75Y38.75
X17.2Y58.7
X17.3Y59.8
X17.432Y61.3
X17.475Y32.8
X18.0Y41.25
X19.0Y60.6
X19.19Y11.81
X19.425Y32.575
X19.75Y41.25
X20.0Y51.75
X20.5Y18.25
X20.75Y31.75
X21.25Y19.75
X22.25Y29.25
X23.25Y23.75
X23.25Y14.75
X23.5Y12.0
X24.25Y29.25
X24.3Y44.0
X25.0Y51.7
X25.0Y41.0
X25.0Y40.0
X25.25Y23.25
X25.75Y27.75
X27.0Y27.75
X27.1Y44.9
X27.7Y23.65
X27.95Y49.75
X28.31Y41.753
X28.442Y40.715
X28.65Y28.575
X28.75Y36.225
X29.25Y26.75
X29.25Y23.25
X30.25Y22.19
X30.25Y10.75
X30.5Y36.25
X31.238Y43.05
X31.25Y19.0
X31.25Y26.75
X31.68Y41.05
X31.889Y11.338
X32.25Y44.465
X32.5Y42.75
X32.5Y41.75
X32.555Y40.35
X32.78Y38.46
X32.81Y19.996
X33.0Y10.5
X33.25Y26.75
X33.4Y47.4
X33.59Y18.533
X35.5Y10.5
X35.5Y9.5
X35.53Y34.33
X35.995Y40.753
X37.0Y43.75
X37.0Y40.8
X37.216Y19.45
X39.05Y49.75
X39.25Y23.0
X40.85Y30.054
X41.14Y35.5
X41.2Y37.5
X41.55Y29.225
X42.0Y28.3
X42.375Y25.675
X42.392Y27.362
X42.75Y43.5
X42.984Y26.512
X43.0Y50.0
X44.22Y48.96
X47.0Y47.25
X47.225Y50.7
X47.245Y56.56
X48.5Y48.96
X51.0Y27.225
X51.0Y24.5
X51.05Y25.875
X51.2Y20.0
X52.775Y24.05
X53.0Y47.0
X54.025Y47.05
X54.09Y39.69
X54.755Y36.44
X54.755Y29.94
X56.425Y55.65
X56.506Y56.647
X56.75Y26.56
X56.95Y11.55
X57.5Y41.0
X58.5Y14.0
X58.703Y23.05
X58.75Y36.5
X58.75Y29.55
X58.75Y27.76
X58.95Y33.45
X60.1Y14.0
X62.05Y33.45
X63.75Y32.5
X63.8Y35.0
X63.85Y36.25
X66.0Y14.0
X66.0Y12.75
X66.5Y20.4
X68.25Y57.04
X69.6Y57.045
X70.6Y48.0
X70.89Y57.045
X71.0Y17.75
X71.11Y24.03
X71.25Y2.5
X71.5Y16.25
X71.8Y48.0
X72.16Y57.045
X73.15Y16.45
X73.43Y57.045
X74.7Y57.045
X75.25Y1.75
X78.005Y27.44
X81.5Y45.25
X81.5Y42.75
X81.95Y27.45
X81.95Y22.8
X81.95Y13.3
X84.487Y22.747
X85.125Y18.55
X85.25Y15.75
X85.3Y13.8
X86.005Y31.56
X86.55Y24.8
X88.5Y29.4
X88.6Y20.5
X88.79Y16.11
X93.0Y50.25
X93.0Y47.75
X93.255Y16.235
X93.375Y29.75
X93.4Y20.2
X94.09Y13.0
X94.6Y21.8
X95.0Y50.25
X95.0Y47.75
X97.8Y20.2
X98.0Y27.75
X98.23Y15.74
X99.25Y26.5
X99.75Y13.65
X101.25Y48.25
X102.05Y29.75
X102.2Y0.9
X102.44Y23.7
X103.3Y0.9
X103.8Y7.0
X104.0Y27.6
X104.99Y23.88
X105.75Y8.95
X106.25Y48.25
T2
X21.95Y52.25
X23.05Y52.25
T3
X14.25Y53.6
X1.06Y23.4
X3.6Y23.4
X6.14Y23.4
T4
X72.39Y30.75
X80.01Y30.75
T5
X55.21Y60.75
X57.75Y60.75
X60.29Y60.75
X36.67Y60.75
X39.21Y60.75
X41.75Y60.75
X44.29Y60.75
X46.83Y60.75
X20.0Y57.25
X25.0Y57.25
X80.1Y56.95
X90.35Y57.0
T6
X71.475Y7.75
X75.285Y7.75
X79.095Y7.75
X82.905Y7.75
X86.715Y7.75
X90.525Y7.75
T7
X10.25Y6.5
X64.15Y6.5
T8
X104.1Y17.45
X104.1Y13.05
T9
X8.5Y48.5
X65.9Y48.5
T11
X99.01Y5.79
T12
X6.0Y55.0
X104.0Y55.0
T13
X4.01Y5.79
T5
G00X20.12Y5.51
M15
G01X22.12Y5.51
M16
G05
G00X51.82Y5.51
M15
G01X53.82Y5.51
M16
G05
T10
G00X13.37Y46.51
M15
G01X16.37Y46.51
M16
G05
G00X13.37Y4.51
M15
G01X16.37Y4.51
M16
G05
G00X57.57Y46.51
M15
G01X60.57Y46.51
M16
G05
G00X57.57Y4.51
M15
G01X60.57Y4.51
M16
G05
T0
M30
